<svg preserveAspectRatio="none" width="100%" height="100%" overflow="visible" style="display: block;" viewBox="0 0 9.24979 11.7238" fill="none" xmlns="http://www.w3.org/2000/svg">
<path id="Vector 43" d="M4.07248 2.52737C4.23633 2.01262 4.40018 1.49786 4.56404 0.983112C3.53453 0.655408 2.50502 0.327704 1.47552 0C1.31167 0.514753 1.14781 1.02951 0.983962 1.54426C0.882548 1.86287 0.786663 2.18428 0.697179 2.50885C0.066669 4.86468 -0.36371 7.47947 0.433714 10.1998C0.436673 10.2095 0.439618 10.2192 0.44255 10.2289C0.550869 10.6163 0.860647 11.0387 1.17692 11.2572C1.49326 11.4847 1.76992 11.5709 1.98499 11.6269C2.41726 11.7287 2.69342 11.7244 2.94937 11.7236C3.44833 11.7113 3.83253 11.6485 4.2094 11.5301C4.30733 11.4989 4.56851 11.3693 4.65416 11.3125C4.66231 11.307 4.67044 11.3016 4.67853 11.2961C7.10885 9.6603 8.7919 6.94476 9.22989 4.06886C9.26676 3.93666 9.2455 3.57935 9.22155 3.44422C9.22145 3.44387 9.22136 3.44352 9.22126 3.44317C9.10097 3.00195 8.76212 2.67559 8.42072 2.51672C7.96135 2.29831 7.49641 2.30451 7.12517 2.23074C7.06454 2.21903 7.0039 2.20732 6.94326 2.19561C6.85593 2.28295 6.76859 2.37028 6.68125 2.45762C6.69296 2.51826 6.70467 2.57889 6.71637 2.63953C6.78857 3.01013 6.7727 3.46063 6.67861 3.75475C6.61225 3.98141 6.49437 4.08441 6.48483 4.10544C6.48482 4.10546 6.48482 4.10548 6.48481 4.1055L6.47647 3.48086C5.87915 5.53455 4.38482 7.16163 2.66376 8.32495C2.65797 8.32887 2.6522 8.33282 2.64644 8.33678L3.0912 8.1191C2.89907 8.1854 2.69857 8.2745 2.60136 8.32587C2.55944 8.35463 2.53184 8.35933 2.67008 8.40047C2.73951 8.42541 2.87081 8.46052 3.06484 8.60123C3.25838 8.73395 3.47466 9.02969 3.53968 9.2726C3.53772 9.26647 3.5358 9.26032 3.53392 9.25416C3.00958 7.53721 3.25871 5.40985 3.82182 3.37028C3.89931 3.08922 3.9831 2.80817 4.07248 2.52737Z" fill="var(--stroke-0, black)"/>
</svg>
