<svg preserveAspectRatio="none" width="100%" height="100%" overflow="visible" style="display: block;" viewBox="0 0 12.6324 16.2059" fill="none" xmlns="http://www.w3.org/2000/svg">
<path id="Vector 16" d="M1.98548 8.2374C2.29621 8.54815 2.60694 8.8589 2.91767 9.16965C3.53917 8.54819 4.16067 7.92673 4.78217 7.30526C4.47143 6.99451 4.1607 6.68377 3.84997 6.37302C3.81541 6.3415 3.63015 6.09749 3.51106 5.90897C3.37994 5.7064 3.25325 5.48914 3.13371 5.26644C2.9464 4.91733 2.77517 4.55241 2.62062 4.17898C2.61695 4.17011 2.61332 4.1612 2.60973 4.15226C2.64105 4.21558 2.66678 4.35004 2.66375 4.42806C2.66285 4.50852 2.6633 4.52708 2.69721 4.51053C2.76308 4.47273 2.92932 4.34629 3.12894 4.17784C3.13306 4.1743 3.13719 4.17076 3.14134 4.16722C4.5452 2.96628 7.27439 2.92192 9.87757 3.01136C9.89412 3.01183 9.91064 3.01258 9.92714 3.01359C9.72959 3.02741 9.45453 2.95113 9.30979 2.86154C9.15865 2.77237 9.05052 2.6679 9.05297 2.4811C9.05345 2.46742 9.05434 2.4534 9.05566 2.43903C8.73054 4.90429 5.13383 6.85894 2.0734 9.92885C2.04841 9.95635 2.02381 9.98389 1.9992 10.012C1.45772 10.6345 0.714427 11.6658 0.865217 13.1175C0.870488 13.1638 0.876766 13.2099 0.883971 13.2554C1.13476 14.6751 2.06461 15.5683 3.0869 16.0329C3.10967 16.043 3.1324 16.0528 3.15509 16.0624C4.50779 16.5678 5.33534 15.5881 6.03446 15.435C6.04052 15.4334 6.04658 15.432 6.05265 15.4305C6.19224 15.3976 6.33782 15.3691 6.48909 15.3404C7.09755 15.2333 7.86382 15.0617 8.41692 14.6172C8.55275 14.5061 8.68857 14.3949 8.8244 14.2837C8.64641 13.9812 8.46842 13.6786 8.29044 13.376C8.12728 13.4407 7.96412 13.5054 7.80096 13.5701C7.37339 13.7203 6.97397 13.732 6.45046 13.6392C6.32358 13.6167 6.19111 13.5884 6.05258 13.5555C6.04656 13.5541 6.04052 13.5526 6.03446 13.5511C5.32822 13.3886 4.69707 12.4518 4.72952 12.4108C4.72924 12.4105 4.72914 12.4103 4.72922 12.4101C4.71171 12.4072 4.77068 12.3551 4.83477 12.63C4.8362 12.6389 4.83744 12.6483 4.83848 12.6579C4.85071 12.7592 4.80726 12.8396 4.80656 12.805C4.80426 12.776 4.85082 12.668 4.94986 12.5478C4.95826 12.5375 4.96693 12.527 4.97603 12.5163C6.96614 10.0248 11.5501 8.35656 12.617 2.83917C12.6226 2.78679 12.6267 2.73464 12.6293 2.68277C12.7008 1.32775 11.5366 0.0217798 10.0005 0.0124508C9.98389 0.0126497 9.96728 0.0125884 9.95063 0.0122502C7.29253 0.0317726 4.12116 -0.345029 1.21663 1.93758C1.2111 1.94238 1.20554 1.94723 1.19993 1.95213C0.924606 2.19701 0.625903 2.50828 0.347296 3.00137C0.0687573 3.45045 -0.176381 4.40689 0.170904 5.15511C0.175385 5.1658 0.179832 5.17647 0.184246 5.18714C0.370255 5.63641 0.577152 6.0784 0.81046 6.51336C1.13472 7.08824 1.36317 7.5504 1.98548 8.2374Z" fill="var(--stroke-0, black)"/>
</svg>
