<svg preserveAspectRatio="none" width="100%" height="100%" overflow="visible" style="display: block;" viewBox="0 0 3.22601 8.51813" fill="none" xmlns="http://www.w3.org/2000/svg">
<path id="Vector 28" d="M3.22601 0.929688C3.22601 0.619792 3.22601 0.309896 3.22601 0C2.60621 0 1.98642 0 1.36663 0C1.36663 0.309896 1.36663 0.619792 1.36663 0.929688C1.3668 0.96169 1.35475 1.11681 1.34301 1.2293C1.24414 2.15641 1.08651 3.12618 0.918047 4.07979C0.917972 4.08021 0.917898 4.08062 0.917823 4.08104L0.930653 4.02068C0.791832 4.60106 0.462052 5.04718 0.188633 5.74365C0.188623 5.74367 0.188614 5.74369 0.188605 5.74372C-0.0858038 6.51101 -0.0314708 7.18181 0.164687 8.04128C0.202557 8.19529 0.247058 8.35324 0.297887 8.5161C0.298007 8.51648 0.298127 8.51686 0.298247 8.51724C0.298988 8.51754 0.299729 8.51783 0.300469 8.51813C0.300818 8.51794 0.301167 8.51774 0.301515 8.51755C0.450474 8.43435 0.591066 8.34807 0.723574 8.25768C1.45085 7.77724 1.93667 7.07095 2.14784 6.48209C2.14785 6.48207 2.14785 6.48205 2.14786 6.48203C2.35628 5.94693 2.56937 5.17882 2.73556 4.46745C2.73853 4.45544 2.74622 4.41927 2.74839 4.40709C2.74847 4.40666 2.74854 4.40623 2.74862 4.4058C2.92236 3.41919 3.08264 2.44643 3.19302 1.41565C3.20652 1.26734 3.2216 1.16082 3.22601 0.929688Z" fill="var(--stroke-0, black)"/>
</svg>
