<svg preserveAspectRatio="none" width="100%" height="100%" overflow="visible" style="display: block;" viewBox="0 0 10.1257 9.3463" fill="none" xmlns="http://www.w3.org/2000/svg">
<path id="Vector 142" d="M1.21971 3.6895C0.975742 3.75027 0.765901 3.90546 0.636352 4.12094C0.506803 4.33642 0.468159 4.59453 0.528921 4.83851C0.589683 5.08248 0.744875 5.29232 0.960354 5.42187C1.17583 5.55142 1.43395 5.59006 1.67792 5.5293C1.67792 5.5293 1.67792 5.5293 1.67792 5.5293C2.46172 5.32384 3.10393 5.05309 3.76518 4.77431C5.43218 4.05179 7.0184 3.24555 8.59034 2.35903C8.82385 2.22625 9.05588 2.09147 9.28749 1.95264C9.37977 1.89701 9.47137 1.84581 9.49417 1.83534C9.47811 1.83546 9.54768 1.83643 9.30065 1.88911C9.21503 1.89415 9.07452 1.9406 8.76561 1.80828C8.6162 1.74078 8.43424 1.5882 8.33693 1.39675C8.23608 1.21135 8.22277 1.00289 8.22942 0.912021C8.2513 0.645829 8.31825 0.564757 8.3483 0.501391C8.41785 0.387047 8.4269 0.390594 8.43201 0.38172C8.45301 0.359123 8.4165 0.39705 8.3896 0.420979C8.26516 0.5345 8.089 0.680566 7.93416 0.807498C7.60633 1.07559 7.27075 1.34155 6.93319 1.60793C6.25485 2.14261 5.57176 2.67406 4.89038 3.20625C3.52469 4.27565 2.15513 5.33621 0.804399 6.47509C0.704467 6.55998 0.597383 6.6519 0.501668 6.73519C0.446888 6.7834 0.421766 6.80444 0.350199 6.87275C0.319306 6.9082 0.297513 6.90499 0.164662 7.09164C0.137674 7.1345 0.102223 7.18771 0.0601391 7.30085C0.0268854 7.41111 -0.0565975 7.61351 0.0599344 7.96864C0.155552 8.33573 0.663366 8.59178 0.725298 8.58118C0.870928 8.61942 0.969425 8.61717 1.04263 8.61363C1.3089 8.58735 1.36022 8.53594 1.38732 8.53073C1.43779 8.50902 1.46852 8.49291 1.49776 8.47747C1.66423 8.38553 1.72397 8.34341 1.82566 8.27954C2.0039 8.16538 2.17586 8.05173 2.34287 7.94166C2.67976 7.71928 3.0139 7.49801 3.34609 7.28194C3.97441 6.87417 4.79834 6.34657 5.18402 6.18766C5.18218 6.18824 5.17716 6.18983 5.16759 6.19226C5.17657 6.18882 5.1905 6.1914 5.1168 6.19704C5.07798 6.19633 5.0357 6.20848 4.8735 6.1692C4.79436 6.14475 4.7146 6.1266 4.55906 6.01375C4.41882 5.91256 4.28649 5.72273 4.23866 5.56968C4.18443 5.41172 4.184 5.27162 4.1927 5.18417C4.19981 5.11293 4.2129 5.06109 4.22476 5.02191C4.2518 4.93877 4.2612 4.92847 4.2709 4.90815C4.28741 4.87848 4.28155 4.89097 4.27143 4.90398C4.22284 4.97055 4.10408 5.10058 3.98828 5.21683C3.74931 5.45726 3.47948 5.70329 3.20557 5.94743C2.64409 6.45204 2.12031 6.86766 1.4596 7.47944C1.41076 7.52842 1.37345 7.56561 1.32129 7.62054C1.30631 7.63658 1.28732 7.65622 1.25585 7.69363C1.24871 7.70238 1.2569 7.69182 1.233 7.7219C1.21856 7.74079 1.20105 7.76233 1.16801 7.81497C1.14397 7.89118 1.0515 7.87961 1.01748 8.35889C1.01952 8.48563 1.04635 8.67612 1.16988 8.87437C1.28959 9.07377 1.50977 9.23009 1.68691 9.2875C2.05232 9.3981 2.20151 9.32213 2.2981 9.30374C2.46961 9.24637 2.42416 9.25556 2.46952 9.23618C2.52222 9.20928 2.54733 9.19266 2.56813 9.17934C2.63928 9.13189 2.66021 9.11163 2.66794 9.10606C2.70391 9.07676 2.73212 9.05189 2.75082 9.03558C2.79905 8.99322 2.83039 8.96501 2.87196 8.92758C2.94516 8.86157 3.02165 8.79178 3.09267 8.7268C3.23803 8.59376 3.38431 8.45899 3.52617 8.32814C3.81402 8.06257 4.09956 7.79834 4.38555 7.53412C4.95261 7.01194 5.54361 6.45953 6.084 5.98599C6.10399 5.96855 6.12877 5.94776 6.17296 5.90012C6.21484 5.84124 6.29287 5.80885 6.39851 5.49714C6.44313 5.34368 6.48814 5.02795 6.28886 4.69917C6.07532 4.3589 5.7674 4.26779 5.62475 4.24032C5.32278 4.19689 5.26868 4.24224 5.20264 4.24993C5.08138 4.28224 5.10792 4.27857 5.08441 4.28582C5.07025 4.29105 5.05938 4.29538 5.05003 4.29919C5.01044 4.31565 5.00502 4.31874 4.99172 4.32479C4.96622 4.33677 4.95692 4.34149 4.94222 4.34878C4.91754 4.36111 4.89673 4.37183 4.87759 4.38174C4.83869 4.40191 4.80311 4.42067 4.76788 4.4393C4.6978 4.47639 4.62988 4.51261 4.56243 4.54848C4.4292 4.61935 4.29796 4.68897 4.17046 4.75476C4.10703 4.78746 4.04403 4.81946 3.98743 4.84705C3.95892 4.86095 3.93228 4.87355 3.91349 4.88195C3.90505 4.88576 3.89726 4.88895 3.90138 4.88727C3.90484 4.88598 3.90671 4.88494 3.92692 4.87809C3.95304 4.87291 3.9531 4.85751 4.13736 4.8366C4.20739 4.83228 4.30512 4.82617 4.46297 4.86583C4.54603 4.89189 4.6151 4.90041 4.79511 5.02338C4.95334 5.13407 5.09801 5.33207 5.15517 5.5181C5.2546 5.8992 5.18707 5.98008 5.16535 6.10285C5.13059 6.21537 5.1127 6.24163 5.09664 6.27551C5.02725 6.40176 5.01746 6.40011 5.0003 6.42477C4.97748 6.45256 4.97722 6.45135 4.97901 6.44976C4.98457 6.44387 5.00367 6.42479 5.02458 6.40446C5.06685 6.36331 5.11918 6.31325 5.17325 6.25994C5.26157 6.17226 5.35554 6.07863 5.46602 5.94533C5.52189 5.87619 5.5822 5.80163 5.65752 5.67103C5.69624 5.60055 5.73856 5.52426 5.78194 5.37826C5.81707 5.24022 5.88353 4.99199 5.74228 4.63609C5.52087 4.16713 5.22942 4.08859 5.10375 4.02751C4.9598 3.97322 4.87579 3.96014 4.79857 3.94662C4.65082 3.92379 4.55256 3.92093 4.4614 3.91755C4.29993 3.91296 4.16956 3.9207 4.07275 3.92696C4.027 3.93059 3.98517 3.93215 3.99483 3.93911C4.00236 3.94446 4.01829 3.94447 4.10895 3.98066C4.15494 4.00203 4.22527 4.02614 4.34868 4.13093C4.46237 4.21858 4.64315 4.48495 4.65109 4.74208C4.63047 5.27105 4.50399 5.23353 4.49718 5.27998C4.47442 5.3027 4.47513 5.29264 4.48114 5.27992C4.49499 5.2516 4.5292 5.20481 4.56613 5.15661C5.00004 4.62102 5.4824 4.00783 5.89796 3.40159C6.30327 2.81672 6.68412 2.22085 7.06154 1.62486C7.07626 1.60142 7.08115 1.57045 7.07727 1.54072C7.07326 1.51087 7.0608 1.48471 7.0405 1.46602C7.02019 1.44734 6.99309 1.43708 6.96302 1.43556C6.93307 1.43415 6.9026 1.44158 6.88047 1.4582C6.88047 1.4582 6.88047 1.4582 6.88047 1.4582C6.31994 1.88112 5.74679 2.28045 5.17034 2.66339C4.56426 3.07038 3.98124 3.41886 3.34821 3.8461C3.28401 3.89212 3.22124 3.93694 3.13937 4.00925C3.09752 4.04719 3.05218 4.08858 2.98955 4.165C2.95554 4.20827 2.91901 4.25469 2.87012 4.34679C2.82813 4.43634 2.74196 4.58735 2.75629 4.88784C2.76621 5.17742 2.96546 5.47302 3.10264 5.58033C3.25064 5.70609 3.35003 5.74421 3.42507 5.77673C3.57453 5.83512 3.65596 5.84736 3.72448 5.8614C3.861 5.88577 3.94554 5.89224 4.02686 5.89907C4.18413 5.91103 4.30789 5.91356 4.40027 5.91662C4.44859 5.91772 4.49103 5.9223 4.48097 5.92124C4.47338 5.91913 4.45633 5.92028 4.37867 5.89144C4.31719 5.85563 4.0919 5.81442 3.89852 5.41105C3.77855 5.1061 3.8387 4.91436 3.8591 4.82811C3.88694 4.73544 3.90645 4.70631 3.91775 4.68454C3.93949 4.64782 3.93402 4.66038 3.92111 4.67519C3.89342 4.70924 3.83507 4.77095 3.76913 4.8357C3.72763 4.87666 3.68248 4.91984 3.62896 4.9719C3.60097 4.99929 3.57376 5.02558 3.53219 5.06892C3.51033 5.09216 3.48668 5.1163 3.44399 5.16863C3.41486 5.20835 3.39638 5.21788 3.31849 5.35998C3.30072 5.39724 3.28121 5.42674 3.24496 5.54422C3.22203 5.67161 3.15393 5.75519 3.25456 6.14074C3.3124 6.32885 3.4583 6.52853 3.61833 6.64054C3.80046 6.76497 3.87083 6.77386 3.95567 6.80043C4.11701 6.84101 4.21921 6.83515 4.29475 6.83039C4.49448 6.80821 4.51541 6.78656 4.55906 6.77556C4.60052 6.76154 4.61512 6.75561 4.63846 6.7465C4.67684 6.73123 4.70605 6.71837 4.73071 6.70737C4.78219 6.68425 4.82245 6.66492 4.8635 6.64497C4.94298 6.60619 5.01556 6.56919 5.08717 6.5323C5.22985 6.45867 5.36654 6.38609 5.50174 6.31419C5.56987 6.27795 5.63764 6.24181 5.7031 6.20717C5.73573 6.18991 5.76823 6.17279 5.79756 6.1576C5.81164 6.1503 5.82633 6.14278 5.83521 6.13835C5.83954 6.13617 5.84356 6.1343 5.83808 6.13688C5.8335 6.13889 5.83506 6.13872 5.80616 6.15075C5.79907 6.15364 5.79024 6.15716 5.77792 6.16173C5.75632 6.1683 5.78393 6.16411 5.66692 6.19529C5.60243 6.20262 5.54947 6.24784 5.24817 6.20454C5.10586 6.17714 4.79818 6.08615 4.58476 5.74608C4.38559 5.41749 4.43061 5.10198 4.47515 4.94881C4.58062 4.63769 4.65811 4.60609 4.69905 4.54823C4.7423 4.50162 4.76575 4.48207 4.78401 4.46611C4.15937 5.01362 3.60642 5.5333 3.02834 6.06512C2.74172 6.32991 2.45616 6.59417 2.17006 6.85812C2.02919 6.98806 1.8841 7.12173 1.74251 7.25132C1.6735 7.31446 1.5994 7.38205 1.53271 7.44218C1.49551 7.47569 1.46621 7.50198 1.43282 7.53129C1.42133 7.54147 1.40024 7.55931 1.40758 7.55316C1.41023 7.5518 1.40985 7.54836 1.47526 7.50433C1.49414 7.49227 1.51764 7.47661 1.56904 7.45036C1.61362 7.43134 1.56819 7.4406 1.73837 7.38367C1.83438 7.36545 1.98314 7.28951 2.34826 7.40001C2.52525 7.45737 2.74531 7.61361 2.86495 7.81289C2.98841 8.01101 3.0152 8.20134 3.01724 8.3279C2.9832 8.80642 2.8913 8.79355 2.86841 8.86789C2.83653 8.91867 2.82076 8.93778 2.80867 8.95367C2.78938 8.97796 2.79639 8.96894 2.79112 8.97541C2.76925 9.00118 2.77196 8.99711 2.77573 8.99335C2.79425 8.97374 2.83212 8.93533 2.87381 8.89366C3.31992 8.48199 3.97293 7.94498 4.53529 7.44137C4.8257 7.18218 5.11291 6.92197 5.40889 6.62463C5.55842 6.47146 5.70294 6.32681 5.87968 6.09289C5.92469 6.03096 5.97169 5.96699 6.035 5.85045C6.06859 5.78434 6.09287 5.74409 6.1373 5.60688C6.15638 5.54406 6.17413 5.47023 6.18322 5.37869C6.19452 5.26571 6.19213 5.1001 6.13069 4.92143C6.07605 4.74794 5.92994 4.53796 5.77035 4.42228C5.59279 4.29333 5.49597 4.26908 5.39439 4.23822C5.18329 4.18635 5.09653 4.19843 5.01177 4.1998C4.82487 4.21354 4.7776 4.2302 4.6757 4.25369C4.63983 4.26281 4.60689 4.27246 4.57558 4.28245C3.46439 4.74802 2.98069 5.1689 2.25502 5.62894C1.91691 5.85522 1.58093 6.08457 1.25049 6.30885C1.08765 6.41927 0.918797 6.53364 0.762745 6.63603C0.685954 6.68667 0.591309 6.74593 0.575353 6.75475C0.578059 6.75352 0.58655 6.74839 0.619312 6.73425C0.638499 6.73267 0.66567 6.69022 0.924683 6.66361C0.995558 6.6602 1.0921 6.65781 1.23615 6.69562C1.29694 6.68485 1.80193 6.93937 1.89705 7.30445C2.01284 7.65752 1.92962 7.8571 1.89767 7.96374C1.85689 8.07327 1.82378 8.12208 1.80019 8.15974C1.68503 8.31882 1.71329 8.2655 1.71098 8.27324C1.72678 8.2577 1.75072 8.23564 1.78855 8.20215C1.87617 8.12457 1.97608 8.03763 2.07035 7.95662C3.35579 6.85989 4.72135 5.78556 6.07442 4.71353C6.75146 4.17831 7.43179 3.64323 8.11499 3.10017C8.45569 2.829 8.79403 2.55905 9.1394 2.27504C9.30659 2.13668 9.48234 1.99248 9.67368 1.81795C9.72365 1.77099 9.77294 1.72821 9.85933 1.63153C9.87477 1.61097 9.91267 1.58067 9.99498 1.44343C10.0316 1.36867 10.102 1.27838 10.1242 1.00521C10.131 0.911788 10.1172 0.69983 10.0151 0.512203C9.91657 0.318383 9.73262 0.163958 9.58047 0.0951614C9.26607 -0.0397664 9.11707 0.00621277 9.01988 0.0129814C8.81392 0.0526779 8.839 0.0594602 8.7772 0.0795161C8.73552 0.0959314 8.69435 0.115091 8.67235 0.125716C8.51809 0.201915 8.43062 0.255964 8.31142 0.326663C8.09569 0.456318 7.87587 0.58421 7.65323 0.710806C6.15243 1.55793 4.5886 2.35173 3.01809 3.03171C2.40839 3.29148 1.77184 3.54729 1.21971 3.6895Z" fill="var(--stroke-0, #3B1B1B)"/>
</svg>
