<svg preserveAspectRatio="none" width="100%" height="100%" overflow="visible" style="display: block;" viewBox="0 0 7.83837 17.3192" fill="none" xmlns="http://www.w3.org/2000/svg">
<path id="Vector 39" d="M7.12723 3.02234C7.36428 2.48899 7.60132 1.95563 7.83837 1.42228C6.77166 0.948187 5.70496 0.474093 4.63825 0C4.4012 0.533354 4.16415 1.06671 3.92711 1.60006C3.82712 1.82503 3.72727 2.05 3.6276 2.27505C2.78109 4.19092 1.93334 6.11927 1.16732 8.12948C1.16715 8.12992 1.16699 8.13035 1.16682 8.13079C1.15692 8.15687 1.13047 8.23586 1.12267 8.26264C0.663208 9.85781 0.292801 11.455 0.0273247 13.1858C0.0272036 13.1866 0.0270829 13.1874 0.0269625 13.1883C0.0225924 13.2069 0.0153768 13.2637 0.0121243 13.2826C-0.0382624 14.0918 0.083142 14.5946 0.107456 15.3242C0.119251 15.5647 0.124567 15.8102 0.118043 16.0544C0.108904 16.3457 0.0997646 16.637 0.0906255 16.9283C0.658762 17.0586 1.2269 17.1889 1.79503 17.3192C1.91375 17.053 2.03247 16.7869 2.15119 16.5207C2.25456 16.2857 2.36576 16.0498 2.47608 15.8121C2.79349 15.1652 3.10546 14.2753 3.19151 13.686L3.17667 13.7803C3.17684 13.7796 3.177 13.7789 3.17716 13.7783C3.5352 12.3151 4.042 10.7739 4.48491 9.24194L4.44075 9.37379C4.44091 9.37338 4.44107 9.37297 4.44122 9.37256C5.16013 7.48474 5.99003 5.59236 6.82959 3.69312C6.92847 3.46985 7.02771 3.24627 7.12723 3.02234Z" fill="var(--stroke-0, black)"/>
</svg>
