<svg preserveAspectRatio="none" width="100%" height="100%" overflow="visible" style="display: block;" viewBox="0 0 7.00942 7.28138" fill="none" xmlns="http://www.w3.org/2000/svg">
<path id="Vector 99" d="M0 6.42347C0 6.651 0.0903867 6.86921 0.251276 7.0301C0.412165 7.19099 0.630378 7.28138 0.85791 7.28138C1.08544 7.28138 1.30365 7.19099 1.46454 7.0301C1.62543 6.86921 1.71582 6.651 1.71582 6.42347C1.69904 6.69344 1.66622 6.67639 1.66107 6.70983C1.65185 6.73111 1.65015 6.73309 1.65038 6.7329C1.65147 6.73075 1.66098 6.71424 1.67333 6.69481C1.69747 6.65667 1.73005 6.60892 1.76552 6.55892C2.41225 5.67994 3.21074 4.76286 3.97534 3.87753L3.9659 3.88821C3.96706 3.88692 3.96822 3.88564 3.96937 3.88435C4.50824 3.28608 5.04853 2.69516 5.61041 2.15869C5.61098 2.15814 5.61156 2.15759 5.61214 2.15704C5.95 1.82923 6.19573 1.4739 6.55733 1.10744C6.65439 1.00743 6.75465 0.909416 6.85961 0.815494C6.9366 0.746514 6.9862 0.640032 7.00326 0.529079C7.01999 0.417569 7.0028 0.3107 6.9497 0.222375C6.8966 0.13405 6.81028 0.0687416 6.70395 0.0312093C6.59796 -0.00576508 6.48065 -0.0119114 6.38362 0.0237292C6.38362 0.0237292 6.38362 0.0237292 6.38362 0.0237292C6.24804 0.0744328 6.11042 0.121413 5.97035 0.16983C5.47395 0.333539 4.89925 0.57307 4.4984 0.933807C4.49773 0.934396 4.49706 0.934985 4.49638 0.935575C3.84403 1.5081 3.25535 2.11373 2.6935 2.7371C2.69229 2.73844 2.69109 2.73978 2.68988 2.74112C2.68798 2.74324 2.68231 2.74965 2.68044 2.7518C1.89511 3.66364 1.12573 4.5358 0.365952 5.56632C0.319174 5.63243 0.273779 5.698 0.223458 5.77726C0.196704 5.81974 0.170862 5.86172 0.139136 5.92039C0.122042 5.95254 0.105551 5.98382 0.0822308 6.03803C0.0645931 6.10134 0.0172908 6.12131 0 6.42347Z" fill="var(--stroke-0, #3B1B1B)"/>
</svg>
