<svg preserveAspectRatio="none" width="100%" height="100%" overflow="visible" style="display: block;" viewBox="0 0 9.12002 10.7375" fill="none" xmlns="http://www.w3.org/2000/svg">
<path id="Vector 10" d="M3.46129 1.63608C3.39825 1.09072 3.3352 0.545359 3.27215 0C2.18143 0.126093 1.09072 0.252185 0 0.378278C0.0630463 0.923637 0.126093 1.469 0.189139 2.01435C0.218809 2.27105 0.246496 2.52385 0.273177 2.78066C0.530652 4.9205 0.474306 6.87363 0.949396 9.44225C0.949867 9.44426 0.95034 9.44627 0.950813 9.44828C1.19898 10.5033 2.18145 11.0069 3.18313 10.593C5.64062 9.57994 7.4687 7.73599 8.77761 5.92007C8.77846 5.91888 8.77931 5.9177 8.78016 5.91652C9.01619 5.58413 9.16772 5.09176 9.10634 4.37015C9.06389 3.93977 8.9098 3.3686 8.48779 3.02722C8.44496 2.9994 8.4037 2.97159 8.36293 2.94379C8.2647 2.94235 8.16647 2.9409 8.06824 2.93945C8.02667 2.96604 7.98461 2.99262 7.94098 3.01917C7.51215 3.20712 7.16033 3.14165 6.87076 3.17252C6.40088 3.20116 6.03018 3.38816 5.77282 3.74074C5.76699 3.74879 5.76622 3.74985 5.76546 3.75092C4.59803 5.38646 3.47383 6.91323 1.92482 7.54887L4.15714 8.69359C4.15688 8.69248 4.15662 8.69138 4.15636 8.69027C3.82909 7.00113 3.79797 4.59507 3.54949 2.44034C3.52154 2.17129 3.49248 1.9059 3.46129 1.63608Z" fill="var(--stroke-0, black)"/>
</svg>
