<svg preserveAspectRatio="none" width="100%" height="100%" overflow="visible" style="display: block;" viewBox="0 0 12.2803 8.92673" fill="none" xmlns="http://www.w3.org/2000/svg">
<path id="Vector 38" d="M5.23333 3.49805C5.81634 3.49805 6.39935 3.49805 6.98236 3.49805C6.98236 2.33203 6.98236 1.16602 6.98236 0C6.39935 0 5.81634 0 5.23333 0C4.79738 0.000227571 4.38541 0.0569818 3.99746 0.148426C3.25143 0.32576 2.59841 0.626578 2.01625 0.973118C2.01567 0.973464 2.01509 0.973809 2.01451 0.974155C0.388848 2.18702 0.374219 3.19023 0.0948336 4.1272C0.0940788 4.131 0.0933291 4.13479 0.0925845 4.13859C-0.0962185 5.10734 -0.0446728 6.31807 0.708797 7.40637C0.763956 7.4848 0.948778 7.68803 1.02162 7.75038C1.02402 7.75243 1.02641 7.75447 1.02881 7.75651C2.65172 8.93711 3.74039 8.81375 4.86576 8.91838C5.97115 8.95484 7.0149 8.86712 8.04346 8.74875C8.05253 8.74941 8.07978 8.7466 8.08887 8.74698C8.0921 8.74651 8.09533 8.74604 8.09856 8.74557C9.32778 8.61521 10.6214 7.77148 11.4587 6.96996C11.6857 6.76796 11.9074 6.5667 12.1296 6.37364C12.1798 6.3298 12.2301 6.28596 12.2803 6.24212C12.2242 6.12116 12.168 6.00021 12.1118 5.87925C12.0459 5.88934 11.98 5.89942 11.9141 5.90951C11.6271 5.95284 11.3355 5.98256 11.0459 6.00063C9.84119 6.09618 8.94924 5.87731 7.93709 5.80077C7.9342 5.80063 7.93131 5.8005 7.92841 5.80036L7.97382 5.79859C7.02358 5.72486 6.08446 5.61345 5.21926 5.4522C4.78911 5.37146 4.37553 5.27615 4.03079 5.16621C3.69414 5.06809 3.39638 4.89307 3.44675 4.91574C3.4469 4.91587 3.44706 4.91601 3.44722 4.91615L3.76005 5.26015C3.76306 5.28006 3.67481 5.10112 3.72261 4.80899C3.72277 4.80787 3.72293 4.80676 3.72309 4.80564C3.7667 4.53319 3.81857 4.26426 3.87492 4.07769C3.91723 3.88754 4.03056 3.81745 3.80803 3.97742C3.80837 3.97722 3.80872 3.97701 3.80906 3.97681C4.15306 3.77094 4.49625 3.62436 4.80141 3.55283C4.95978 3.51531 5.10763 3.49793 5.23333 3.49805Z" fill="var(--stroke-0, black)"/>
</svg>
