<svg preserveAspectRatio="none" width="100%" height="100%" overflow="visible" style="display: block;" viewBox="0 0 26.3112 11.9743" fill="none" xmlns="http://www.w3.org/2000/svg">
<path id="Vector 138" d="M0.463506 10.1939C0.245709 10.3254 0.089061 10.538 0.0280219 10.7849C-0.0330171 11.0319 0.00655311 11.293 0.138028 11.5108C0.269502 11.7286 0.482111 11.8853 0.729083 11.9463C0.976056 12.0073 1.23716 11.9678 1.45496 11.8363C1.45496 11.8363 1.45496 11.8363 1.45496 11.8363C2.24708 11.4007 3.33032 10.9401 4.30147 10.5151C8.82582 8.57246 13.4418 6.74797 18.0429 4.9459C18.1093 4.91997 18.1759 4.89397 18.2427 4.86791C20.6313 3.92648 22.9937 3.05661 25.4192 2.0073C25.5209 1.96093 25.6199 1.91477 25.7267 1.86149C25.7498 1.8499 25.7665 1.84155 25.7935 1.82705C25.8006 1.8232 25.8086 1.81882 25.8205 1.81203C25.8351 1.80317 25.8047 1.82261 25.8685 1.78267C25.887 1.77028 25.9086 1.75746 25.9609 1.71471C25.9879 1.69144 26.0228 1.66396 26.0846 1.59154C26.1339 1.50972 26.2838 1.41944 26.3107 0.967378C26.3193 0.745278 26.196 0.436602 26.018 0.27579C25.8428 0.108863 25.6837 0.0587583 25.5805 0.0308533C25.372 -0.0161306 25.2993 0.00374138 25.2389 0.00660974C25.1293 0.0200711 25.1022 0.0318623 25.0731 0.0391307C24.9244 0.0875982 24.9705 0.0764117 24.9562 0.080516C24.9519 0.0823308 24.9478 0.0840487 24.9438 0.0857371C24.9168 0.0970434 24.8679 0.118804 24.8547 0.124734C24.8152 0.142328 24.7451 0.174067 24.7098 0.190121C24.6165 0.23254 24.5222 0.27574 24.4275 0.319209C24.2393 0.405629 24.0533 0.491454 23.8667 0.57769C23.5005 0.746942 23.1095 0.928236 22.7506 1.09485C22.004 1.44138 21.2593 1.7878 20.5179 2.13294C19.0377 2.82209 17.5435 3.5188 16.0635 4.20918C13.0914 5.59572 10.1242 6.98144 7.15368 8.36903C7.07515 8.40571 6.99979 8.44119 6.92746 8.4755C6.68114 8.59252 6.43898 8.70909 6.18846 8.83741C6.06877 8.89885 5.93387 8.96991 5.80157 9.04601C5.73075 9.08694 5.65945 9.1294 5.57805 9.18387C5.52893 9.21739 5.49376 9.2409 5.42308 9.29825C5.39163 9.32458 5.3571 9.35273 5.29902 9.41333C5.25642 9.47304 5.15068 9.52324 5.03876 9.87241C4.95182 10.1042 5.03833 10.602 5.28178 10.8212C5.52864 11.0577 5.65297 11.0627 5.74307 11.0972C5.9457 11.1474 5.97282 11.1353 6.05077 11.1399C6.15802 11.1403 6.2221 11.1322 6.28078 11.1254C6.39087 11.1113 6.47637 11.0944 6.55523 11.078C6.7141 11.0445 6.85432 11.0085 6.9932 10.9709C7.26977 10.8955 7.53223 10.8144 7.79495 10.7272C7.79935 10.7258 7.80375 10.7243 7.80814 10.7229C11.5958 9.46592 15.1069 7.55997 18.4627 5.62564C18.4955 5.60719 18.5259 5.58585 18.5544 5.56205C18.5768 5.55471 18.6317 5.50932 18.653 5.49909C18.7099 5.4443 18.7526 5.40815 18.868 5.25903C18.898 5.21708 18.9372 5.16757 18.9905 5.05665C19.0101 5.01461 19.056 4.90758 19.0714 4.78355C19.0922 4.67036 19.0738 4.41651 18.9671 4.24376C18.7241 3.87148 18.5081 3.87395 18.4257 3.84306C18.3253 3.82268 18.2751 3.82586 18.2281 3.82781C17.937 3.86767 17.8994 3.95092 17.7967 4.0258C17.6235 4.1809 17.4958 4.35832 17.3627 4.516C17.2173 4.69047 17.0731 4.84102 16.9013 4.91544C16.8917 4.91964 16.8819 4.9236 16.872 4.92731C16.0302 5.24454 15.2284 5.64874 14.4286 6.04798C14.4131 6.05574 14.4013 6.06935 14.3958 6.08581C14.3903 6.10227 14.3916 6.12024 14.3993 6.13576C14.4071 6.15128 14.4207 6.16308 14.4372 6.16857C14.4536 6.17406 14.4716 6.17278 14.4871 6.16502C14.4871 6.16502 14.4871 6.16502 14.4871 6.16502C15.2869 5.76573 16.0853 5.36357 16.9181 5.04979C16.9279 5.04612 16.9377 5.04272 16.9477 5.0396C17.1244 4.98407 17.3316 5.01196 17.5401 5.07374C17.7278 5.12987 17.9232 5.21162 18.0775 5.29326C18.1382 5.33356 18.2667 5.37978 18.1446 5.42337C18.1194 5.42653 18.0892 5.43185 18.0095 5.41682C17.946 5.39102 17.7523 5.40225 17.5197 5.04842C17.418 4.88411 17.4009 4.64277 17.4202 4.53877C17.4344 4.42369 17.4751 4.33011 17.4909 4.2952C17.5349 4.20235 17.5611 4.17007 17.5775 4.14386C17.6364 4.05819 17.6144 4.07196 17.6012 4.0694L17.6998 4.00644C17.6634 4.01824 17.6281 4.03311 17.5942 4.05147C14.1913 5.93878 10.7852 7.66188 7.1869 8.85675C7.18273 8.85814 7.17856 8.85953 7.1744 8.86091C6.93896 8.93912 6.70092 9.01404 6.47046 9.07916C6.35611 9.11138 6.24209 9.14142 6.14425 9.16324C6.09758 9.17377 6.0493 9.18275 6.03177 9.18523C6.02458 9.18677 6.02081 9.18513 6.06668 9.1851C6.10573 9.18883 6.11034 9.17621 6.27476 9.21672C6.34976 9.24675 6.45913 9.2464 6.69364 9.47045C6.92605 9.67816 7.00883 10.1608 6.92685 10.3741C6.82173 10.6965 6.74215 10.7149 6.7189 10.7543C6.68485 10.7896 6.67441 10.7967 6.66701 10.8031C6.65321 10.814 6.66061 10.8073 6.67243 10.7992C6.69506 10.7833 6.73657 10.7571 6.78238 10.73C6.86936 10.6784 6.98151 10.6174 7.08383 10.5636C7.29967 10.4504 7.52636 10.3393 7.75943 10.2285C7.82801 10.196 7.89987 10.1621 7.97509 10.127C10.9452 8.73881 13.9119 7.35272 16.8833 5.96592C18.3628 5.27542 19.8565 4.57861 21.3359 3.88953C22.0768 3.54443 22.821 3.19807 23.5663 2.85189C23.9247 2.68546 24.3149 2.50441 24.6795 2.33581C24.8652 2.24994 25.0502 2.16451 25.2359 2.07918C25.3292 2.03631 25.422 1.99376 25.5114 1.95312C25.5452 1.93772 25.6115 1.90771 25.6441 1.89314C25.6551 1.8882 25.6966 1.8699 25.6975 1.86967C25.6979 1.86949 25.6979 1.86949 25.6973 1.86975C25.6822 1.87426 25.7481 1.85458 25.6089 1.90017C25.5808 1.90716 25.5543 1.91879 25.4453 1.9322C25.3851 1.93504 25.3126 1.95491 25.1042 1.90796C25.0011 1.88007 24.842 1.82999 24.6668 1.66309C24.4888 1.50231 24.3656 1.19367 24.3741 0.971612C24.401 0.519639 24.5509 0.429471 24.6001 0.347791C24.6618 0.275521 24.6965 0.248207 24.7233 0.225134C24.7751 0.182789 24.796 0.17048 24.8135 0.15871C24.872 0.122075 24.8433 0.140382 24.8559 0.132716C24.8651 0.127469 24.8698 0.124943 24.8729 0.12324C24.884 0.117347 24.8744 0.122472 24.8606 0.129333C24.7869 0.166168 24.7041 0.205033 24.6164 0.245021C22.3482 1.22722 19.9152 2.14653 17.5451 3.08073C17.4782 3.10687 17.4114 3.13294 17.3449 3.15893C12.7309 4.9662 8.11469 6.79013 3.53958 8.75439C2.51919 9.20577 1.56993 9.58647 0.463506 10.1939Z" fill="var(--stroke-0, #3B1B1B)"/>
</svg>
