<svg preserveAspectRatio="none" width="100%" height="100%" overflow="visible" style="display: block;" viewBox="0 0 10.2107 10.3101" fill="none" xmlns="http://www.w3.org/2000/svg">
<path id="Vector 57" d="M9.20811 2.77712C9.56807 2.66643 9.8693 2.41729 10.0456 2.08449C10.2218 1.7517 10.2586 1.36252 10.148 1.00257C10.0373 0.642616 9.78812 0.341379 9.45533 0.165123C9.12254 -0.0111315 8.73335 -0.0479658 8.3734 0.0627239C8.3734 0.0627239 8.3734 0.0627239 8.3734 0.0627239C8.08484 0.151464 7.79718 0.244413 7.5099 0.3429C5.13187 1.12955 2.6219 2.50639 0.923347 4.61651C0.921966 4.61817 0.920583 4.61983 0.9192 4.62148C0.276358 5.33424 0.00285268 6.42 0.00304437 6.97396C0.00304198 6.97405 0.0030396 6.97414 0.00303733 6.97423C-0.0292673 7.67654 0.191166 8.69563 0.902343 9.39727C0.955992 9.45173 1.12778 9.59008 1.19242 9.63089C1.19274 9.63109 1.19306 9.6313 1.19338 9.6315C2.87919 10.6176 4.46764 10.3197 5.86311 10.0313C5.87301 10.0329 5.9031 10.027 5.91306 10.0281C5.91374 10.0279 5.91443 10.0277 5.91512 10.0275C6.48306 9.88454 7.04442 9.51171 7.44409 9.12964C7.68373 8.90989 7.90578 8.68442 8.13324 8.47478C8.14803 8.46096 8.1584 8.43815 8.16364 8.41529C8.16878 8.39221 8.16837 8.37096 8.16093 8.35229C8.15348 8.33362 8.13916 8.31793 8.11954 8.30472C8.10001 8.29174 8.07679 8.28232 8.05655 8.28247C8.05655 8.28247 8.05655 8.28247 8.05655 8.28247C7.74908 8.28592 7.43558 8.26817 7.13209 8.23901C6.58723 8.19385 6.16903 8.07388 5.7344 8.00629C5.73384 8.00622 5.73328 8.00614 5.73272 8.00606L5.78266 8.00285C4.60622 7.79359 3.48491 7.24939 2.92782 6.883C2.92771 6.88294 2.9276 6.88287 2.92749 6.8828L3.21757 7.11643C3.26107 7.15552 3.21942 7.2056 3.19833 6.98596C3.19833 6.98593 3.19832 6.98591 3.19832 6.98588C3.18371 6.52365 3.05983 6.51663 3.10329 6.43657C3.10438 6.43526 3.10546 6.43394 3.10655 6.43263C4.44009 4.79353 6.2849 3.75277 8.43089 3.02925C8.68638 2.94166 8.94542 2.85791 9.20811 2.77712Z" fill="var(--stroke-0, #4C3131)"/>
</svg>
