<svg preserveAspectRatio="none" width="100%" height="100%" overflow="visible" style="display: block;" viewBox="0 0 13.0595 18.9135" fill="none" xmlns="http://www.w3.org/2000/svg">
<path id="Vector 53" d="M12.6401 2.72674C12.93 2.40466 13.08 1.98063 13.0573 1.54792C13.0345 1.11521 12.8408 0.709274 12.5187 0.419406C12.1966 0.129538 11.7726 -0.0205135 11.3399 0.00226033C10.9072 0.0250341 10.5012 0.218768 10.2113 0.540843C10.2113 0.540843 10.2113 0.540843 10.2113 0.540843C9.98675 0.790389 9.7649 1.04212 9.54562 1.29593C7.42784 3.75039 5.55333 6.37305 3.85151 9.09239C3.85121 9.09287 3.85091 9.09335 3.85061 9.09383C3.84841 9.09734 3.84191 9.1079 3.83976 9.11143C2.95058 10.5819 2.0978 12.0551 1.30906 13.6523C1.30869 13.6531 1.30831 13.6539 1.30794 13.6546C0.823157 14.6489 0.641582 15.6307 0.355082 16.5792C0.26479 16.8848 0.167514 17.189 0.0564601 17.4916C-0.028611 17.7231 -0.014546 17.996 0.0784708 18.2411C0.17248 18.4868 0.337781 18.6847 0.555099 18.8002C0.772418 18.9158 1.02887 18.9422 1.28513 18.8828C1.54039 18.8228 1.77451 18.6819 1.91889 18.4819C2.11422 18.2083 2.3149 17.9384 2.51579 17.664C3.1519 16.8036 3.74025 15.9086 4.16766 15.0887C4.168 15.0881 4.16835 15.0874 4.16869 15.0867C4.90846 13.6708 5.77234 12.2285 6.63219 10.8083L6.62134 10.8259C6.62163 10.8255 6.62192 10.825 6.62221 10.8245C8.24889 8.22463 10.0348 5.73031 12.0182 3.43216C12.2235 3.19457 12.4307 2.95938 12.6401 2.72674Z" fill="var(--stroke-0, #4C3131)"/>
</svg>
