<svg preserveAspectRatio="none" width="100%" height="100%" overflow="visible" style="display: block;" viewBox="0 0 18.5006 4.23803" fill="none" xmlns="http://www.w3.org/2000/svg">
<path id="Vector 44" d="M1.48665 0.521444C0.991098 0.76921 0.495549 1.01697 0 1.26474C0.49553 2.25584 0.991061 3.24694 1.48659 4.23803C1.98214 3.99027 2.47769 3.7425 2.97324 3.49474C3.07071 3.44965 2.9307 3.50645 2.99025 3.48608C3.02649 3.47709 3.11507 3.46141 3.21311 3.44895C3.73345 3.38466 4.40678 3.35851 5.05151 3.33801C5.05284 3.33797 5.05417 3.33793 5.0555 3.33789C7.96062 3.26385 10.9412 3.05531 13.8982 2.87258C13.8989 2.87253 13.8997 2.87249 13.9004 2.87245C15.0656 2.78413 16.3305 2.48361 17.5339 1.89827C17.7975 1.76713 18.0428 1.62885 18.2876 1.494C18.3586 1.45443 18.4296 1.41486 18.5006 1.37529C18.4542 1.21947 18.4078 1.06364 18.3615 0.907815C18.2804 0.913515 18.1993 0.919216 18.1182 0.924916C17.8473 0.943363 17.5807 0.946697 17.3204 0.931276C16.2092 0.857003 15.0937 0.402121 13.9004 0.345102C13.8997 0.345058 13.8989 0.345013 13.8982 0.344969C10.9302 0.168126 7.97446 -0.0614616 4.95522 0.0151811C4.95382 0.0152236 4.95241 0.0152661 4.95101 0.0153085C4.25401 0.0397069 3.59431 0.0555354 2.78615 0.152263C2.61888 0.174448 2.44333 0.19982 2.21914 0.252529C2.01852 0.292085 1.62569 0.442448 1.48665 0.521444Z" fill="var(--stroke-0, black)"/>
</svg>
