<svg preserveAspectRatio="none" width="100%" height="100%" overflow="visible" style="display: block;" viewBox="0 0 8.46981 23.5049" fill="none" xmlns="http://www.w3.org/2000/svg">
<path id="Vector 11" d="M8.08481 2.31001C8.21315 1.79667 8.34148 1.28334 8.46981 0.77C7.44314 0.513333 6.41647 0.256667 5.3898 0C5.26147 0.513336 5.13313 1.02667 5.0048 1.54001C4.91458 1.90089 4.8253 2.26131 4.73637 2.622C3.77809 6.52829 2.83977 10.4107 1.82204 14.2737C1.82169 14.275 1.82134 14.2764 1.82099 14.2777L1.82473 14.2637C1.22214 16.4951 0.465939 18.6615 0.0189165 21.0259C0.0185196 21.0281 0.0181264 21.0303 0.0177377 21.0325L0.0233846 21.0028C-0.0480013 21.3633 0.050994 21.395 0.226043 21.5701C0.403161 21.7555 0.463736 22.2292 0.418534 22.8544C0.413886 22.9058 0.408453 22.9558 0.402761 23.0054C0.452635 23.0912 0.50251 23.177 0.552384 23.2628C0.598279 23.2824 0.644434 23.3025 0.691373 23.3239C1.28378 23.5775 1.95434 23.5978 2.55265 23.1699C3.15031 22.7427 3.4184 22.0449 3.48643 21.6934C3.48759 21.6875 3.49102 21.6697 3.49208 21.6638C3.49243 21.6618 3.49278 21.6599 3.49313 21.658C3.89302 19.5346 4.29824 17.2778 4.88767 15.0991C4.88843 15.0963 4.89068 15.0879 4.89142 15.0851C4.89177 15.0837 4.89212 15.0824 4.89248 15.081C5.91919 11.1839 6.86532 7.26882 7.81887 3.38199C7.90722 3.02364 7.99572 2.66638 8.08481 2.31001Z" fill="var(--stroke-0, black)"/>
</svg>
