<svg preserveAspectRatio="none" width="100%" height="100%" overflow="visible" style="display: block;" viewBox="0 0 14.8273 16.4272" fill="none" xmlns="http://www.w3.org/2000/svg">
<path id="Vector 15" d="M6.93072 9.94069C6.93072 10.3743 6.93072 10.8079 6.93072 11.2415C7.79791 11.2415 8.6651 11.2415 9.53228 11.2415C9.53228 10.8079 9.53228 10.3743 9.53228 9.94069C9.53611 9.14968 9.43275 8.3433 9.23054 7.57079C9.22891 7.56458 9.22729 7.55837 9.22565 7.55214C9.13875 7.13537 8.74139 6.60253 8.32345 6.40246C7.64262 6.07149 7.23823 6.13983 6.88823 6.14168C6.54324 6.16183 6.25476 6.2089 5.98048 6.26087C5.43719 6.3662 4.95094 6.50351 4.51111 6.64684C4.46999 6.66075 4.4292 6.67515 4.38874 6.69003C1.82574 7.57526 0.488602 10.2433 0.0617963 12.3105C0.0390043 12.4131 0.0218918 12.5174 0.0107645 12.6231C-0.10453 14.0887 0.729 14.9968 1.42524 15.5202C1.47814 15.5588 1.53158 15.5958 1.58563 15.6315C3.29745 16.6986 4.92572 16.4213 6.09345 16.3128C6.14314 16.307 6.19264 16.3005 6.24195 16.2935C11.507 14.921 12.8142 10.6076 14.3251 7.15556C14.3461 7.09875 14.3664 7.04186 14.3858 6.98491C15.025 5.02902 14.8715 3.17471 14.5435 1.42271C14.5155 1.28366 14.4715 1.13195 14.3855 0.959979C14.2344 0.632965 13.8635 0.279151 13.5117 0.144851C13.1598 0.000798702 12.8783 -0.00515902 12.6651 0.00186431C12.2389 0.0270716 11.9856 0.117965 11.7489 0.201869C11.2902 0.37677 10.9501 0.581375 10.6451 0.829936C10.603 0.864328 10.5618 0.899621 10.5216 0.935865C8.60476 2.68434 7.69496 5.08317 7.42411 7.42302C7.42051 7.45552 7.41707 7.48799 7.4138 7.52045C7.18868 9.81942 7.71177 12.0519 8.68795 14.0232C8.69941 14.0462 8.73621 14.1134 8.74936 14.1355C8.75614 14.1469 8.76293 14.1582 8.76973 14.1695C8.97872 14.5177 9.581 14.657 10.1456 14.6831C10.6597 14.7143 11.1127 14.6378 11.3795 14.7794C11.3838 14.7817 11.3881 14.7841 11.3924 14.7865C11.8986 15.0747 12.4499 15.207 12.9718 15.3384C13.0406 15.3557 13.1095 15.3729 13.1783 15.3901C13.2127 15.2524 13.2471 15.1147 13.2816 14.977C13.2127 14.9598 13.1439 14.9426 13.075 14.9254C12.5521 14.7948 12.0396 14.6664 11.6034 14.4167C11.5997 14.4146 11.5961 14.4125 11.5925 14.4102C11.3581 14.2641 11.3562 13.8214 11.4751 13.4312C11.5992 12.9893 11.8294 12.5998 11.7069 12.3987C11.7029 12.3921 11.6989 12.3854 11.6949 12.3787L11.7563 12.491C11.027 11.0283 10.6356 9.37389 10.7662 7.83578C10.768 7.81395 10.77 7.79212 10.772 7.77031C10.9337 6.04683 11.5745 4.34653 12.6886 3.2681C12.7121 3.24521 12.7353 3.22193 12.7582 3.19831C12.8652 3.08115 12.9723 2.95773 13.0123 2.89606C13.0247 2.86421 13.0351 2.85986 12.8838 2.86233C12.8069 2.859 12.6672 2.86289 12.4431 2.77068C12.2193 2.6868 11.9557 2.43366 11.865 2.22969C11.8115 2.12267 11.7885 2.03771 11.7748 1.97063C12.0508 3.37678 12.0516 4.87845 11.6207 5.99627C11.6082 6.02893 11.5953 6.06119 11.582 6.09306C10.3264 9.148 7.94652 12.5618 5.75259 12.8811C5.73287 12.8839 5.71317 12.8865 5.69348 12.8888C4.60993 13.0383 3.74929 12.9747 3.47661 12.7561C3.46602 12.7492 3.45565 12.7422 3.4454 12.735C3.3858 12.6952 3.3405 12.6438 3.34414 12.6576C3.34432 12.6645 3.39579 12.7881 3.37243 12.9441C3.36923 12.9669 3.36474 12.989 3.35932 13.0097C3.65227 11.324 4.3297 10.0537 5.51756 9.5285C5.53771 9.51927 5.55809 9.51007 5.57871 9.50088C6.00397 9.32045 6.38504 9.13254 6.73327 8.99082C6.90461 8.92049 7.06932 8.86318 7.18265 8.83232C7.28882 8.78821 7.37023 8.84356 7.10711 8.72279C6.94209 8.65008 6.72895 8.35737 6.71024 8.21621C6.71143 8.22067 6.7126 8.22512 6.71377 8.22957C6.85907 8.78753 6.93383 9.3572 6.93072 9.94069Z" fill="var(--stroke-0, black)"/>
</svg>
