<svg preserveAspectRatio="none" width="100%" height="100%" overflow="visible" style="display: block;" viewBox="0 0 9.09801 9.41496" fill="none" xmlns="http://www.w3.org/2000/svg">
<path id="Vector 66" d="M7.61989 2.76093C7.97762 2.79371 8.33373 2.68305 8.60987 2.45328C8.88601 2.22351 9.05956 1.89345 9.09235 1.53571C9.12514 1.17798 9.01447 0.821872 8.7847 0.545732C8.55493 0.269591 8.22487 0.0960367 7.86714 0.0632489C7.86714 0.0632489 7.86714 0.0632489 7.86714 0.0632489C7.50111 0.0297101 7.13353 0.00840425 6.76469 0C5.09935 0.0466942 3.6652 -0.116991 1.60249 1.13307C1.5843 1.14738 1.56614 1.16201 1.54803 1.17699C0.974101 1.63877 0.806684 2.38261 0.836539 2.84031C0.861019 3.32555 0.990463 3.70051 1.2112 4.07169C1.22384 4.09236 1.23681 4.11293 1.25011 4.13339C2.52823 6.20739 5.29723 6.40058 6.11722 6.65162C6.11568 6.65109 6.11419 6.65056 6.11263 6.64995C6.09851 6.63878 6.07255 6.6598 5.96323 6.52468C5.91244 6.45536 5.83409 6.32203 5.81392 6.10622C5.7896 5.89215 5.86814 5.63494 5.95791 5.50379L6.36217 5.09001C6.34971 5.09823 6.33707 5.10656 6.32425 5.11501C5.35507 5.73771 3.96267 6.21437 2.62703 6.57958L2.65136 6.57326C2.64356 6.57522 2.63581 6.57716 2.62809 6.5791C2.06828 6.7243 1.62364 7.16482 1.02815 7.60222C0.722191 7.83321 0.404723 8.06088 0.079087 8.23443C0.0563344 8.24671 0.0354895 8.27198 0.0206969 8.29858C0.00592992 8.32553 -0.00157413 8.35162 0.000276692 8.3772C0.00212751 8.40279 0.0133085 8.42753 0.0318011 8.45207C0.050268 8.47627 0.0745328 8.49827 0.0988163 8.50715C0.0988163 8.50715 0.0988163 8.50715 0.0988163 8.50715C0.447934 8.63177 0.80105 8.80529 1.16571 8.96893C1.83472 9.28269 2.65082 9.53224 3.32148 9.35715C3.33013 9.355 3.33878 9.35284 3.34743 9.35068C3.3523 9.34945 3.3669 9.34567 3.37175 9.34436C4.88544 8.91803 6.35809 8.47822 7.90203 7.50904C7.92357 7.49484 7.94497 7.48047 7.96623 7.46592C8.06938 7.39511 8.30373 7.15796 8.37049 7.05214C8.56567 6.75902 8.69996 6.30643 8.6603 5.8992C8.62622 5.49001 8.47034 5.17245 8.31183 4.9434C7.98373 4.4878 7.63281 4.27346 7.26855 4.10204C7.23043 4.08485 7.19228 4.06869 7.15345 4.0533C5.9094 3.66269 5.38588 3.69338 4.76575 3.46232C4.18655 3.26168 3.81129 2.99719 3.56223 2.62247C3.56317 2.62399 3.56396 2.62535 3.56465 2.62657C3.57324 2.64897 3.56622 2.62519 3.56804 2.70173C3.57316 2.75537 3.52846 3.06128 3.27823 3.26161C3.2775 3.26217 3.27716 3.26241 3.27721 3.26236C3.29676 3.2376 3.57279 3.10124 3.83598 3.02619C4.10865 2.943 4.41639 2.87685 4.73166 2.82749C5.36462 2.72878 6.0346 2.69325 6.70306 2.70828C7.00833 2.71523 7.31444 2.73293 7.61989 2.76093Z" fill="var(--stroke-0, #4C3131)"/>
</svg>
