<svg preserveAspectRatio="none" width="100%" height="100%" overflow="visible" style="display: block;" viewBox="0 0 9.10743 5.74081" fill="none" xmlns="http://www.w3.org/2000/svg">
<path id="Vector 102" d="M0.931534 1.72547C0.815445 1.62921 0.665874 1.58301 0.515725 1.59704C0.365575 1.61106 0.227147 1.68416 0.130892 1.80025C0.0346375 1.91634 -0.0115588 2.06591 0.00246596 2.21606C0.0164907 2.36621 0.0895877 2.50464 0.205676 2.60089C0.205676 2.60089 0.205676 2.60089 0.205676 2.60089C0.27905 2.65937 0.419766 2.84806 0.529345 3.02661C0.888719 3.61288 1.19693 4.29576 1.50469 4.97476C1.52611 5.02222 1.5479 5.07093 1.56889 5.11816C1.65321 5.27038 1.67463 5.43704 2.02497 5.65681C2.20768 5.76821 2.5243 5.75971 2.67412 5.68442C2.8445 5.61128 2.9306 5.52724 2.99894 5.46299C3.26471 5.18458 3.36155 4.97812 3.48924 4.75759C3.72515 4.32394 3.91533 3.91203 4.11201 3.50288C4.49077 2.71928 4.91888 1.79194 5.29563 1.40294L4.05525 1.37612C4.11211 1.44938 4.16834 1.52254 4.22476 1.59643C4.60674 2.09633 4.96671 2.62082 5.33853 3.1598C5.52496 3.42909 5.71369 3.7024 5.92517 3.98351C6.16901 4.27142 6.26489 4.53121 6.88896 4.93509C6.94774 4.96704 7.12236 5.02559 7.18847 5.03586C7.26116 5.04713 7.33822 5.05332 7.41452 5.05329C8.18902 4.9969 8.38518 4.68097 8.61435 4.45267C8.79544 4.2372 8.92734 4.00044 9.03406 3.74033C9.07446 3.63657 9.10614 3.5282 9.1074 3.42059C9.10861 3.31292 9.07897 3.21442 9.01768 3.13757C8.95638 3.06072 8.86694 3.00992 8.7617 2.98716C8.6565 2.96446 8.5438 2.97125 8.43365 2.98756C8.43365 2.98756 8.43365 2.98756 8.43365 2.98756C8.16532 3.02604 7.91701 3.08508 7.70584 3.1424C7.48047 3.21573 7.20316 3.24509 7.41494 3.20564C7.43374 3.2056 7.45349 3.20728 7.4694 3.20981L7.76891 3.31057C7.83586 3.35618 7.71996 3.27113 7.64454 3.18326C7.55892 3.09065 7.46515 2.97815 7.37055 2.86051C7.18061 2.62382 6.98447 2.36486 6.78529 2.10568C6.38576 1.5844 5.96855 1.05302 5.52065 0.537779C5.4544 0.461513 5.38754 0.386205 5.31924 0.310939C4.96394 -0.0792409 4.42087 -0.117765 4.07886 0.284114C3.31618 1.30057 3.18185 2.12835 2.8601 2.99472C2.71629 3.41966 2.57482 3.84057 2.40935 4.21724C2.33142 4.39784 2.22389 4.59113 2.17448 4.64656C2.16854 4.65698 2.16413 4.65026 2.22881 4.6218C2.28033 4.59049 2.47129 4.58457 2.55443 4.64082C2.7041 4.74513 2.62344 4.71286 2.60627 4.65008C2.58486 4.60336 2.56278 4.55473 2.54125 4.50701C2.22714 3.81713 1.92038 3.12291 1.49449 2.42516C1.34792 2.20012 1.22129 1.98051 0.931534 1.72547Z" fill="var(--stroke-0, #3B1B1B)"/>
</svg>
