<svg preserveAspectRatio="none" width="100%" height="100%" overflow="visible" style="display: block;" viewBox="0 0 13.1434 12.4122" fill="none" xmlns="http://www.w3.org/2000/svg">
<path id="Vector 120" d="M1.40241 2.01244C1.22359 1.86946 0.995291 1.80337 0.767741 1.8287C0.540191 1.85404 0.332027 1.96874 0.189043 2.14756C0.0460588 2.32638 -0.0200333 2.55468 0.00530636 2.78223C0.030646 3.00978 0.145342 3.21794 0.324162 3.36092C0.324162 3.36092 0.324162 3.36092 0.324162 3.36092C0.654352 3.62493 0.977758 3.89832 1.29566 4.18009C3.95131 6.56485 6.3342 9.49421 9.18871 11.9438C9.2185 11.9699 9.2483 11.9962 9.2781 12.0226C9.47765 12.2034 9.79754 12.3761 10.1391 12.4052C10.4811 12.438 10.7741 12.3503 10.9941 12.2513C11.4343 12.0439 11.6941 11.7941 11.936 11.5511C12.4048 11.0567 12.7406 10.5566 13.014 9.9671C13.0146 9.96579 13.0152 9.96448 13.0158 9.96318C13.0477 9.89231 13.0979 9.6868 13.1023 9.6092C13.2923 6.60268 12.7691 3.57557 12.6271 0.778366C12.6271 0.748665 12.6266 0.720226 12.6257 0.693098L12.571 0.907238C12.5512 0.939226 12.5415 0.98899 12.4191 1.09537C12.3459 1.15513 12.2243 1.2203 12.0691 1.2254C11.9125 1.22838 11.8178 1.18178 11.7515 1.14319C11.5551 0.99909 11.6046 0.989539 11.5883 0.974694C11.5864 0.956518 11.6099 0.986238 11.629 1.01331C11.822 1.31784 12.0795 1.74043 12.2786 2.13372C12.3031 2.18255 12.3512 2.22323 12.4056 2.24847C12.4604 2.27362 12.5171 2.28127 12.5699 2.26807C12.6227 2.25487 12.6692 2.22143 12.7057 2.17344C12.7418 2.12555 12.7651 2.06704 12.7637 2.01245C12.7637 2.01245 12.7637 2.01245 12.7637 2.01245C12.7456 1.55717 12.8123 1.12181 12.7103 0.59994C12.6945 0.536298 12.681 0.475451 12.6306 0.372097C12.5901 0.316623 12.6128 0.262792 12.3757 0.0925077C12.2977 0.0471386 12.1927 -0.00312978 12.0231 0.000152647C11.8554 0.00584638 11.7235 0.0756587 11.6399 0.143866C11.4997 0.265224 11.4778 0.335774 11.4467 0.391974C11.4309 0.436254 11.3913 0.559093 11.392 0.606113C11.3867 0.641114 11.3823 0.67691 11.3788 0.713503C11.2345 3.78719 11.2885 6.63179 11.1056 9.49593L11.1921 9.14196C11.1917 9.14282 11.1914 9.14368 11.191 9.14454C11.0089 9.54401 10.776 9.98604 10.5307 10.3169C10.4125 10.48 10.2712 10.6157 10.2202 10.6512C10.1957 10.6708 10.2174 10.6579 10.2863 10.6672C10.3556 10.6752 10.4187 10.7206 10.4139 10.721C10.3847 10.696 10.3558 10.6708 10.327 10.6456C7.56876 8.28313 5.27445 5.44322 2.44083 2.88795C2.10301 2.58853 1.75703 2.29597 1.40241 2.01244Z" fill="var(--stroke-0, #3B1B1B)"/>
</svg>
