<svg preserveAspectRatio="none" width="100%" height="100%" overflow="visible" style="display: block;" viewBox="0 0 10.341 11.1612" fill="none" xmlns="http://www.w3.org/2000/svg">
<path id="Vector 9" d="M5.33567 2.49275C5.52812 2.87766 5.72058 3.26256 5.91303 3.64747C6.68284 3.26256 7.45266 2.87766 8.22247 2.49275C8.03002 2.10784 7.83756 1.72294 7.64511 1.33803C7.57354 1.20375 7.45792 0.924682 7.15757 0.615656C6.85935 0.300631 6.39169 0.097918 6.05493 0.0472229C6.05433 0.0471179 6.05374 0.0470132 6.05315 0.0469087C5.79597 0.0015161 5.53632 -0.00952172 5.28851 0.00771976C3.68391 0.180967 2.75881 1.05814 1.98406 1.91592C1.98007 1.92058 1.9761 1.92524 1.97214 1.92991C1.00109 3.09572 0.623918 4.36474 0.223727 5.40377C0.219153 5.41593 0.214581 5.42805 0.210011 5.44013C-0.0257734 6.14784 -0.25949 7.14428 0.683779 8.15762C0.718017 8.19011 0.753418 8.22139 0.790197 8.25161C2.11484 9.1109 2.88421 8.67985 3.64329 8.43947C3.67139 8.42778 3.69942 8.41572 3.72737 8.40327C5.42366 7.65447 6.1748 5.94262 6.42708 4.5609C6.4329 4.53022 6.44012 4.49997 6.44859 4.47009C6.52291 4.19167 6.6736 3.93432 6.79335 3.61626C6.85194 3.45575 6.90484 3.28436 6.91556 3.05267C6.91933 2.93459 6.91565 2.80333 6.86874 2.61203C6.79171 2.41944 6.82607 2.16353 6.21767 1.62436C5.98783 1.43873 5.58928 1.25404 5.18289 1.23882C4.72101 1.20221 4.15367 1.37759 3.80817 1.63303C3.45253 1.88562 3.26245 2.14784 3.12389 2.36597C2.86237 2.79826 2.77293 3.12394 2.69382 3.41886C2.54982 4.0034 2.51243 4.48807 2.49315 4.9661C2.46407 5.91566 2.54334 6.80189 2.71961 7.70936C2.7254 7.73858 2.73152 7.76762 2.73797 7.79645C3.24027 9.66734 4.49999 10.3787 5.46563 10.9456C5.48283 10.9552 5.50005 10.9646 5.51729 10.9739C6.32917 11.464 7.71784 10.8832 8.25413 10.4784C8.26212 10.474 8.27013 10.4696 8.27815 10.4654C8.60196 10.2947 8.89528 10.0963 9.14915 9.89351C9.55051 9.57193 9.89211 9.24142 10.2157 8.88846C10.2575 8.84237 10.2992 8.79628 10.341 8.7502C10.2689 8.64885 10.1967 8.54751 10.1246 8.44617C10.0674 8.47055 10.0101 8.49493 9.95292 8.51931C9.52225 8.70095 9.09916 8.89086 8.68251 8.99884C8.4185 9.0672 8.16756 9.09301 7.92374 9.06418C7.9176 9.06349 7.91145 9.0627 7.90528 9.0618C7.64794 9.02936 7.45114 8.79759 7.39791 8.57052C7.33664 8.34236 7.35811 8.1412 7.24284 8.05522C7.23787 8.05141 7.23281 8.0475 7.22764 8.04348C6.59838 7.62546 6.21617 7.03878 6.2604 7.009C6.26023 7.00825 6.26009 7.00758 6.25996 7.00697C6.13345 6.36788 6.05954 5.67574 6.06176 5.04802C6.0623 4.73982 6.08854 4.43262 6.12703 4.25037C6.14097 4.1653 6.17635 4.10543 6.11803 4.20331C6.08356 4.2523 6.0194 4.35893 5.82488 4.49766C5.63926 4.63854 5.27052 4.75323 5.00665 4.72833C4.63901 4.71491 4.27672 4.54562 4.07736 4.38379C3.79412 4.15459 3.71849 3.99008 3.66131 3.88523C3.60893 3.77779 3.59395 3.71519 3.58524 3.66886C3.57082 3.57912 3.58804 3.5532 3.6075 3.54065C3.64901 3.52016 3.71189 3.56342 3.77069 3.61592C3.8896 3.72502 3.99997 3.89468 4.00051 4.03677C3.99994 4.05792 3.99778 4.0789 3.99386 4.09961C3.81224 5.08749 3.33046 5.84725 2.71252 6.08145C2.70346 6.08519 2.69436 6.08881 2.68526 6.0923C2.56516 6.13929 2.42893 6.15467 2.34494 6.14479C2.26208 6.14808 2.24015 6.05979 2.46709 6.21715C2.4781 6.22611 2.48863 6.23539 2.49867 6.24492C2.64415 6.38873 2.63939 6.4953 2.63796 6.48771C2.63421 6.48715 2.63563 6.42386 2.65993 6.36114C2.6648 6.3481 2.66967 6.33507 2.67453 6.32205C3.08099 5.21215 3.43751 4.23276 3.96457 3.61795C3.96707 3.61498 3.96958 3.61202 3.9721 3.60905C4.44066 3.03716 5.12753 2.58882 5.47058 2.58465C5.52305 2.58058 5.56634 2.583 5.60588 2.58991C5.60582 2.5899 5.60575 2.58988 5.60568 2.58987C5.57522 2.5909 5.40384 2.52344 5.32308 2.43267C5.24296 2.34573 5.26869 2.34997 5.33567 2.49275Z" fill="var(--stroke-0, black)"/>
</svg>
