<svg preserveAspectRatio="none" width="100%" height="100%" overflow="visible" style="display: block;" viewBox="0 0 9.24828 10.7604" fill="none" xmlns="http://www.w3.org/2000/svg">
<path id="Vector 105" d="M6.65451 1.62884C6.65451 1.77776 6.71367 1.92059 6.81898 2.0259C6.92428 2.1312 7.06711 2.19036 7.21604 2.19036C7.36496 2.19036 7.50779 2.1312 7.61309 2.0259C7.7184 1.92059 7.77756 1.77776 7.77756 1.62884C7.74529 1.27586 7.65005 1.24747 7.60151 1.16041C7.54573 1.08894 7.49669 1.03958 7.44898 0.993909C7.35388 0.904101 7.26452 0.834566 7.17538 0.769456C6.99658 0.639993 6.82081 0.533658 6.6419 0.434295C6.46745 0.337771 6.2921 0.25046 6.11494 0.169047C6.1082 0.165954 6.10144 0.16286 6.09467 0.159766C5.11849 -0.296317 4.1692 0.320783 3.66146 0.801313C3.10676 1.31798 2.6898 1.89206 2.30215 2.47547C1.53793 3.64229 0.923517 4.87902 0.355951 6.09477C0.315545 6.18215 0.280637 6.26969 0.250145 6.35681C-0.0655532 7.33389 -0.0038693 8.1868 0.024257 9.00875C0.0290211 9.09028 0.0379364 9.17427 0.0524544 9.26036C0.113912 9.78257 0.524918 10.3955 0.99537 10.6404C1.05974 10.6785 1.24971 10.7358 1.32395 10.7447C1.38206 10.7515 1.44051 10.7568 1.49925 10.7604C4.53621 10.7423 6.84459 9.30153 8.96415 7.65762C8.96478 7.65709 8.96541 7.65656 8.96604 7.65603C8.99313 7.63599 9.05902 7.56576 9.08011 7.53948C9.08477 7.53295 9.0894 7.52643 9.094 7.51991C9.34912 7.15936 9.21258 6.6288 9.20539 6.22584C9.20522 6.21189 9.19836 6.19517 9.1896 6.18098C9.18065 6.16671 9.17052 6.15614 9.15816 6.14996C9.14581 6.14378 9.13128 6.14202 9.11448 6.14343C9.09788 6.14493 9.08038 6.14947 9.06913 6.15771C9.06913 6.15771 9.06913 6.15771 9.06913 6.15771C8.73619 6.41049 8.26218 6.53516 8.07646 6.76156C8.07289 6.76601 8.0693 6.77045 8.0657 6.77489L8.17976 6.65834C8.17917 6.65878 8.17858 6.65921 8.17799 6.65965C6.23514 8.03301 3.72406 9.11239 1.60371 9.08399C1.56554 9.08161 1.52826 9.0791 1.49186 9.07638L1.82044 9.18068C1.69117 9.10397 1.66358 9.11585 1.61375 8.96563C1.60746 8.94153 1.60207 8.91413 1.59797 8.88391C1.51529 8.132 1.46393 7.36076 1.62516 6.81306C1.63944 6.76527 1.65514 6.72008 1.67216 6.67782C2.18017 5.45024 2.69922 4.23994 3.35127 3.13201C3.94553 2.08514 5.00206 0.82384 5.62847 1.18148C5.63441 1.18419 5.64032 1.1869 5.64621 1.1896C5.80112 1.26077 5.95243 1.33628 6.09797 1.41683C6.24669 1.49922 6.38971 1.5869 6.51503 1.67785C6.57669 1.7226 6.63476 1.76938 6.67566 1.80829C6.69559 1.827 6.71167 1.84523 6.71337 1.84774C6.71991 1.83434 6.68268 1.88701 6.65451 1.62884Z" fill="var(--stroke-0, #3B1B1B)"/>
</svg>
