<svg preserveAspectRatio="none" width="100%" height="100%" overflow="visible" style="display: block;" viewBox="0 0 14.4419 5.14379" fill="none" xmlns="http://www.w3.org/2000/svg">
<path id="Vector 91" d="M2.4321 2.79313C2.26414 2.79313 2.10305 2.85985 1.98429 2.97862C1.86552 3.09739 1.7988 3.25847 1.7988 3.42643C1.7988 3.59439 1.86552 3.75547 1.98429 3.87424C2.10305 3.99301 2.26414 4.05973 2.4321 4.05973C2.74523 4.04304 2.83375 3.92644 2.90223 3.87908C2.96703 3.82241 3.00241 3.77844 3.03216 3.74068C3.08998 3.66519 3.12353 3.60722 3.15479 3.55137C3.21418 3.44317 3.25668 3.3459 3.29488 3.25239C3.37047 3.06535 3.42853 2.8861 3.48052 2.70877C3.56945 2.40318 3.63867 2.10168 3.69776 1.79925C3.69903 1.79269 3.70027 1.78612 3.70146 1.77955C3.8592 1.21347 3.5514 0.283841 2.78582 0.060783C2.77502 0.0574245 2.7642 0.0542251 2.75339 0.0511834C1.96622 -0.121073 1.51711 0.176852 1.12084 0.420418C1.11576 0.423876 1.1107 0.427351 1.10565 0.430841C0.694743 0.712513 0.330713 1.13296 0.146057 1.65061C0.14453 1.65486 0.143017 1.65911 0.141516 1.66337C-0.0279713 2.15897 -0.0624154 2.69029 0.133353 3.25122C0.134355 3.25398 0.135364 3.25675 0.136378 3.25951C0.604764 4.37686 1.48526 4.65084 2.03779 4.92441C2.04157 4.92607 2.04536 4.92772 2.04915 4.92937C6.13998 5.77492 8.53122 3.90296 11.5096 3.07203C11.5142 3.07038 11.5188 3.06873 11.5234 3.06707C11.5296 3.06484 11.5481 3.05781 11.5542 3.05538C12.3242 2.75084 13.1244 2.40515 13.8573 2.0552C13.8685 2.05 13.8799 2.0447 13.8911 2.03951C13.8981 2.03625 13.905 2.03285 13.9118 2.0293C14.0466 1.9585 14.1612 1.81989 14.2614 1.59883C14.3113 1.48774 14.3577 1.35727 14.3961 1.19499C14.4144 1.11351 14.4335 1.02382 14.4397 0.9153C14.4511 0.816074 14.421 0.631119 14.3119 0.607686C14.2976 0.606782 14.2838 0.605946 14.2734 0.605441C14.2629 0.605006 14.2556 0.605367 14.2491 0.608209C14.2427 0.611051 14.2375 0.616203 14.2307 0.624296C14.2241 0.632319 14.2154 0.643049 14.2064 0.654205C14.2064 0.654205 14.2064 0.654205 14.2064 0.654205C13.762 0.349339 13.4068 0.0961292 13.0862 0.243264C13.0784 0.24645 13.0707 0.249817 13.0631 0.253362C13.0509 0.259017 13.0386 0.264733 13.0266 0.270313C12.2813 0.625655 11.5804 0.93365 10.827 1.23424L10.8578 1.22254C10.8532 1.22419 10.8487 1.22584 10.8441 1.22748C8.12771 2.12936 4.75243 3.66406 2.82264 3.14551C2.82103 3.14482 2.81941 3.14412 2.8178 3.14341C2.28374 2.93035 1.92361 2.64992 1.9335 2.58946C1.9334 2.58925 1.93331 2.58904 1.93322 2.58882C1.90626 2.5353 1.89198 2.37889 1.92615 2.25727C1.92642 2.25621 1.92669 2.25515 1.92696 2.25409C1.96139 2.12054 2.03391 1.97312 2.17071 1.84395C2.17237 1.84238 2.17405 1.84081 2.17573 1.83924C2.30321 1.70239 2.50471 1.67271 2.37797 1.63824C2.37633 1.63737 2.37466 1.63645 2.37297 1.63548C2.30605 1.58151 2.46111 1.42115 2.45524 1.55324C2.45501 1.55451 2.45477 1.55579 2.45452 1.55711C2.40146 1.82909 2.33934 2.0975 2.26466 2.35387C2.22148 2.50172 2.17311 2.64818 2.12132 2.77593C2.09595 2.83866 2.06775 2.89994 2.04604 2.93903C2.03576 2.95812 2.02493 2.97318 2.03085 2.96502C2.03485 2.96046 2.04147 2.94953 2.07466 2.92022C2.11195 2.89948 2.16177 2.80939 2.4321 2.79313Z" fill="var(--stroke-0, #3B1B1B)"/>
</svg>
