<svg preserveAspectRatio="none" width="100%" height="100%" overflow="visible" style="display: block;" viewBox="0 0 7.03808 3.47563" fill="none" xmlns="http://www.w3.org/2000/svg">
<path id="Vector 32" d="M0.985705 1.13458C0.657137 1.25779 0.328568 1.381 0 1.50422C0.246427 2.16136 0.492854 2.81849 0.739282 3.47563C1.06785 3.35242 1.39642 3.2292 1.72499 3.10599C1.81591 3.07189 1.9066 3.03788 1.99715 3.00399C2.85931 2.68338 3.72772 2.3541 4.52535 2.14737C4.52627 2.14714 4.52718 2.14691 4.5281 2.14667C5.17218 1.98669 6.10184 1.62938 6.75222 0.913332C6.83188 0.829665 6.90766 0.742368 6.98374 0.650292C7.00177 0.628023 7.01991 0.606136 7.03808 0.584326C7.0219 0.529957 7.00572 0.475588 6.98954 0.42122C6.9624 0.412892 6.93524 0.404489 6.90797 0.395703C6.79521 0.35982 6.68686 0.325813 6.57886 0.294745C5.66182 0.0486237 4.95787 -0.119024 4.01269 0.105266C4.01151 0.105563 4.01033 0.105862 4.00915 0.10616C3.00822 0.368169 2.13818 0.70716 1.25907 1.03213C1.16772 1.06632 1.07662 1.10048 0.985705 1.13458Z" fill="var(--stroke-0, black)"/>
</svg>
