<svg preserveAspectRatio="none" width="100%" height="100%" overflow="visible" style="display: block;" viewBox="0 0 12.8566 19.1146" fill="none" xmlns="http://www.w3.org/2000/svg">
<path id="Vector 67" d="M12.6214 2.07492C12.8211 1.78659 12.898 1.43077 12.8352 1.08574C12.7725 0.740712 12.5753 0.434733 12.2869 0.235117C11.9986 0.0355021 11.6428 -0.0413985 11.2978 0.021333C10.9527 0.0840645 10.6467 0.281289 10.4471 0.56962C10.4471 0.56962 10.4471 0.56962 10.4471 0.56962C10.247 0.858708 10.0465 1.14787 9.84562 1.43719C7.84397 4.3192 5.82511 7.20371 3.84673 10.122C3.84667 10.122 3.84662 10.1221 3.84656 10.1222C3.84325 10.1271 3.83347 10.1419 3.83026 10.1468C2.75732 11.8113 1.94842 13.615 1.14106 15.4092C1.14101 15.4093 1.14096 15.4094 1.14091 15.4096C0.769673 16.2332 0.570072 17.1196 0.321539 17.9959C0.223085 18.3455 0.12 18.693 0.00249684 19.0363C-0.00158238 19.0484 -0.00043628 19.063 0.00428572 19.0763C0.00908886 19.0895 0.0170778 19.1002 0.0278922 19.1069C0.0387067 19.1135 0.0518628 19.1158 0.0658636 19.1141C0.0797833 19.1124 0.0934041 19.1067 0.102332 19.0977C0.102332 19.0977 0.102332 19.0977 0.102332 19.0977C0.355778 18.8374 0.617414 18.585 0.879971 18.3285C1.54199 17.6846 2.18947 17.0172 2.7007 16.3015C2.70077 16.3014 2.70084 16.3013 2.70091 16.3012C3.82679 14.7231 5.01716 13.1862 6.0515 11.582L6.0352 11.6066C6.03525 11.6065 6.03531 11.6064 6.03536 11.6064C8.00031 8.7079 10.0113 5.83448 12.018 2.94527C12.2194 2.65522 12.4205 2.36513 12.6214 2.07492Z" fill="var(--stroke-0, #4C3131)"/>
</svg>
