<svg preserveAspectRatio="none" width="100%" height="100%" overflow="visible" style="display: block;" viewBox="0 0 7.67012 16.3475" fill="none" xmlns="http://www.w3.org/2000/svg">
<path id="Vector 31" d="M7.13183 2.79912C7.31126 2.22494 7.49069 1.65076 7.67012 1.07658C6.52176 0.717723 5.3734 0.358861 4.22504 0C4.04561 0.574179 3.86618 1.14836 3.68675 1.72254C3.61406 1.95513 3.54227 2.18432 3.46995 2.41461C2.66515 4.97005 1.84633 7.54019 0.981722 10.0371C0.981396 10.0381 0.98107 10.039 0.980745 10.0399C0.969846 10.071 0.941605 10.1651 0.933577 10.1971C0.626181 11.4167 0.341061 12.6305 0.0533969 13.7872C0.0530578 13.7886 0.0527207 13.7899 0.0523857 13.7913C-0.0650709 14.1992 -0.0119566 15.1001 0.49232 15.6371C0.761486 15.9439 1.12892 16.1661 1.569 16.3061C1.61474 16.3196 1.65913 16.3335 1.70311 16.3475C1.79162 16.3228 1.88014 16.298 1.96865 16.2732C1.99897 16.2384 2.02972 16.2035 2.06181 16.1682C2.37145 15.8417 2.63922 15.5862 2.86251 15.4113C3.27213 15.0785 3.47642 15.1056 3.5824 14.6738C3.58277 14.6724 3.58313 14.6709 3.5835 14.6695C3.88981 13.4361 4.13942 12.2453 4.43426 11.0762L4.38709 11.2334C4.38743 11.2324 4.38778 11.2314 4.38812 11.2304C5.28529 8.6389 6.10051 6.07667 6.91352 3.49602C6.98635 3.26408 7.05865 3.0333 7.13183 2.79912Z" fill="var(--stroke-0, black)"/>
</svg>
