<svg preserveAspectRatio="none" width="100%" height="100%" overflow="visible" style="display: block;" viewBox="0 0 19.1856 30.6656" fill="none" xmlns="http://www.w3.org/2000/svg">
<path id="Vector 135" d="M0.33492 9.46488C0.444261 9.68357 0.635995 9.84986 0.867944 9.92718C1.09989 10.0045 1.35306 9.98651 1.57174 9.87717C1.79043 9.76783 1.95672 9.57609 2.03404 9.34414C2.11136 9.1122 2.09337 8.85903 1.98403 8.64035C1.98403 8.64035 1.98403 8.64035 1.98403 8.64035C1.91389 8.50157 1.84654 8.35998 1.83268 8.31601C1.82977 8.30879 1.83215 8.30821 1.83958 8.35021C1.83673 8.39476 1.89367 8.48005 1.76809 8.7814C1.70256 8.92955 1.53909 9.09386 1.39804 9.1598C1.25447 9.23087 1.15968 9.23876 1.09717 9.24419C0.977207 9.24918 0.956442 9.23588 0.944127 9.2349C0.95021 9.23634 0.95628 9.23779 0.962336 9.23926C1.46759 9.36131 1.91444 9.6145 2.32773 9.99263C5.14691 13.2067 6.47096 18.5026 9.02262 22.71C9.04053 22.7419 9.0585 22.7738 9.07654 22.8058C10.7154 25.4824 11.9506 28.2266 15.0886 30.3713C15.2441 30.4484 15.4209 30.5229 15.6284 30.5762C16.2151 30.7503 17.1445 30.6966 17.7529 30.1765C18.3518 29.6792 18.5802 29.1089 18.7559 28.6062C19.0828 27.5749 19.139 26.6497 19.176 25.7208C19.2261 23.8729 19.0726 22.0925 18.885 20.3211C18.4989 16.7856 17.8997 13.3005 17.3901 9.84955C17.3865 9.82475 17.3712 9.75201 17.3645 9.72785C17.3346 9.6198 17.3051 9.51232 17.2759 9.40543C16.5304 6.65832 15.7185 3.90643 15.126 1.12896C15.0883 0.94744 15.0502 0.755193 15.0201 0.586327L14.435 1.34013C14.103 1.35788 14.039 1.25232 13.9858 1.2287C13.9415 1.19631 13.9237 1.17653 13.9123 1.16463C13.8489 1.07994 13.9425 1.19113 13.9809 1.24418C14.0304 1.3093 14.0853 1.38291 14.1422 1.45736C14.2562 1.60686 14.3804 1.76375 14.5067 1.9227C14.7596 2.24241 15.0222 2.57322 15.2342 2.92768C15.2384 2.93476 15.2463 2.94045 15.2549 2.94385C15.2635 2.94724 15.2721 2.94805 15.28 2.94577C15.2879 2.94349 15.2948 2.93822 15.3003 2.93076C15.3058 2.92332 15.3094 2.91431 15.3093 2.90605C15.3093 2.90605 15.3093 2.90605 15.3093 2.90605C15.2995 2.4918 15.3208 2.06425 15.2984 1.63225C15.2872 1.41688 15.2655 1.20094 15.2196 0.985078C15.1963 0.876916 15.1671 0.768531 15.1261 0.656902C15.0714 0.53338 15.0745 0.464677 14.8776 0.229802C14.8546 0.205899 14.8227 0.173051 14.765 0.131195C14.6974 0.097481 14.6167 -0.017383 14.2677 0.00223935C13.891 0.0659828 13.6181 0.379452 13.6825 0.756041C13.7001 0.957288 13.7222 1.1563 13.7441 1.34964C14.0923 4.25184 14.584 7.12076 15.3464 9.9318C15.3762 10.0409 15.4063 10.1507 15.4369 10.261L15.4112 10.1393C15.9267 13.6272 16.5201 17.0852 16.8967 20.5366C17.0802 22.2586 17.2236 23.9882 17.177 25.6581C17.1495 26.4849 17.0735 27.3134 16.8576 27.9766C16.7556 28.2982 16.5962 28.55 16.5037 28.6146C16.4236 28.6684 16.3907 28.6967 16.1238 28.6385C16.0973 28.6321 16.0422 28.6122 15.9798 28.5809C14.0072 27.2731 12.2689 24.3442 10.7968 21.8304C10.7792 21.7996 10.7617 21.7688 10.7443 21.7381C8.1598 17.595 7.22392 12.8744 3.57053 8.62465C2.98113 8.0842 2.21928 7.64158 1.39808 7.44775C1.3883 7.44537 1.37851 7.44302 1.3687 7.4407C1.27741 7.4213 1.17681 7.39463 0.977046 7.40436C0.873924 7.41256 0.740125 7.42798 0.560223 7.5174C0.383372 7.60125 0.190426 7.79533 0.10765 7.97994C-0.0521066 8.35457 0.0105536 8.52424 0.0199198 8.64726C0.0404739 8.76856 0.0655791 8.84519 0.0885125 8.91374C0.181391 9.17283 0.262761 9.31646 0.33492 9.46488Z" fill="var(--stroke-0, #3B1B1B)"/>
</svg>
