<svg preserveAspectRatio="none" width="100%" height="100%" overflow="visible" style="display: block;" viewBox="0 0 7.87145 6.67103" fill="none" xmlns="http://www.w3.org/2000/svg">
<path id="Vector 101" d="M2.29644 3.76143C2.29849 3.96505 2.38136 4.15953 2.5268 4.30206C2.67224 4.44459 2.86835 4.52351 3.07197 4.52145C3.2756 4.5194 3.47007 4.43653 3.61261 4.29109C3.75514 4.14565 3.83406 3.94954 3.832 3.74592C3.832 3.74592 3.832 3.74592 3.832 3.74592C3.81683 3.956 3.81512 3.85613 3.83071 3.83673C3.84486 3.79912 3.86666 3.74739 3.89022 3.69355C3.93799 3.58447 3.99349 3.46325 4.04838 3.33784C4.21715 2.94318 4.40106 2.52011 4.46778 1.95901C4.46862 1.95107 4.46941 1.94312 4.47016 1.93517C4.52577 1.43978 4.36379 0.802902 3.88786 0.405978C3.88195 0.400944 3.876 0.395965 3.87003 0.391041C3.32098 -0.0355278 2.71602 -0.0770865 2.15035 0.0943937C2.14591 0.0958332 2.14147 0.0972854 2.13705 0.0987506C0.920325 0.543655 0.533008 1.6037 0.221937 2.34567C0.219082 2.35298 0.216258 2.36029 0.213465 2.36761C-0.216425 3.54579 0.0578545 4.70733 0.5501 5.6578C0.553847 5.66476 0.557642 5.67169 0.561485 5.67858C1.06283 6.5025 1.83006 6.60048 2.29426 6.66762C2.31809 6.67015 2.389 6.67156 2.41296 6.67085C2.41881 6.67066 2.42467 6.67046 2.43053 6.67024C3.78915 6.59414 4.92972 6.2262 6.06875 5.84733C6.07073 5.84665 6.07663 5.84459 6.07859 5.84389C6.07946 5.84358 6.08033 5.84327 6.0812 5.84295C6.36506 5.74134 6.58783 5.62823 6.76706 5.53488C6.9286 5.45013 7.09357 5.36817 7.31816 5.29518C7.45154 5.26124 7.58235 5.20434 7.68478 5.11185C7.7872 5.01942 7.85272 4.90015 7.868 4.77128C7.88327 4.64242 7.84744 4.51114 7.76945 4.39733C7.69148 4.28346 7.5776 4.19756 7.45584 4.13339C7.45584 4.13339 7.45584 4.13339 7.45584 4.13339C7.16413 3.99775 6.80369 3.92564 6.45525 3.94301C6.06325 3.96149 5.74076 4.05821 5.4774 4.15057C5.47657 4.15086 5.47574 4.15116 5.47492 4.15145L5.48476 4.14801C4.42581 4.50753 3.32247 4.85348 2.35383 4.91606C2.3498 4.91627 2.34579 4.91649 2.34179 4.9167L2.46048 4.91993C2.10449 4.90491 1.91126 4.82488 1.96861 4.87955C1.96868 4.8798 1.96875 4.88004 1.96881 4.88028C1.60304 4.25088 1.44922 3.46778 1.66376 2.91952C1.66509 2.91601 1.66642 2.91251 1.66778 2.90902C1.92249 2.21716 2.28432 1.65565 2.62431 1.56894C2.62567 1.56848 2.62704 1.56803 2.62841 1.56758C2.72068 1.52712 2.88932 1.57345 2.88676 1.58519C2.88672 1.58515 2.88666 1.58509 2.88658 1.58502C2.90954 1.60362 2.95245 1.65271 2.94132 1.79085C2.94112 1.79292 2.94091 1.79501 2.94069 1.79711C2.91583 2.04093 2.79391 2.37767 2.64183 2.72155C2.59252 2.83429 2.53982 2.9492 2.48316 3.07841C2.4548 3.14357 2.42562 3.21101 2.3937 3.29526C2.36508 3.39808 2.31529 3.42129 2.29644 3.76143Z" fill="var(--stroke-0, #3B1B1B)"/>
</svg>
