<svg preserveAspectRatio="none" width="100%" height="100%" overflow="visible" style="display: block;" viewBox="0 0 5.41306 5.40487" fill="none" xmlns="http://www.w3.org/2000/svg">
<path id="Vector 107" d="M1.50561 1.54785C1.71087 1.54785 1.90772 1.46631 2.05286 1.32117C2.198 1.17603 2.27954 0.979184 2.27954 0.773926C2.27954 0.568668 2.198 0.371817 2.05286 0.226678C1.90772 0.0815384 1.71087 0 1.50561 0C1.09898 0.0213783 0.974559 0.179257 0.874524 0.25423C0.780785 0.339889 0.728768 0.407884 0.682319 0.470676C0.592714 0.595244 0.537475 0.697936 0.485972 0.798976C0.318792 1.13716 0.219411 1.4395 0.125661 1.7458C0.125023 1.74792 0.124388 1.75004 0.123755 1.75216C-0.188794 2.77723 0.131509 3.827 0.628882 4.5603C0.629195 4.56075 0.629508 4.5612 0.629821 4.56166C1.06517 5.161 1.64533 5.31211 2.10334 5.38382C2.10395 5.3839 2.10456 5.38398 2.10517 5.38407C2.67218 5.46961 3.25624 5.27948 3.64923 5.03049C3.65183 5.0289 3.65444 5.0273 3.65704 5.02569C4.87795 4.19163 5.16609 3.03014 5.39743 2.01046C5.39845 2.00525 5.39929 2 5.39996 1.99473C5.4049 1.97634 5.41005 1.91975 5.41305 1.90095C5.4161 1.44595 4.55541 1.02556 4.32512 0.85465C4.32146 0.852334 4.31776 0.850172 4.314 0.848167C4.22016 0.799752 4.11992 0.854063 4.04427 0.903095C3.90078 1.00116 3.78194 1.12695 3.66008 1.24733C3.65825 1.24916 3.65722 1.25165 3.65722 1.25424C3.65722 1.25683 3.65825 1.25931 3.66008 1.26114C3.66191 1.26297 3.6644 1.264 3.66699 1.264C3.66958 1.264 3.67206 1.26297 3.67389 1.26114C3.67389 1.26114 3.67389 1.26114 3.67389 1.26114C3.79559 1.14083 3.91461 1.01527 4.05506 0.919372C4.12929 0.870665 4.22433 0.822658 4.3048 0.865397C4.30812 0.867168 4.31141 0.869085 4.31467 0.871149C4.4547 0.990836 4.25886 1.23073 4.0558 1.37053C3.84912 1.52291 3.62138 1.62718 3.59961 1.74346L3.6127 1.64968C3.61159 1.65365 3.61064 1.65764 3.60985 1.66167C3.46501 2.45728 3.10056 3.26303 2.70672 3.49144C2.70566 3.4921 2.7046 3.49277 2.70354 3.49343C2.53196 3.59764 2.43769 3.61448 2.33735 3.60617C2.33711 3.60614 2.33686 3.60611 2.33662 3.60609C2.13688 3.58927 2.02193 3.50067 2.05568 3.54369C2.05569 3.54371 2.0557 3.54374 2.05571 3.54377C1.70401 3.09709 1.47913 2.60566 1.60713 2.19425C1.6074 2.19336 1.60766 2.19247 1.60793 2.19159C1.68439 1.93736 1.77466 1.68212 1.86835 1.49531C1.8946 1.44262 1.92296 1.39585 1.93414 1.38105C1.93825 1.37457 1.94077 1.3761 1.91058 1.4042C1.87431 1.42262 1.82467 1.5278 1.50561 1.54785Z" fill="var(--stroke-0, #3B1B1B)"/>
</svg>
