<svg preserveAspectRatio="none" width="100%" height="100%" overflow="visible" style="display: block;" viewBox="0 0 16.8496 16.8636" fill="none" xmlns="http://www.w3.org/2000/svg">
<path id="Vector 62" d="M13.879 0.562064C13.5578 0.883293 13.3773 1.31897 13.3773 1.77326C13.3773 2.22755 13.5578 2.66323 13.879 2.98446C14.2003 3.30569 14.6359 3.48615 15.0902 3.48615C15.5445 3.48615 15.9802 3.30569 16.3014 2.98446C16.3014 2.98446 16.3014 2.98446 16.3014 2.98446C16.3262 2.95954 16.3454 2.94017 16.3833 2.89853C16.4262 2.84405 16.4491 2.84785 16.6115 2.58916C16.6434 2.53398 16.6815 2.46507 16.7252 2.35695C16.7469 2.30258 16.7701 2.23791 16.7919 2.15562C16.8027 2.11444 16.8132 2.06878 16.8224 2.01738C16.8313 1.95668 16.8394 1.945 16.8481 1.77041C16.8621 1.49214 16.7827 0.996591 16.4334 0.596845C16.1074 0.196846 15.5717 0.0409522 15.4276 0.0261083C15.1398 -0.0207765 14.9681 0.00604045 14.8421 0.0251979C14.7171 0.046997 14.6374 0.0720856 14.5737 0.0933659C14.5403 0.104719 14.5121 0.115395 14.4871 0.125374C14.4372 0.145345 14.3999 0.162553 14.3682 0.177849C14.2619 0.230432 14.2307 0.251617 14.1945 0.273002C14.0711 0.349739 14.0331 0.379507 13.9753 0.420445C13.8745 0.493525 13.7944 0.555413 13.7165 0.616168C13.5599 0.738806 13.4158 0.856198 13.275 0.972419C12.4061 1.69369 11.5984 2.41164 10.7819 3.14255C10.7669 3.15605 10.7231 3.19773 10.7089 3.21209C10.6759 3.24537 10.643 3.27859 10.6102 3.31176C7.10365 6.87959 3.94016 10.6175 0.695688 14.6145L0.718097 14.5874C0.715729 14.5904 0.71336 14.5935 0.710992 14.5966C0.623843 14.7097 0.553023 14.8387 0.488011 14.9779C0.344995 15.2853 0.227101 15.6448 0.0571661 15.9667C0.000859946 16.0746 -0.0110421 16.2201 0.00922436 16.3564C0.0303534 16.4936 0.0819555 16.6105 0.167533 16.696C0.25311 16.7816 0.369925 16.8332 0.507134 16.8543C0.64348 16.8746 0.789016 16.8627 0.896871 16.8064C0.896871 16.8064 0.896871 16.8064 0.896871 16.8064C1.21825 16.6371 1.59135 16.505 1.91991 16.302C2.06826 16.2105 2.20694 16.1051 2.32434 15.9796C2.32753 15.9762 2.33072 15.9728 2.33391 15.9694C2.33823 15.9638 2.35219 15.948 2.35632 15.9423C5.71444 12.5335 9.58638 9.23609 13.0444 5.72223C13.0771 5.68922 13.1098 5.65615 13.1427 5.62304L13.0696 5.69258C13.8661 4.97918 14.6674 4.26851 15.4565 3.61385C15.5818 3.51034 15.7088 3.40711 15.8268 3.31484C15.8837 3.27026 15.9427 3.22531 15.9819 3.197C15.9978 3.18499 16.0259 3.16777 15.978 3.19789C15.9603 3.20801 15.948 3.21814 15.8615 3.26105C15.8353 3.27367 15.803 3.28866 15.7575 3.30686C15.7347 3.31596 15.7086 3.32586 15.6772 3.33656C15.6171 3.35659 15.5406 3.38082 15.4183 3.40216C15.2951 3.42086 15.1255 3.4476 14.8395 3.40102C14.6965 3.38632 14.1627 3.23115 13.8374 2.83216C13.489 2.43344 13.41 1.93929 13.424 1.6628C13.4326 1.48931 13.4406 1.47785 13.4495 1.41766C13.4585 1.36674 13.4689 1.32158 13.4796 1.28092C13.5012 1.19967 13.5239 1.13612 13.5452 1.08294C13.5879 0.97721 13.6246 0.911018 13.6548 0.858865C13.807 0.617042 13.8148 0.638217 13.843 0.60015C13.865 0.575934 13.8718 0.56942 13.879 0.562064Z" fill="var(--stroke-0, #4C3131)"/>
</svg>
