<svg preserveAspectRatio="none" width="100%" height="100%" overflow="visible" style="display: block;" viewBox="0 0 5.0961 9.06409" fill="none" xmlns="http://www.w3.org/2000/svg">
<path id="Vector 92" d="M1.69981 1.03119C1.74596 0.808587 1.70179 0.576767 1.57702 0.386729C1.45225 0.196691 1.25709 0.0640019 1.03449 0.0178515C0.811885 -0.0282989 0.580065 0.0158701 0.390027 0.140642C0.199989 0.265413 0.0673001 0.460567 0.0211498 0.683171C-0.0263681 1.01783 0.0198563 1.04417 0.0281302 1.13606C0.0411688 1.2013 0.0580058 1.26459 0.0708875 1.30979C0.100908 1.41441 0.128696 1.49553 0.15619 1.57385C0.990125 3.69691 1.94677 5.54583 2.9277 7.48124L2.92215 7.4703C2.92276 7.47152 2.92336 7.47274 2.92397 7.47396C3.11615 7.85797 3.30441 8.20537 3.42896 8.48427C3.42905 8.48449 3.42915 8.48471 3.42925 8.48493C3.48093 8.60112 3.57068 8.64298 3.71981 8.67074C3.85378 8.69644 4.06364 8.7547 4.2343 8.99619C4.24458 9.01126 4.25442 9.0257 4.26242 9.03672C4.2706 9.04782 4.27744 9.05514 4.28614 9.05937C4.29484 9.06359 4.30482 9.06443 4.31861 9.06399C4.33221 9.06346 4.34965 9.06225 4.36785 9.06099C4.36785 9.06099 4.36785 9.06099 4.36785 9.06099C4.67146 9.03414 4.92806 8.78487 5.024 8.51417C5.13353 8.21817 5.10538 7.95239 5.02528 7.77195C5.02513 7.7716 5.02497 7.77124 5.02481 7.77089C4.82864 7.34053 4.6121 7.02098 4.45788 6.70836C4.4574 6.70739 4.45691 6.70642 4.45643 6.70545C4.45533 6.70326 4.452 6.69669 4.45088 6.69451C3.49828 4.82238 2.5025 2.86323 1.77275 1.00309C1.75246 0.945666 1.73307 0.887237 1.71973 0.840379C1.71398 0.820566 1.70895 0.799338 1.70904 0.799094C1.70268 0.814608 1.73543 0.763157 1.69981 1.03119Z" fill="var(--stroke-0, #3B1B1B)"/>
</svg>
