<svg preserveAspectRatio="none" width="100%" height="100%" overflow="visible" style="display: block;" viewBox="0 0 4.7592 10.8759" fill="none" xmlns="http://www.w3.org/2000/svg">
<path id="Vector 19" d="M1.15242 2.90953C0.801173 3.26079 0.449921 3.61204 0.0986699 3.96329C0.801173 4.66579 1.50368 5.36829 2.20618 6.0708C2.55743 5.71955 2.90868 5.36829 3.25993 5.01704C3.53902 4.72119 3.58894 4.59158 3.67677 4.44898C3.75368 4.31247 3.81183 4.19433 3.86565 4.08058C4.21319 3.32347 4.43412 2.6733 4.67401 2.00239L1.78069 1.4201C1.78065 1.42085 1.7806 1.42161 1.78056 1.42236C1.5848 3.90043 0.632201 6.54449 0.0150956 9.09473C0.0148865 9.09557 0.0146797 9.09641 0.0144752 9.09724C-0.0387392 9.31478 0.0545944 9.5485 0.297353 9.80686C0.510967 10.0484 0.878897 10.2699 1.28256 10.6338C1.29593 10.6609 1.30881 10.6876 1.32156 10.7142C1.36436 10.7546 1.40716 10.795 1.44996 10.8355C1.47721 10.8467 1.5046 10.858 1.53247 10.8698C2.18575 10.9124 2.64698 10.7242 2.98056 10.5827C3.3472 10.4108 3.5477 10.2108 3.60323 9.99444C3.60346 9.99353 3.60369 9.99264 3.60391 9.99175C4.25936 7.25275 4.51617 4.5517 4.75587 1.59768C4.75592 1.59672 4.75598 1.59576 4.75604 1.5948C4.85848 -0.150021 2.44321 -0.6361 1.86272 1.01251C1.63811 1.6471 1.40259 2.3075 1.16979 2.80955C1.13723 2.87877 1.10473 2.94254 1.08222 2.98219C1.07022 3.01362 1.01445 3.06024 1.15242 2.90953Z" fill="var(--stroke-0, black)"/>
</svg>
