<svg preserveAspectRatio="none" width="100%" height="100%" overflow="visible" style="display: block;" viewBox="0 0 9.33055 10.6247" fill="none" xmlns="http://www.w3.org/2000/svg">
<path id="Vector 51" d="M4.44225 3.64391C4.44225 4.23376 4.44225 4.8236 4.44225 5.41344C5.62193 5.41344 6.80162 5.41344 7.98131 5.41344C7.98131 4.8236 7.98131 4.23376 7.98131 3.64391C7.97035 3.32684 8.03427 2.60235 7.57821 1.77993C7.51269 1.66439 7.43857 1.55301 7.35898 1.44946C7.35258 1.44113 7.34614 1.43283 7.33964 1.42455C6.51702 0.477562 5.79519 0.225125 4.91782 0.0482528C4.89821 0.0451481 4.87853 0.0421838 4.85879 0.0393623C3.95698 -0.0956591 2.90371 0.111486 2.07309 0.741346C2.04225 0.764491 2.01183 0.788019 1.98163 0.812093C1.14176 1.4445 0.484979 2.70675 0.703476 3.92622C0.712991 3.98604 0.723715 4.0436 0.736114 4.10193C1.34642 7.63963 5.56984 9.03027 6.21051 9.40539L5.96426 6.9311C5.97276 6.92027 5.97978 6.91231 5.98486 6.90704C6.04582 6.86352 5.86262 7.09932 5.64203 7.30778C5.41565 7.52785 5.13186 7.77825 4.82498 8.02587C4.20915 8.52164 3.4942 9.01392 2.7282 9.31924L2.75493 9.31501C2.74288 9.3192 2.73084 9.32333 2.71884 9.3274C2.23648 9.49153 1.73801 9.58816 1.22946 9.65746C0.897857 9.70307 0.561258 9.73801 0.221924 9.78113C0.147949 9.79055 0.0739746 9.79996 0 9.80937C0 9.95851 0 10.1077 0 10.2568C0.0739746 10.2662 0.147949 10.2756 0.221924 10.285C0.561119 10.3282 0.903326 10.3628 1.24988 10.3894C1.78146 10.4307 2.32183 10.4506 2.87089 10.4775C2.88457 10.4782 2.89829 10.4789 2.91206 10.4796C2.91719 10.4779 2.93375 10.4774 2.93879 10.4754C4.70163 10.3539 6.47101 11.3807 8.83488 9.31103C8.88335 9.25434 8.93214 9.19334 8.97903 9.12985C9.52137 8.36335 9.43378 7.28026 8.73277 6.65556C7.72905 5.8443 7.32558 5.80488 6.82234 5.51958C6.35139 5.2837 5.94696 5.05895 5.61303 4.82051C4.93582 4.33211 4.6287 3.88969 4.49961 3.3017C4.50099 3.30814 4.50227 3.31496 4.50347 3.32245C4.51783 3.39659 4.4894 3.51968 4.4424 3.58371C4.3957 3.65155 4.35282 3.66503 4.33225 3.67247C4.3311 3.67268 4.32997 3.67292 4.32887 3.67318C4.29432 3.68456 4.29609 3.65922 4.38614 3.65854C4.38829 3.65858 4.3905 3.65863 4.39276 3.65871C4.44337 3.65967 4.52327 3.66987 4.57607 3.68283C4.62791 3.68928 4.65442 3.72527 4.5568 3.61107C4.55534 3.6092 4.55388 3.60732 4.55241 3.60541C4.53422 3.58177 4.51602 3.55453 4.50024 3.52666C4.38732 3.30206 4.45421 3.28923 4.44225 3.64391Z" fill="var(--stroke-0, black)"/>
</svg>
