<svg preserveAspectRatio="none" width="100%" height="100%" overflow="visible" style="display: block;" viewBox="0 0 11.6445 28.7167" fill="none" xmlns="http://www.w3.org/2000/svg">
<path id="Vector 22" d="M7.7118 12.6128C7.52842 12.8484 7.34505 13.0839 7.16167 13.3194C7.63275 13.6862 8.10382 14.0529 8.57489 14.4197C8.75827 14.1841 8.94164 13.9486 9.12502 13.7131C9.62848 13.0534 9.9738 12.3868 10.2876 11.6998C11.1087 9.8561 11.587 7.88182 11.6428 5.84944C11.6431 5.83517 11.6435 5.8209 11.6439 5.80662C11.6692 4.08139 10.9222 2.64123 10.2181 1.45505C10.2076 1.43792 10.1972 1.42076 10.1869 1.40359C9.69379 0.654145 8.83784 -0.0477092 7.64359 0.00254536C7.59504 0.00544798 7.54519 0.00977111 7.49562 0.0154841C6.18717 0.117591 5.1398 1.20547 4.73187 2.0215C4.27404 2.8705 4.06906 3.65614 3.89825 4.41179C3.57522 5.91503 3.46432 7.33626 3.31432 8.66327C3.30949 8.70679 3.30467 8.7502 3.29987 8.79351C2.89125 12.5768 2.33039 16.2915 1.98912 20.1863L2.02338 19.9449C2.02034 19.9597 2.01729 19.9744 2.01422 19.9892C1.58479 22.0457 1.00916 24.1132 0.16997 26.0436C0.12776 26.1403 0.0847156 26.2369 0.0411242 26.3328C0.0408621 26.3333 0.0406014 26.3339 0.0403421 26.3345C-0.0840915 26.6097 0.10072 26.8496 0.303659 27.1408C0.517093 27.4196 0.638166 27.8822 0.406566 28.2188C0.392872 28.2385 0.379178 28.2582 0.365484 28.2779C0.375534 28.3248 0.385583 28.3717 0.395632 28.4186C0.41619 28.4309 0.436749 28.4433 0.457307 28.4556C0.807131 28.6748 1.45893 28.8121 2.0514 28.6368C2.63924 28.4766 3.0874 28.1799 3.22749 27.9281C3.22783 27.9274 3.22818 27.9268 3.22853 27.9261C3.28666 27.8185 3.34423 27.7101 3.4009 27.6019C4.52524 25.4432 5.38707 23.1742 5.88597 20.792C5.88952 20.7749 5.89305 20.7578 5.89656 20.7407C5.90643 20.6925 5.92693 20.5483 5.93081 20.4993C6.2527 16.7961 6.60858 12.9323 6.86072 9.11346C6.86376 9.06952 6.86678 9.02547 6.86979 8.98132C6.96483 7.56962 6.99823 6.22928 7.17336 5.02375C7.25933 4.42869 7.39131 3.86129 7.55978 3.48252C7.64174 3.29381 7.72907 3.16698 7.77598 3.11162C7.82682 3.05608 7.8201 3.0442 7.89167 3.01785C7.88558 3.01783 7.88012 3.01755 7.87537 3.01709C7.7679 2.99026 7.97398 2.86695 8.12743 2.97548C8.1401 2.98844 8.15267 3.00145 8.16512 3.01451C9.02104 3.90342 9.87009 4.80119 9.8531 5.76826C9.85289 5.78064 9.85263 5.79302 9.85232 5.8054C9.80644 7.56508 9.37776 9.34527 8.65473 10.964C8.38574 11.5592 8.06471 12.1544 7.7118 12.6128Z" fill="var(--stroke-0, black)"/>
</svg>
