<svg preserveAspectRatio="none" width="100%" height="100%" overflow="visible" style="display: block;" viewBox="0 0 6.20882 20.7277" fill="none" xmlns="http://www.w3.org/2000/svg">
<path id="Vector 2" d="M6.01712 2.05064C6.08102 1.49489 6.14492 0.939146 6.20882 0.3834C5.09732 0.2556 3.98583 0.1278 2.87434 0C2.81044 0.555746 2.74654 1.11149 2.68264 1.66724C2.64684 1.9785 2.6049 2.30121 2.56029 2.62195C1.93606 6.86817 1.05247 11.2081 0.0612344 15.4184C0.0605261 15.4213 0.0598198 15.4242 0.059116 15.4272C0.0459425 15.4814 0.0207758 15.6434 0.0166366 15.699C-0.0578017 17.0134 0.122766 18.169 0.454023 19.799C0.455385 19.8045 0.456776 19.81 0.458199 19.8155C0.410611 20.3079 0.965946 20.6025 1.4445 20.7277C1.86413 20.715 1.96535 20.6032 2.07522 20.5447C2.17429 20.4782 2.23374 20.4198 2.28601 20.3636C2.38722 20.2518 2.44816 20.15 2.49991 20.0489C2.60067 19.8475 2.65565 19.6495 2.69517 19.4525C2.77589 19.0426 2.78326 18.6388 2.81012 18.2644C2.81114 18.249 2.81216 18.2337 2.81318 18.2184C2.78655 18.203 2.75993 18.1877 2.7333 18.1723C2.72055 18.1809 2.70779 18.1895 2.69504 18.1981C2.38679 18.4041 2.03117 18.5618 1.70184 18.6818C1.54439 18.7383 1.39048 18.7881 1.26423 18.8146C1.20231 18.827 1.14453 18.8347 1.11738 18.8205C1.10518 18.813 1.09869 18.7998 1.12688 18.7713C1.16633 18.7498 1.18921 18.6725 1.52899 18.6578L2.51529 19.5699C2.51593 19.569 2.51656 19.5679 2.51717 19.5668C2.75955 18.616 3.27899 17.2031 3.36415 15.9435L3.32167 16.2154C3.32241 16.2124 3.32315 16.2093 3.32389 16.2063C4.34757 11.851 5.22693 7.54735 5.88471 3.08446C5.93215 2.74338 5.97736 2.39618 6.01712 2.05064Z" fill="var(--stroke-0, black)"/>
</svg>
