<svg preserveAspectRatio="none" width="100%" height="100%" overflow="visible" style="display: block;" viewBox="0 0 10.3305 11.5554" fill="none" xmlns="http://www.w3.org/2000/svg">
<path id="Vector 41" d="M2.44444 4.44501C2.11863 4.49479 1.79282 4.54456 1.46701 4.59434C1.56656 5.24596 1.66612 5.89758 1.76567 6.5492C2.09148 6.49942 2.41729 6.44964 2.7431 6.39987C3.23075 6.32523 3.70399 6.21534 4.16517 6.08111C5.3919 5.71811 6.53244 5.21252 7.62831 4.54071C7.6305 4.53935 7.63269 4.53799 7.63488 4.53663C8.61922 3.90356 8.68706 2.77599 8.48712 2.03451C8.48708 2.03437 8.48705 2.03423 8.48701 2.03409C8.23734 1.16426 7.63347 0.613605 6.94592 0.280467C6.94498 0.280029 6.94405 0.27959 6.94311 0.279153C5.20907 -0.429628 3.83053 0.369384 2.78116 0.92657C2.77827 0.928302 2.77538 0.930038 2.7725 0.931778C0.84311 2.25366 0.460272 4.09904 0.0665965 5.61818C0.0650615 5.62603 0.0635535 5.63388 0.0620725 5.64173C-0.205805 7.27792 0.435439 8.53846 1.17853 9.48936C1.2502 9.57813 1.48674 9.79091 1.58248 9.85297C1.58604 9.85528 1.5896 9.85759 1.59317 9.85989C3.4154 10.9932 5.77196 11.8776 8.29446 11.4424C8.30354 11.4433 8.33075 11.4381 8.33987 11.4386C8.34134 11.4382 8.3428 11.4378 8.34427 11.4374C8.57159 11.3787 8.78644 11.2852 8.99227 11.1743C9.4223 10.9423 9.8136 10.6354 10.2162 10.3905C10.2543 10.3673 10.2924 10.3441 10.3305 10.3209C10.313 10.2334 10.2955 10.1459 10.278 10.0584C10.2339 10.0516 10.1898 10.0449 10.1457 10.0381C9.68009 9.96661 9.20317 9.83462 8.75945 9.74531C8.54692 9.70253 8.34222 9.66944 8.14829 9.65718C8.14704 9.6571 8.14579 9.65701 8.14454 9.65693L8.18995 9.65312C6.50594 9.40701 5.09937 7.98961 3.46682 6.96394C3.46365 6.96189 3.46048 6.95984 3.45731 6.95779L3.86126 7.32141C3.47972 6.86751 3.26285 6.33323 3.26039 6.13631C3.26028 6.13525 3.26018 6.1342 3.26008 6.13315C3.37267 4.81707 3.61296 3.44802 4.14908 2.98816C4.14985 2.98745 4.15063 2.98675 4.1514 2.98604C4.87584 2.38923 5.73651 2.02937 6.1111 2.1879C6.11139 2.18799 6.11168 2.18809 6.11197 2.18818C6.33547 2.25618 6.52669 2.46565 6.55185 2.56934C6.55186 2.56937 6.55187 2.5694 6.55188 2.56944C6.58385 2.66536 6.58818 2.79086 6.57628 2.84369C6.5602 2.90312 6.57636 2.86112 6.58933 2.85808C6.58754 2.8592 6.58575 2.86032 6.58395 2.86143C5.67389 3.42147 4.64366 3.87956 3.61208 4.18249C3.22329 4.29572 2.83205 4.38575 2.44444 4.44501Z" fill="var(--stroke-0, black)"/>
</svg>
