<svg preserveAspectRatio="none" width="100%" height="100%" overflow="visible" style="display: block;" viewBox="0 0 14.207 10.6126" fill="none" xmlns="http://www.w3.org/2000/svg">
<path id="Vector 46" d="M4.9803 3.06498C5.23571 2.55415 5.49113 2.04332 5.74654 1.53249C4.72488 1.02166 3.70321 0.510829 2.68155 0C2.42614 0.510831 2.17072 1.02166 1.91531 1.53249C1.72773 1.90763 1.54692 2.28937 1.37511 2.67909C0.674469 4.3078 0.0461891 6.03285 0.00158882 8.10604C0.00149 8.11816 0.00139499 8.13029 0.00130486 8.14243C-0.028692 8.87 0.464934 9.5889 0.81882 9.85135C1.18554 10.149 1.47435 10.2649 1.73044 10.3634C2.24007 10.5445 2.64419 10.6046 3.08991 10.6126C3.09143 10.6126 3.09295 10.6126 3.09447 10.6126C5.595 10.5 6.792 8.96367 7.74994 7.75432C7.7528 7.75042 7.75564 7.74652 7.75849 7.74262C8.02711 7.38036 8.19799 6.96371 8.27823 6.54882C8.31846 6.34002 8.33901 6.13137 8.3361 5.90085C8.33404 5.78398 8.32747 5.66365 8.30382 5.50842C8.29058 5.42662 8.276 5.34172 8.23632 5.20635C8.21357 5.13329 8.19057 5.05544 8.12198 4.91211C8.08352 4.83628 8.04101 4.74787 7.92502 4.59653C7.79421 4.47579 7.6496 4.11043 6.78025 3.94804C6.31682 3.88786 5.91181 4.05167 5.73156 4.15843C5.54987 4.26335 5.45691 4.34972 5.38444 4.41797C5.31089 4.48888 5.25624 4.55447 5.22294 4.59687C5.14848 4.6923 5.10688 4.76177 5.07543 4.81611C5.0117 4.92887 4.98414 4.99627 4.95986 5.05506C4.91331 5.17165 4.8911 5.24993 4.87225 5.31894C4.83565 5.45734 4.8178 5.56145 4.8033 5.66245C4.77573 5.86211 4.76799 6.03704 4.77171 6.21519C4.78026 6.56724 4.83876 6.91868 4.96593 7.27153C4.97243 7.28947 4.97906 7.30728 4.98583 7.32495C5.47675 8.4487 6.10394 9.06761 7.21579 9.55549C7.22721 9.55989 7.23865 9.56422 7.2501 9.56848C9.94574 10.226 11.0073 8.94064 12.1276 8.46954C12.1681 8.44711 12.2832 8.37288 12.3203 8.34527C12.3306 8.33765 12.3408 8.33001 12.351 8.32234C13.0947 7.76045 13.6373 7.03021 13.9951 6.25724C13.9975 6.25198 14 6.24668 14.0024 6.24135C14.1921 5.86567 14.3236 5.03861 14.0543 4.41859C13.7309 3.65198 13.1864 3.37248 12.7888 3.10568C12.6508 3.02641 12.5127 2.94713 12.3746 2.86786C12.1141 3.05107 11.8536 3.23429 11.5932 3.4175C11.6211 3.57426 11.649 3.73101 11.677 3.88776C11.7285 4.26563 11.5892 4.69689 11.359 4.72158C11.1711 4.74085 11.098 4.55006 10.9979 4.73868C10.9965 4.74089 10.9952 4.74313 10.9938 4.74541C10.7874 5.09234 10.5356 5.377 10.2755 5.57234C10.2719 5.57504 10.2683 5.57774 10.2647 5.58041L10.4574 5.45614C9.92184 5.75374 9.42774 6.0249 9.0149 6.18743C8.59831 6.36612 8.32715 6.32814 8.44691 6.34605C8.44759 6.34631 8.44827 6.34657 8.44895 6.34684C8.44686 6.37973 8.14829 6.08335 8.18234 6.09276C8.18255 6.09342 8.18279 6.09419 8.18305 6.09511C8.18634 6.1088 8.17836 6.10192 8.17381 6.09371C8.17121 6.09101 8.17026 6.08628 8.16616 6.10675C8.16353 6.11847 8.16159 6.13367 8.14801 6.18449C8.14046 6.21083 8.13184 6.24475 8.10199 6.31976C8.08594 6.35816 8.06763 6.40493 8.01533 6.49763C7.98931 6.54246 7.95404 6.60201 7.88638 6.68879C7.85612 6.7273 7.80575 6.78793 7.73619 6.85502C7.6676 6.91953 7.57897 7.0023 7.40237 7.10432C7.2275 7.20793 6.82973 7.36945 6.37272 7.31016C5.51497 7.14927 5.37986 6.79341 5.25613 6.68165C5.14739 6.53964 5.11068 6.4615 5.07756 6.39658C5.01934 6.27466 5.00406 6.21891 4.98834 6.16939C4.96203 6.07947 4.95653 6.04093 4.95048 6.00704C4.94062 5.94523 4.93946 5.92066 4.93741 5.89891C4.93424 5.85865 4.93261 5.84087 4.93237 5.81763C4.93145 5.77483 4.94411 5.71348 4.98319 5.65596C4.98119 5.6585 4.97919 5.66104 4.97719 5.66358C4.33836 6.52471 3.3796 7.09602 3.1183 7.02676C3.11791 7.02676 3.11753 7.02676 3.11714 7.02676C3.00396 7.02809 2.84537 7.01922 2.82139 7.02896C2.81242 7.03991 2.8405 7.04112 2.98777 7.16335C3.05945 7.22666 3.16812 7.33295 3.2678 7.51573C3.36865 7.6951 3.43264 7.95175 3.42817 8.15523C3.42816 8.14816 3.42817 8.14107 3.42823 8.13397C3.44113 6.90074 3.90318 5.44054 4.51068 4.06144C4.65777 3.72779 4.8145 3.39654 4.9803 3.06498Z" fill="var(--stroke-0, black)"/>
</svg>
