<svg preserveAspectRatio="none" width="100%" height="100%" overflow="visible" style="display: block;" viewBox="0 0 13.8313 31.7324" fill="none" xmlns="http://www.w3.org/2000/svg">
<path id="Vector 127" d="M0.261695 1.51915C0.428515 1.68491 0.654351 1.77762 0.889523 1.77687C1.12469 1.77612 1.34994 1.68198 1.5157 1.51516C1.68146 1.34835 1.77417 1.12251 1.77342 0.887338C1.77267 0.652166 1.67853 0.426924 1.51171 0.261162C1.51171 0.261162 1.51171 0.261162 1.51171 0.261162C1.48305 0.235302 1.45853 0.201572 1.33771 0.126701C1.27229 0.0920496 1.1832 0.0304068 0.960209 0.00648218C0.750429 -0.0345817 0.308744 0.122539 0.154274 0.390312C-0.00757766 0.643071 0.00445402 0.803947 0 0.897349C0.00157404 0.992965 0.0129322 1.04307 0.0210245 1.08223C0.0384058 1.15728 0.0508504 1.18591 0.0598618 1.21051C0.0936777 1.29333 0.0978892 1.29376 0.105181 1.30911C0.116683 1.33036 0.118983 1.33384 0.121895 1.33893C0.126795 1.34727 0.128278 1.34967 0.130066 1.35264C0.13321 1.35783 0.136195 1.3627 0.136488 1.36318C0.138327 1.36619 0.140317 1.36944 0.142558 1.3731C0.146639 1.37976 0.153968 1.39173 0.156619 1.39607C0.163877 1.40794 0.174078 1.42465 0.183294 1.4398C0.197429 1.46301 0.220575 1.50121 0.234822 1.52483C0.270772 1.5844 0.303131 1.63838 0.340557 1.70118C0.407554 1.81357 0.482403 1.94052 0.547969 2.05261C0.686443 2.28931 0.824044 2.52811 0.961767 2.7697C2.77587 5.96935 4.4603 9.2664 6.10455 12.5908L6.08584 12.5503C6.08649 12.5518 6.08714 12.5533 6.08779 12.5548C8.30911 17.8317 10.8638 23.2091 12.303 28.5033L12.2984 28.4695C12.2984 28.4699 12.2985 28.4702 12.2985 28.4705C12.361 28.9727 12.4641 29.3961 12.4951 29.8846C12.5301 30.3912 12.4914 30.9515 12.3666 31.4935C12.3567 31.5362 12.3654 31.5848 12.3868 31.627C12.4084 31.6693 12.4409 31.7017 12.4811 31.7187C12.5213 31.7358 12.5672 31.7366 12.6126 31.7227C12.6578 31.7087 12.6988 31.6811 12.7226 31.6444C12.7226 31.6444 12.7226 31.6444 12.7226 31.6444C13.031 31.1613 13.3617 30.6617 13.5836 30.0692C13.8002 29.5068 13.8722 28.8547 13.8095 28.3005C13.8095 28.3002 13.8094 28.2998 13.8094 28.2994C13.8086 28.2926 13.8059 28.2724 13.8048 28.2656C12.3209 22.3832 9.96205 17.2203 7.71551 11.8509C7.71486 11.8493 7.71421 11.8478 7.71356 11.8463C7.71002 11.8381 7.6988 11.8139 7.69486 11.8059C6.03997 8.46049 4.34864 5.14805 2.50248 1.89147C2.36195 1.64495 2.22123 1.40072 2.07866 1.15703C2.01115 1.04161 1.93382 0.910449 1.86399 0.793305C1.82498 0.727847 1.7911 0.67132 1.75309 0.608337C1.73803 0.583382 1.71341 0.542746 1.69824 0.51784C1.68837 0.501619 1.67738 0.483606 1.66962 0.470921C1.66679 0.466293 1.65895 0.453481 1.65497 0.446978C1.65277 0.443388 1.65093 0.440387 1.64955 0.438135C1.64942 0.437924 1.6467 0.433458 1.64723 0.434325C1.6476 0.434955 1.64805 0.435632 1.6523 0.442866C1.65489 0.447402 1.65697 0.450476 1.66834 0.471481C1.67556 0.486715 1.67973 0.487059 1.71353 0.56983C1.72253 0.59442 1.73498 0.62304 1.75236 0.69808C1.76045 0.737237 1.77181 0.78734 1.77338 0.882954C1.76893 0.976353 1.78096 1.13723 1.61911 1.38999C1.46464 1.65776 1.02295 1.81488 0.813174 1.77381C0.590183 1.74989 0.501101 1.68825 0.435677 1.6536C0.314865 1.57873 0.290351 1.545 0.261695 1.51915Z" fill="var(--stroke-0, #3B1B1B)"/>
</svg>
