<svg preserveAspectRatio="none" width="100%" height="100%" overflow="visible" style="display: block;" viewBox="0 0 13.3924 12.3808" fill="none" xmlns="http://www.w3.org/2000/svg">
<path id="Vector 124" d="M2.03141 6.62669C2.16492 6.49318 2.23992 6.3121 2.23992 6.12329C2.23992 5.93448 2.16491 5.7534 2.0314 5.61989C1.89789 5.48638 1.71681 5.41138 1.528 5.41138C1.33918 5.41139 1.15811 5.48639 1.0246 5.6199C1.0246 5.6199 1.0246 5.6199 1.0246 5.6199C0.633995 5.98443 0.00894123 6.70283 0.00292265 7.5407C0.00129819 7.57461 0.000367582 7.60792 7.25389e-05 7.64192C3.99351e-05 7.64572 1.57952e-05 7.64952 0 7.65331C0.0508659 8.85005 0.496977 9.7399 1.15523 10.5816C1.15713 10.5839 1.15903 10.5861 1.16093 10.5884C1.83779 11.4113 2.80985 11.9411 3.77792 12.1941C3.77959 12.1945 3.78126 12.195 3.78294 12.1954C4.69265 12.4487 5.76944 12.4628 6.70826 12.1103C6.70844 12.1103 6.70861 12.1102 6.70879 12.1101C9.46822 10.908 10.9847 8.7422 12.6304 6.77931C12.6315 6.7779 12.6326 6.77648 12.6338 6.77507C13.5391 5.71381 13.5529 4.06779 13.0999 2.96732C13.0974 2.96058 13.0949 2.95385 13.0924 2.94713C12.723 1.93944 11.9358 1.14602 11.0808 0.661684C11.0758 0.658846 11.0709 0.656018 11.0659 0.653199C9.19399 -0.405704 7.09122 0.00942767 5.44419 0.591065C5.4314 0.595525 5.39381 0.610515 5.3814 0.615951C5.37633 0.61821 5.37126 0.620474 5.36619 0.622744C4.351 1.0882 3.43856 1.79498 2.73469 2.76507C2.73181 2.76916 2.72893 2.77325 2.72607 2.77735C2.40048 3.22813 2.18407 3.83051 2.20063 4.38495C2.21317 5.04982 2.43788 5.61511 2.67618 6.14539C2.68407 6.16247 2.69971 6.17658 2.71802 6.1851C2.73642 6.19358 2.75597 6.19577 2.77404 6.19072C2.7921 6.18567 2.80768 6.17365 2.81901 6.15685C2.83024 6.14008 2.8363 6.11989 2.83418 6.1012C2.83418 6.1012 2.83418 6.1012 2.83418 6.1012C2.76983 5.53541 2.7769 4.95497 2.93748 4.48379C3.07067 4.08725 3.30483 3.80203 3.6081 3.53699C3.61081 3.53461 3.61353 3.53223 3.61626 3.52985C4.29318 2.95253 5.21561 2.60108 6.07385 2.21794C6.07815 2.21605 6.08246 2.21416 6.08676 2.21228L6.02397 2.23716C7.49457 1.71745 9.06669 1.52017 10.1891 2.18571C10.1922 2.18749 10.1953 2.18929 10.1984 2.19109C10.7841 2.52892 11.2253 3.00387 11.4332 3.56769C11.4346 3.57151 11.436 3.57533 11.4374 3.57916C11.7419 4.40017 11.7198 5.12401 11.2645 5.70421C11.2639 5.705 11.2633 5.70579 11.2627 5.70658C9.7425 7.62411 8.08589 9.73255 6.14079 10.5731C6.14067 10.5731 6.14056 10.5731 6.14044 10.5732C5.52105 10.8119 4.86045 10.8462 4.16595 10.6806C4.16469 10.6803 4.16342 10.68 4.16216 10.6797C3.42151 10.5064 2.76371 10.1561 2.29742 9.62147C2.2961 9.61997 2.29479 9.61847 2.29347 9.61697C1.82177 9.08009 1.43138 8.26475 1.42382 7.65924C1.42382 7.65753 1.42383 7.65583 1.42385 7.65415C1.42398 7.63861 1.4244 7.62376 1.42511 7.60896C1.43865 7.27314 1.61145 7.03732 2.03141 6.62669Z" fill="var(--stroke-0, #3B1B1B)"/>
</svg>
