<svg preserveAspectRatio="none" width="100%" height="100%" overflow="visible" style="display: block;" viewBox="0 0 11.3681 8.94247" fill="none" xmlns="http://www.w3.org/2000/svg">
<path id="Vector 72" d="M0.00258034 7.98413C-0.01538 8.21965 0.060957 8.45266 0.214798 8.63191C0.368639 8.81115 0.587383 8.92193 0.822907 8.93989C1.05843 8.95785 1.29144 8.88152 1.47069 8.72768C1.64993 8.57383 1.76071 8.35509 1.77867 8.11957C1.77867 8.11957 1.77867 8.11957 1.77867 8.11957C1.7947 7.90928 1.82438 7.70119 1.86772 7.49582C2.22641 5.73992 3.64269 4.26823 5.27615 3.14008C5.28598 3.13325 5.29581 3.12644 5.30566 3.11962C6.93105 2.00062 8.64664 1.24379 10.4418 1.92956L10.2156 1.81724C10.2172 1.81835 10.2188 1.81946 10.2205 1.82056C10.2871 1.86223 10.7846 1.54419 10.9401 1.70773C10.9414 1.70904 10.9426 1.71037 10.9438 1.71173C10.9796 1.75186 11.0114 1.79461 11.0392 1.84009C11.1574 2.03123 11.1951 2.27054 11.2009 2.51398C11.2012 2.52845 11.2079 2.54299 11.2182 2.55429C11.2287 2.56559 11.242 2.57273 11.2564 2.57424C11.2708 2.57575 11.2853 2.57155 11.2979 2.56267C11.3104 2.55378 11.3199 2.54094 11.3232 2.52686C11.3232 2.52686 11.3232 2.52686 11.3232 2.52686C11.382 2.27608 11.386 2.0028 11.3174 1.72958C11.3014 1.66473 11.2817 1.60008 11.2598 1.53641C11.259 1.53424 11.2583 1.53206 11.2577 1.52986C11.2155 1.33409 11.4316 0.704551 11.1635 0.50979C11.1594 0.506758 11.1552 0.503747 11.1511 0.500756C11.1075 0.47069 10.9757 0.403557 10.9249 0.388441C8.71335 -0.571755 6.01477 0.399798 4.29288 1.65433C4.28192 1.6619 4.27097 1.66949 4.26002 1.67709C2.46525 2.92611 0.646065 4.67542 0.124856 7.12804C0.0652676 7.41031 0.0244729 7.69673 0.00258034 7.98413Z" fill="var(--stroke-0, #3B1B1B)"/>
</svg>
