<svg preserveAspectRatio="none" width="100%" height="100%" overflow="visible" style="display: block;" viewBox="0 0 2.35604 1.66016" fill="none" xmlns="http://www.w3.org/2000/svg">
<path id="Vector 55" d="M0.830078 0C0.609928 0 0.398794 0.0874544 0.243124 0.243124C0.0874544 0.398794 0 0.609928 0 0.830078C0 1.05023 0.0874544 1.26136 0.243124 1.41703C0.398794 1.5727 0.609928 1.66016 0.830078 1.66016C0.841676 1.66016 0.853274 1.66016 0.864872 1.66016C1.07364 1.66016 1.2824 1.66016 1.49117 1.66016C1.50277 1.66016 1.51437 1.66016 1.52596 1.66016C1.74611 1.66016 1.95725 1.5727 2.11292 1.41703C2.26859 1.26136 2.35604 1.05023 2.35604 0.830078C2.35604 0.609928 2.26859 0.398794 2.11292 0.243124C1.95725 0.0874544 1.74611 0 1.52596 0C1.51437 0 1.50277 0 1.49117 0C1.2824 0 1.07364 0 0.864872 0C0.853274 0 0.841676 0 0.830078 0Z" fill="var(--stroke-0, #4C3131)"/>
</svg>
