<svg preserveAspectRatio="none" width="100%" height="100%" overflow="visible" style="display: block;" viewBox="0 0 9.1891 8.89921" fill="none" xmlns="http://www.w3.org/2000/svg">
<path id="Vector 42" d="M6.3141 2.62294C6.3141 3.10211 6.3141 3.58127 6.3141 4.06044C7.27243 4.06044 8.23076 4.06044 9.1891 4.06044C9.1891 3.58127 9.1891 3.10211 9.1891 2.62294C9.13433 1.78845 8.82361 1.59029 8.67719 1.39038C8.50723 1.20827 8.36801 1.10159 8.23657 1.00538C7.97637 0.819345 7.74845 0.696234 7.52539 0.584129C7.23002 0.437488 6.9485 0.320882 6.66816 0.21519C6.66726 0.214852 6.66636 0.214514 6.66546 0.214177C4.30777 -0.451866 2.88453 0.57992 1.74185 1.33831C1.7415 1.33858 1.74114 1.33885 1.74079 1.33912C0.162535 2.57336 -0.0748187 4.42149 0.0171331 5.79291C0.0175568 5.799 0.0180067 5.80508 0.0184828 5.81116C0.0592386 6.45628 0.452425 6.99695 0.7517 7.24144C1.06199 7.50413 1.3243 7.61533 1.55525 7.70092C2.01646 7.86052 2.37947 7.8953 2.75376 7.93043C2.76707 7.93166 2.78036 7.93284 2.79363 7.93395C4.96556 7.99182 5.97675 6.74457 6.92745 5.94373C6.93386 5.93778 6.94024 5.93181 6.9466 5.92584C8.00116 4.95232 8.49103 3.57982 8.68858 2.7269L5.72391 2.10967C5.72204 2.12016 5.7202 2.13066 5.71838 2.14116C5.43275 3.89504 5.48651 5.5857 5.92194 7.33211C5.92688 7.35095 5.94345 7.40679 5.94957 7.42527C5.94994 7.42639 5.9503 7.4275 5.95067 7.42861C6.06316 7.77695 6.37978 8.36264 6.97798 8.68985C7.73756 9.10136 8.4621 8.85363 8.92436 8.40124C8.94988 8.3757 8.9753 8.35097 9.00067 8.32652C9.01001 8.25699 9.01935 8.18746 9.02869 8.11793C9.01067 8.08765 8.99268 8.05709 8.9748 8.02571C8.65907 7.46831 8.58222 6.98662 8.76749 6.83977C8.90365 6.72542 8.96735 6.70569 8.8835 6.45615C8.88326 6.45543 8.88302 6.45472 8.88278 6.454L8.91041 6.54716C8.59853 5.32874 8.52028 3.89863 8.70964 2.63196C8.7108 2.62434 8.71195 2.61672 8.7131 2.60911C9.012 0.818853 6.18843 0.230978 5.74844 1.99188C5.54911 3.00415 5.48752 3.60074 5.10823 3.96815C5.10605 3.9702 5.10387 3.97223 5.10168 3.97426C4.37605 4.68966 3.36737 5.06807 3.15453 4.90066C3.15291 4.9 3.15131 4.89932 3.14972 4.89861C3.01134 4.86498 2.8639 4.78321 2.84853 4.73749C2.84265 4.71917 2.87527 4.70259 2.99345 4.79061C3.10154 4.86293 3.3466 5.16815 3.36981 5.55202C3.37009 5.55556 3.37035 5.55909 3.3706 5.56262C3.31343 4.77165 3.56138 4.16515 3.79408 4.02751C3.79414 4.02746 3.7942 4.02742 3.79426 4.02737C4.58175 3.37199 5.54224 2.77474 5.65626 2.90623C5.65633 2.90625 5.65639 2.90628 5.65645 2.9063C5.86731 2.98557 6.06879 3.07056 6.244 3.15778C6.3741 3.22209 6.4939 3.29262 6.5545 3.33696C6.5832 3.35668 6.59793 3.37499 6.56282 3.33848C6.54706 3.28323 6.36454 3.25582 6.3141 2.62294Z" fill="var(--stroke-0, black)"/>
</svg>
