<svg preserveAspectRatio="none" width="100%" height="100%" overflow="visible" style="display: block;" viewBox="0 0 18.9962 21.6748" fill="none" xmlns="http://www.w3.org/2000/svg">
<path id="Vector 6" d="M17.767 3.67857C18.1767 3.27188 18.5865 2.8652 18.9962 2.45852C18.1829 1.63901 17.3695 0.819507 16.5561 0C16.1464 0.406682 15.7366 0.813365 15.3269 1.22005C14.9824 1.57867 14.8827 1.75878 14.7372 1.96066C14.6035 2.15569 14.4857 2.33579 14.3692 2.51375C13.1011 4.48903 11.7853 6.32568 10.3423 8.14803C10.3404 8.1504 10.3385 8.15277 10.3367 8.15514C8.22834 10.8369 5.74584 13.2085 3.3656 15.751C3.36502 15.7517 3.36444 15.7523 3.36386 15.7529C3.35333 15.7641 3.32245 15.7984 3.31237 15.8101C2.348 16.9131 1.6193 18.2401 0.836336 19.1375C0.835301 19.1386 0.834271 19.1398 0.833247 19.141L0.992725 19.0342C0.9326 19.0985 0.935597 19.1754 0.972002 19.2751C1.01855 19.3946 1.09958 19.6051 0.963601 19.7549C0.837032 19.9041 0.569387 19.9395 0.339358 19.8846C0.295953 19.8725 0.252548 19.8604 0.209143 19.8483C0.139429 19.9054 0.0697144 19.9625 0 20.0197C0.0033336 20.0646 0.00666721 20.1095 0.010001 20.1545C0.0433957 20.4204 0.0874965 20.749 0.338705 21.0774C0.578395 21.4098 1.09896 21.6526 1.54913 21.6703C1.90496 21.6928 2.20762 21.6273 2.43144 21.528C2.46163 21.5037 2.56423 21.4493 2.59092 21.4212C2.59302 21.42 2.59512 21.4188 2.59722 21.4175C4.12886 20.4626 5.25798 19.4605 6.24539 18.347L6.1939 18.4042C6.19448 18.4035 6.19506 18.4029 6.19564 18.4023C8.58247 15.8525 10.8497 13.1072 13.0542 10.303C13.0561 10.3006 13.0581 10.2981 13.06 10.2956C14.553 8.41279 15.9842 6.41168 17.2686 4.40899C17.3805 4.23785 17.4911 4.06946 17.5923 3.92199C17.6822 3.78575 17.8203 3.61696 17.767 3.67857Z" fill="var(--stroke-0, black)"/>
</svg>
