<svg preserveAspectRatio="none" width="100%" height="100%" overflow="visible" style="display: block;" viewBox="0 0 4.35951 6.49894" fill="none" xmlns="http://www.w3.org/2000/svg">
<path id="Vector 95" d="M1.35547 0.677734C1.35547 0.497988 1.28406 0.325604 1.15696 0.198504C1.02987 0.071404 0.857481 0 0.677734 0C0.497988 0 0.325604 0.071404 0.198504 0.198504C0.071404 0.325604 0 0.497988 0 0.677734C0.00978267 0.875486 0.0318672 0.881543 0.0435948 0.931908C0.0535558 0.962087 0.0657081 0.993335 0.0733646 1.01211C0.0911967 1.05577 0.105876 1.08789 0.121703 1.12178C0.151027 1.18421 0.179986 1.2414 0.207653 1.29494C0.839426 2.46454 1.50192 3.51678 2.17154 4.60458C2.17156 4.60463 2.17159 4.60467 2.17161 4.60471C2.46568 5.07318 2.79802 5.5692 3.06686 5.9823C3.06719 5.98284 3.06753 5.98337 3.06787 5.98391C3.16177 6.13398 3.29505 6.18867 3.49237 6.24666C3.60322 6.28276 3.7442 6.3353 3.87478 6.47702C3.87951 6.48226 3.88401 6.48728 3.888 6.49114C3.89205 6.49501 3.89568 6.4975 3.89982 6.49848C3.90397 6.49945 3.90833 6.49884 3.91368 6.49718C3.91897 6.49551 3.92524 6.49302 3.93181 6.49044C3.93181 6.49044 3.93181 6.49044 3.93181 6.49044C4.11441 6.41453 4.24709 6.23792 4.30671 6.05702C4.4125 5.73004 4.34483 5.43798 4.23123 5.25464C4.23081 5.25396 4.23038 5.25328 4.22995 5.2526C3.90253 4.74976 3.61109 4.34781 3.3194 3.88372C3.32329 3.88992 3.32327 3.88988 3.32324 3.88983C2.66457 2.82146 1.98228 1.72958 1.41152 0.672044C1.3889 0.628333 1.36617 0.583064 1.34894 0.546291C1.33987 0.526981 1.33254 0.510319 1.32918 0.50198C1.32767 0.498366 1.32732 0.496833 1.33009 0.505044C1.33216 0.525608 1.34627 0.504964 1.35547 0.677734Z" fill="var(--stroke-0, #3B1B1B)"/>
</svg>
