<svg preserveAspectRatio="none" width="100%" height="100%" overflow="visible" style="display: block;" viewBox="0 0 15.6367 9.37323" fill="none" xmlns="http://www.w3.org/2000/svg">
<path id="Vector 114" d="M1.05788 0.530003C0.985173 0.399139 0.863464 0.302516 0.719522 0.26139C0.57558 0.220263 0.421195 0.238002 0.290332 0.310704C0.159469 0.383406 0.0628456 0.505115 0.0217192 0.649057C-0.0194073 0.793 -0.00166851 0.947384 0.0710333 1.07825C0.0710333 1.07825 0.0710333 1.07825 0.0710333 1.07825C0.303366 1.49644 0.536125 1.91436 0.76957 2.33196C1.93047 4.38938 3.05135 6.44514 4.36887 8.46463C4.44248 8.57379 4.52223 8.68963 4.60141 8.79961C4.73959 8.96401 4.76101 9.08923 5.14856 9.3063C5.27756 9.36199 5.45398 9.41065 5.68369 9.33244C5.90859 9.24429 5.99098 9.1236 6.0603 9.01935C6.16103 8.84868 6.18308 8.73275 6.20926 8.62034C6.28515 8.21954 6.27879 7.91205 6.28264 7.589C6.28127 6.9516 6.25146 6.34317 6.2296 5.73485C6.1951 4.57329 6.11163 3.14456 6.35238 2.41594C6.40052 2.30729 6.4613 2.20357 6.53232 2.10839C6.77162 1.77811 7.16608 1.59254 7.41616 1.61427L7.11152 1.55877C7.22106 1.60555 7.33095 1.6569 7.43999 1.71127C8.78124 2.39354 9.92628 3.65911 10.9231 4.9807C10.9601 5.03013 10.998 5.08064 11.0371 5.13219C11.6368 6.00161 12.7081 6.71275 13.6864 6.99205C14.1788 7.14701 14.6692 7.24265 15.167 7.30435C15.2602 7.31512 15.3576 7.30186 15.4416 7.25631C15.5255 7.21084 15.5886 7.13798 15.6181 7.05078C15.6476 6.96359 15.6417 6.86735 15.6026 6.78028C15.5636 6.69314 15.4942 6.62346 15.4136 6.5754C15.0007 6.32848 14.604 6.08566 14.2281 5.8349C13.4443 5.31544 12.9053 4.83358 12.3849 4.11039C12.3493 4.06345 12.3132 4.01531 12.2761 3.96593C11.1834 2.53819 9.9365 1.13533 8.15379 0.24709C8.00723 0.176833 7.8552 0.112453 7.7001 0.0556267C7.6376 0.0329679 7.4619 -0.00241387 7.39547 0.000129998C6.43656 0.0423219 5.74207 0.617595 5.30817 1.25938C5.17994 1.45152 5.074 1.65744 4.99257 1.87364C4.59954 3.49868 4.90702 4.56095 4.97468 5.81558C5.02938 6.42166 5.08731 7.02406 5.10982 7.60881C5.12012 7.89313 5.12054 8.2025 5.08681 8.3938C5.08074 8.43849 5.06092 8.47278 5.08865 8.42296C5.11093 8.39272 5.14936 8.32034 5.29814 8.26186C5.45117 8.20934 5.56269 8.24754 5.61016 8.26839C5.71726 8.33769 5.5787 8.23602 5.51639 8.13576C5.44676 8.04068 5.37331 7.93501 5.30487 7.83348C4.04744 5.90738 2.90745 3.82526 1.75496 1.7811C1.5221 1.36455 1.28981 0.947487 1.05788 0.530003Z" fill="var(--stroke-0, #3B1B1B)"/>
</svg>
