<svg preserveAspectRatio="none" width="100%" height="100%" overflow="visible" style="display: block;" viewBox="0 0 17.816 12.282" fill="none" xmlns="http://www.w3.org/2000/svg">
<path id="Vector 85" d="M2.60451 7.57418C2.67629 7.37678 2.66671 7.15895 2.57788 6.9686C2.48906 6.77826 2.32825 6.631 2.13085 6.55922C1.93345 6.48744 1.71561 6.49701 1.52527 6.58584C1.33493 6.67467 1.18767 6.83547 1.11588 7.03287C1.11588 7.03287 1.11588 7.03287 1.11588 7.03287C0.852111 7.7699 0.637907 8.5504 0.634234 9.42943C0.636633 9.89991 0.706657 10.4134 0.948735 10.9128C0.965081 10.9463 0.982115 10.9794 0.999843 11.0123C1.42926 11.8504 2.3838 12.1776 3.01617 12.2521C3.05872 12.2583 3.10072 12.2639 3.14181 12.2691C3.62159 12.3219 4.01157 12.2066 4.35589 12.035C4.41377 12.0053 4.47043 11.9734 4.52604 11.9391C4.89628 11.7105 5.15225 11.3869 5.32303 11.0693C5.35712 11.006 5.38814 10.9423 5.41649 10.8783C5.87246 9.56108 5.29418 8.74388 4.92789 8.00004C4.89021 7.93351 4.85169 7.86786 4.81224 7.80272C4.19834 6.80805 3.15454 6.48392 2.34958 6.29855C2.25871 6.27824 2.16893 6.25856 2.08031 6.2396C1.73625 6.16808 1.34758 6.17219 0.970839 6.31862C0.816788 6.37904 0.664539 6.46156 0.518139 6.58018C0.199554 6.82521 0.0193793 7.26507 0.00508112 7.58547C-0.00937611 7.77741 0.00875682 7.94479 0.0375375 8.09567C0.127315 8.57296 0.386343 9.01365 0.721768 9.32716C0.838353 9.43749 0.962263 9.53333 1.08986 9.61673C1.66436 9.9767 2.20713 10.1238 2.79826 10.2087C2.94742 10.228 3.1002 10.2402 3.25884 10.2423C5.5023 10.2394 6.57699 8.20863 7.19132 6.89486C7.24107 6.78888 7.28904 6.68619 7.33394 6.59489C7.29765 6.66508 7.24552 6.79179 7.03604 6.93432C6.81295 7.09176 6.4764 7.0848 6.35756 7.04163C6.09426 6.95323 6.10725 6.91279 6.07996 6.90135C6.05578 6.87998 6.09207 6.91873 6.12141 6.95872C6.18676 7.04452 6.26998 7.16267 6.35724 7.28275C6.53558 7.52624 6.7314 7.79186 7.01609 8.06265C7.08978 8.13196 7.17089 8.20242 7.26289 8.27172C7.69319 8.61563 8.33343 8.68947 8.74797 8.60024C9.17854 8.51931 9.49516 8.36095 9.77416 8.21022C9.85591 8.16525 9.93367 8.11994 10.0072 8.07596C10.9752 7.52559 11.4164 6.416 11.661 5.87534C11.6838 5.82839 11.7073 5.79409 11.694 5.81431C11.6722 5.8429 11.6137 5.91822 11.4772 5.97965C11.3422 6.04189 11.1859 6.03819 11.1238 6.02358C10.9984 5.99032 11.073 6.00542 11.1373 6.05956C11.2849 6.16811 11.4945 6.36296 11.7197 6.56032C12.1819 6.93105 12.7192 7.51721 13.8221 7.57382C13.8836 7.5743 13.9447 7.57286 14.0054 7.56951C15.2866 7.51382 16.1905 6.54548 16.6559 5.77756C17.1532 4.97683 17.4432 4.15386 17.7174 3.42487C17.7513 3.33501 17.7782 3.24242 17.7976 3.1488C17.9456 1.64266 17.1665 1.133 16.7853 0.571059C16.7104 0.481077 16.4736 0.313393 16.3639 0.272718C16.3249 0.258248 16.2859 0.24421 16.2471 0.230595C15.244 -0.121628 14.1021 -0.0579389 13.1042 0.337033C12.8749 0.429466 12.6519 0.534696 12.4213 0.689311C12.4112 0.69685 12.401 0.704441 12.3908 0.712034C11.95 1.03136 11.637 1.50033 11.2889 1.90222C11.2874 1.90403 11.2865 1.90677 11.2863 1.90948C11.286 1.9122 11.2865 1.91466 11.2877 1.91668C11.289 1.9187 11.291 1.92022 11.2935 1.92127C11.296 1.92229 11.2989 1.92275 11.3012 1.92219C11.3012 1.92219 11.3012 1.92219 11.3012 1.92219C11.8194 1.79525 12.3684 1.73145 12.8361 1.60141C12.848 1.59793 12.86 1.5944 12.8721 1.59086C13.011 1.56328 13.1915 1.55027 13.3648 1.55554C14.1505 1.58089 14.8787 1.87123 15.5849 2.11777C15.6127 2.12752 15.6406 2.1376 15.6687 2.14801L15.2473 1.84967C15.4455 2.08727 15.6196 2.31294 15.7276 2.5029C15.8443 2.69426 15.8357 2.82041 15.8393 2.74236C15.8409 2.73491 15.8432 2.72674 15.8459 2.71973C15.3472 4.19296 14.6134 5.66093 13.8898 5.62128C13.87 5.62271 13.8494 5.62357 13.8281 5.62379C13.7665 5.65636 13.3566 5.45237 12.9644 5.10569C12.7566 4.93481 12.5516 4.74175 12.2384 4.51698C12.0724 4.40886 11.8979 4.26521 11.4959 4.17323C11.2936 4.12982 10.9907 4.13214 10.725 4.25213C10.4557 4.37205 10.2959 4.54295 10.1856 4.68956C10.0776 4.83765 10.0249 4.94563 9.97647 5.04189C9.61953 5.86573 9.42292 6.24533 9.04575 6.47141C8.98496 6.50793 8.92721 6.5416 8.87162 6.5723C8.68535 6.67673 8.51178 6.74514 8.41772 6.76035C8.31248 6.77168 8.38052 6.76493 8.38584 6.7782C8.36058 6.75933 8.32913 6.73288 8.29547 6.70131C8.16118 6.57609 8.00157 6.38494 7.83256 6.16922C7.74622 6.05991 7.66001 5.94613 7.54374 5.8066C7.48214 5.73503 7.42505 5.66243 7.29529 5.54531C7.2128 5.4854 7.16918 5.39864 6.83627 5.28954C6.68426 5.23674 6.30789 5.23098 6.05434 5.40889C5.8152 5.57084 5.74323 5.72706 5.69037 5.83253C5.63953 5.94799 5.5954 6.05323 5.55056 6.15749C5.01541 7.47815 4.25175 8.6297 3.26699 8.59886C3.1819 8.59972 3.09035 8.59461 2.99746 8.58419C2.6318 8.54432 2.2224 8.41272 1.97783 8.25401C1.92412 8.21926 1.87718 8.18272 1.83651 8.1448C1.72069 8.03652 1.65515 7.9167 1.6284 7.78605C1.61962 7.74338 1.6192 7.71304 1.61956 7.70824C1.62662 7.69289 1.59249 7.79725 1.54057 7.83048C1.53671 7.8327 1.54693 7.82417 1.56384 7.81686C1.60605 7.79752 1.68423 7.77755 1.78065 7.79174C1.85827 7.80488 1.9346 7.81922 2.0093 7.83556C2.69787 7.97954 3.26169 8.24033 3.4735 8.61429C3.50531 8.66672 3.53606 8.71907 3.56576 8.77152C3.90429 9.32725 4.06472 10.0687 3.94748 10.2195C3.93412 10.2486 3.92016 10.2764 3.90576 10.3027C3.83267 10.4369 3.74879 10.524 3.67882 10.5662C3.66013 10.5778 3.64064 10.5887 3.62078 10.5989C3.50362 10.6616 3.36941 10.687 3.33012 10.6811C3.29887 10.6777 3.26811 10.674 3.23804 10.6699C2.75376 10.6057 2.50378 10.4715 2.39325 10.2589C2.38609 10.2457 2.37911 10.2321 2.37231 10.2182C2.27106 10.013 2.21846 9.73295 2.21821 9.42443C2.21738 8.84697 2.37726 8.19997 2.60451 7.57418Z" fill="var(--stroke-0, #3B1B1B)"/>
</svg>
