<svg preserveAspectRatio="none" width="100%" height="100%" overflow="visible" style="display: block;" viewBox="0 0 12.5082 24.9249" fill="none" xmlns="http://www.w3.org/2000/svg">
<path id="Vector 1" d="M11.3151 3.95281C11.7128 3.43058 12.1105 2.90835 12.5082 2.38612C11.4637 1.59075 10.4193 0.795375 9.37482 0C8.97714 0.522228 8.57945 1.04446 8.18176 1.56669C7.90711 1.95422 7.90655 2.02035 7.8263 2.17298C7.76676 2.29918 7.71888 2.40984 7.67309 2.51831C7.58243 2.73411 7.50878 2.92196 7.43278 3.11864C6.43115 5.79203 5.54687 8.33298 4.48562 10.8166C4.48526 10.8175 4.4849 10.8183 4.48454 10.8192C4.47916 10.8318 4.4637 10.8699 4.45877 10.8827C2.90928 14.8122 1.73459 19.0143 0.0857801 22.6445C0.0823858 22.6515 0.0793292 22.6587 0.0766001 22.6661L1.37173 21.8535C1.50708 21.8493 1.64611 21.8663 1.771 21.9004C2.35252 22.0891 2.42964 22.3501 2.47305 22.4372C2.50678 22.5419 2.47418 22.5831 2.43247 22.6085C2.34394 22.6547 2.19838 22.6346 2.04454 22.6053C1.73399 22.5415 1.37329 22.424 1.11303 22.2892C1.08695 22.2755 1.06086 22.2619 1.03478 22.2483C0.977666 22.2625 0.920553 22.2768 0.86344 22.2911C0.846844 22.3154 0.830247 22.3397 0.81365 22.364C0.64855 22.6084 0.381144 22.8711 0.185613 23.1809C0.0899885 23.3386 0.00717956 23.5033 3.0458e-05 23.7276C-0.000739396 23.8416 0.0125307 23.9704 0.103349 24.1543C0.203388 24.3188 0.352317 24.6571 1.0297 24.8706C1.17567 24.9099 1.33614 24.9292 1.49334 24.9241C1.94437 24.8493 2.62536 24.5386 2.78848 24.1115C2.79364 24.1041 2.79847 24.0965 2.80297 24.0887C4.96499 20.1181 6.55984 16.2747 8.13384 12.2989L8.10807 12.3624C8.10845 12.3615 8.10884 12.3606 8.10922 12.3597C9.22556 9.74759 10.1649 7.04956 11.1075 4.53564C11.1748 4.36138 11.239 4.19875 11.3027 4.04726C11.3341 3.97256 11.3647 3.90331 11.3868 3.85647C11.3952 3.82538 11.473 3.72597 11.3151 3.95281Z" fill="var(--stroke-0, black)"/>
</svg>
