<svg preserveAspectRatio="none" width="100%" height="100%" overflow="visible" style="display: block;" viewBox="0 0 5.35359 5.19694" fill="none" xmlns="http://www.w3.org/2000/svg">
<path id="Vector 76" d="M1.04382 2.50221C1.18467 2.43179 1.29178 2.3083 1.34158 2.15891C1.39137 2.00952 1.37979 1.84646 1.30937 1.70562C1.23895 1.56477 1.11546 1.45766 0.966066 1.40786C0.816676 1.35806 0.653621 1.36965 0.512773 1.44007C0.512773 1.44007 0.512773 1.44007 0.512773 1.44007C0.469187 1.46435 0.384384 1.49444 0.25454 1.6077C0.119773 1.71211 -0.0104691 1.98952 0.00066644 2.17003C0.000650764 2.17133 0.000636995 2.17262 0.000625014 2.17392C-0.000286162 2.27035 0.00893724 2.36399 0.0249732 2.4519C0.530407 3.97981 1.58177 4.45409 2.59358 5.02677C2.60217 5.03081 2.61078 5.03475 2.61941 5.03858C3.20349 5.27873 3.68977 5.20299 4.07489 5.09061C4.08184 5.08824 4.08876 5.08581 4.09565 5.08335C4.55844 4.91064 4.88556 4.63539 5.13767 4.27936C5.17597 4.22448 5.24657 4.05623 5.26283 3.99131C5.26388 3.98705 5.26491 3.98278 5.26593 3.97851C5.52257 2.65103 5.17354 1.62935 4.76316 0.637831C4.75292 0.614853 4.71801 0.549141 4.70471 0.52779C4.7047 0.527777 4.70469 0.527765 4.70468 0.527752C4.61735 0.339052 4.17205 -0.0210869 3.86043 0.000968277C3.56108 -0.00700456 3.34276 0.122684 3.15458 0.304263C3.10884 0.354803 3.06501 0.402977 3.03194 0.446793C2.99883 0.49111 2.97886 0.531299 2.97499 0.574478C2.97112 0.617657 2.98364 0.660755 3.00835 0.71025C3.0331 0.759244 3.06768 0.814441 3.10372 0.872303C3.10372 0.872303 3.10372 0.872303 3.10372 0.872303C3.22255 1.08232 3.31049 1.2607 3.29747 1.36905C3.29376 1.50876 3.09465 1.38948 3.17014 1.484C3.17014 1.48401 3.17015 1.48401 3.17015 1.48402L3.1117 1.37398C3.44603 2.11965 3.68481 3.02651 3.57275 3.59384C3.57241 3.59555 3.57207 3.59725 3.57173 3.59894L3.69689 3.31089C3.63117 3.4209 3.52702 3.54784 3.46794 3.59931C3.46705 3.60014 3.46618 3.60096 3.46532 3.60178C3.2956 3.71271 3.13841 3.79657 3.14874 3.79923C3.14878 3.7994 3.14885 3.79957 3.14892 3.79976C2.32122 3.46788 1.32139 2.76964 1.19338 2.23599C1.18934 2.21543 1.18794 2.19841 1.18807 2.18488C1.18808 2.1847 1.18808 2.18452 1.18808 2.18434C1.19832 2.26635 1.11278 2.44735 1.0522 2.48742C0.99553 2.53495 1.00019 2.52186 1.04382 2.50221Z" fill="var(--stroke-0, #3B1B1B)"/>
</svg>
