<svg preserveAspectRatio="none" width="100%" height="100%" overflow="visible" style="display: block;" viewBox="0 0 9.47548 18.6599" fill="none" xmlns="http://www.w3.org/2000/svg">
<path id="Vector 34" d="M8.81153 2.82175C9.03285 2.3238 9.25416 1.82584 9.47548 1.32789C8.47957 0.885258 7.48365 0.442629 6.48774 0C6.26643 0.497956 6.04511 0.995911 5.8238 1.49387C5.70977 1.75042 5.59571 2.00706 5.48166 2.26379C4.54774 4.36611 3.61386 6.4744 2.70254 8.59939C2.70252 8.59943 2.7025 8.59948 2.70248 8.59953C1.84616 10.603 1.80655 12.9347 1.02192 14.9704C1.02189 14.9705 1.02185 14.9705 1.02182 14.9706C0.807831 15.5334 0.598998 16.0981 0.416344 16.6965C0.329911 16.9791 0.253152 17.2733 0.185703 17.5457C0.123802 17.7933 0.061901 18.0409 0 18.2885C0.495175 18.4123 0.99035 18.5361 1.48552 18.6599C1.54743 18.4123 1.60933 18.1647 1.67123 17.9171C1.73887 17.6444 1.80394 17.3957 1.88155 17.1414C2.04456 16.6065 2.24455 16.0627 2.4524 15.5167C2.45244 15.5166 2.45247 15.5165 2.4525 15.5164C3.22289 13.5178 4.86378 11.8613 5.70739 9.88808C5.70741 9.88803 5.70743 9.88799 5.70745 9.88794C6.60842 7.78706 7.53678 5.69103 8.46959 3.59122C8.58351 3.3348 8.69751 3.07831 8.81153 2.82175Z" fill="var(--stroke-0, black)"/>
</svg>
