<svg preserveAspectRatio="none" width="100%" height="100%" overflow="visible" style="display: block;" viewBox="0 0 9.57947 2.57625" fill="none" xmlns="http://www.w3.org/2000/svg">
<path id="Vector 40" d="M1.21875 0.138647C0.8125 0.138647 0.40625 0.138647 0 0.138647C0 0.951147 0 1.76365 0 2.57615C0.40625 2.57615 0.8125 2.57615 1.21875 2.57615C1.38546 2.57747 1.56835 2.56624 1.70642 2.55636C1.91973 2.54097 2.1177 2.52344 2.31889 2.5053C2.31896 2.50529 2.31903 2.50529 2.31911 2.50528C3.36669 2.40868 4.38161 2.19811 5.39013 2.02793C5.39045 2.02788 5.39077 2.02782 5.3911 2.02777C6.52531 1.8597 7.78526 1.49223 8.89138 1.06751C9.02009 1.02 9.14766 0.9725 9.27782 0.92466C9.37837 0.887295 9.47892 0.849929 9.57947 0.812564C9.53772 0.602131 9.49596 0.391699 9.45421 0.181267C9.34701 0.185122 9.23981 0.188978 9.13262 0.192833C8.99647 0.197827 8.86316 0.200747 8.72934 0.202412C7.53829 0.229088 6.46705 0.0860342 5.26448 0.0241575C5.26413 0.0241452 5.26379 0.024133 5.26344 0.0241208C4.19065 -0.0122867 3.12724 -0.016934 2.09903 0.0777371C2.09896 0.0777434 2.09889 0.0777497 2.09882 0.077756C1.90576 0.0951981 1.71403 0.112011 1.53305 0.125034C1.40484 0.133912 1.31928 0.139418 1.21875 0.138647Z" fill="var(--stroke-0, black)"/>
</svg>
