<svg preserveAspectRatio="none" width="100%" height="100%" overflow="visible" style="display: block;" viewBox="0 0 20.2698 11.7228" fill="none" xmlns="http://www.w3.org/2000/svg">
<path id="Vector 119" d="M13.4 4.44195C13.2242 4.44195 13.0555 4.51181 12.9311 4.63616C12.8068 4.76051 12.7369 4.92917 12.7369 5.10503C12.7369 5.28089 12.8068 5.44955 12.9311 5.5739C13.0555 5.69826 13.2242 5.76812 13.4 5.76812C13.4568 5.76717 13.5436 5.77192 13.6828 5.74882C13.8163 5.72853 14.0411 5.64862 14.1967 5.48015C14.4971 5.12372 14.4544 4.88425 14.471 4.71427C14.471 4.71121 14.4711 4.70815 14.4711 4.7051C14.4386 3.88759 14.2815 3.28061 13.9638 2.64019C13.9132 2.54332 13.8577 2.44836 13.7969 2.35619C13.7842 2.33701 13.7714 2.31785 13.7584 2.29873C13.1556 1.43265 12.3512 0.802129 11.3997 0.392811C11.3528 0.373177 11.3052 0.354045 11.2576 0.335738C9.37931 -0.365972 7.54932 0.180114 6.02564 0.634003C5.94835 0.657747 5.87119 0.681676 5.79466 0.705533C3.7527 1.37404 2.28723 2.79596 1.03912 4.24122C0.951798 4.34416 0.865532 4.44786 0.780334 4.55221C0.1841 5.25265 -0.136217 6.3149 0.0554932 7.26302C0.0919408 7.4631 0.145701 7.65718 0.213535 7.8435C0.598445 8.83392 1.2515 9.49896 2.01322 10.04C2.18731 10.1595 2.37026 10.27 2.56492 10.3689C5.21443 11.7946 8.24197 10.4335 10.1505 9.01668C10.3117 8.90375 10.4687 8.79141 10.6209 8.68336C12.2803 7.37991 12.3528 5.51354 12.4416 4.01939C12.4484 3.80002 12.4505 3.57945 12.4514 3.37168C12.4517 3.30798 12.4533 3.25062 12.4548 3.23402C12.4546 3.23179 12.4565 3.23301 12.4484 3.28263C12.4458 3.29712 12.4446 3.30583 12.4363 3.33937C12.4265 3.37503 12.4152 3.42312 12.3713 3.5125C12.3224 3.59509 12.255 3.7634 11.9543 3.91618C11.8072 3.98785 11.5995 4.01897 11.4282 3.98693C11.2517 3.95242 11.1872 3.91145 11.1057 3.86399C10.959 3.76929 10.9006 3.6883 10.8584 3.63277C10.7808 3.52097 10.7698 3.47665 10.7554 3.44395C10.7201 3.34231 10.7384 3.39031 10.7386 3.40011C10.7555 3.48402 10.7778 3.62167 10.797 3.74107C10.8371 3.99265 10.8768 4.24868 10.9187 4.50534C11.0026 5.0205 11.0942 5.53995 11.2023 6.06084C11.4459 7.11194 11.6053 8.12543 12.3251 9.29489C12.337 9.31235 12.3755 9.36208 12.3894 9.37806C12.4408 9.43719 12.493 9.49562 12.5459 9.55327C13.3465 10.4096 14.2979 11.0672 15.4346 11.4967C15.4799 11.5132 15.5247 11.5288 15.5714 11.5443C16.3215 11.8159 17.1619 11.7389 17.8082 11.5689C18.6465 11.3553 19.4059 11.0484 20.1801 10.7614C20.2103 10.75 20.236 10.7253 20.2522 10.6952C20.2685 10.6649 20.2738 10.6317 20.2667 10.6003C20.2595 10.569 20.2401 10.5414 20.2123 10.5212C20.1846 10.5012 20.1506 10.4901 20.1185 10.493C20.1185 10.493 20.1185 10.493 20.1185 10.493C19.3033 10.5656 18.4786 10.6137 17.7013 10.5843C17.0726 10.56 16.5711 10.4562 16.1302 10.2009C16.1004 10.1846 16.0712 10.168 16.0408 10.1504C15.2604 9.68959 14.5373 8.99378 13.9025 8.30906C13.8603 8.26305 13.8189 8.21675 13.7785 8.17036L13.8429 8.25353C13.4669 7.67735 13.1911 6.62509 12.982 5.68161C12.8759 5.19697 12.7825 4.70375 12.6952 4.20517C12.6515 3.95594 12.61 3.7075 12.5655 3.44752C12.5429 3.31807 12.5228 3.19345 12.4877 3.02703C12.4756 2.97983 12.4768 2.95108 12.4235 2.80189C12.4045 2.75722 12.3891 2.70404 12.3075 2.58661C12.2633 2.52827 12.2029 2.44526 12.0543 2.34938C11.9718 2.30131 11.9067 2.26 11.7288 2.22523C11.5563 2.19299 11.3474 2.22427 11.1991 2.29649C10.8961 2.45037 10.8264 2.62128 10.7755 2.70804C10.7294 2.80158 10.7162 2.85539 10.7046 2.89835C10.6944 2.93926 10.6924 2.95207 10.6885 2.97339C10.6763 3.04373 10.6731 3.10437 10.6721 3.11964C10.6662 3.22913 10.6671 3.2873 10.6671 3.37168C10.6683 3.57609 10.6682 3.77624 10.6639 3.97238C10.6461 5.31435 10.3737 6.74566 9.61383 7.26977C9.45795 7.38134 9.30673 7.49008 9.15478 7.59663C7.30917 8.94545 5.14029 9.79629 3.34896 8.82388C3.22999 8.76355 3.11041 8.69186 2.99409 8.61199C2.47979 8.26045 2.01108 7.7298 1.83481 7.25065C1.79805 7.15094 1.77027 7.051 1.75177 6.95167C1.6641 6.48233 1.78305 6.03497 2.10865 5.63332C2.1865 5.53733 2.26525 5.44227 2.34488 5.34831C3.47348 4.02212 4.81135 2.81252 6.30405 2.338C6.37896 2.31461 6.45387 2.29133 6.5283 2.26841C8.00804 1.80715 9.48578 1.45796 10.6584 1.91012C10.69 1.922 10.722 1.93454 10.7536 1.94753C11.4013 2.2145 12.0295 2.68173 12.4403 3.22976C12.4494 3.24191 12.4584 3.25412 12.4672 3.26638C12.5099 3.32529 12.5525 3.38496 12.5946 3.44575C12.8582 3.8163 13.1374 4.33868 13.145 4.69505C13.145 4.69595 13.145 4.69683 13.1449 4.69769C13.1562 4.74909 13.0918 4.75181 13.2367 4.56516C13.442 4.38305 13.5294 4.45564 13.4 4.44195Z" fill="var(--stroke-0, #3B1B1B)"/>
</svg>
