<svg preserveAspectRatio="none" width="100%" height="100%" overflow="visible" style="display: block;" viewBox="0 0 26.6174 11.9366" fill="none" xmlns="http://www.w3.org/2000/svg">
<path id="Vector 121" d="M4.32661 10.584C4.21576 10.8057 4.19753 11.0624 4.27591 11.2975C4.35429 11.5327 4.52287 11.727 4.74457 11.8379C4.96627 11.9487 5.22292 11.967 5.45806 11.8886C5.6932 11.8102 5.88758 11.6416 5.99843 11.4199C5.99843 11.4199 5.99843 11.4199 5.99843 11.4199C6.35211 10.7097 6.64784 9.99143 6.91197 9.26288C7.17163 8.54453 7.39735 7.81538 7.59224 7.07999C7.5938 7.0741 7.59536 7.0682 7.59692 7.0623C8.05516 4.00435 5.96123 2.4509 4.62873 0.925245C4.62386 0.920327 4.61897 0.915425 4.61407 0.910542C3.939 0.190679 2.36641 -0.549399 1.12107 0.586361C1.1175 0.589808 1.11394 0.593263 1.1104 0.596724C-0.85948 2.89178 0.241583 5.37241 0.992301 7.21369C1.00213 7.23474 1.01208 7.25571 1.02215 7.2766C2.55511 10.2273 5.62579 11.1257 8.18895 11.7676C8.23408 11.7781 8.36703 11.7933 8.41336 11.7934C8.43571 11.7934 8.45803 11.7934 8.48031 11.7934C12.2035 11.8137 16.0592 11.4568 19.6832 10.5499C19.6931 10.5476 19.7224 10.5401 19.7322 10.5373C19.7399 10.5351 19.7476 10.5329 19.7554 10.5307C21.2481 10.0852 22.5869 9.60948 24.0135 9.18497C24.7147 8.97161 25.4207 8.76223 26.1341 8.55133C26.286 8.50645 26.4225 8.41256 26.5117 8.279C26.6009 8.14553 26.6358 7.9849 26.6081 7.82996C26.5805 7.67502 26.4923 7.53634 26.3624 7.44194C26.2326 7.34744 26.072 7.30653 25.914 7.31689C25.914 7.31689 25.914 7.31689 25.914 7.31689C25.1565 7.36836 24.4026 7.44693 23.6496 7.55899C22.1352 7.77306 20.5963 8.19236 19.2068 8.60743C19.1997 8.60947 19.1925 8.61149 19.1854 8.61352L19.2343 8.60094C15.6906 9.48287 12.1342 9.8077 8.48074 9.79341C8.45906 9.79341 8.43734 9.7934 8.41557 9.79337L8.63998 9.81913C6.23601 9.2626 3.71242 8.30585 2.79316 6.41889C2.78657 6.40537 2.78006 6.3918 2.77362 6.37818C2.02352 4.831 1.62428 2.74696 2.46862 1.98391C2.47009 1.98246 2.47157 1.98101 2.47305 1.97956C2.50449 1.95165 2.54272 1.91854 2.70678 1.94758C2.86252 1.97798 3.07431 2.09455 3.25931 2.27784C3.26171 2.28019 3.26411 2.28255 3.2665 2.28492C4.6223 3.62039 6.11978 5.38049 5.78981 6.58479C5.78835 6.59029 5.7869 6.59579 5.78544 6.60128C5.60389 7.2864 5.3939 7.96425 5.1542 8.62732C4.91118 9.29842 4.63675 9.96174 4.32661 10.584Z" fill="var(--stroke-0, #3B1B1B)"/>
</svg>
