<svg preserveAspectRatio="none" width="100%" height="100%" overflow="visible" style="display: block;" viewBox="0 0 16.1763 33.2053" fill="none" xmlns="http://www.w3.org/2000/svg">
<path id="Vector 117" d="M1.61301 1.01936C1.66729 0.810223 1.63626 0.588084 1.52676 0.401816C1.41726 0.215548 1.23824 0.0804094 1.0291 0.0261288C0.819959 -0.0281518 0.59782 0.00287211 0.411552 0.112376C0.225284 0.221879 0.0901452 0.400892 0.0358646 0.610034C0.0358646 0.610034 0.0358646 0.610034 0.0358646 0.610034C-0.0330569 0.964365 0.0170513 1.03379 0.0254326 1.15767C0.0447599 1.28171 0.0582685 1.34317 0.080495 1.44326C0.118209 1.6098 0.166751 1.78783 0.207314 1.92908C0.300945 2.25383 0.394323 2.54237 0.492839 2.83745C3.02841 9.91586 6.13884 16.6428 9.59732 23.256C9.59811 23.2574 9.5989 23.2589 9.5997 23.2604C9.60409 23.2687 9.61794 23.2931 9.6228 23.3011C11.4652 26.3396 13.208 29.4349 14.7408 32.6436C14.7614 32.6868 14.782 32.7298 14.8023 32.7726C14.807 32.7823 14.8118 32.792 14.8166 32.8016C14.893 32.9869 15.167 33.1686 15.365 33.2C15.7084 33.2433 15.9509 33.0117 16.0005 32.9419C16.0794 32.8413 16.0925 32.7987 16.114 32.7518C16.1458 32.6727 16.1542 32.6271 16.1618 32.5885C16.1754 32.5118 16.1766 32.4611 16.1763 32.4121C16.1749 32.3158 16.1622 32.2356 16.145 32.1573C16.1102 32.0018 16.0554 31.8583 15.9939 31.7154C15.8705 31.4311 15.7191 31.1561 15.6167 30.8799C15.612 30.8676 15.601 30.8559 15.5886 30.8472C15.5761 30.8386 15.5632 30.8337 15.5502 30.8337C15.5372 30.8337 15.5244 30.8386 15.5119 30.8472C15.4995 30.8559 15.4885 30.8676 15.4838 30.8799C15.3813 31.1556 15.2306 31.4323 15.0978 31.6997C15.0314 31.8332 14.9694 31.9648 14.9185 32.0847C14.8932 32.1438 14.8702 32.2021 14.8514 32.2428C14.8424 32.2618 14.8331 32.2795 14.8308 32.2703C14.8305 32.2643 14.8292 32.2536 14.8478 32.205C14.8617 32.1752 14.8682 32.146 14.9353 32.0601C14.975 32.0026 15.2012 31.7832 15.5269 31.824L16.0752 32.2224C16.0711 32.2123 16.0668 32.2022 16.0623 32.1922C16.0428 32.1484 16.0231 32.1042 16.0033 32.0598C14.5335 28.7654 12.8882 25.5438 11.0162 22.4566L11.0393 22.4973C11.0385 22.4958 11.0377 22.4943 11.037 22.4928C7.62405 15.9727 4.50595 9.21342 2.03796 2.32023C1.94433 2.03994 1.85622 1.76675 1.77347 1.47954C1.73773 1.35539 1.69645 1.20226 1.66954 1.0829C1.6539 1.01324 1.64508 0.969396 1.63683 0.916187C1.62337 0.888737 1.65304 0.786045 1.61301 1.01936Z" fill="var(--stroke-0, #3B1B1B)"/>
</svg>
