<svg preserveAspectRatio="none" width="100%" height="100%" overflow="visible" style="display: block;" viewBox="0 0 6.22583 9.31473" fill="none" xmlns="http://www.w3.org/2000/svg">
<path id="Vector 90" d="M1.70705 0.560266C1.62112 0.342051 1.45202 0.166912 1.23696 0.0733749C1.02189 -0.0201618 0.77848 -0.0244334 0.560266 0.0614999C0.342051 0.147433 0.166912 0.316532 0.0733749 0.531597C-0.0201618 0.746662 -0.0244333 0.990075 0.0615 1.20829C0.0615 1.20829 0.0615 1.20829 0.0615 1.20829C0.124677 1.36872 0.189075 1.52822 0.25489 1.68719C1.0584 3.58915 1.99004 5.45441 3.44981 7.09971C3.45077 7.10076 3.45173 7.10182 3.45269 7.10287L3.4008 7.04055C3.99614 7.80596 4.67135 8.37879 5.50921 9.15051C5.51086 9.15184 5.51252 9.15315 5.51419 9.15446C5.51422 9.15448 5.51423 9.15449 5.51424 9.15449C5.51426 9.1545 5.51419 9.15444 5.5143 9.15454C5.51432 9.15457 5.51431 9.15455 5.51445 9.15469C5.5145 9.15474 5.51452 9.15476 5.51474 9.15499C5.51495 9.15519 5.51478 9.15502 5.51605 9.15629C5.51657 9.1568 5.51661 9.15685 5.5194 9.15956C5.53335 9.17023 5.48178 9.13264 5.57992 9.20865C5.62493 9.71698 6.4289 8.21444 6.17712 8.56185C6.16212 8.54341 6.1605 8.54235 6.15728 8.53867C6.15236 8.53333 6.15129 8.53228 6.15004 8.53096C6.14407 8.52481 6.14594 8.52676 6.14509 8.5259C6.14373 8.52452 6.1443 8.5251 6.14411 8.52491C6.14398 8.52478 6.14401 8.52481 6.14399 8.52479C6.14398 8.52478 6.14397 8.52478 6.14397 8.52477C6.14397 8.52477 6.14396 8.52477 6.14396 8.52476C6.14396 8.52476 6.14396 8.52476 6.14396 8.52476C6.14396 8.52476 6.14396 8.52476 6.14396 8.52476C6.14395 8.52476 6.14395 8.52476 6.14395 8.52476C6.14394 8.52476 6.14393 8.52475 6.14392 8.52474C6.14387 8.52471 6.14378 8.52464 6.14364 8.52453C6.14342 8.52434 6.14344 8.5244 6.14333 8.52432C6.14314 8.52421 6.14293 8.52408 6.14269 8.52391C6.14223 8.5236 6.14156 8.52308 6.14123 8.52291C6.14041 8.52241 6.13941 8.52173 6.13833 8.52099C6.13674 8.52006 6.13446 8.51847 6.13268 8.51743C6.12892 8.51514 6.12503 8.51286 6.12092 8.5105C6.11309 8.50616 6.10468 8.5018 6.09622 8.49789C6.07926 8.49003 6.06105 8.48295 6.04226 8.47703C5.86309 8.41983 5.60647 8.4405 5.40282 8.40782C5.40217 8.40772 5.40128 8.4079 5.4005 8.40815C5.39972 8.4084 5.39911 8.40872 5.39865 8.40918C5.39819 8.40963 5.39788 8.41024 5.39762 8.41103C5.39737 8.41181 5.3972 8.4127 5.3973 8.41335C5.3973 8.41335 5.3973 8.41335 5.3973 8.41335C5.42997 8.61699 5.40931 8.87362 5.46651 9.05279C5.47243 9.07157 5.47951 9.08978 5.48737 9.10675C5.49128 9.11521 5.49564 9.12361 5.49998 9.13144C5.50234 9.13555 5.50462 9.13944 5.50691 9.14321C5.50796 9.14498 5.50954 9.14726 5.51047 9.14886C5.51121 9.14993 5.51189 9.15093 5.51239 9.15175C5.51257 9.15208 5.51308 9.15275 5.5134 9.15322C5.51356 9.15346 5.5137 9.15367 5.5138 9.15385C5.51388 9.15396 5.51382 9.15395 5.51401 9.15417C5.51412 9.1543 5.5142 9.15439 5.51423 9.15444C5.51423 9.15445 5.51424 9.15446 5.51424 9.15447C5.51424 9.15447 5.51424 9.15448 5.51424 9.15448C5.51424 9.15448 5.51424 9.15448 5.51424 9.15448C5.51424 9.15448 5.51424 9.15448 5.51424 9.15448C5.51423 9.15448 5.51423 9.15447 5.51423 9.15447C5.51422 9.15447 5.51422 9.15446 5.51421 9.15445C5.51419 9.15443 5.51422 9.15446 5.51409 9.15433C5.5139 9.15414 5.51447 9.15472 5.5131 9.15334C5.51226 9.15248 5.51412 9.15443 5.50816 9.14828C5.5069 9.14696 5.50584 9.14592 5.50092 9.14057C5.4977 9.13689 5.49607 9.13583 5.48108 9.1174C5.2293 9.4648 6.03327 7.96226 6.07828 8.47059C6.17644 8.54662 6.1248 8.50896 6.1388 8.51968C6.14159 8.52239 6.14162 8.52244 6.14215 8.52296C6.14342 8.52422 6.14325 8.52405 6.14345 8.52425C6.14368 8.52448 6.1437 8.5245 6.14375 8.52455C6.14389 8.52469 6.14387 8.52467 6.1439 8.5247C6.144 8.5248 6.14394 8.52474 6.14396 8.52475C6.14396 8.52475 6.14395 8.52473 6.14394 8.52471C6.1438 8.52421 6.14364 8.52369 6.14346 8.52317C5.77695 7.7882 5.39758 6.73374 4.81028 5.97231C4.80043 5.95934 4.76938 5.92201 4.75838 5.90999C4.7576 5.90913 4.75682 5.90828 4.75603 5.90742C3.54614 4.55365 2.63389 2.79045 1.88893 1.01066C1.8271 0.861305 1.76653 0.711287 1.70705 0.560266Z" fill="var(--stroke-0, #3B1B1B)"/>
</svg>
