<svg preserveAspectRatio="none" width="100%" height="100%" overflow="visible" style="display: block;" viewBox="0 0 19.5593 20.8295" fill="none" xmlns="http://www.w3.org/2000/svg">
<path id="Vector 140" d="M2.75518 2.56407C2.52187 2.4855 2.26691 2.50284 2.04638 2.61226C1.82586 2.72168 1.65783 2.91422 1.57926 3.14753C1.5007 3.38083 1.51804 3.6358 1.62746 3.85632C1.73688 4.07685 1.92942 4.24488 2.16273 4.32344C2.16273 4.32344 2.16273 4.32344 2.16273 4.32344C4.79225 4.94623 7.07199 5.24559 9.55764 5.55328C9.72675 5.57271 9.89377 5.59125 10.0637 5.60936C10.3585 5.64077 10.6565 5.6877 10.9517 5.72853C11.1284 5.75466 11.3104 5.78826 11.4956 5.81954C11.8109 5.87374 12.0998 5.93577 12.4435 6.02959C12.5933 6.06657 12.6836 6.09086 12.8607 6.12888C12.8767 6.1321 12.8929 6.13527 12.9138 6.13885C12.9244 6.14064 12.9362 6.14255 12.9513 6.14465C12.9588 6.1457 12.9672 6.1468 12.9771 6.14793C13.0016 6.14978 12.9213 6.14473 13.0575 6.1541C13.0881 6.15492 13.126 6.15656 13.1984 6.14942C13.2737 6.13431 13.3762 6.14993 13.6373 5.99251C13.7626 5.91185 13.9481 5.73845 14.0321 5.47057C14.1196 5.20351 14.0651 4.93527 13.9994 4.7891C13.8573 4.49277 13.7528 4.45117 13.6945 4.39585C13.4836 4.24949 13.4783 4.27531 13.4805 4.27012C13.4767 4.26849 13.4732 4.26697 13.4699 4.26555C13.4632 4.26272 13.4572 4.26025 13.4516 4.258C13.4406 4.25352 13.4312 4.24992 13.4226 4.24665C13.4055 4.24018 13.3911 4.23504 13.3769 4.23006C13.3077 4.20628 13.3043 4.20569 13.2634 4.19241C13.1817 4.16635 13.1404 4.15366 13.071 4.13226C12.8302 4.05827 12.5719 3.981 12.3426 3.91217C11.8593 3.76735 11.3797 3.62391 10.8975 3.47848C9.93619 3.18868 8.9803 2.89643 8.02399 2.59585C6.12027 1.99197 4.20467 1.38213 2.40795 0.649104C2.21986 0.570723 2.02586 0.486132 1.8575 0.407173C1.74048 0.352727 1.63985 0.299909 1.61275 0.282296C1.60918 0.281833 1.61445 0.276066 1.69398 0.349854C1.71383 0.369241 1.73851 0.394749 1.76882 0.433087C1.8091 0.494397 1.99559 0.693215 1.96409 1.11738C1.94642 1.32245 1.84037 1.53783 1.72115 1.66523C1.5826 1.80809 1.56182 1.80581 1.4928 1.85137C1.37553 1.91858 1.29563 1.93896 1.2388 1.95302C1.01707 1.99095 1.08813 1.96831 1.0656 1.97317C1.06373 1.97297 1.08382 1.97465 1.09824 1.97648C1.26553 1.99732 1.52732 2.05318 1.76442 2.10771C2.25098 2.22032 2.7515 2.35197 3.25138 2.4878C4.24792 2.75965 5.24616 3.05218 6.24263 3.35486C8.21877 3.96437 10.2558 4.5931 12.0898 5.33962C12.1199 5.35253 12.1488 5.36509 12.1764 5.37726C12.2685 5.41793 12.338 5.45032 12.4012 5.48185C12.4695 5.51416 12.5401 5.56144 12.4926 5.52823C12.4841 5.51818 12.4434 5.50332 12.3412 5.36647C12.3165 5.33151 12.2888 5.28757 12.2613 5.22959C12.2374 5.17269 12.1979 5.10663 12.1748 4.9166C12.1094 4.55204 12.4205 4.11062 12.5689 4.03831C13.0014 3.79492 12.9338 3.90757 12.9575 3.88221C12.9545 3.88341 12.8629 3.88122 12.7972 3.87561C12.4772 3.8499 12.09 3.79061 11.7171 3.73048C10.9572 3.60613 10.1975 3.46302 9.42866 3.31812C7.82391 3.04634 6.58188 2.66341 4.52331 2.54899C4.3614 2.56616 4.24868 2.56966 3.99752 2.63288C3.95316 2.64513 3.90549 2.65989 3.84921 2.6821C3.82104 2.69328 3.79064 2.7064 3.75697 2.72303C3.72589 2.73953 3.68507 2.75581 3.58615 2.82699C3.42583 2.92743 3.06726 3.34219 3.18412 3.86996C3.29493 4.33552 3.58574 4.48374 3.59762 4.50431C3.87942 4.69058 3.9276 4.67526 4.03675 4.7196C7.69262 5.50975 10.8905 5.72896 14.2846 6.17288C14.6221 6.21372 14.9462 6.23903 15.2612 6.26222C16.1669 6.31942 17.2645 6.41836 17.5217 6.61363C17.5545 6.63827 17.5434 6.63227 17.5466 6.63533C17.611 6.62911 17.4865 7.31731 17.1503 7.82631C17.0988 7.91292 17.0473 7.99852 16.9958 8.08315C15.5433 10.4743 13.738 12.6087 11.5456 14.328C11.3826 14.4582 11.2175 14.5869 11.0429 14.7267C10.9851 14.773 10.9426 14.8041 10.9094 14.8264C10.8817 14.8496 10.8309 14.8579 10.9668 14.8121C11.0109 14.8142 11.2683 14.6721 11.7126 14.9604C12.1421 15.3381 12.0531 15.5486 12.0779 15.6343C12.0746 15.7615 12.0682 15.7188 12.0815 15.6845C12.1338 15.5058 12.2728 15.2004 12.4104 14.9259C12.6911 14.3669 13.0189 13.7925 13.3536 13.2265C14.0199 12.1111 14.7648 10.9134 15.4678 9.94984C15.4784 9.93647 15.4858 9.92755 15.4874 9.92578C15.5868 9.81004 15.6463 9.74249 15.7316 9.65297C15.7705 9.61263 15.7941 9.58997 15.8102 9.57587C15.811 9.57435 15.8103 9.57922 15.754 9.61448C15.6983 9.64076 15.6153 9.71811 15.321 9.73835C15.2474 9.74077 15.1595 9.73518 15.0628 9.71189C14.9681 9.69236 14.7912 9.61852 14.6772 9.52144C14.4287 9.31771 14.357 9.07235 14.3337 8.94333C14.3107 8.79898 14.3215 8.75344 14.3212 8.73065C14.323 8.70248 14.3257 8.68134 14.3282 8.66476C14.3334 8.6318 14.3377 8.61647 14.3394 8.60961C14.3423 8.59953 14.3391 8.61076 14.334 8.62461C14.3223 8.65706 14.3015 8.70755 14.2805 8.75504C14.2307 8.86767 14.1839 8.9648 14.1211 9.09125C13.89 9.55311 13.6225 10.0394 13.3606 10.5108C12.8301 11.4626 12.2765 12.4224 11.7264 13.3787C10.6277 15.3294 9.49779 17.0992 8.48266 19.3346C8.45655 19.4087 8.45107 19.403 8.40739 19.5736C8.3968 19.6257 8.38086 19.6837 8.37922 19.8195C8.37925 19.8368 8.3797 19.8556 8.38087 19.8764C8.38438 19.9315 8.39245 20.0333 8.44007 20.1659C8.48702 20.2966 8.59049 20.4914 8.80164 20.6423C9.01018 20.7962 9.2877 20.8444 9.46604 20.8256C9.65002 20.8091 9.76083 20.759 9.83944 20.7208C9.89646 20.6912 9.89441 20.6909 9.91812 20.6767C9.95498 20.6539 9.98317 20.6335 10.0068 20.6153C10.1772 20.4748 10.1916 20.4298 10.2158 20.4051C10.3155 20.2751 10.3446 20.2237 10.3922 20.1514C10.4821 20.0105 10.5566 19.8857 10.6293 19.7628C12.1517 17.0924 13.5119 14.4517 14.7238 11.6242C14.7764 11.4957 14.8285 11.3689 14.8792 11.1727C14.9011 11.0575 14.9453 10.9728 14.9215 10.6546C14.9124 10.5771 14.8923 10.4561 14.8278 10.3141C14.7603 10.161 14.6142 9.96001 14.3951 9.83462C13.9375 9.59653 13.6778 9.70824 13.5441 9.73238C13.2921 9.81009 13.2184 9.87311 13.1281 9.92703C13.0449 9.98162 12.9817 10.0302 12.9234 10.0769C12.8082 10.1699 12.7143 10.2566 12.6248 10.343C12.4474 10.5152 12.2914 10.6852 12.1404 10.8607C12.0206 11.0001 11.905 11.1389 11.7898 11.2812C10.0146 13.4909 8.73369 15.997 7.84986 18.6583C7.81458 18.7661 7.76866 18.9134 7.74914 18.9737C7.69825 19.1301 7.66245 19.2155 7.6084 19.4581C7.59909 19.5067 7.58911 19.5585 7.58389 19.6464C7.58271 19.6687 7.58197 19.6937 7.58239 19.723C7.58311 19.7449 7.58149 19.7296 7.58565 19.7922C7.59128 19.8551 7.60011 19.9355 7.64085 20.0538C7.68227 20.1689 7.76125 20.3407 7.95298 20.5003C8.14042 20.6629 8.4397 20.7455 8.64661 20.7276C9.11601 20.6573 9.04299 20.6058 9.13369 20.5721C9.51083 20.2831 9.42667 20.2761 9.48417 20.2216C9.55589 20.1145 9.58153 20.0676 9.62329 19.9958C9.76426 19.7474 9.88011 19.5182 9.99333 19.2942C10.2222 18.8383 10.436 18.3927 10.6488 17.9437C11.0744 17.044 11.487 16.1442 11.8934 15.2419C12.7035 13.431 13.5033 11.6339 14.2278 9.74694C14.233 9.73302 14.2381 9.71938 14.2431 9.706C14.2739 9.62248 14.2911 9.57631 14.3255 9.47407C14.3415 9.42511 14.3482 9.4073 14.372 9.32256C14.3822 9.28472 14.3907 9.25347 14.4024 9.19099C14.409 9.11872 14.444 9.06604 14.4018 8.79051C14.3871 8.71842 14.3636 8.62486 14.2988 8.50355C14.2712 8.38664 13.8613 7.97046 13.4888 7.97978C13.1239 7.96416 12.9598 8.08606 12.8614 8.14307C12.7641 8.20793 12.7173 8.25664 12.6845 8.28944C12.5247 8.46675 12.5243 8.50042 12.4904 8.54843C12.4598 8.59871 12.4386 8.63642 12.4186 8.6721C12.374 8.75223 12.3424 8.81198 12.3045 8.88466C12.1635 9.15658 12.041 9.41001 11.9172 9.67012C11.6695 10.1922 11.4368 10.7065 11.2084 11.2315C10.9805 11.7563 10.7613 12.2801 10.5517 12.8276C10.4484 13.0987 10.3467 13.3762 10.2518 13.6719C10.206 13.816 10.1601 13.9668 10.1165 14.1461C10.0977 14.2236 10.0734 14.3358 10.0585 14.4389C10.0487 14.5798 9.99654 14.6684 10.0822 15.0585C10.1493 15.2632 10.1878 15.4759 10.4983 15.8059C10.638 15.9522 10.9216 16.1218 11.1911 16.157C11.471 16.1989 11.6857 16.1465 11.8408 16.0936C12.3616 15.8839 12.5115 15.6722 12.7082 15.486C12.8886 15.2965 13.0337 15.1139 13.1686 14.9339C13.4387 14.5708 13.6657 14.2145 13.8832 13.8527C14.3208 13.1011 14.6745 12.4977 15.0647 11.5368C15.4229 10.4727 14.2276 9.7183 13.4211 10.4995C13.2287 10.6991 13.2057 10.7513 13.1269 10.8519C13.0596 10.9427 12.998 11.0293 12.9376 11.1156C12.8949 11.1765 12.8544 11.2352 12.8135 11.2949C12.3976 11.9057 12.062 12.5444 11.7478 13.2069C11.6734 13.3642 11.6 13.5242 11.5285 13.6865C10.8842 15.1473 10.659 16.6563 10.3317 18.1295C10.3263 18.1545 10.3319 18.1826 10.3449 18.2068C10.358 18.2309 10.3775 18.2492 10.4013 18.2584C10.4251 18.2676 10.4518 18.2671 10.4778 18.258C10.5036 18.2488 10.5266 18.2317 10.5394 18.2096C10.5394 18.2096 10.5394 18.2096 10.5394 18.2096C11.299 16.9094 12.1106 15.6206 12.9422 14.4917C13.0373 14.3616 13.1348 14.2318 13.234 14.1004C13.6531 13.5471 14.0803 12.9877 14.4642 12.4242C14.5016 12.3696 14.5383 12.3164 14.576 12.2626C14.6292 12.1866 14.6826 12.1117 14.7332 12.0434C14.7728 11.9866 14.8682 11.8762 14.8127 11.936L13.1692 10.8987C12.958 11.412 12.5392 12.2039 12.1677 12.8246C11.9746 13.1464 11.7738 13.4586 11.5661 13.7372C11.464 13.874 11.3579 14.0043 11.2629 14.1035C11.1837 14.1999 11.0351 14.2746 11.1829 14.205C11.2324 14.1888 11.3346 14.1567 11.5001 14.181C11.6598 14.2008 11.8344 14.308 11.9003 14.3796C12.0475 14.542 12.0101 14.5539 12.0098 14.5252C12.0643 14.7915 12.0267 14.7368 12.0375 14.7281C12.0398 14.7103 12.0501 14.6582 12.0608 14.6147C12.0853 14.5134 12.1201 14.3958 12.1568 14.281C12.2333 14.042 12.3251 13.7899 12.42 13.5413C12.6132 13.0365 12.8235 12.5332 13.0425 12.0289C13.2621 11.5242 13.4878 11.0254 13.7236 10.5284C13.8407 10.2824 13.9587 10.039 14.0786 9.80804C14.11 9.74774 14.136 9.69876 14.1648 9.6472C14.1771 9.62516 14.1901 9.60254 14.1986 9.58852C14.1953 9.58605 14.2459 9.53922 14.1191 9.68298C14.0918 9.71006 14.0509 9.75359 13.9582 9.81546C13.8645 9.86936 13.7044 9.98982 13.3427 9.97444C12.9734 9.98376 12.5665 9.57051 12.54 9.45579C12.4762 9.33632 12.4535 9.24509 12.4393 9.17583C12.3993 8.91162 12.433 8.87827 12.4346 8.83374C12.4411 8.79924 12.443 8.7952 12.4431 8.79434C12.4413 8.80064 12.436 8.81802 12.428 8.84194C12.4079 8.90175 12.3933 8.94192 12.3683 9.00955C12.3642 9.02064 12.3599 9.0321 12.3554 9.04393C11.6728 10.8232 10.8685 12.6366 10.0697 14.4208C9.66765 15.3134 9.25901 16.2046 8.84113 17.0879C8.63262 17.5279 8.42271 17.9652 8.20661 18.3955C8.102 18.6032 7.98714 18.8273 7.88751 19.0022C7.86231 19.0465 7.83799 19.0859 7.83223 19.0942C7.86309 19.0784 7.72797 19.1448 8.06834 18.8795C8.15456 18.8482 8.07913 18.7993 8.53858 18.7305C8.74161 18.7128 9.03756 18.7943 9.22221 18.9546C9.41114 19.1119 9.48787 19.2802 9.5276 19.3904C9.60023 19.6218 9.577 19.6824 9.58217 19.693C9.58252 19.7174 9.5819 19.7369 9.58103 19.7533C9.57707 19.8178 9.57148 19.8388 9.5698 19.8491C9.56613 19.8602 9.60424 19.7279 9.64277 19.6173C9.69163 19.4673 9.71553 19.3876 9.75171 19.2772C10.5559 16.8479 11.7562 14.5109 13.3445 12.5393C13.4476 12.412 13.5508 12.2881 13.6575 12.1639C13.7748 12.0274 13.898 11.8942 14.0159 11.78C14.0743 11.7234 14.1327 11.6708 14.1775 11.6348C14.1986 11.6038 14.3302 11.5659 14.0798 11.6593C13.9988 11.6691 13.7978 11.7733 13.3881 11.5626C13.1931 11.4512 13.0639 11.2715 13.0081 11.1439C12.9543 11.0248 12.9407 10.9335 12.9344 10.8813C12.921 10.6725 12.9432 10.6943 12.9387 10.6885C12.9363 10.7011 12.9099 10.7791 12.878 10.8542C11.7359 13.5247 10.3535 16.2116 8.90704 18.746C8.84158 18.8568 8.77289 18.9712 8.70793 19.0728C8.68044 19.1166 8.63811 19.1771 8.64627 19.1655C8.65683 19.1584 8.63436 19.158 8.78457 19.0322C8.80561 19.016 8.83132 18.9974 8.86586 18.9759C8.88818 18.9627 8.88601 18.9624 8.94049 18.9342C9.01577 18.8977 9.12363 18.8485 9.30505 18.8321C9.48083 18.8136 9.75617 18.8613 9.96292 19.0139C10.1723 19.1635 10.2743 19.3563 10.3203 19.4842C10.3669 19.6141 10.3743 19.7118 10.3777 19.7635C10.3788 19.7831 10.3792 19.8006 10.3792 19.8166C10.3776 19.9414 10.3638 19.9843 10.3576 20.017C10.3352 20.104 10.3445 20.0618 10.3511 20.0479C11.1566 18.277 12.3851 16.2704 13.4597 14.3765C14.0105 13.419 14.566 12.4561 15.1081 11.4835C15.3771 10.999 15.6494 10.5057 15.9113 9.98289C15.9839 9.83651 16.0388 9.72387 16.1115 9.55989C16.1429 9.48785 16.1766 9.40941 16.2145 9.30566C16.2343 9.24921 16.2425 9.23 16.2708 9.12911C16.2832 9.08256 16.2952 9.03186 16.3051 8.96799C16.31 8.93595 16.3143 8.90047 16.317 8.85909C16.3184 8.83673 16.3192 8.82169 16.3194 8.78707C16.3194 8.73323 16.3164 8.66981 16.3024 8.59077C16.2754 8.44093 16.1961 8.1804 15.9361 7.96734C15.8167 7.86568 15.6316 7.78829 15.5314 7.76756C15.4292 7.74294 15.3352 7.73679 15.2551 7.73943C14.9346 7.76054 14.817 7.85115 14.718 7.9037C14.6104 7.97058 14.5669 8.00868 14.5085 8.05749C14.3831 8.16794 14.3636 8.19184 14.2902 8.26647C14.1536 8.40992 14.0858 8.48834 13.9674 8.62582C13.9428 8.65469 13.9204 8.68232 13.8976 8.71113C13.0145 9.92022 12.3479 11.0177 11.6328 12.2071C11.2834 12.7987 10.9416 13.3948 10.6214 14.0317C10.46 14.3633 10.3049 14.6617 10.1608 15.1269C10.126 15.2602 10.0799 15.3893 10.0781 15.6677C10.1072 15.854 10.0285 16.1363 10.5294 16.573C11.0374 16.9109 11.402 16.7541 11.5131 16.7361C12.0468 16.5413 12.0859 16.4328 12.2946 16.2866C12.45 16.1621 12.6223 16.0277 12.7928 15.8915C15.1644 14.0335 17.1548 11.6795 18.7043 9.12294C18.7595 9.03223 18.8147 8.9405 18.8698 8.84775C19.2508 8.09915 19.8752 7.2597 19.3702 5.81406C19.2168 5.46532 18.9428 5.16052 18.6579 4.96776C17.2603 4.19518 16.3601 4.3906 15.4072 4.26756C15.1018 4.24518 14.8055 4.22143 14.5259 4.18749C11.2167 3.76665 7.62527 3.44419 4.66522 2.8209C4.6524 2.82363 4.59386 2.77123 4.78333 2.8937C4.78339 2.90726 5.03156 3.01605 5.14165 3.45997C5.19327 3.68403 5.14183 3.95162 5.04802 4.11773C4.95484 4.28955 4.84912 4.37929 4.77545 4.43496C4.60735 4.5475 4.63284 4.51784 4.58579 4.54153C4.55491 4.55367 4.53714 4.55866 4.52728 4.56144C4.4914 4.56873 4.60227 4.54849 4.70195 4.541C5.75387 4.62571 7.58394 5.01146 9.05723 5.28332C9.83124 5.42914 10.5972 5.57374 11.3962 5.70456C11.7968 5.76826 12.1853 5.83169 12.6459 5.86988C12.7544 5.87704 12.8758 5.8884 13.0738 5.87883C13.1263 5.87569 13.182 5.87071 13.2482 5.85973C13.3511 5.83729 13.4926 5.82741 13.7373 5.66157C13.9075 5.57424 14.2335 5.10886 14.1649 4.71858C14.1568 4.62898 14.1309 4.53232 14.1138 4.48423C14.0999 4.44365 14.0847 4.407 14.0689 4.37379C14.0374 4.30737 14.0045 4.25463 13.9733 4.21051C13.8475 4.03821 13.7478 3.97354 13.7149 3.94523C13.3379 3.68245 13.2196 3.66014 12.9834 3.54732C12.949 3.53212 12.9137 3.51679 12.8776 3.50132C10.8263 2.66814 8.84407 2.07275 6.81767 1.45257C5.80505 1.14858 4.79239 0.855472 3.76791 0.579292C3.25233 0.440951 2.73814 0.306806 2.20471 0.18463C1.93151 0.12419 1.68284 0.0647579 1.32913 0.0189874C1.29181 0.0146489 1.23102 0.00800467 1.16148 0.00463361C1.06783 0.00763553 1.10431 -0.0203406 0.792764 0.0334932C0.719525 0.0513741 0.626318 0.076609 0.498913 0.149737C0.424312 0.198802 0.401509 0.19736 0.25619 0.347212C0.131514 0.480671 0.0223217 0.702897 0.00386596 0.915599C-0.0299344 1.35412 0.167555 1.57526 0.220943 1.65254C0.257953 1.69937 0.29086 1.73389 0.320518 1.7628C0.432011 1.87038 0.5343 1.93067 0.561963 1.94901C0.759041 2.06917 0.864453 2.11556 1.02339 2.19147C1.2259 2.28599 1.44441 2.38068 1.65131 2.46665C3.59429 3.25551 5.50334 3.85663 7.43572 4.46936C8.40209 4.77243 9.36543 5.06631 10.3317 5.35699C10.8163 5.5028 11.2982 5.64657 11.7801 5.79064C12.0081 5.85888 12.2669 5.93618 12.4952 6.00614C12.5598 6.026 12.6 6.03837 12.6658 6.05931C12.6946 6.06858 12.7075 6.07268 12.7306 6.08061C12.7335 6.08163 12.7339 6.08183 12.7291 6.07999C12.7266 6.07905 12.7228 6.07759 12.7166 6.07508C12.7135 6.07382 12.7097 6.0723 12.7052 6.07036C12.7029 6.06939 12.7004 6.06831 12.6976 6.0671C12.6963 6.06035 12.7084 6.09378 12.4996 5.94966C12.4423 5.89507 12.3384 5.85409 12.1965 5.5583C12.1309 5.41239 12.0764 5.14439 12.1638 4.87754C12.2478 4.60987 12.4331 4.43666 12.5582 4.35617C12.8187 4.19908 12.9204 4.21492 12.9945 4.19994C13.0657 4.19293 13.102 4.19459 13.1306 4.19534C13.2528 4.20369 13.18 4.19911 13.2016 4.20071C13.2094 4.20162 13.2156 4.20244 13.2208 4.20316C13.2312 4.20461 13.2376 4.20568 13.2421 4.20643C13.2509 4.20795 13.2522 4.20828 13.2503 4.20789C13.1803 4.19308 13.0518 4.16146 12.9188 4.1283C12.5902 4.03816 12.1936 3.95036 11.8212 3.8878C11.594 3.84966 11.3615 3.82676 11.1218 3.81577C10.8366 3.80501 10.5458 3.79376 10.2604 3.76336C10.0959 3.74583 9.93385 3.72785 9.76956 3.70898C7.42142 3.42863 4.86612 3.05071 2.75518 2.56407Z" fill="var(--stroke-0, #3B1B1B)"/>
</svg>
