<svg preserveAspectRatio="none" width="100%" height="100%" overflow="visible" style="display: block;" viewBox="0 0 25.8677 25.7711" fill="none" xmlns="http://www.w3.org/2000/svg">
<path id="Vector 118" d="M0.90949 0.0337175C0.733959 -0.0230209 0.543078 -0.00770593 0.378839 0.0762931C0.2146 0.160292 0.0904558 0.306094 0.0337175 0.481625C-0.0230209 0.657156 -0.00770599 0.848037 0.0762931 1.01228C0.160292 1.17652 0.306094 1.30066 0.481625 1.3574C0.481625 1.3574 0.481625 1.3574 0.481625 1.3574C0.326496 1.29684 0.353612 1.2846 0.357187 1.29584C0.367842 1.30594 0.392412 1.33297 0.417577 1.3646C0.469228 1.4292 0.525836 1.51059 0.58428 1.60137C0.697752 1.77804 0.808032 1.97243 0.916751 2.17507C1.13093 2.57541 1.33487 3.00118 1.52926 3.42838C2.61657 5.85035 3.50794 8.40281 4.27864 10.9691C4.29162 11.0126 4.30457 11.0562 4.31749 11.0999C5.45521 14.9445 6.50437 18.8263 7.71322 22.6727C7.74842 22.785 7.78094 22.8986 7.81178 23.0131C7.95805 23.5596 8.00451 24.1173 8.1721 24.7388C8.1911 24.806 8.21061 24.874 8.23908 24.9587C8.25374 25.0015 8.26986 25.0485 8.29957 25.117C8.31578 25.1533 8.33472 25.1961 8.37458 25.2627C8.39971 25.3028 8.4235 25.343 8.48853 25.417C8.5248 25.4572 8.57129 25.5036 8.63978 25.5535C8.72256 25.6137 8.86304 25.6932 9.04949 25.7205C9.38167 25.7992 9.91353 25.5887 10.0979 25.3383C10.2982 25.1055 10.3564 24.9202 10.4054 24.7816C10.497 24.4907 10.52 24.2701 10.5422 24.0601C10.5809 23.6401 10.5815 23.2694 10.5796 22.8965C10.5726 22.1555 10.5413 21.4442 10.5204 20.734C10.4772 19.319 10.4603 17.922 10.5899 16.5688C10.5933 16.533 10.5969 16.4974 10.6006 16.4618C10.6863 15.6357 11.0824 15.1647 11.7587 15.0258C11.7893 15.0198 11.8201 15.0148 11.8505 15.0107C15.7535 14.9297 17.9299 20.7214 20.8218 24.4409C20.8304 24.4524 20.8576 24.4855 20.8671 24.4962C20.8805 24.5113 20.8939 24.5263 20.9073 24.5413C21.4686 25.1595 22.5051 25.4369 23.3476 25.6506C23.5358 25.6953 23.7157 25.7336 23.8954 25.7603C23.9013 25.7612 23.9072 25.762 23.9131 25.7628C24.7418 25.8556 25.3246 25.1508 25.8632 24.636C25.8661 24.6331 25.8677 24.6291 25.8677 24.625C25.8677 24.6208 25.8661 24.6169 25.8632 24.6139C25.8602 24.611 25.8563 24.6094 25.8521 24.6094C25.848 24.6094 25.844 24.611 25.8411 24.6139C25.8411 24.6139 25.8411 24.6139 25.8411 24.6139C25.303 25.1303 24.7204 25.8244 23.9175 25.7319C23.9118 25.7311 23.9061 25.7302 23.9003 25.7292C23.7245 25.6995 23.5665 25.6038 23.4373 25.4809C22.8495 24.8944 22.7899 23.9178 22.2604 23.3361C22.2478 23.3219 22.2352 23.3077 22.2225 23.2934L22.2678 23.3488C20.8824 21.4903 19.7036 19.355 18.2361 17.3428C16.7976 15.4756 14.8942 12.8563 11.6047 13.1814C11.5381 13.1904 11.471 13.2014 11.4045 13.2144C9.93592 13.4165 8.81449 14.9937 8.78051 16.2769C8.77656 16.3163 8.77273 16.3558 8.76902 16.3952C8.63055 17.8875 8.65505 19.3527 8.70099 20.7913C8.72369 21.5103 8.75578 22.2233 8.7635 22.9123C8.76655 23.2548 8.76359 23.5933 8.73648 23.8879C8.72419 24.0287 8.69858 24.1725 8.68187 24.2199C8.67866 24.2407 8.66173 24.2337 8.74495 24.1327C8.81094 24.0208 9.16425 23.8806 9.31304 23.9283C9.49275 23.9546 9.62591 24.0308 9.70204 24.0862C9.76516 24.1321 9.80618 24.1735 9.83689 24.2074C9.89159 24.2698 9.90755 24.2985 9.924 24.3244C9.94912 24.3667 9.95438 24.3812 9.95816 24.3892C9.96395 24.403 9.9588 24.3911 9.95412 24.377C9.94365 24.3465 9.92892 24.2977 9.91454 24.2469C9.77016 23.7188 9.54173 23.1128 9.31748 22.5248C9.27551 22.4148 9.23569 22.3046 9.19898 22.1938C7.93907 18.3995 6.79432 14.5592 5.65137 10.7049C5.63817 10.6604 5.62496 10.6159 5.61173 10.5715C4.82447 7.95247 3.92471 5.3691 2.79567 2.85272C2.5925 2.40642 2.37884 1.95922 2.14291 1.51802C2.02233 1.29358 1.89916 1.07474 1.75405 0.848486C1.67791 0.730734 1.60236 0.619339 1.50358 0.49523C1.45363 0.433111 1.39812 0.36772 1.32505 0.29662C1.24304 0.225732 1.17125 0.129967 0.90949 0.0337175Z" fill="var(--stroke-0, #3B1B1B)"/>
</svg>
