<svg preserveAspectRatio="none" width="100%" height="100%" overflow="visible" style="display: block;" viewBox="0 0 2.50273 7.73995" fill="none" xmlns="http://www.w3.org/2000/svg">
<path id="Vector 73" d="M1.30801 1.16015C1.43602 1.03406 1.50869 0.862283 1.51005 0.682606C1.51141 0.50293 1.44133 0.330074 1.31524 0.202064C1.18915 0.0740537 1.01737 0.00137621 0.837696 1.93119e-05C0.65802 -0.00133759 0.485163 0.0687373 0.357153 0.194828C0.357153 0.194828 0.357153 0.194828 0.357153 0.194828C0.141586 0.434203 0.146885 0.53164 0.104497 0.636444C0.0738849 0.736493 0.0570635 0.820639 0.0435352 0.900706C-0.082251 1.87627 0.0811098 2.67789 0.321534 3.49881L0.314456 3.47429C0.315274 3.47734 0.316092 3.48038 0.316908 3.48342C0.637456 4.69763 1.1483 5.87933 1.58933 7.02429C1.58842 7.02111 1.58847 7.02124 1.58852 7.02138C1.63601 7.14959 1.72118 7.28129 1.84392 7.42392C1.94905 7.54729 2.09118 7.65606 2.21947 7.72406C2.25334 7.7406 2.29923 7.74325 2.34191 7.7365C2.38488 7.72945 2.42113 7.71357 2.44782 7.68727C2.47451 7.66098 2.49093 7.62497 2.49861 7.5821C2.50599 7.53953 2.50402 7.49361 2.48798 7.45949C2.48798 7.45949 2.48798 7.45949 2.48798 7.45949C2.44619 7.35737 2.45451 7.26142 2.46864 7.16244C2.48484 7.04742 2.50088 6.90861 2.47063 6.76909C2.4706 6.76895 2.47057 6.7688 2.47053 6.76866C2.17784 5.52633 1.94251 4.33149 1.62555 3.13209C1.62474 3.1291 1.62394 3.1261 1.62314 3.12311C1.62181 3.11817 1.61757 3.10347 1.61606 3.09859C1.41309 2.44407 1.3004 1.68478 1.38015 1.12303C1.38627 1.08557 1.39435 1.05133 1.3991 1.03642C1.39291 1.02834 1.44103 1.00668 1.30801 1.16015Z" fill="var(--stroke-0, #3B1B1B)"/>
</svg>
