<svg preserveAspectRatio="none" width="100%" height="100%" overflow="visible" style="display: block;" viewBox="0 0 0.714844 1.06277" fill="none" xmlns="http://www.w3.org/2000/svg">
<path id="Vector 64" d="M0 0.705352C0 0.800146 0.0376568 0.891057 0.104686 0.958087C0.171716 1.02512 0.262628 1.06277 0.357422 1.06277C0.452216 1.06277 0.543128 1.02512 0.610157 0.958087C0.677187 0.891057 0.714844 0.800146 0.714844 0.705352C0.714844 0.699553 0.714844 0.693754 0.714844 0.687955C0.714844 0.583576 0.714844 0.479197 0.714844 0.374818C0.714844 0.36902 0.714844 0.363221 0.714844 0.357422C0.714844 0.262628 0.677187 0.171716 0.610157 0.104686C0.543128 0.0376568 0.452216 0 0.357422 0C0.262628 0 0.171716 0.0376568 0.104686 0.104686C0.0376568 0.171716 0 0.262628 0 0.357422C0 0.363221 0 0.36902 0 0.374818C0 0.479197 0 0.583576 0 0.687955C0 0.693754 0 0.699553 0 0.705352Z" fill="var(--stroke-0, #4C3131)"/>
</svg>
