<svg preserveAspectRatio="none" width="100%" height="100%" overflow="visible" style="display: block;" viewBox="0 0 8.67908 9.27726" fill="none" xmlns="http://www.w3.org/2000/svg">
<path id="Vector 77" d="M2.05271 2.54827C2.14181 2.45917 2.19186 2.33833 2.19186 2.21232C2.19186 2.08632 2.14181 1.96548 2.05271 1.87638C1.96361 1.78728 1.84277 1.73723 1.71677 1.73723C1.59076 1.73723 1.46992 1.78728 1.38082 1.87638C1.38082 1.87638 1.38082 1.87638 1.38082 1.87638C1.19905 2.08833 1.19661 2.14236 1.12783 2.25692C1.07204 2.36047 1.0222 2.45973 0.97315 2.5604C0.875811 2.76059 0.784584 2.96169 0.697331 3.16108C0.503778 3.60424 0.325783 4.04852 0.15566 4.49727C0.154698 4.49981 0.153736 4.50235 0.152774 4.5049C-0.276981 5.57785 0.294167 6.65669 0.706318 7.36288C0.708833 7.36734 0.711363 7.37179 0.713909 7.37622C1.23857 8.21175 1.98146 8.54072 2.62341 8.91483C2.62655 8.91654 2.62969 8.91825 2.63283 8.91994C3.65205 9.42506 4.61019 9.24893 5.45116 9.24193C5.45657 9.24176 5.46197 9.24156 5.46738 9.24133C6.68277 9.11565 7.27373 8.29618 7.85464 7.67309C7.85641 7.671 7.85819 7.6689 7.85996 7.66681C8.84212 6.48129 8.787 4.92212 8.48553 3.67725C8.48497 3.67505 8.48442 3.67285 8.48387 3.67065C8.26091 2.68174 7.55313 1.77557 6.83759 1.20488C6.83667 1.2041 6.83574 1.20332 6.83482 1.20254C6.02056 0.529287 5.06571 0.0759595 3.94552 0.000269115C3.94362 0.000177383 3.94171 8.7738e-05 3.9398 0C2.64316 0.0514052 2.28024 0.935712 1.90038 1.42196C1.88957 1.43297 1.86509 1.47195 1.85568 1.48418C1.85414 1.48704 1.85261 1.4899 1.85108 1.49275C1.66325 1.84129 1.83481 2.25762 1.83738 2.5272C1.83738 2.52885 1.83736 2.5305 1.83734 2.53215C1.83698 2.55939 1.83637 2.58701 1.83568 2.61496C1.82018 3.07835 1.84585 3.5094 1.88888 3.94365C1.88937 3.94823 1.89193 3.95278 1.8955 3.95627C1.8991 3.95976 1.90342 3.9619 1.908 3.96226C1.91258 3.96262 1.91717 3.96117 1.92127 3.95828C1.92534 3.95539 1.92857 3.95129 1.92977 3.94684C1.92977 3.94684 1.92977 3.94684 1.92977 3.94684C2.04342 3.5277 2.13793 3.10342 2.3295 2.73544C2.34134 2.71201 2.35352 2.6884 2.36599 2.6643C2.36675 2.66284 2.36751 2.66138 2.36828 2.65993C2.49978 2.39992 2.82146 2.28109 2.92856 2.16598C2.92953 2.16484 2.9305 2.16371 2.93147 2.16257L2.88678 2.2248C3.29922 1.77149 3.82419 1.47048 3.86843 1.53643C3.86953 1.53648 3.87063 1.53653 3.87173 1.53658C4.5502 1.57478 5.331 1.86544 5.90939 2.32667C5.91006 2.3272 5.91073 2.32774 5.9114 2.32827C6.54191 2.819 6.94328 3.34215 7.14645 4.03341C7.14691 4.03495 7.14737 4.03649 7.14783 4.03803C7.45573 5.07041 7.56953 6.21877 6.99625 6.96593C6.99521 6.9673 6.99416 6.96867 6.99311 6.97004C6.52315 7.5822 5.92395 8.19619 5.42161 8.21207C5.41931 8.21219 5.41701 8.2123 5.41471 8.21239C4.54293 8.24847 3.67406 8.32022 3.11442 8.02243C3.11266 8.0215 3.11091 8.02056 3.10916 8.01962C2.48241 7.68047 1.83193 7.31787 1.57016 6.87884C1.56882 6.87658 1.56749 6.87432 1.56617 6.87206C1.11576 6.13081 0.791729 5.45234 1.04144 4.84126C1.04238 4.83879 1.04331 4.83631 1.04425 4.83384C1.20971 4.39732 1.38272 3.96579 1.56793 3.54179C1.65127 3.3513 1.73811 3.16008 1.82753 2.97622C1.8724 2.88409 1.91764 2.79425 1.96403 2.70819C1.99864 2.63687 2.09484 2.49624 2.05271 2.54827Z" fill="var(--stroke-0, #3B1B1B)"/>
</svg>
