<svg preserveAspectRatio="none" width="100%" height="100%" overflow="visible" style="display: block;" viewBox="0 0 10.0387 21.2874" fill="none" xmlns="http://www.w3.org/2000/svg">
<path id="Vector 4" d="M8.9759 3.18208C9.33018 2.82995 9.68446 2.47782 10.0387 2.12568C9.33448 1.41712 8.63021 0.708561 7.92595 0C7.57167 0.352132 7.21739 0.704265 6.86311 1.0564C6.35423 1.6148 6.26471 1.86416 6.0487 2.21297C4.71373 4.64372 3.73115 7.00639 2.79333 9.50326C2.79252 9.50546 2.79171 9.50766 2.7909 9.50986L2.80645 9.4693C1.65359 12.4014 0.626434 15.3172 0.036163 18.3896C0.0345423 18.3982 0.0329732 18.4068 0.0314554 18.4155C0.0290496 18.4275 0.0231943 18.4638 0.0212156 18.4759C-0.0428545 19.0264 0.0152793 19.6368 0.518463 20.4634C0.691445 20.7261 0.96396 21.074 1.38073 21.2283C1.80402 21.3826 2.14788 21.2095 2.3267 21.0007C2.34027 20.9841 2.35382 20.9678 2.36738 20.9515C2.36822 20.9093 2.36907 20.8671 2.36991 20.8249C2.35702 20.8082 2.34412 20.7913 2.33123 20.7742C2.17189 20.5601 2.16264 20.3026 2.3372 20.2179C2.50439 20.1364 2.66164 20.1434 2.77752 20.0748C3.13282 19.8793 3.36898 19.4586 3.44675 18.9943L3.43652 19.0547C3.43812 19.0467 3.43967 19.0387 3.44118 19.0307C3.98471 16.1869 4.53578 13.2587 5.58916 10.5824C5.59239 10.5743 5.60171 10.55 5.60471 10.5418C5.60546 10.5398 5.60622 10.5377 5.60698 10.5356C6.47627 8.20684 7.497 5.79347 8.6473 3.70619C8.72277 3.57485 8.79844 3.44889 8.86837 3.3414C8.92982 3.24128 9.03416 3.1165 8.9759 3.18208Z" fill="var(--stroke-0, black)"/>
</svg>
