<svg preserveAspectRatio="none" width="100%" height="100%" overflow="visible" style="display: block;" viewBox="0 0 9.35607 3.05829" fill="none" xmlns="http://www.w3.org/2000/svg">
<path id="Vector 68" d="M0.646632 1.26676C0.414432 1.33821 0.220125 1.49897 0.106454 1.71368C-0.00721586 1.92839 -0.0309375 2.17946 0.0405079 2.41166C0.111953 2.64386 0.272713 2.83816 0.487423 2.95183C0.702132 3.0655 0.953203 3.08923 1.1854 3.01778C1.32168 2.97585 1.45781 2.93396 1.59377 2.89221C2.80873 2.52199 4.02866 2.14014 5.20367 1.88344C5.20415 1.88334 5.20462 1.88324 5.2051 1.88314C5.93941 1.72 6.61177 1.45771 7.45605 1.25102C7.45614 1.25099 7.45622 1.25097 7.4563 1.25095C7.97466 1.1136 8.42374 0.882287 8.87905 0.683969C9.01242 0.625316 9.14656 0.568437 9.28259 0.514719C9.30529 0.505683 9.32543 0.485672 9.33904 0.462343C9.35263 0.438826 9.35857 0.41391 9.3551 0.389821C9.35163 0.365732 9.3389 0.343507 9.31922 0.324781C9.29958 0.306244 9.27461 0.292732 9.25028 0.290472C9.25028 0.290472 9.25028 0.290472 9.25028 0.290472C9.10314 0.277539 8.95587 0.264162 8.80827 0.251508C8.30238 0.207458 7.79812 0.178928 7.34673 0.135307C7.34666 0.1353 7.34658 0.135293 7.34651 0.135287C6.59219 0.0495737 5.65863 -0.096132 4.82429 0.0911241C4.82375 0.0912389 4.82321 0.0913539 4.82267 0.091469C3.50296 0.381148 2.28335 0.767964 1.05595 1.1409C0.919358 1.18285 0.782905 1.22483 0.646632 1.26676Z" fill="var(--stroke-0, #4C3131)"/>
</svg>
