<svg preserveAspectRatio="none" width="100%" height="100%" overflow="visible" style="display: block;" viewBox="0 0 19.0833 15.3648" fill="none" xmlns="http://www.w3.org/2000/svg">
<path id="Vector 20" d="M0.820075 3.78452C0.546717 4.15038 0.273358 4.51624 0 4.8821C0.731725 5.42882 1.46345 5.97554 2.19518 6.52225C2.46853 6.15639 2.74189 5.79053 3.01525 5.42467C3.16298 5.22247 3.55242 4.89349 3.9413 4.63819C5.37527 3.69846 7.16889 3.08189 8.94488 2.8352C8.94496 2.83519 8.94505 2.83518 8.94513 2.83517C10.5083 2.61773 12.1012 3.08627 13.6416 3.72568C13.644 3.72669 13.6465 3.72769 13.6489 3.72869C14.5472 4.09354 15.3175 5.08152 15.7794 6.30309C15.7809 6.30687 15.7823 6.31065 15.7838 6.31444C15.9937 6.69412 15.6334 7.73881 14.8782 8.79355L15.143 8.49274C15.143 8.49276 15.143 8.49278 15.143 8.49281C13.0045 10.3842 10.1156 11.5346 7.14693 12.0789C7.11562 12.0847 7.08429 12.0903 7.05293 12.0959C7.04621 12.0971 7.0395 12.0984 7.03281 12.0997L7.16982 12.0813C6.93508 12.1092 6.67466 12.2052 6.32176 12.454C6.1467 12.5816 5.93704 12.7455 5.72385 13.019C5.50798 13.2796 5.35015 13.7408 5.49007 14.0368C5.54414 14.1039 5.59326 14.1692 5.64081 14.234C5.79051 14.2879 5.94022 14.3418 6.08993 14.3957C6.16783 14.3761 6.2473 14.3571 6.33172 14.3399C6.55633 14.3871 6.59566 14.6499 6.61381 14.7978C6.63509 14.9553 6.68285 15.0624 6.76429 15.147C6.92605 15.314 7.18718 15.3824 7.47121 15.361C7.49879 15.358 7.581 15.3479 7.60823 15.3426C7.61597 15.3414 7.62371 15.34 7.63143 15.3387C7.66746 15.3322 7.70347 15.3257 7.73947 15.3191C11.1483 14.6853 14.5589 13.384 17.3237 10.9472C17.3237 10.9472 17.3237 10.9471 17.3238 10.9471C17.3854 10.8922 17.5421 10.7145 17.5887 10.6463C18.3887 9.39814 19.6602 7.56032 18.7915 5.13494C18.7893 5.12957 18.7872 5.12421 18.785 5.11884C18.1067 3.4328 16.8834 1.61145 14.7887 0.812377C14.7858 0.811265 14.7828 0.810152 14.7798 0.80904C12.8756 0.0945008 10.702 -0.180521 8.57104 0.120587C8.57093 0.120601 8.57083 0.120615 8.57073 0.12063C6.40637 0.431129 4.32845 1.11874 2.42258 2.35732C1.88177 2.72927 1.36057 3.09344 0.820075 3.78452Z" fill="var(--stroke-0, black)"/>
</svg>
