<svg preserveAspectRatio="none" width="100%" height="100%" overflow="visible" style="display: block;" viewBox="0 0 10.749 9.82793" fill="none" xmlns="http://www.w3.org/2000/svg">
<path id="Vector 69" d="M0.743154 4.43543C0.508351 4.47675 0.299577 4.60965 0.16276 4.80489C0.0259425 5.00013 -0.0277104 5.24173 0.013604 5.47654C0.0549184 5.71134 0.187816 5.92011 0.38306 6.05693C0.578305 6.19375 0.819903 6.2474 1.05471 6.20609C1.47251 6.13256 1.8888 6.05173 2.30441 5.96173C4.24264 5.43734 6.14862 5.2936 8.0614 3.35887C8.06447 3.35452 8.06754 3.35015 8.0706 3.34579C8.54546 2.63573 8.688 1.78316 8.18834 0.989067C8.1845 0.983472 8.18062 0.977886 8.17671 0.972309C7.53452 0.0838414 6.54431 0.00503182 5.96571 0C5.33789 0.00400817 4.81453 0.104271 4.31241 0.200698C4.30304 0.202758 4.29367 0.204844 4.2843 0.206957C3.61186 0.358604 2.85431 0.536155 2.25438 1.08682C2.24705 1.09367 2.23978 1.10056 2.23256 1.10749C0.640038 2.84704 0.895395 4.56816 1.06193 5.91252C1.09938 6.13017 1.32998 6.62166 1.47315 6.78981C1.47663 6.79389 1.48011 6.79797 1.48359 6.80205C3.18791 8.84484 5.94226 9.56953 8.17409 9.80445C8.18634 9.81053 8.22739 9.81641 8.24008 9.8215C8.24251 9.82166 8.24494 9.82182 8.24737 9.82197C8.61942 9.84562 8.99779 9.797 9.35719 9.70928C9.81002 9.59969 10.2294 9.43033 10.6411 9.29648C10.6697 9.28706 10.6971 9.26317 10.7174 9.23549C10.7376 9.2075 10.749 9.17799 10.749 9.14804C10.749 9.11809 10.7376 9.08858 10.7174 9.06059C10.6971 9.03291 10.6697 9.00902 10.6411 8.9996C10.2283 8.86615 9.822 8.69494 9.45276 8.51869C9.15732 8.37878 8.88477 8.23738 8.61472 8.12195C8.61295 8.12119 8.61118 8.12044 8.60941 8.11968L8.67541 8.13674C6.70368 7.17479 5.39752 5.77004 4.27057 4.42036C4.26815 4.41753 4.26574 4.41471 4.26332 4.41188L4.67455 5.28917C4.48665 4.41593 4.62169 3.52187 4.65809 3.51567C4.65811 3.5153 4.65812 3.51492 4.6581 3.51454C4.75874 3.37294 4.87994 3.05088 5.14339 2.90349C5.14688 2.90151 5.15039 2.89954 5.1539 2.89758C5.50916 2.72864 5.86303 2.60179 6.13368 2.54277C6.26662 2.5122 6.37411 2.50342 6.41043 2.49141C6.45212 2.48334 6.39238 2.43405 6.38337 2.373C6.38301 2.37197 6.38267 2.37096 6.38235 2.36997C6.37131 2.22993 6.59314 2.34823 6.59385 2.32025C6.59341 2.32093 6.59293 2.32163 6.59243 2.32233C5.79907 3.18355 3.6518 3.83057 1.92388 4.20462C1.53357 4.28913 1.13999 4.3656 0.743154 4.43543Z" fill="var(--stroke-0, #4C3131)"/>
</svg>
