<svg preserveAspectRatio="none" width="100%" height="100%" overflow="visible" style="display: block;" viewBox="0 0 12.3066 25.8009" fill="none" xmlns="http://www.w3.org/2000/svg">
<path id="Vector 133" d="M1.61772 0.583897C1.55321 0.374224 1.40804 0.198768 1.21416 0.0961257C1.02028 -0.00651634 0.793569 -0.027936 0.583897 0.0365787C0.374224 0.101093 0.198768 0.246258 0.0961257 0.440137C-0.00651634 0.634017 -0.027936 0.86073 0.0365787 1.0704C0.0365787 1.0704 0.0365787 1.0704 0.0365787 1.0704C0.169096 1.50108 0.30162 1.93179 0.434451 2.3627C1.06798 4.41515 1.70249 6.46923 2.38313 8.51879C2.38313 8.51881 2.38314 8.51882 2.38314 8.51883C3.08183 10.6705 3.95243 12.8367 4.9863 14.8637C4.98631 14.8637 4.98631 14.8637 4.98632 14.8637C6.68604 18.2201 8.75125 21.3293 10.7582 24.4581C11.0039 24.8396 11.2456 25.2149 11.4912 25.5981C11.5529 25.6942 11.6518 25.7624 11.7646 25.7889C11.8774 25.8153 11.9948 25.7978 12.0927 25.7391C12.1905 25.6804 12.2613 25.5852 12.2912 25.4732C12.321 25.3613 12.3074 25.2418 12.2517 25.1422C12.2517 25.1422 12.2517 25.1422 12.2517 25.1422C12.0298 24.7456 11.8141 24.3557 11.5962 23.9589C9.81821 20.7053 8.09083 17.4085 6.45447 14.1315C6.45447 14.1315 6.45446 14.1315 6.45446 14.1315C5.45571 12.1424 4.64543 10.1239 3.95277 7.99637C3.95276 7.99635 3.95276 7.99634 3.95276 7.99633C3.28069 5.97271 2.64786 3.92466 2.01534 1.87539C1.88268 1.44502 1.75024 1.01458 1.61772 0.583897Z" fill="var(--stroke-0, #3B1B1B)"/>
</svg>
