<svg preserveAspectRatio="none" width="100%" height="100%" overflow="visible" style="display: block;" viewBox="0 0 9.622 9.53786" fill="none" xmlns="http://www.w3.org/2000/svg">
<path id="Vector 37" d="M2.17574 7.38103C2.53665 7.74195 2.89757 8.10287 3.25849 8.46379C3.98033 7.74195 4.70217 7.02011 5.42401 6.29827C5.06309 5.93735 4.70217 5.57643 4.34125 5.21551C4.27055 5.14351 3.98685 4.85621 3.61745 4.69739C3.25018 4.53405 2.91695 4.50367 2.67273 4.5015C2.6718 4.5015 2.67086 4.50149 2.66993 4.50149C2.44986 4.50124 2.26954 4.51699 2.08187 4.5439C1.58732 4.67107 0.843195 4.62648 0.171808 5.86421C0.166003 5.87765 0.160357 5.89114 0.154871 5.90465C-0.25274 7.07224 0.234822 7.79815 0.577063 8.25281C0.95837 8.71593 1.39744 8.98459 1.82184 9.16205C1.82748 9.16438 1.83312 9.16669 1.83877 9.169C4.4479 10.1098 6.60467 9.08852 8.30399 7.92544C8.31679 7.91608 8.32949 7.90663 8.3421 7.89708C9.6658 6.83821 9.58767 5.4321 9.62126 4.7825C9.62145 4.76704 9.62158 4.75157 9.62165 4.73611C9.63108 3.9671 9.44991 3.07817 9.02364 2.32728C9.01688 2.31515 9.01006 2.30304 9.00318 2.29096C8.57628 1.52835 7.8825 0.872806 7.11253 0.49048C7.10318 0.485749 7.09381 0.481052 7.08444 0.476389C6.21995 0.0576767 5.32693 -0.0870733 4.3569 0.0502685C4.34963 0.0513721 4.34237 0.0524942 4.33512 0.0536348C3.36489 0.20744 2.79226 1.05797 2.40961 1.63035C2.40776 1.63299 2.40591 1.63563 2.40406 1.63827C2.15475 1.98826 1.92519 2.38657 1.79267 2.77736C1.66483 3.14473 1.60116 3.50368 1.56705 3.8548C1.56472 3.88039 1.56239 3.90598 1.56006 3.93157C1.60594 3.95474 1.65182 3.97791 1.6977 4.00108C1.71691 3.98401 1.73613 3.96694 1.75534 3.94988C2.01336 3.72293 2.28192 3.52074 2.55553 3.37897C2.84872 3.22523 3.13455 3.15293 3.44935 3.10463C3.45172 3.10425 3.4541 3.10388 3.45649 3.10352C4.01216 3.00537 4.5161 3.33205 4.7026 3.36141C4.70433 3.36155 4.70606 3.3617 4.70779 3.36185C4.9528 3.37679 5.30452 3.47406 5.53465 3.59277C5.53715 3.59401 5.53962 3.59525 5.54208 3.59649C5.75314 3.70498 5.89494 3.82872 6.01337 4.01871C6.01522 4.02174 6.01706 4.02478 6.0189 4.02784C6.13506 4.2246 6.20136 4.43377 6.21153 4.75228C6.2117 4.75854 6.21184 4.76485 6.21197 4.77121C6.21745 5.06287 6.20325 5.26104 6.1875 5.33532C6.16605 5.41878 6.20684 5.2921 6.30979 5.22218C6.31162 5.22082 6.31345 5.21949 6.31526 5.21819C5.27191 6.01386 3.78089 6.41388 3.08697 6.08802C3.08528 6.08735 3.08359 6.08669 3.0819 6.08602C3.04361 6.07376 3.04815 6.06267 3.10701 6.14097C3.13544 6.18268 3.18094 6.24767 3.22139 6.38927C3.2577 6.52587 3.29894 6.7761 3.16849 7.10041C3.16529 7.10817 3.16199 7.11593 3.15858 7.12367C2.99145 7.48348 2.77649 7.57339 2.71326 7.59496C2.63802 7.61613 2.64111 7.5899 2.65246 7.57812C2.65931 7.56867 2.67704 7.56355 2.65459 7.56395C2.65449 7.56395 2.65439 7.56395 2.65428 7.56395C2.63435 7.56311 2.52875 7.56405 2.36709 7.49302C2.20494 7.42446 2.08949 7.29361 2.17574 7.38103Z" fill="var(--stroke-0, black)"/>
</svg>
