<svg preserveAspectRatio="none" width="100%" height="100%" overflow="visible" style="display: block;" viewBox="0 0 22.04 13.1552" fill="none" xmlns="http://www.w3.org/2000/svg">
<path id="Vector 36" d="M15.4452 4.92081C15.4452 4.43188 15.4452 3.94295 15.4452 3.45401C14.4673 3.45401 13.4895 3.45401 12.5116 3.45401C12.5116 3.94295 12.5116 4.43188 12.5116 4.92081C12.515 5.08023 12.5209 5.28235 12.6565 5.58835C12.7779 5.88557 13.1296 6.23713 13.4445 6.35754C14.0957 6.59344 14.3166 6.45474 14.4982 6.43084C14.8303 6.33716 14.9443 6.2562 15.0762 6.1837C15.3164 6.03945 15.4709 5.91502 15.6213 5.79083C15.915 5.54384 16.1533 5.30312 16.3804 5.05882C16.4146 5.02188 16.4472 4.98437 16.4792 4.94508C16.6249 4.76668 16.7555 4.56772 16.8595 4.35866C17.3197 3.38527 17.2871 2.43363 16.8375 1.66789C16.805 1.616 16.7706 1.56597 16.7346 1.51801C15.6896 0.325093 14.8907 0.358278 14.2456 0.180228C13.5881 0.0597357 13.0057 0.0247015 12.4351 0.00717211C11.3024 -0.0215633 10.2369 0.0399437 9.18115 0.122265C9.14873 0.124877 9.11642 0.127622 9.0842 0.130496C6.65774 0.301557 4.14308 1.54762 2.53554 3.34675C2.51356 3.37024 2.49167 3.39379 2.46989 3.41739C1.42898 4.58405 0.44343 5.87698 0.0392257 7.83479C0.0265729 7.90517 0.0168344 7.97518 0.00981498 8.04451C-0.0689628 9.15622 0.344195 9.77034 0.615462 10.2174C0.912155 10.6644 1.20841 10.9822 1.48561 11.2644C1.59276 11.3726 1.9332 11.6073 2.0723 11.6693C2.10159 11.6823 2.131 11.6952 2.16053 11.7079C8.37901 13.65 13.7104 13.2089 19.4668 12.8094C19.4988 12.808 19.5931 12.7941 19.6248 12.7894C19.6298 12.7883 19.6347 12.7873 19.6397 12.7862C19.8699 12.7378 20.1105 12.6298 20.3386 12.4785C21.0613 12.0039 21.492 11.1776 21.9989 10.5966C22.0126 10.5808 22.0263 10.5649 22.04 10.5491C22.0245 10.5101 22.009 10.4712 21.9934 10.4323C21.9726 10.4302 21.9517 10.4281 21.9309 10.4261C21.1633 10.3493 20.3128 10.0198 19.7029 9.8703C19.5011 9.8241 19.3081 9.80213 19.103 9.83265C19.0986 9.8333 19.0942 9.83395 19.0898 9.83461L19.2478 9.81458C14.0196 9.9359 8.03482 9.54421 3.68357 8.15747C3.66932 8.15135 3.65553 8.14534 3.64223 8.13943L4.22892 8.54433C4.04547 8.36092 3.89901 8.18969 3.83233 8.08984C3.74832 7.99473 3.85541 7.97949 3.83828 8.42828C3.8355 8.45536 3.83159 8.48333 3.82642 8.51182C3.93833 7.81642 4.54371 6.80935 5.28881 5.99876C5.30421 5.98176 5.31971 5.96477 5.33531 5.94781C6.44337 4.7211 7.81089 4.02918 9.43866 3.86371C9.46013 3.86148 9.4817 3.85934 9.50339 3.85729C10.4804 3.76672 11.4538 3.70095 12.359 3.71003C12.8089 3.715 13.247 3.74171 13.5939 3.79959C13.7642 3.82725 13.9128 3.86655 13.9801 3.89163C14.0523 3.90987 14.002 3.93833 13.823 3.71647C13.8105 3.69956 13.7983 3.68113 13.7868 3.66138C13.7612 3.55206 13.9281 3.45947 14.0905 3.23008C14.1286 3.18282 14.1695 3.13544 14.2046 3.09251C14.2123 3.08303 14.22 3.07418 14.2279 3.06571C14.0615 3.24552 13.8886 3.41561 13.7391 3.54063C13.6679 3.60109 13.5917 3.65445 13.5833 3.65835C13.5898 3.65907 13.5763 3.64554 13.7671 3.5898C13.8789 3.58309 14.0253 3.45644 14.6076 3.66436C14.8895 3.77102 15.2135 4.09515 15.3203 4.35962C15.4407 4.63189 15.442 4.79919 15.4452 4.92081Z" fill="var(--stroke-0, black)"/>
</svg>
