<svg preserveAspectRatio="none" width="100%" height="100%" overflow="visible" style="display: block;" viewBox="0 0 13.8534 19.4514" fill="none" xmlns="http://www.w3.org/2000/svg">
<path id="Vector 3" d="M12.8672 3.24058C13.1959 2.8179 13.5247 2.39521 13.8534 1.97253C13.0081 1.31502 12.1627 0.657511 11.3173 0C10.9886 0.422683 10.6598 0.845365 10.3311 1.26805C10.1188 1.54101 9.90843 1.81536 9.7 2.09103C7.98673 4.35658 6.4064 6.70942 4.92219 9.10776C4.92217 9.10779 4.92215 9.10782 4.92213 9.10785L4.94233 9.07605C3.29522 11.6204 1.55641 14.0902 0.127293 16.8989C0.12729 16.8989 0.127286 16.8989 0.127283 16.8989C-0.012338 17.1781 -0.0376071 17.5142 0.0540175 17.9087C0.153293 18.337 0.390383 18.8337 0.76848 19.4007C0.773923 19.4089 0.77931 19.4171 0.784679 19.4252C0.802111 19.4339 0.819542 19.4427 0.836974 19.4514C0.846711 19.4508 0.856466 19.4503 0.866277 19.4497C1.54689 19.4118 2.08641 19.3036 2.48861 19.126C2.85921 18.9626 3.11291 18.7408 3.25253 18.4615C3.25253 18.4615 3.25254 18.4615 3.25254 18.4615C4.54095 15.9237 6.02101 13.3179 7.63391 10.8305C7.63802 10.8242 7.65014 10.8051 7.65411 10.7987C7.65413 10.7987 7.65415 10.7986 7.65417 10.7986C9.09652 8.46787 10.6211 6.19963 12.2628 4.02874C12.4625 3.76456 12.664 3.50182 12.8672 3.24058Z" fill="var(--stroke-0, black)"/>
</svg>
