<svg preserveAspectRatio="none" width="100%" height="100%" overflow="visible" style="display: block;" viewBox="0 0 12.7227 10.6203" fill="none" xmlns="http://www.w3.org/2000/svg">
<path id="Vector 104" d="M1.29081 0.570628C1.27037 0.400066 1.18301 0.244612 1.04795 0.138462C0.912886 0.0323121 0.741189 -0.0158377 0.570628 0.00460517C0.400066 0.025048 0.244612 0.112409 0.138462 0.247469C0.0323121 0.382529 -0.0158377 0.554226 0.00460511 0.724787C0.00460511 0.724787 0.00460511 0.724787 0.00460511 0.724787C0.0498274 1.1015 0.0998023 1.4858 0.150003 1.86075C0.463335 4.14372 0.789719 6.40615 1.21944 8.69228C1.23059 8.74886 1.23974 8.80387 1.24749 8.85716C1.31599 9.19007 1.33498 9.52697 1.73518 9.93673C1.83816 10.029 1.98114 10.1375 2.21079 10.192C2.52447 10.2727 2.91968 10.2242 3.19935 10.0849C3.48457 9.94864 3.67815 9.77154 3.83775 9.60728C4.15202 9.27377 4.35611 8.95412 4.55896 8.6514C4.95288 8.05059 5.31428 7.49014 5.72617 7.13666C5.73025 7.13314 5.73437 7.1297 5.73853 7.12632C5.80673 7.09741 5.8194 7.22466 5.92948 7.2474C5.93397 7.24858 5.93857 7.24985 5.94326 7.25121C6.22192 7.32608 6.45036 7.56641 6.68091 8.05705C6.79302 8.29573 6.89257 8.57067 7.00492 8.88162C7.062 9.03792 7.12123 9.20266 7.20308 9.39243C7.29485 9.58425 7.36026 9.7931 7.66128 10.1155C7.71265 10.1671 7.87643 10.2823 7.94223 10.3134C7.97992 10.3312 8.01768 10.3482 8.0563 10.3647C8.9348 10.7562 9.94033 10.6432 10.6631 10.3913C10.671 10.3889 10.6945 10.3807 10.7023 10.378C10.718 10.372 10.7341 10.3658 10.7502 10.3596C11.1641 10.2019 11.5357 9.90618 11.8299 9.59304C12.1241 9.28349 12.3709 8.95067 12.6342 8.65021C12.6876 8.58815 12.7167 8.49658 12.7219 8.40553C12.7268 8.31391 12.7073 8.23028 12.661 8.16318C12.6148 8.09607 12.5435 8.04815 12.4562 8.02009C12.3692 7.9926 12.2733 7.98725 12.1963 8.01507C12.1963 8.01507 12.1963 8.01507 12.1963 8.01507C11.8335 8.14582 11.4475 8.22607 11.0838 8.29541C10.7092 8.36805 10.385 8.41358 10.0724 8.51948C10.0595 8.52391 10.0465 8.52834 10.0336 8.53273L10.0728 8.51945C9.5604 8.66768 9.1735 8.67134 8.84156 8.52692C8.82605 8.52029 8.81068 8.51339 8.79508 8.50607L9.07604 8.704C8.84921 8.5055 8.55874 5.97268 6.38965 5.4107C6.3682 5.40572 6.34652 5.40099 6.3247 5.39655C5.7995 5.27412 5.09091 5.51851 4.67314 5.94386C4.66674 5.94999 4.66033 5.9561 4.65391 5.96217C4.01975 6.57276 3.65038 7.25046 3.28466 7.83929C3.10513 8.13209 2.92624 8.41316 2.75964 8.60066C2.67839 8.69356 2.60078 8.75506 2.56654 8.77378C2.52925 8.79129 2.55503 8.79072 2.52122 8.79082C2.63467 8.81933 2.67448 8.86143 2.68957 8.87486C2.71833 8.92821 2.56423 8.75619 2.52631 8.59583C2.5132 8.54705 2.50102 8.49568 2.4904 8.4418C2.07376 6.22669 1.74325 3.94504 1.43394 1.6887C1.38427 1.31777 1.33489 0.937855 1.29081 0.570628Z" fill="var(--stroke-0, #3B1B1B)"/>
</svg>
