<svg preserveAspectRatio="none" width="100%" height="100%" overflow="visible" style="display: block;" viewBox="0 0 2.0803 2.08028" fill="none" xmlns="http://www.w3.org/2000/svg">
<path id="Vector 29" d="M0.96122 0.320405C0.854417 0.213603 0.747613 0.106802 0.640809 0C0.427206 0.213607 0.213603 0.427214 0 0.640822C0.106804 0.747623 0.213607 0.854425 0.320411 0.961226C0.333722 0.974537 0.347033 0.987848 0.360344 1.00116C0.599944 1.24075 0.839543 1.48035 1.07914 1.71994C1.09245 1.73325 1.10576 1.74657 1.11908 1.75988C1.22588 1.86668 1.33268 1.97348 1.43949 2.08028C1.65309 1.86667 1.86669 1.65307 2.0803 1.43946C1.97349 1.33266 1.86669 1.22586 1.75989 1.11905C1.74657 1.10574 1.73326 1.09243 1.71995 1.07912C1.48035 0.839527 1.24075 0.599932 1.00115 0.360337C0.987842 0.347026 0.974531 0.333716 0.96122 0.320405Z" fill="var(--stroke-0, black)"/>
</svg>
