<svg preserveAspectRatio="none" width="100%" height="100%" overflow="visible" style="display: block;" viewBox="0 0 13.5295 16.4248" fill="none" xmlns="http://www.w3.org/2000/svg">
<path id="Vector 60" d="M12.7401 2.85137C13.0934 2.65785 13.3554 2.33189 13.4685 1.9452C13.5815 1.5585 13.5363 1.14274 13.3427 0.789387C13.1492 0.436033 12.8233 0.174025 12.4366 0.0610032C12.0499 -0.0520186 11.6341 -0.0067966 11.2808 0.186721C11.2808 0.186721 11.2808 0.186721 11.2808 0.186721C10.8048 0.451324 10.4391 0.717015 10.0771 0.986954C6.30891 4.06912 3.14606 7.14816 0.382219 11.4074C0.376264 11.418 0.370349 11.4285 0.364475 11.4391C-0.361644 13.0891 0.147357 13.9861 0.595632 14.954C0.602246 14.9658 0.608918 14.9776 0.615647 14.9894C1.09547 15.9124 2.15955 16.38 2.87835 16.4116C3.62904 16.4707 4.24315 16.3205 4.80054 16.1719C4.80853 16.1732 4.83275 16.1677 4.84079 16.1685C4.84599 16.1669 4.85119 16.1652 4.8564 16.1636C5.47144 15.9721 5.97766 15.3673 6.45011 15.0504C6.45264 15.0487 6.45518 15.0471 6.45771 15.0455C6.80165 14.8232 7.09062 14.5499 7.36641 14.2738C7.65692 13.9809 7.93544 13.6804 8.21214 13.3778C8.21915 13.3702 8.22284 13.3598 8.2226 13.3491C8.22235 13.3385 8.21819 13.3285 8.21084 13.3211C8.20349 13.3138 8.19349 13.3096 8.18285 13.3094C8.17222 13.3091 8.16182 13.3128 8.15413 13.3198C8.15413 13.3198 8.15413 13.3198 8.15413 13.3198C7.85113 13.5957 7.55341 13.878 7.24506 14.1432C6.95302 14.3932 6.64824 14.6288 6.31207 14.7823C6.30958 14.7834 6.30709 14.7846 6.3046 14.7857C5.79034 15.0125 5.17881 14.6603 4.68112 14.5913C4.67664 14.5907 4.67216 14.5901 4.66768 14.5895L4.70793 14.5862C4.18476 14.4999 3.69931 14.3737 3.38806 14.1928C3.05446 13.9999 3.08782 13.8544 3.10317 13.775C3.10204 13.7707 3.10087 13.7662 3.09967 13.7616C3.04638 13.5672 3.00375 13.2989 3.0059 13.1038C2.99744 12.907 3.07764 12.7787 3.01685 12.9205C3.0209 12.9133 3.02499 12.906 3.0291 12.8987C5.20584 9.49864 8.62228 6.05708 11.9039 3.41448C12.1977 3.19314 12.507 2.979 12.7401 2.85137Z" fill="var(--stroke-0, #4C3131)"/>
</svg>
