<svg preserveAspectRatio="none" width="100%" height="100%" overflow="visible" style="display: block;" viewBox="0 0 11.7927 8.22203" fill="none" xmlns="http://www.w3.org/2000/svg">
<path id="Vector 141" d="M5.71336 6.30845C5.94595 6.30845 6.169 6.21606 6.33346 6.05159C6.49792 5.88713 6.59032 5.66408 6.59032 5.4315C6.59032 5.19891 6.49792 4.97586 6.33346 4.8114C6.169 4.64694 5.94595 4.55454 5.71336 4.55454C5.38466 4.56908 5.3096 4.61479 5.17384 4.64758C5.05143 4.68322 4.9463 4.71863 4.84024 4.75579C4.63126 4.82942 4.4337 4.90617 4.24004 4.98353C3.85283 5.13869 3.47548 5.29975 3.10202 5.46173C2.58042 5.68829 2.06563 5.91807 1.55138 6.1489C1.39052 6.22114 1.23076 6.29266 1.06992 6.36441C0.977362 6.40553 0.919141 6.42986 0.849211 6.45597C0.81643 6.46807 0.795389 6.47441 0.789991 6.47556C0.789465 6.47571 0.799958 6.47179 0.835759 6.46653C0.851903 6.46547 0.876916 6.45661 0.982548 6.46243C1.0792 6.47477 1.2647 6.48129 1.50243 6.69888C1.6501 6.83614 1.74494 7.05946 1.75782 7.22348C1.77412 7.39079 1.74391 7.50084 1.72088 7.57344C1.68473 7.67518 1.6713 7.68918 1.65388 7.72122C1.62195 7.77322 1.61367 7.77906 1.61392 7.7799C1.61077 7.78357 1.63685 7.75643 1.65525 7.73963C1.70069 7.69692 1.76378 7.64229 1.82947 7.58788C2.09801 7.36643 2.39976 7.14336 2.70203 6.9244C3.31267 6.48365 3.94302 6.05333 4.57376 5.62831C5.83615 4.78098 7.12793 3.92897 8.38112 3.11349C8.38424 3.11151 8.38729 3.10957 8.39027 3.10768C8.41497 3.09196 8.43785 3.07713 8.46522 3.05823C8.47152 3.05322 8.50956 3.0301 8.57818 2.97045C8.59715 2.95356 8.62021 2.93275 8.65395 2.89641C8.66242 2.88724 8.67159 2.87698 8.68167 2.86513C8.67604 2.86643 8.73723 2.82124 8.82806 2.63641C8.86946 2.54177 8.9317 2.39527 8.91838 2.14863C8.91314 1.90517 8.74438 1.57874 8.54106 1.4324C8.12173 1.14606 7.94849 1.2306 7.84867 1.21963C7.63711 1.24451 7.69339 1.24627 7.66707 1.24936C7.65456 1.25258 7.64378 1.25559 7.63412 1.25841C7.61485 1.26405 7.59994 1.26892 7.58706 1.27331C7.48557 1.30989 7.48607 1.31316 7.45592 1.32578C7.43011 1.33734 7.40893 1.34727 7.39279 1.35488C7.31624 1.39112 7.2564 1.42099 7.19586 1.45122C7.06853 1.51505 6.95782 1.57184 6.83472 1.63531C6.60003 1.75644 6.36571 1.87911 6.13494 2.00047C5.67157 2.24426 5.20891 2.49016 4.74705 2.73672C3.8244 3.22949 2.90422 3.72505 1.98523 4.22512C1.91225 4.26485 1.84071 4.30383 1.77081 4.34196C1.65707 4.40404 1.58812 4.44171 1.47986 4.50116C1.4245 4.53161 1.39662 4.54694 1.33645 4.58034C1.3075 4.59644 1.28324 4.61002 1.26213 4.622C1.25838 4.62415 1.22312 4.64398 1.19577 4.66071C1.18731 4.66589 1.17786 4.67166 1.16149 4.6824C1.15313 4.68792 1.14306 4.69461 1.12761 4.70563C1.11753 4.71327 1.12043 4.70941 1.07256 4.74791C1.05047 4.76665 1.0227 4.78843 0.969343 4.84602C0.925249 4.92174 0.798628 4.94588 0.713149 5.41749C0.669347 5.65125 0.806835 6.09407 1.06316 6.28484C1.30852 6.48243 1.49395 6.499 1.60212 6.51483C1.8189 6.53135 1.87298 6.50436 1.9275 6.49609C2.02157 6.47362 2.0424 6.4625 2.06664 6.45409C2.10794 6.43806 2.11968 6.4321 2.13302 6.42616C2.15998 6.41368 2.16258 6.41216 2.166 6.41055C2.39321 6.29661 2.56052 6.20729 2.7632 6.10177C3.13904 5.90517 3.52393 5.70318 3.90039 5.50595C4.65478 5.11064 5.41639 4.7124 6.17348 4.31918C7.67545 3.54628 9.25904 2.70192 10.6783 2.06763C10.788 2.02294 10.8986 1.98539 10.9064 1.98447C10.9044 1.98418 10.8854 1.99286 10.7993 1.99877C10.7754 1.99989 10.7565 2.00098 10.7105 1.99903C10.6286 1.99234 10.4974 1.98817 10.2914 1.87671C10.0875 1.78299 9.83344 1.44392 9.80793 1.19467C9.77049 0.97575 9.80932 0.819889 9.84092 0.720755C9.90932 0.52706 9.9729 0.470671 9.97663 0.460665C9.9927 0.439875 10.0031 0.428356 10.0095 0.421314C10.0228 0.407158 10.0174 0.413346 10.0122 0.417888C9.98104 0.446513 9.91348 0.501304 9.8343 0.561276C9.6958 0.666429 9.52097 0.790397 9.35812 0.903306C9.02412 1.13468 8.66927 1.37069 8.3252 1.59741C7.62619 2.05747 6.91537 2.51532 6.20674 2.97327C4.78056 3.90833 3.38321 4.75181 1.91838 5.877C1.27661 6.40465 1.38575 7.22104 2.14359 7.56158C2.6516 7.75506 2.84776 7.67522 3.05479 7.66388C3.25126 7.63704 3.40938 7.59764 3.56079 7.5554C5.0555 7.08045 6.17867 6.39661 7.3578 5.67272C7.36187 5.67015 7.37401 5.66228 7.37802 5.65961C7.4059 5.64105 7.43382 5.62241 7.46175 5.60368C7.50191 5.57675 7.54186 5.5498 7.58248 5.52215C7.91279 5.2945 8.22609 4.9901 8.47115 4.53263C8.589 4.30363 8.70016 4.02623 8.70433 3.68985C8.7196 3.35039 8.51072 3.00411 8.26528 2.91595C8.24017 2.90702 8.21501 2.89912 8.19063 2.89695C8.1662 2.89482 8.14405 2.8989 8.12575 2.91039C8.10745 2.92187 8.09414 2.94003 8.08543 2.96296C8.07677 2.98585 8.07294 3.01194 8.07006 3.03844C8.07006 3.03844 8.07006 3.03844 8.07006 3.03844C8.0349 3.26885 7.87739 3.33823 7.75705 3.35524C7.63203 3.37799 7.49855 3.40411 7.35395 3.44725C7.06473 3.53237 6.75239 3.66734 6.45723 3.86873C6.42102 3.89337 6.3848 3.91781 6.34782 3.94261C6.3221 3.95986 6.29611 3.97721 6.26989 3.99466L6.29012 3.98155C5.22833 4.64525 4.04732 5.31172 3.01757 5.63058C2.92769 5.65614 2.84238 5.67473 2.79072 5.68139C2.75204 5.69999 2.68656 5.64067 2.96335 5.7373L3.18856 7.42188C4.39085 6.49644 5.89533 5.56491 7.29201 4.6532C8.00027 4.19548 8.71333 3.73624 9.42523 3.26772C9.77634 3.03633 10.1395 2.79499 10.4977 2.54686C10.6735 2.42489 10.864 2.2904 11.0436 2.15428C11.1508 2.07209 11.2366 2.00685 11.3628 1.89293C11.3869 1.87085 11.4333 1.82772 11.4817 1.77504C11.5387 1.68761 11.552 1.78002 11.7402 1.34749C11.7757 1.23654 11.8157 1.07035 11.7767 0.842621C11.7496 0.583339 11.489 0.234441 11.2739 0.134658C11.0567 0.0169141 10.9097 0.00905883 10.8071 0.00136405C10.7492 -0.00109053 10.7226 0.000192761 10.6876 0.00189018C10.5616 0.00952524 10.4748 0.0312046 10.4175 0.0451316C10.2019 0.102724 10.0884 0.150979 9.93363 0.211442C8.23777 0.968177 6.79498 1.75305 5.25164 2.5443C4.49129 2.93921 3.72747 3.3386 2.97212 3.73442C2.59534 3.93182 2.20988 4.13411 1.83637 4.32949C1.64615 4.42879 1.43293 4.54083 1.29184 4.6117C1.29276 4.6113 1.28686 4.614 1.29965 4.60806C1.30732 4.60471 1.31478 4.60061 1.35325 4.58566C1.37607 4.57779 1.39583 4.56702 1.48921 4.54471C1.54338 4.53652 1.59719 4.50955 1.8138 4.52606C1.92189 4.54188 2.10726 4.55843 2.35258 4.75598C2.60887 4.94672 2.74634 5.3895 2.70254 5.6232C2.61707 6.09469 2.49056 6.11867 2.44666 6.19418C2.39349 6.25155 2.36601 6.27307 2.3443 6.2915C2.29741 6.32921 2.3007 6.32509 2.29108 6.33239C2.27656 6.34275 2.26764 6.34866 2.26065 6.35328C2.24701 6.36222 2.24117 6.36572 2.23721 6.36816C2.22134 6.37759 2.24658 6.36283 2.24871 6.36172C2.26233 6.354 2.28257 6.34265 2.30828 6.32835C2.3625 6.29825 2.38984 6.28321 2.44306 6.25395C2.54796 6.19633 2.61622 6.15904 2.72869 6.09766C2.79802 6.05984 2.86901 6.02115 2.94148 5.9817C3.85428 5.485 4.77166 4.99074 5.68914 4.50009C6.14837 4.25461 6.60825 4.00975 7.06597 3.76837C7.29372 3.6483 7.52475 3.52705 7.75156 3.40962C7.87008 3.34833 7.97682 3.29343 8.09084 3.23609C8.14371 3.20955 8.19879 3.18217 8.24556 3.15999C8.25182 3.15558 8.32649 3.12676 8.23141 3.16272C8.22195 3.16593 8.21014 3.16982 8.19364 3.17465C8.18537 3.17706 8.1759 3.17971 8.16461 3.18261C8.13929 3.18553 8.19703 3.18657 7.99146 3.21076C7.89376 3.19964 7.72197 3.2844 7.3034 2.99867C7.10046 2.85263 6.93191 2.52659 6.92671 2.28362C6.91341 2.03746 6.97552 1.89156 7.0166 1.79759C7.10693 1.61402 7.1661 1.5712 7.16062 1.57231C7.17037 1.56085 7.1792 1.55098 7.18728 1.54222C7.2195 1.50753 7.24058 1.48863 7.25712 1.47389C7.31883 1.42091 7.32735 1.4189 7.32857 1.41726C7.33468 1.41308 7.32954 1.41669 7.31921 1.42325C7.31557 1.42556 7.31189 1.42791 7.30816 1.43029C5.98489 2.29422 4.74886 3.17515 3.49336 4.08628C2.8693 4.54122 2.24651 5.00133 1.62363 5.48013C1.31238 5.72071 1.00785 5.95692 0.682229 6.23656C0.600121 6.30776 0.517685 6.3808 0.427933 6.46836C0.392659 6.50284 0.324395 6.57151 0.27078 6.63548C0.24958 6.66102 0.195699 6.72403 0.142354 6.81294C0.112765 6.86575 0.0924484 6.8921 0.0479547 7.0175C0.0196877 7.10583 -0.01256 7.22967 0.0049811 7.40875C0.019109 7.58455 0.118484 7.81764 0.274069 7.9626C0.524402 8.1922 0.728698 8.20499 0.852507 8.21944C0.986994 8.2274 1.04285 8.21474 1.0743 8.21161C1.14873 8.20107 1.2057 8.18704 1.25981 8.17206C1.35986 8.14316 1.39906 8.12783 1.46926 8.10164C1.60096 8.05072 1.67373 8.01821 1.79129 7.96531C1.95111 7.89257 2.1099 7.82072 2.26983 7.74891C2.78094 7.51948 3.29069 7.29198 3.80048 7.07056C4.16495 6.91244 4.53152 6.75617 4.89154 6.61194C5.07076 6.54029 5.25127 6.47049 5.42181 6.41047C5.5074 6.3804 5.58919 6.35331 5.66201 6.33218C5.71868 6.31103 5.84468 6.29912 5.71336 6.30845Z" fill="var(--stroke-0, #3B1B1B)"/>
</svg>
