<svg preserveAspectRatio="none" width="100%" height="100%" overflow="visible" style="display: block;" viewBox="0 0 26.2844 19.2445" fill="none" xmlns="http://www.w3.org/2000/svg">
<path id="Vector 137" d="M1.5795 12.1677C1.47927 11.9702 1.3047 11.8207 1.0942 11.7519C0.883695 11.6832 0.654502 11.7009 0.457039 11.8011C0.259576 11.9013 0.110017 12.0759 0.0412633 12.2864C-0.02749 12.4969 -0.00980574 12.7261 0.0904257 12.9235C0.0904257 12.9235 0.0904257 12.9235 0.0904257 12.9235C0.3355 13.5695 0.684965 14.6276 1.05783 15.4843C1.37224 16.2084 1.71092 16.9297 2.2286 17.6398C2.25727 17.6785 2.28634 17.7167 2.31583 17.7544C3.20026 18.8062 4.33702 19.0219 5.32061 19.1831C5.39057 19.1928 5.46051 19.2017 5.52975 19.2098C6.43074 19.3227 7.40781 19.158 8.22336 18.7498C8.31761 18.7037 8.41001 18.6549 8.50051 18.6039C10.9676 17.2915 11.5731 14.2157 11.3326 11.9618C11.3286 11.9047 11.3241 11.823 11.3251 11.8257C11.325 11.7767 11.3285 11.746 11.3286 11.7491C11.3267 11.7566 11.3306 11.7617 11.3057 11.8328C11.2916 11.8683 11.278 11.9046 11.2316 11.9744C11.1784 12.0537 11.0804 12.1591 10.9381 12.2304C10.789 12.3085 10.6031 12.3284 10.4802 12.3103C10.3669 12.2945 10.312 12.27 10.2639 12.2486C10.1716 12.2024 10.1711 12.193 10.1583 12.1848C10.1465 12.1744 10.1754 12.2022 10.2004 12.2324C10.3187 12.3725 10.4733 12.5992 10.6161 12.8148C10.9071 13.256 11.2037 13.7291 11.5195 14.1981C12.2155 15.118 12.6329 16.1452 14.2322 16.8902C14.535 16.9928 14.845 17.0676 15.1551 17.1168C17.8067 17.4704 20.0551 16.415 22.0966 15.4403C22.3179 15.3304 22.5276 15.2076 22.7272 15.0759C23.9724 14.2328 24.8714 13.1387 25.5791 11.8953C25.6765 11.7195 25.7633 11.5399 25.8404 11.3547C26.7549 9.09726 26.0471 6.87943 25.5823 5.05864C25.5759 5.03423 25.5522 4.96337 25.5426 4.94002C25.487 4.80438 25.4264 4.67095 25.3613 4.54026C24.0486 2.05706 21.5802 0.994315 19.3572 0.221962C19.3454 0.216063 19.3078 0.205175 19.2953 0.200839C19.2374 0.189234 19.1795 0.178122 19.1215 0.167494C18.0332 -0.0330526 16.9564 -0.0181006 15.9063 0.0321716C14.9682 0.0795066 14.0391 0.15728 13.1065 0.22725C13.0949 0.228137 13.0839 0.233853 13.0757 0.242629C13.0676 0.251435 13.063 0.26258 13.063 0.274125C13.063 0.285669 13.0676 0.296815 13.0757 0.30562C13.0839 0.314396 13.0949 0.320112 13.1065 0.321C14.0385 0.392399 14.97 0.46295 15.8915 0.560627C16.9242 0.671583 17.9427 0.819858 18.8796 1.13074C18.9298 1.14727 18.9798 1.16431 19.0295 1.18188L18.9676 1.16075C20.9835 2.17813 22.8023 3.66781 23.6653 5.38439C23.7105 5.47522 23.752 5.56675 23.7897 5.65858L23.75 5.53996C24.255 7.40104 24.701 9.20981 24.0947 10.6288C24.0446 10.7493 23.9885 10.8659 23.9251 10.9809C23.3718 11.9704 22.5815 12.9116 21.6904 13.5101C21.5487 13.6045 21.4045 13.6891 21.2595 13.7619C19.3462 14.7124 17.2713 15.5573 15.4397 15.2942C15.225 15.2616 15.0164 15.2127 14.8153 15.1467C14.3678 15.0007 13.5729 14.0175 13.0061 13.1842C12.7024 12.7464 12.4089 12.2922 12.0914 11.8241C11.9282 11.5877 11.7757 11.3566 11.5357 11.0758C11.4763 11.0087 11.403 10.9266 11.2915 10.8328C11.2173 10.7745 11.1795 10.7359 11.0141 10.6534C10.9325 10.6165 10.8503 10.5826 10.7032 10.5622C10.5435 10.5393 10.3235 10.5644 10.1448 10.6575C9.97457 10.7429 9.85146 10.8713 9.77624 10.9829C9.71078 11.0814 9.68566 11.1419 9.65864 11.2111C9.60641 11.3577 9.60105 11.4151 9.58806 11.4931C9.56656 11.6582 9.56849 11.7207 9.5681 11.8359C9.57068 11.9638 9.5776 12.0202 9.58238 12.0891C9.80297 14.1649 9.31594 16.2474 7.66801 17.1329C7.60561 17.1684 7.54267 17.2018 7.47922 17.2331C6.92803 17.5062 6.33861 17.6055 5.72405 17.5333C5.66678 17.5267 5.60933 17.5194 5.55232 17.5116C4.74325 17.407 3.93603 17.1329 3.63055 16.7246C3.61043 16.6989 3.59017 16.6724 3.56983 16.645C3.19478 16.135 2.87646 15.4864 2.59298 14.8271C2.22318 13.9782 2.00966 13.2491 1.5795 12.1677Z" fill="var(--stroke-0, #3B1B1B)"/>
</svg>
