<svg preserveAspectRatio="none" width="100%" height="100%" overflow="visible" style="display: block;" viewBox="0 0 5.35885 7.35548" fill="none" xmlns="http://www.w3.org/2000/svg">
<path id="Vector 24" d="M4.84788 2.0439C5.0182 1.70325 5.18852 1.3626 5.35885 1.02194C4.67754 0.681297 3.99624 0.340648 3.31494 0C3.14461 0.340652 2.97429 0.681303 2.80397 1.02195C2.75404 1.1218 2.70414 1.22161 2.6542 1.32148C2.41732 1.79526 2.18047 2.26895 1.94355 2.74279C1.94351 2.74287 1.94347 2.74295 1.94343 2.74303C1.59411 3.44052 1.3336 4.15725 1.03785 4.78738C1.03783 4.78741 1.03782 4.78745 1.0378 4.78749C0.799504 5.32009 0.564053 5.98828 0.237812 6.65588C0.186615 6.7618 0.13387 6.86673 0.0787349 6.97015C0.05249 7.01952 0.026245 7.06889 0 7.11826C0.0790736 7.19734 0.158147 7.27641 0.237221 7.35548C0.286591 7.32924 0.335962 7.30299 0.385333 7.27675C0.488753 7.2216 0.593799 7.16877 0.700069 7.11676C1.35136 6.79959 2.11078 6.48155 2.6328 5.84555C2.63283 5.84551 2.63286 5.84547 2.63289 5.84543C3.19836 5.16318 3.63337 4.46855 3.98734 3.76498C3.98738 3.7649 3.98742 3.76482 3.98746 3.76474C4.22438 3.2909 4.46123 2.81721 4.69811 2.34343C4.74805 2.24356 4.79795 2.14374 4.84788 2.0439Z" fill="var(--stroke-0, black)"/>
</svg>
