<svg preserveAspectRatio="none" width="100%" height="100%" overflow="visible" style="display: block;" viewBox="0 0 12.0397 8.79767" fill="none" xmlns="http://www.w3.org/2000/svg">
<path id="Vector 88" d="M1.47143 8.44094C1.63479 8.64059 1.87076 8.76718 2.12744 8.79284C2.38413 8.81851 2.6405 8.74116 2.84015 8.57781C3.0398 8.41446 3.16639 8.17848 3.19206 7.9218C3.21772 7.66511 3.14037 7.40874 2.97702 7.20909C2.97702 7.20909 2.97702 7.20909 2.97702 7.20909C2.74517 6.92579 2.52553 6.65691 2.34542 6.39964C2.0762 6.02622 1.92856 5.66482 1.94475 5.5065C1.94478 5.50536 1.94481 5.50422 1.94485 5.50309C1.92555 4.49425 3.6973 3.41261 5.28609 2.59548C5.29249 2.59206 5.29888 2.58866 5.30527 2.58527C6.90582 1.71768 8.47103 1.66453 10.1743 2.54241C10.1666 2.53898 10.1592 2.53529 10.1519 2.53137C9.96705 2.38881 10.1102 2.46668 10.1122 2.67338L10.1275 2.39527C10.1254 2.40563 10.1233 2.41598 10.1212 2.42632C9.81266 3.9664 8.88239 5.34739 7.64345 6.45276C7.583 6.50707 7.52193 6.56072 7.4601 6.61389C7.45576 6.61762 7.4516 6.62158 7.44762 6.62574L7.4818 6.59786C7.38681 6.68822 7.37976 6.87958 7.43395 7.05653C7.45133 7.09993 7.46549 7.14001 7.5321 7.1708C7.56708 7.18976 7.62793 7.1891 7.74906 7.25832C7.88165 7.33494 7.91446 7.48909 7.89379 7.5223C7.80694 7.64262 7.72068 7.48615 7.67543 7.41927C7.66948 7.40856 7.65656 7.39596 7.64441 7.38582C7.63197 7.37559 7.6213 7.36865 7.60985 7.36495C7.5984 7.36125 7.5857 7.36063 7.56962 7.36165C7.55383 7.36276 7.53598 7.36541 7.52489 7.37061C7.52489 7.37061 7.52489 7.37061 7.52489 7.37061C7.44028 7.43461 7.30758 7.41073 7.24118 7.66728C7.22715 7.73296 7.27875 7.92064 7.44376 8.00954C7.5968 8.09137 7.69309 8.0863 7.76125 8.09725C7.89316 8.11127 7.96911 8.1193 8.04549 8.12943C8.33428 8.16859 8.53988 8.18804 8.66037 8.11245C8.6668 8.1064 8.6884 8.09091 8.69455 8.08457C8.70001 8.08067 8.70529 8.07654 8.71038 8.07219C8.78279 8.01026 8.85453 7.94756 8.92575 7.88389C10.3791 6.59828 11.6049 4.84464 12.0145 2.81869C12.0173 2.80519 12.0201 2.79167 12.0229 2.77814C12.0343 2.72125 12.0434 2.55781 12.0381 2.50003C11.9749 2.01901 11.8947 1.32298 11.0709 0.824019C11.0371 0.805803 11.0027 0.788866 10.9675 0.773076C9.14613 -0.272359 6.26985 -0.27384 4.39448 0.86855C4.38651 0.872778 4.37853 0.877022 4.37055 0.881282C2.85705 1.82518 0.430349 2.47254 0.000564635 5.43978C0.000367463 5.44583 0.000193477 5.45188 4.24981e-05 5.45793C-0.0048641 6.39016 0.416428 7.01632 0.751803 7.51527C0.992803 7.8585 1.23938 8.15667 1.47143 8.44094Z" fill="var(--stroke-0, #3B1B1B)"/>
</svg>
