<svg preserveAspectRatio="none" width="100%" height="100%" overflow="visible" style="display: block;" viewBox="0 0 11.1359 8.22413" fill="none" xmlns="http://www.w3.org/2000/svg">
<path id="Vector 98" d="M0.195243 6.93766C0.0590482 7.09087 -0.0107024 7.29192 0.00133485 7.49656C0.0133722 7.70121 0.106211 7.89269 0.259429 8.02889C0.412647 8.16508 0.613692 8.23483 0.818337 8.22279C1.02298 8.21076 1.21446 8.11792 1.35066 7.9647C1.48521 7.81341 1.63102 7.66268 1.78309 7.51282C4.0465 5.37304 6.7546 3.52732 9.43502 1.76373C9.44101 1.75984 9.44698 1.75591 9.45293 1.75195L9.43046 1.76601C9.71081 1.59311 9.94363 1.35082 10.1742 1.11228C10.2901 0.993128 10.4051 0.874989 10.5186 0.777668C10.5739 0.72957 10.6324 0.68669 10.6711 0.658955C10.726 0.628058 10.6666 0.635538 10.6171 0.539927C10.6163 0.537485 10.6158 0.535233 10.6154 0.533201C10.6262 0.441346 10.6469 0.626455 10.6196 0.739345C10.5833 0.953674 10.526 1.1821 10.4916 1.41055C10.487 1.4414 10.4957 1.47477 10.5135 1.50267C10.5314 1.5306 10.5571 1.55077 10.587 1.55939C10.6169 1.56801 10.6493 1.56456 10.6794 1.55046C10.7093 1.53632 10.7344 1.51269 10.7469 1.4841C10.7469 1.4841 10.7469 1.4841 10.7469 1.4841C10.8364 1.27731 10.9293 1.07897 11.026 0.861549C11.0663 0.719102 11.2002 0.624391 11.0987 0.276909C11.0952 0.268938 11.0913 0.260857 11.087 0.252708C11.0369 0.143545 10.8978 0.0546444 10.8072 0.0328108C10.7117 0.00549108 10.6394 0.00293899 10.5749 0.000497073C10.4476 -0.00230598 10.3419 0.00724837 10.2395 0.0165621C10.0352 0.0368852 9.8462 0.0640018 9.65853 0.0986383C9.28723 0.167441 8.93571 0.264566 8.63325 0.441801C8.62874 0.444588 8.6152 0.452919 8.61079 0.455858C8.60466 0.459745 8.59855 0.463666 8.59247 0.467618C5.85747 2.27213 3.16068 4.08888 0.698212 6.41153C0.527915 6.57942 0.360628 6.75179 0.195243 6.93766Z" fill="var(--stroke-0, #3B1B1B)"/>
</svg>
