<svg preserveAspectRatio="none" width="100%" height="100%" overflow="visible" style="display: block;" viewBox="0 0 29.5743 18.216" fill="none" xmlns="http://www.w3.org/2000/svg">
<path id="Vector 81" d="M2.17459 4.95105C2.17459 5.09376 2.23128 5.23062 2.33219 5.33153C2.4331 5.43244 2.56997 5.48913 2.71268 5.48913C2.85538 5.48913 2.99225 5.43244 3.09316 5.33153C3.19407 5.23062 3.25076 5.09376 3.25076 4.95105C3.14998 4.17155 2.96917 3.79162 2.77756 3.24781C2.77452 3.23984 2.77157 3.2318 2.7687 3.22371C2.63327 2.73385 2.10276 2.29959 1.84587 2.18915C1.83735 2.18484 1.8291 2.18063 1.82132 2.1766C1.7046 2.12147 1.57688 2.06454 1.39369 2.02223C1.21838 1.99558 0.926602 1.90213 0.495202 2.17597C0.454302 2.20481 0.415111 2.23712 0.378745 2.27209C0.0778307 2.55095 -0.0109975 2.97414 0.0010578 3.23231C0.00879973 3.50462 0.0679764 3.70457 0.129741 3.88569C0.258517 4.24495 0.42004 4.52682 0.590001 4.7986C0.595893 4.80792 0.601787 4.81718 0.60768 4.8264C1.11318 5.62836 1.94737 6.15319 2.76717 6.40623C2.79101 6.41376 2.81481 6.4211 2.83856 6.42825C3.82379 6.72467 4.88051 6.56866 5.75188 6.06526C5.78654 6.04494 5.82206 6.02327 5.85639 6.00149C6.63671 5.48745 6.92911 4.72678 7.11608 4.14566C7.12844 4.10568 7.14034 4.06617 7.15181 4.02735C7.4907 2.96532 6.88306 1.92031 6.33301 1.39881C5.73803 0.827917 5.19868 0.465246 4.3684 0.143235C4.35833 0.139901 4.34819 0.136626 4.33789 0.133402C3.79577 0.0106689 3.24868 -0.0405493 2.69985 0.730428C2.68079 0.764835 2.66256 0.802003 2.64622 0.840841C2.42647 1.48284 2.66139 1.78129 2.76152 1.99424C2.88778 2.2068 3.0222 2.35139 3.1603 2.48016C3.17319 2.49204 3.18612 2.5037 3.19926 2.5153C5.13221 3.98864 7.06047 3.0709 8.40044 2.89802C8.40301 2.8976 8.40557 2.89718 8.40812 2.89676C8.23459 2.94528 7.93785 2.80778 7.90887 2.75548C7.85683 2.70284 7.88557 2.72675 7.9086 2.77263C7.96261 2.86951 8.03782 3.04497 8.11416 3.22475C8.26892 3.59005 8.4509 4.00653 8.70335 4.40969C8.73159 4.45474 8.76225 4.49825 8.79524 4.54007C9.25846 5.09608 9.84763 5.17325 10.324 5.12738C10.3599 5.12325 10.3955 5.11802 10.4307 5.11174C11.6642 4.79275 11.9088 3.93108 12.188 3.39925C12.1965 3.37983 12.2048 3.36041 12.2127 3.34101C12.4342 2.71325 12.5723 2.23498 12.2989 1.39675C12.2958 1.38923 12.293 1.38215 12.2903 1.37553C12.2816 1.35406 12.2739 1.33449 12.269 1.32111C12.2672 1.31626 12.265 1.3096 12.2689 1.31991C12.2717 1.32918 12.2704 1.31985 12.2856 1.3753C12.2922 1.4037 12.3036 1.4379 12.3122 1.53734C12.2863 1.52596 12.4163 1.64886 12.1589 2.13313C12.0273 2.38985 11.5488 2.62123 11.2733 2.57019C10.9998 2.54503 10.8629 2.43964 10.8273 2.42065C10.7338 2.3594 10.6968 2.32037 10.6668 2.29148C10.5629 2.1802 10.5852 2.19441 10.5723 2.1802C10.5662 2.17169 10.5646 2.16913 10.5646 2.16933C10.5643 2.16925 10.5681 2.17539 10.5727 2.18339C10.5805 2.19658 10.5938 2.21961 10.6049 2.23903C10.6538 2.32476 10.7079 2.42159 10.7619 2.51749C10.8713 2.71161 10.9825 2.90674 11.1008 3.10491C11.2193 3.30307 11.3423 3.502 11.4846 3.709C11.5567 3.81336 11.631 3.91694 11.7245 4.03241C11.8259 4.14988 11.9015 4.26345 12.157 4.4511C12.5594 4.74587 13.12 4.76021 13.4327 4.67665C14.1442 4.48409 14.4567 4.17923 14.7764 3.96812C14.9979 3.81091 15.2024 3.6136 15.3684 3.39077C15.6658 2.99533 15.8173 2.54855 15.9024 2.18472C15.9456 2.00255 15.9755 1.83391 16.0017 1.71109C16.0141 1.59678 16.0965 1.49226 15.9622 1.6944C15.8374 1.85412 15.6365 1.94582 15.5235 1.96533C15.4043 1.9886 15.3461 1.97768 15.3124 1.97335C15.2488 1.96096 15.2679 1.95946 15.2912 1.97325C15.3441 1.99994 15.4373 2.07096 15.5182 2.15551C15.6378 2.27724 15.7491 2.40105 15.8562 2.52803C17.5736 4.542 17.3913 7.96107 17.5989 11.0752C17.6044 11.1981 17.604 11.3185 17.5974 11.4387C17.5468 12.8247 16.5377 14.0123 15.2991 15.31C15.2307 15.3845 15.1576 15.4545 15.0797 15.5201C14.6107 15.919 13.9366 16.1538 13.2249 16.2131C13.1676 16.2179 13.1021 16.2168 13.0318 16.2085C12.9093 16.1942 12.7699 16.1559 12.6505 16.1033C12.609 16.0852 12.5855 16.0682 12.578 16.0617C12.569 16.0532 12.5799 16.063 12.5848 16.0754C12.5861 16.078 12.5827 16.0744 12.5802 16.045C12.5629 15.9425 12.6441 15.5929 12.7738 15.2196C12.7477 15.2852 12.7803 15.2072 12.8205 15.1511C14.6631 12.8876 17.3726 10.6299 19.7989 8.46138L19.7489 8.5024C19.8022 8.46147 19.8553 8.42073 19.9082 8.38018C22.1768 6.64379 24.4373 4.88005 26.7467 3.22451C27.4457 2.72988 28.2118 2.18419 28.8442 1.83754C28.851 1.83438 28.871 1.82396 28.8777 1.82051C28.8839 1.81707 28.8901 1.81361 28.8963 1.81013C29.3528 1.57424 29.6391 0.714907 29.5617 0.174772C29.5601 0.158184 29.5503 0.138606 29.5386 0.122228C29.5267 0.105741 29.514 0.0938005 29.4989 0.0871491C29.4838 0.0804976 29.4664 0.0791378 29.4462 0.0814839C29.4262 0.0839395 29.4052 0.0899044 29.3919 0.0999513C29.3919 0.0999513 29.3919 0.0999513 29.3919 0.0999513C28.9493 0.4206 28.4344 0.124757 28.0885 0.314111C28.0835 0.31671 28.0784 0.319315 28.0734 0.321927L28.1069 0.304897C27.1756 0.781591 26.4982 1.2542 25.7341 1.74992C23.3164 3.35696 20.9778 5.04312 18.6912 6.7931C18.6379 6.83394 18.5844 6.87497 18.5308 6.91618C18.5205 6.92408 18.4905 6.94867 18.4808 6.95721C15.978 9.21964 13.4997 11.1577 11.1527 14.0472C11.0678 14.182 10.9773 14.3048 10.8761 14.5881C10.7503 15.0021 10.5498 15.4617 10.586 16.1972C10.6019 16.4108 10.6522 16.6485 10.7514 16.8746C10.872 17.1541 11.0647 17.4002 11.2767 17.5804C11.4611 17.7382 11.657 17.8513 11.8467 17.9346C12.1499 18.0667 12.4602 18.1538 12.796 18.1945C12.9874 18.2172 13.1867 18.2233 13.3922 18.2061C14.4179 18.118 15.4909 17.7864 16.3679 17.05C16.5106 16.9299 16.6462 16.8001 16.7729 16.6619C17.9163 15.4453 19.496 13.794 19.5944 11.5478C19.6047 11.3595 19.6053 11.1725 19.5968 10.9844C19.3219 7.88584 19.8131 4.33101 17.3836 1.23987C17.2356 1.06449 17.0793 0.899869 16.9158 0.741715C16.7174 0.551198 16.5002 0.375254 16.206 0.219473C16.0527 0.141691 15.8854 0.0642966 15.6247 0.0195117C15.4925 -0.00038746 15.3339 -0.0153783 15.1166 0.0282421C14.9067 0.0674208 14.6123 0.208153 14.4249 0.446111C14.1008 0.893781 14.1197 1.10479 14.0633 1.28774C14.0242 1.46613 13.9988 1.60123 13.9694 1.71884C13.9123 1.95317 13.8463 2.09853 13.7719 2.19744C13.7293 2.25404 13.6829 2.29969 13.6199 2.3449C13.3235 2.56634 13.0189 2.7409 12.9892 2.73544C12.9732 2.7311 13.1644 2.72088 13.2856 2.81502C13.3657 2.87806 13.2953 2.82389 13.2573 2.77375C13.2111 2.71873 13.1584 2.64926 13.1045 2.5741C12.9966 2.42328 12.8858 2.25367 12.7765 2.07984C12.6667 1.90509 12.5589 1.72675 12.448 1.54062C12.3924 1.44749 12.3381 1.35544 12.2761 1.25268C12.2616 1.22883 12.2428 1.19791 12.2253 1.16994C12.2148 1.1531 12.2027 1.13404 12.1898 1.11444C12.1832 1.1044 12.171 1.08607 12.158 1.06767C12.1385 1.04418 12.1517 1.04543 12.0382 0.924206C12.0061 0.893227 11.9673 0.852649 11.8723 0.790412C11.836 0.770965 11.6975 0.664762 11.4231 0.639599C11.1467 0.588486 10.6675 0.82022 10.5354 1.07773C10.2768 1.56291 10.4071 1.69219 10.3812 1.68034C10.3901 1.78382 10.4026 1.82364 10.4111 1.85929C10.4313 1.93328 10.4328 1.93162 10.4399 1.95345C10.4525 1.98893 10.4618 2.01198 10.4684 2.02866C10.4844 2.06817 10.4961 2.09543 10.5091 2.12544C10.513 2.13446 10.517 2.14371 10.5212 2.15321C10.5008 2.07395 10.5524 2.24533 10.5507 2.33923C10.5556 2.44797 10.5412 2.55767 10.5062 2.64304C10.5039 2.64863 10.5016 2.65414 10.4992 2.6596C10.3368 3.09982 10.0048 3.37971 10.1065 3.2987C10.1085 3.29836 10.1105 3.29808 10.1124 3.29788C10.0827 3.30875 10.1009 3.25784 10.2361 3.40064C10.244 3.41081 10.2514 3.42143 10.2581 3.43215C10.0895 3.16736 9.94727 2.8614 9.79252 2.50265C9.71193 2.32057 9.63614 2.13035 9.4995 1.88249C9.4267 1.75838 9.34689 1.6113 9.15192 1.42393C8.98208 1.23447 8.48481 1.01378 8.11372 1.09991C8.11029 1.10047 8.10686 1.10104 8.10343 1.10161C6.52413 1.43155 5.01603 1.75074 4.40188 1.15404C4.39808 1.15068 4.39443 1.14739 4.39089 1.14413C4.35316 1.11041 4.3269 1.07296 4.33167 1.07854C4.3152 1.08818 4.45179 1.13568 4.32335 1.54806C4.31348 1.57155 4.30268 1.59352 4.29171 1.61334C4.13858 1.85548 4.04285 1.85268 3.97968 1.87974C3.91481 1.89665 3.85658 1.89597 3.79081 1.87618C3.79126 1.87633 3.79221 1.87664 3.79359 1.8771C4.64564 2.17665 5.65327 3.19941 5.39585 3.50834C5.38619 3.54103 5.37648 3.57325 5.3667 3.60489C5.2265 4.07901 5.05769 4.42694 4.88903 4.54757C4.87377 4.55879 4.85719 4.5704 4.84052 4.5816C4.39047 4.88107 3.79311 5.02377 3.28188 4.8833C3.26565 4.87898 3.24945 4.87451 3.23327 4.86991C2.66893 4.71038 2.20278 4.40637 1.92367 3.97625C1.91907 3.96923 1.91448 3.96218 1.9099 3.95511C1.7779 3.75165 1.66248 3.53828 1.60114 3.36631C1.57046 3.2835 1.558 3.20856 1.55879 3.1997C1.56233 3.1799 1.55073 3.30806 1.45752 3.39203C1.43736 3.41139 1.41542 3.42945 1.39279 3.44538C1.14165 3.59459 1.08367 3.51743 1.11501 3.52761C1.14202 3.52486 1.21782 3.537 1.30114 3.55685C1.31163 3.5597 1.32191 3.56243 1.33179 3.565C1.62975 3.64288 1.69649 3.51116 1.76321 3.60919C1.76626 3.61652 1.7692 3.62387 1.77201 3.63124C1.86195 3.86723 1.94508 4.10503 2.01814 4.3427C2.05458 4.46141 2.08854 4.58028 2.1179 4.69627C2.14537 4.79435 2.17781 4.98476 2.17459 4.95105Z" fill="var(--stroke-0, #3B1B1B)"/>
</svg>
