<svg preserveAspectRatio="none" width="100%" height="100%" overflow="visible" style="display: block;" viewBox="0 0 7.34618 8.77926" fill="none" xmlns="http://www.w3.org/2000/svg">
<path id="Vector 59" d="M6.73269 2.97041C7.0763 2.68893 7.29403 2.28248 7.33796 1.84047C7.3819 1.39847 7.24845 0.957109 6.96697 0.613494C6.6855 0.26988 6.27905 0.0521555 5.83704 0.00821865C5.39503 -0.0357182 4.95367 0.0977312 4.61006 0.37921C4.61006 0.37921 4.61006 0.37921 4.61006 0.37921C4.48042 0.485402 4.3466 0.591742 4.20982 0.698158C3.18592 1.51407 2.11703 2.14071 0.840361 3.32484C0.83959 3.32561 0.83882 3.32638 0.838051 3.32715C-0.0865366 4.12 -0.2573 5.89147 0.381671 6.77117C0.3818 6.77138 0.381929 6.77159 0.382059 6.7718C1.24548 7.98752 1.98074 8.09469 2.70144 8.37924C2.70222 8.3795 2.703 8.37975 2.70378 8.38001C3.56078 8.65185 4.42436 8.61998 5.32399 8.71012C5.52775 8.72841 5.7303 8.75004 5.93032 8.77827C5.96229 8.78259 6.00175 8.77239 6.03608 8.75635C6.07065 8.73994 6.09727 8.719 6.11403 8.69174C6.13079 8.66447 6.13745 8.63127 6.13648 8.59302C6.13529 8.55513 6.12657 8.51532 6.10828 8.48875C6.10828 8.48875 6.10828 8.48875 6.10828 8.48875C5.99226 8.32272 5.87972 8.15179 5.76767 7.97856C5.29292 7.22621 4.7488 6.40843 4.21699 5.86225C4.2165 5.86175 4.21602 5.86124 4.21553 5.86074C3.99327 5.62906 3.78986 5.40518 3.63033 5.21354C3.47513 5.03435 3.35011 4.82729 3.41742 4.91434C3.41743 4.91436 3.41745 4.91439 3.41746 4.91441C3.44767 4.96116 3.48263 5.10819 3.44152 5.28648C3.40477 5.46591 3.28157 5.62654 3.20656 5.6957C3.20643 5.69584 3.20629 5.69598 3.20615 5.69612C3.91178 5.02509 5.16238 4.20621 6.26664 3.3419C6.42141 3.22148 6.57678 3.09812 6.73269 2.97041Z" fill="var(--stroke-0, #4C3131)"/>
</svg>
