<svg preserveAspectRatio="none" width="100%" height="100%" overflow="visible" style="display: block;" viewBox="0 0 11.7471 10.0771" fill="none" xmlns="http://www.w3.org/2000/svg">
<path id="Vector 12" d="M1.13604 1.49073C0.757361 1.69823 0.37868 1.90573 0 2.11322C0.414995 2.87058 0.829991 3.62795 1.24499 4.38531C1.62367 4.17781 2.00235 3.97031 2.38103 3.76281C2.652 3.61433 2.93156 3.47989 3.21809 3.35963C4.85504 2.64665 7.17124 2.39894 8.42054 2.81188C8.42091 2.81205 8.4213 2.81221 8.42168 2.81238C8.56834 2.85659 8.82793 3.30718 8.87539 3.52959C8.87536 3.52957 8.87534 3.52956 8.87531 3.52954C8.85898 3.45255 8.84601 3.76743 8.59474 4.192C8.36164 4.61263 8.01713 5.0885 7.65479 5.58997L7.95503 5.27889C7.94873 5.28377 7.94244 5.28865 7.93615 5.29352C6.39062 6.4909 4.62856 7.48086 2.91702 7.46087L3.73032 7.82345C3.73105 7.82421 3.73178 7.82497 3.73251 7.82574C3.85336 7.94903 3.85391 8.13037 3.77143 8.20351C3.51675 8.42742 3.05452 7.92451 3.04461 7.48345C3.04349 7.46114 3.04238 7.43882 3.04127 7.41651C3.00526 7.39004 2.96926 7.36356 2.93326 7.33709C2.91163 7.34268 2.89 7.34828 2.86837 7.35387C2.44485 7.47845 1.66758 7.67867 1.53283 8.61373C1.49628 8.94235 1.6133 9.37025 1.92136 9.67559C1.92327 9.67751 1.92518 9.67942 1.9271 9.68133C2.09131 9.82808 2.52026 10.0379 2.7404 10.0439C5.46962 10.2888 7.89745 9.14594 9.79481 7.69548C9.80249 7.68953 9.81018 7.68357 9.81786 7.6776C9.88888 7.62238 10.0655 7.43952 10.1181 7.36652C10.5023 6.82913 10.8994 6.25467 11.2481 5.53334C11.5586 4.83557 12.0202 3.8181 11.5383 2.50983C11.5379 2.50876 11.5375 2.5077 11.537 2.50663C11.1048 1.54844 10.4878 0.938133 9.46582 0.44128C9.4626 0.439866 9.45939 0.438457 9.45617 0.437052C6.63088 -0.426149 4.47875 0.115296 2.21539 0.970704C1.84809 1.12487 1.48751 1.29814 1.13604 1.49073Z" fill="var(--stroke-0, black)"/>
</svg>
