<svg preserveAspectRatio="none" width="100%" height="100%" overflow="visible" style="display: block;" viewBox="0 0 12.5669 12.3651" fill="none" xmlns="http://www.w3.org/2000/svg">
<path id="Vector 136" d="M1.87646 2.48249C1.91211 2.25259 1.85498 2.01794 1.71763 1.83017C1.58028 1.64239 1.37396 1.51687 1.14406 1.48122C0.914164 1.44556 0.679517 1.50269 0.491742 1.64004C0.303967 1.7774 0.178446 1.98371 0.142791 2.21361C0.142791 2.21361 0.142791 2.21361 0.142791 2.21361C0.0398664 2.87726 -0.00433552 3.5452 0.000333488 4.20854C0.0186393 6.12956 0.417015 7.9999 1.09069 9.77062C1.09574 9.78376 1.10079 9.79687 1.10584 9.80994C1.6778 11.2001 2.9295 11.7565 3.94749 12.0934C3.96552 12.0991 3.98354 12.1047 4.00156 12.1102C6.61729 12.8915 9.18023 11.7613 11.0255 10.2818C11.0476 10.264 11.0696 10.2461 11.0915 10.2282C12.1611 9.33844 12.5289 8.03718 12.565 6.8728C12.5659 6.83695 12.5665 6.80122 12.5667 6.76576C12.5979 2.95127 8.91988 1.09128 6.3934 0.072702C6.32179 0.0424083 6.11746 0.000523925 6.0397 7.75456e-05C6.01846 -2.70009e-05 5.99723 -2.57492e-05 5.97601 8.08239e-05C3.89397 0.00577694 2.0666 1.15464 0.81653 2.54339C0.79906 2.5591 0.756009 2.61333 0.741285 2.63164C0.736766 2.6385 0.732268 2.64538 0.72779 2.65226C0.449183 3.07553 0.279071 3.56911 0.198602 4.03115C0.079566 4.71389 0.0943047 5.35219 0.0809529 5.9841C0.0799213 6.05901 0.111338 6.13553 0.162781 6.19601C0.214543 6.25655 0.282105 6.2961 0.356113 6.30676C0.430122 6.31743 0.506101 6.29855 0.572846 6.25509C0.639271 6.21158 0.691008 6.14705 0.711165 6.07489C0.711165 6.07489 0.711165 6.07489 0.711165 6.07489C0.87859 5.47848 1.08194 4.88785 1.3278 4.38274C1.49607 4.0374 1.68319 3.75231 1.89932 3.48865C1.90285 3.48432 1.90639 3.48 1.90995 3.47567L1.83471 3.56392C3.03885 2.48496 4.53177 1.83976 5.98457 1.84283C5.99969 1.84277 6.01481 1.84279 6.02994 1.84287L5.67624 1.77025C8.2468 2.78782 10.808 4.34837 10.7191 6.75352C10.7189 6.77723 10.7185 6.80118 10.7179 6.82524C10.6997 7.63072 10.4172 8.41263 9.92404 8.80715C9.90583 8.82216 9.88756 8.8371 9.86921 8.85199C8.31751 10.1175 6.26601 10.9064 4.53385 10.3673C4.51961 10.3629 4.5054 10.3586 4.49123 10.3542C3.66088 10.1054 2.92072 9.68614 2.74185 9.1763C2.73734 9.16468 2.73283 9.15302 2.72834 9.14132C2.12532 7.56043 1.76875 5.86548 1.75468 4.19619C1.75061 3.61905 1.78919 3.04508 1.87646 2.48249Z" fill="var(--stroke-0, #3B1B1B)"/>
</svg>
