<svg preserveAspectRatio="none" width="100%" height="100%" overflow="visible" style="display: block;" viewBox="0 0 12.0576 10.3491" fill="none" xmlns="http://www.w3.org/2000/svg">
<path id="Vector 33" d="M1.47898 4.08082C1.20159 4.1363 0.92421 4.19177 0.646826 4.24725C0.757778 4.80202 0.86873 5.35679 0.979682 5.91156C1.25707 5.85608 1.53445 5.80061 1.81184 5.74513C2.2353 5.6604 2.65405 5.55404 3.06614 5.42723C4.15241 5.09169 5.20414 4.61633 6.16648 3.96251C6.1693 3.96059 6.17212 3.95868 6.17495 3.95677C6.8223 3.52224 7.6851 2.66013 7.1701 1.31815C7.16872 1.31521 7.16732 1.31227 7.16592 1.30933C6.36724 0.0189593 5.41336 0.00707591 4.66853 0C4.66791 4.20809e-05 4.66729 8.44002e-05 4.66667 0.000126958C2.20997 0.370411 1.37941 2.02842 0.59579 3.20242C0.59384 3.2058 0.591894 3.20919 0.58995 3.21258C0.170146 3.91034 -0.180637 5.05194 0.102077 6.14235C0.102589 6.14446 0.103102 6.14657 0.103618 6.14868C1.00164 8.81085 2.81248 9.31342 4.10531 10.0263C4.16821 10.0573 4.36117 10.1262 4.42875 10.1448C4.43409 10.1462 4.43942 10.1475 4.44476 10.1488C6.00599 10.5384 7.67453 10.3066 9.2124 9.90731C9.22436 9.90934 9.26069 9.90109 9.27275 9.90244C9.2745 9.9019 9.27625 9.90135 9.278 9.9008C9.8996 9.69911 10.3468 9.40284 10.8802 9.12401C11.2546 8.92146 11.6406 8.72026 12.0309 8.54584C12.0398 8.54186 12.0487 8.53789 12.0576 8.53391C12.0561 8.51447 12.0546 8.49503 12.053 8.47559C12.0436 8.47305 12.0342 8.4705 12.0248 8.46795C11.6116 8.35625 11.1924 8.22715 10.7683 8.1129C10.1883 7.94897 9.5331 7.84664 9.04478 7.77882C9.04339 7.77861 9.04201 7.77841 9.04063 7.77821L9.10098 7.77334C7.782 7.51692 6.57951 6.92831 5.37558 6.5969C5.37141 6.59575 5.36724 6.59459 5.36307 6.59344L5.68652 6.71194C4.59111 6.2272 3.62126 5.34194 3.71989 5.26509C3.71988 5.26503 3.71986 5.26498 3.71985 5.26493C3.71647 5.23361 3.65069 5.18463 3.76768 4.87841C3.76819 4.87711 3.76872 4.8758 3.76924 4.87449C4.16813 3.8926 4.87617 3.08111 5.02932 3.03734C5.02943 3.03729 5.02954 3.03724 5.02966 3.0372C5.1001 3.008 5.17471 2.96625 5.19974 2.91433C5.23495 2.85888 5.14686 2.79918 5.04582 2.53875C5.04553 2.53773 5.04524 2.53672 5.04496 2.53571C5.00012 2.30825 5.15187 2.31397 5.21233 2.35121C5.28372 2.39189 5.30093 2.4975 5.21817 2.55481C5.21585 2.55642 5.21353 2.55802 5.21119 2.55961C4.41487 3.10134 3.51013 3.51422 2.56683 3.80507C2.20924 3.91513 1.84497 4.00761 1.47898 4.08082Z" fill="var(--stroke-0, black)"/>
</svg>
