<svg preserveAspectRatio="none" width="100%" height="100%" overflow="visible" style="display: block;" viewBox="0 0 5.28673 11.4368" fill="none" xmlns="http://www.w3.org/2000/svg">
<path id="Vector 5" d="M4.79973 2.43501C4.96206 1.948 5.12439 1.461 5.28673 0.973995C4.31272 0.64933 3.33871 0.324665 2.3647 0C2.20237 0.487004 2.04004 0.974007 1.87771 1.46101C1.82369 1.62307 1.76882 1.78481 1.71312 1.94627C1.31284 3.10835 0.866067 4.25429 0.388254 5.41037C0.388029 5.41092 0.387804 5.41146 0.387579 5.41201C0.371902 5.45001 0.333043 5.56538 0.322522 5.60512C-0.0492257 7.07269 -0.144674 8.59496 0.277618 10.2167C0.277788 10.2173 0.277958 10.2179 0.278128 10.2185C0.29333 10.3203 0.414586 10.575 0.46445 10.6649C0.670169 10.9955 1.15305 11.3374 1.54767 11.402C1.94254 11.4797 2.21694 11.4132 2.43295 11.3394C2.86118 11.1803 3.12713 10.9422 3.39355 10.7199C3.55265 10.5838 3.70361 10.4494 3.85504 10.3276C3.93144 10.2652 4.00784 10.2027 4.08425 10.1403C4.02795 9.95113 3.97166 9.76199 3.91537 9.57285C3.81725 9.56235 3.71914 9.55186 3.62103 9.54136C3.43485 9.51996 3.24604 9.48201 3.06367 9.43349C2.76791 9.35327 2.46495 9.24518 2.31314 9.12091C2.24165 9.06203 2.21927 8.98522 2.33729 8.97377C2.45355 8.95196 2.69598 9.10384 2.74686 9.18807L2.93318 9.63444C2.93314 9.63407 2.93309 9.63371 2.93304 9.63334C2.81491 8.65772 3.01583 7.47641 3.30008 6.39316L3.23503 6.58628C3.23526 6.58572 3.23549 6.58517 3.23572 6.58461C3.7256 5.39948 4.20012 4.18398 4.62479 2.95078C4.68396 2.77929 4.74228 2.60737 4.79973 2.43501Z" fill="var(--stroke-0, black)"/>
</svg>
