<svg preserveAspectRatio="none" width="100%" height="100%" overflow="visible" style="display: block;" viewBox="0 0 14.367 13.5068" fill="none" xmlns="http://www.w3.org/2000/svg">
<path id="Vector 83" d="M7.38804 3.35067C7.38804 3.54751 7.46623 3.73629 7.60542 3.87547C7.74461 4.01466 7.93338 4.09285 8.13022 4.09285C8.32707 4.09285 8.51584 4.01466 8.65503 3.87547C8.79422 3.73629 8.87241 3.54751 8.87241 3.35067C8.85057 3.0529 8.81527 3.07272 8.79764 3.00716C8.77834 2.96243 8.76168 2.9302 8.74766 2.90369C8.71792 2.84811 8.69377 2.80823 8.66818 2.76697C8.61924 2.68864 8.57256 2.62035 8.52645 2.5548C8.43347 2.4231 8.34135 2.30181 8.24732 2.18187C8.06086 1.94452 7.8687 1.71647 7.67466 1.49506C7.4197 1.20441 7.15902 0.923111 6.89292 0.647658C6.87606 0.630207 6.85919 0.612589 6.84231 0.594814C6.58518 0.306903 6.10846 0.029744 5.65356 0.00629199C5.20407 -0.0262234 4.86578 0.0737258 4.59517 0.158316C4.56069 0.169582 4.52715 0.180756 4.49441 0.191755C3.30006 0.59809 2.2708 1.30151 1.40111 2.14989C1.35077 2.19932 1.3011 2.24926 1.25231 2.29949C0.541783 3.04825 0.269738 3.93876 0.0926361 4.74439C0.073006 4.83727 0.054966 4.92977 0.0382866 5.02216C-0.031019 5.39055 -0.00658339 5.81856 0.114451 6.18269C0.158846 6.32088 0.213568 6.44951 0.270553 6.56507C0.847341 7.5615 1.62396 7.6896 2.21255 7.88952C2.83019 8.05793 3.41604 8.1414 3.99962 8.20725C5.16026 8.33223 6.29135 8.36822 7.42239 8.38875C7.565 8.39111 7.70459 8.3931 7.84872 8.39481C9.48751 8.43468 11.2119 8.13701 12.5627 8.09383C12.6988 8.09446 12.8247 8.10829 12.8709 8.12096C12.8786 8.12079 12.8529 8.12449 12.765 8.05917C12.6786 8.00304 12.5535 7.80827 12.5441 7.67145C12.5351 7.40938 12.5726 7.50066 12.5216 7.56426C12.4337 7.72446 12.2379 7.96341 12.0366 8.17907C11.6245 8.62042 11.1394 9.05839 10.6475 9.48591C9.65507 10.3529 8.62276 11.1317 7.54781 12.076L8.61639 12.0465C8.8985 12.299 8.88575 12.476 8.9075 12.5445C8.92026 12.6297 8.91752 12.6618 8.91698 12.6954C8.91445 12.7496 8.90982 12.7701 8.90739 12.7849C8.88479 12.8627 8.74343 12.5697 8.60122 12.3881C8.50143 12.2407 8.4158 12.0938 8.42953 11.9886C8.43119 11.9758 8.43437 11.9635 8.43922 11.9519C8.61405 11.5333 8.79334 11.1159 8.97225 10.6982C8.98042 10.6792 8.98068 10.6577 8.97298 10.6385C8.96529 10.6192 8.95027 10.6038 8.93122 10.5957C8.91218 10.5875 8.89067 10.5872 8.87143 10.5949C8.8522 10.6026 8.8368 10.6176 8.82864 10.6367C8.64972 11.0544 8.47033 11.4719 8.29502 11.8917C8.29016 11.9034 8.28367 11.9143 8.27572 11.9245C8.21056 12.0089 8.04641 12.0517 7.87013 12.0949C7.62575 12.1756 7.37133 12.1429 7.28601 12.4957C7.2807 12.5266 7.27368 12.5642 7.27055 12.6342C7.26972 12.6769 7.26709 12.7163 7.28119 12.8102C7.30417 12.8862 7.29406 13.0725 7.58249 13.33C7.89206 13.5732 8.36183 13.5675 8.65107 13.3005C9.5967 12.5087 10.7361 11.696 11.7825 10.8334C12.3125 10.3972 12.8383 9.95066 13.3494 9.42601C13.6046 9.15666 13.8594 8.88883 14.1092 8.46905C14.2182 8.24343 14.407 8.02096 14.3594 7.41799C14.3283 7.11109 14.1096 6.76689 13.8917 6.61085C13.6666 6.44147 13.4984 6.38949 13.327 6.34196C13.0324 6.26845 12.7984 6.25999 12.5826 6.25605C10.7804 6.32238 9.38773 6.61647 7.8649 6.58798C7.72387 6.58714 7.58749 6.58594 7.44841 6.58425C6.3471 6.56961 5.25021 6.53639 4.19297 6.42566C3.66507 6.36883 3.14582 6.29161 2.68651 6.16709C2.23441 6.06334 1.83033 5.79387 1.86655 5.77598C1.83997 5.72265 1.82115 5.67706 1.80757 5.63566C1.77325 5.52745 1.76543 5.44501 1.78304 5.3241C1.79557 5.24771 1.80902 5.17223 1.82357 5.09759C1.94898 4.44347 2.17018 3.84518 2.50219 3.49302C2.54067 3.45186 2.58001 3.41077 2.62 3.36996C3.31367 2.66444 4.14995 2.08444 5.04229 1.75557C5.07197 1.7447 5.10079 1.73421 5.12878 1.72419C5.34843 1.64334 5.51757 1.58741 5.59048 1.57398C5.65871 1.5623 5.67765 1.54016 5.77707 1.62978C5.79341 1.6462 5.80955 1.66265 5.82547 1.67913C6.07673 1.9392 6.32194 2.20392 6.55861 2.47374C6.73852 2.67896 6.91547 2.88929 7.07966 3.09835C7.16212 3.20345 7.24159 3.3085 7.31313 3.40993C7.34825 3.45974 7.38227 3.5101 7.40847 3.55215C7.42177 3.57342 7.43273 3.59238 7.43713 3.60075C7.43902 3.60414 7.43933 3.60572 7.43369 3.59283C7.42984 3.56064 7.40835 3.61273 7.38804 3.35067Z" fill="var(--stroke-0, #3B1B1B)"/>
</svg>
