<svg preserveAspectRatio="none" width="100%" height="100%" overflow="visible" style="display: block;" viewBox="0 0 4.63273 7.40397" fill="none" xmlns="http://www.w3.org/2000/svg">
<path id="Vector 54" d="M4.58343 1.63325C4.67679 1.30651 4.63652 0.956076 4.4715 0.659029C4.30647 0.361982 4.03021 0.142657 3.70347 0.0493021C3.37674 -0.0440524 3.0263 -0.00378895 2.72926 0.161235C2.43221 0.326259 2.21288 0.602525 2.11953 0.929259C2.11953 0.929259 2.11953 0.929259 2.11953 0.929259C2.09293 1.02234 2.06647 1.11496 2.04004 1.20708C1.84064 1.90213 1.64201 2.57068 1.40519 3.18893C1.40516 3.18899 1.40514 3.18905 1.40511 3.18911C1.10873 4.00082 0.70854 4.7552 0.256382 5.65623C0.21416 5.74069 0.172243 5.82523 0.129051 5.91207C0.0210434 6.12872 -0.0274317 6.37769 0.0156479 6.62018C0.0585744 6.86255 0.187066 7.07674 0.378194 7.21961C0.569322 7.36249 0.811119 7.4251 1.05573 7.39767C1.3005 7.37036 1.52557 7.2534 1.70279 7.08849C1.70279 7.08849 1.70279 7.08849 1.70279 7.08849C1.77727 7.01791 1.84962 6.94819 1.92159 6.87687C2.66189 6.14821 3.39816 5.20067 3.79807 4.10573C3.7981 4.10565 3.79813 4.10557 3.79815 4.1055C4.0838 3.35827 4.29914 2.62326 4.50313 1.91388C4.5301 1.81989 4.55683 1.72633 4.58343 1.63325Z" fill="var(--stroke-0, #4C3131)"/>
</svg>
