<svg preserveAspectRatio="none" width="100%" height="100%" overflow="visible" style="display: block;" viewBox="0 0 3.83635 4.23309" fill="none" xmlns="http://www.w3.org/2000/svg">
<path id="Vector 74" d="M1.06482 2.28808C1.21491 2.28808 1.35886 2.22846 1.46499 2.12233C1.57112 2.0162 1.63074 1.87226 1.63074 1.72217C1.63074 1.57208 1.57112 1.42813 1.46499 1.322C1.35886 1.21587 1.21491 1.15625 1.06482 1.15625C0.669681 1.2002 0.66707 1.30986 0.585205 1.35895C0.523626 1.41637 0.483975 1.4645 0.448365 1.50982C0.378474 1.60026 0.328285 1.68136 0.281801 1.76202C0.203057 1.90001 0.140464 2.03321 0.0837242 2.16708C0.0832146 2.16829 0.0827073 2.1695 0.0822024 2.1707C-0.116684 2.63939 0.0929129 3.0798 0.211334 3.27764C0.211717 3.27828 0.212101 3.27892 0.212485 3.27956C0.528702 3.81016 1.08697 4.14316 1.67316 4.22576C1.67415 4.22589 1.67513 4.22603 1.67612 4.22617C2.24915 4.27878 2.56591 4.0196 2.81193 3.84489C3.05779 3.65292 3.24637 3.45265 3.42012 3.24998C3.42029 3.24978 3.42046 3.24958 3.42063 3.24938C3.99386 2.55688 3.86129 1.72493 3.68645 1.16293C3.68638 1.16269 3.6863 1.16245 3.68623 1.16221C3.28872 0.16891 2.45042 0.106075 1.90872 0.00931108C1.88908 0.00439769 1.82963 0.00141597 1.80943 0C1.80569 0.00012219 1.80195 0.000258803 1.79821 0.000409722C1.43565 0.0117047 1.18713 0.336505 1.0502 0.524421C1.04904 0.525865 1.04788 0.527308 1.04671 0.528751C0.886282 0.711296 0.794225 0.931626 0.739855 1.11773C0.693866 1.27098 0.659169 1.422 0.629898 1.5738C0.629036 1.5784 0.630227 1.58383 0.632543 1.58856C0.634898 1.5933 0.638185 1.59695 0.642349 1.59905C0.646513 1.60114 0.651406 1.6016 0.656618 1.60066C0.661791 1.59969 0.666858 1.59741 0.670037 1.59397C0.670037 1.59397 0.670037 1.59397 0.670037 1.59397C0.774106 1.48097 0.878259 1.36824 0.986428 1.26827C1.12365 1.13984 1.25567 1.05424 1.40324 1.02775C1.40455 1.02743 1.40586 1.0271 1.40719 1.02678C1.60128 0.974261 1.74826 1.12446 1.80028 1.14006C1.80106 1.1402 1.80185 1.14034 1.80264 1.14049L1.70335 1.13118C2.14513 1.22732 2.49354 1.50711 2.45647 1.55197C2.45652 1.55213 2.45657 1.55228 2.45662 1.55244C2.58804 1.94933 2.55993 2.29452 2.43785 2.4137C2.43781 2.41375 2.43777 2.4138 2.43773 2.41384C2.29533 2.58121 2.15098 2.73915 2.01729 2.85316C1.88808 2.97443 1.75382 3.00066 1.83086 2.99752C1.83047 2.99748 1.83008 2.99745 1.82969 2.99741C1.58509 2.974 1.34968 2.84003 1.22461 2.65102C1.22444 2.65079 1.22428 2.65055 1.22412 2.65031C1.13115 2.51253 1.15479 2.52706 1.12649 2.60718C1.12644 2.60731 1.12639 2.60743 1.12633 2.60756C1.16928 2.50591 1.21598 2.40836 1.264 2.32446C1.29151 2.27623 1.32069 2.23164 1.34171 2.2048C1.35141 2.192 1.36078 2.18299 1.35327 2.1903C1.32596 2.19088 1.38426 2.24811 1.06482 2.28808Z" fill="var(--stroke-0, #3B1B1B)"/>
</svg>
