<svg preserveAspectRatio="none" width="100%" height="100%" overflow="visible" style="display: block;" viewBox="0 0 19.9594 10.8059" fill="none" xmlns="http://www.w3.org/2000/svg">
<path id="Vector 89" d="M1.92671 9.75803C1.92671 9.87911 1.97481 9.99523 2.06043 10.0809C2.14605 10.1665 2.26217 10.2146 2.38326 10.2146C2.50434 10.2146 2.62046 10.1665 2.70608 10.0809C2.7917 9.99523 2.8398 9.87911 2.8398 9.75803C2.82559 9.88479 2.8473 9.75301 2.86754 9.71491C2.88932 9.65723 2.91462 9.59545 2.94102 9.5322C2.99397 9.40564 3.05049 9.27513 3.10663 9.14418C3.21925 8.88195 3.3314 8.61632 3.43916 8.34849C3.44273 8.33962 3.4464 8.33076 3.45017 8.32189C3.69875 7.81921 3.47537 7.1614 3.3123 6.88243C3.30665 6.87168 3.30105 6.86106 3.29575 6.85086C3.21039 6.69756 3.10756 6.54035 2.96068 6.38492C2.83117 6.24917 2.66255 6.11035 2.4334 6.01328C2.4038 6.00082 2.37335 5.98918 2.34212 5.9785C1.81759 5.79479 1.26362 5.97291 0.923569 6.22369C0.894538 6.24434 0.866376 6.26554 0.838898 6.28733C0.408088 6.63821 0.136144 7.09116 0.0329649 7.63698C0.0250558 7.68139 0.0184786 7.72623 0.0132986 7.77158C-0.0534057 8.40547 0.138732 8.95264 0.412709 9.40096C0.438557 9.4427 0.465285 9.48366 0.492942 9.52396C0.808722 9.99178 1.29553 10.3863 1.83678 10.589C1.89462 10.6112 1.95279 10.6314 2.01139 10.6498C3.42159 11.0512 4.60734 10.5974 5.62201 10.201C5.68137 10.1765 5.74043 10.1514 5.79864 10.1262C6.92623 9.60893 7.41116 8.64676 7.78434 7.83996C7.81762 7.76488 7.8491 7.68969 7.87918 7.61435C8.20401 6.84144 7.90967 6.07829 7.66989 5.61709C7.63135 5.54042 7.59092 5.46499 7.56571 5.41511C7.52525 5.34457 7.50939 5.28656 7.35421 5.15477C7.22653 5.03149 6.87766 4.95191 6.69396 5.02081C6.329 5.15545 6.34622 5.24616 6.2881 5.29458C6.2138 5.39547 6.20165 5.43518 6.18354 5.47231C6.15232 5.54426 6.14032 5.58648 6.12809 5.62858C6.10543 5.71021 6.09362 5.77477 6.08383 5.84007C6.06517 5.96892 6.05923 6.08986 6.06342 6.21514C6.06702 6.31666 6.07781 6.41998 6.09822 6.52593C6.19666 6.99196 6.37476 7.39326 6.73496 7.77381C6.81557 7.85589 6.907 7.93504 7.01186 8.00667C7.4738 8.31981 7.99638 8.35851 8.42506 8.29388C8.53735 8.27686 8.64679 8.25233 8.75397 8.22084C9.5261 7.99644 10.0796 7.44837 10.4696 6.96692C10.5311 6.8915 10.5898 6.81681 10.6459 6.74423C11.2429 5.89533 11.0009 5.08474 10.8064 4.49648C10.7657 4.38531 10.7207 4.2773 10.6719 4.17171C10.4334 3.63658 9.89896 3.34881 9.52754 3.24197C9.13936 3.1245 8.8021 3.0973 8.50727 3.06518C8.41436 3.05552 8.32651 3.04514 8.25013 3.03294C7.55804 2.9443 6.9325 3.09878 6.37617 3.45978C6.25197 3.5455 6.13105 3.63281 5.98342 3.79859C5.91278 3.88295 5.85581 3.94558 5.7686 4.10804C5.73678 4.16966 5.67211 4.30861 5.65431 4.48141C5.62142 4.68279 5.70603 5.03529 5.90892 5.22887C6.29934 5.57159 6.47249 5.50473 6.60329 5.53624C6.73343 5.54604 6.82117 5.54108 6.91303 5.53441C7.2426 5.50486 7.48626 5.44463 7.737 5.38312C8.23066 5.25693 8.68657 5.10797 9.14238 4.94932C10.0503 4.62841 10.9289 4.2809 11.8157 3.85406C11.8905 3.81754 11.9645 3.78231 12.0394 3.74776C12.635 3.46951 13.3306 3.23059 13.7251 3.25521C13.7548 3.25707 13.7796 3.26086 13.8033 3.26644C14.0264 3.25696 14.4462 3.90849 14.6937 4.65212C14.9685 5.3998 15.18 6.23376 15.589 7.10826C15.6397 7.21445 15.6908 7.31911 15.742 7.42284C16.1731 8.29305 16.6223 9.12236 16.972 9.94148C16.9771 9.89209 16.8312 9.82126 17.0098 9.35748C17.1181 9.1313 17.3575 8.99578 17.4762 8.96786C17.603 8.93294 17.6666 8.93977 17.7099 8.94164C17.9228 8.98085 17.7911 8.95724 17.7887 8.93072C17.7292 8.87594 17.6711 8.81947 17.6131 8.76211C16.45 7.60392 15.8544 5.71491 15.0691 3.89214C15.046 3.83784 15.0241 3.78345 15.0033 3.72903C14.8899 3.4327 14.8375 3.12307 14.8213 2.85712C14.8198 2.82476 14.8201 2.79906 14.821 2.78117C14.8388 2.70261 14.7932 2.79364 14.8804 2.68677C14.9057 2.66145 14.9317 2.63683 14.9587 2.6127C15.3629 2.24669 16.0016 2.02178 16.7117 1.91816C16.7364 1.91445 16.7611 1.91138 16.786 1.90892C17.1995 1.86611 17.6541 2.00683 18.0398 2.30131C18.0276 2.29202 18.0174 2.28285 18.0093 2.27477C17.9319 2.13357 18.0855 2.48875 18.0648 2.80305C18.0649 2.81455 18.0648 2.82593 18.0644 2.83725C18.0621 3.13762 17.866 3.5132 17.5047 3.94451C17.4403 4.02257 17.3718 4.10234 17.3 4.18447L17.383 4.10066C17.3752 4.10766 17.3673 4.11461 17.3595 4.12152C17.1618 4.29551 17.0006 4.50972 16.8413 4.71863C16.7048 4.92776 16.4474 5.1253 16.4998 5.20362L16.8608 5.54276C16.863 5.55423 16.8644 5.5649 16.8652 5.57472C16.8511 5.75951 16.8109 5.63589 16.8076 5.58695C16.7992 5.52088 16.7987 5.43956 16.7998 5.35647C16.8028 5.189 16.8135 5.0098 16.8335 4.83779C16.8345 4.82847 16.8313 4.81699 16.8265 4.80705C16.8215 4.79703 16.8153 4.78937 16.8073 4.78458C16.7993 4.77979 16.7897 4.77794 16.7785 4.77827C16.7674 4.77868 16.7558 4.78123 16.7481 4.78655C16.7481 4.78655 16.7481 4.78655 16.7481 4.78655C16.6056 4.88578 16.4526 4.9773 16.3044 5.0878C16.2304 5.14365 16.1574 5.20314 16.0873 5.28257C16.0258 5.37897 15.9198 5.40869 15.9268 5.75228C15.9289 5.76891 15.9318 5.78618 15.9358 5.80403C16.0173 5.93201 16.1456 6.15511 16.2969 6.14317C16.9701 6.29788 17.2807 6.14468 17.664 6.05085C18.0254 5.93702 18.3501 5.77327 18.6124 5.54262C18.6228 5.53348 18.6331 5.5243 18.6435 5.51508C18.6612 5.49926 18.7108 5.44917 18.7265 5.43127C18.805 5.34147 18.8854 5.24798 18.9664 5.14978C19.3991 4.62429 19.9279 3.87393 19.958 2.89625C19.9591 2.86223 19.9595 2.82802 19.9594 2.79365C19.9202 2.27713 20.0126 1.7066 19.3449 0.928417C19.2973 0.881169 19.2452 0.835329 19.1888 0.792347C18.4899 0.254401 17.5565 -0.0805223 16.5991 0.0167668C16.5422 0.0223799 16.4856 0.0294373 16.429 0.0379543C15.5256 0.176499 14.5221 0.463433 13.6923 1.20362C13.6382 1.25234 13.5854 1.30278 13.5338 1.35521C13.2189 1.63827 12.9117 2.27377 12.9383 2.7602C12.9378 2.86502 12.9452 2.96157 12.9563 3.05139C13.0204 3.54056 13.1752 3.96785 13.3362 4.37827C13.3659 4.45347 13.3968 4.52774 13.429 4.60111C14.2222 6.32664 14.7669 8.34746 16.403 10.0019C16.4857 10.0819 16.5722 10.1586 16.6616 10.2327C16.9001 10.4095 17.0501 10.564 17.581 10.6409C17.6705 10.6461 17.782 10.6516 17.9537 10.6037C18.1173 10.5631 18.3989 10.3996 18.5282 10.131C18.7479 9.57985 18.5706 9.41092 18.5406 9.27568C18.1421 8.34567 17.6815 7.50177 17.2691 6.66758C17.2204 6.56909 17.1725 6.47112 17.1259 6.37385C16.8141 5.71881 16.5949 4.90745 16.2895 4.06959C15.951 3.29575 15.6915 2.08018 14.1892 1.61765C14.067 1.58918 13.9485 1.57256 13.8268 1.5652C12.7506 1.54969 12.0539 1.90014 11.3287 2.21345C11.242 2.25369 11.1571 2.29433 11.072 2.33614C10.2877 2.7168 9.42898 3.06233 8.58415 3.36436C8.16041 3.51427 7.7337 3.65447 7.32287 3.76137C7.12253 3.81343 6.90922 3.85862 6.77882 3.86956C6.74739 3.87253 6.72439 3.87146 6.73757 3.87229C6.75483 3.89328 6.80093 3.8078 7.10897 4.06973C7.27024 4.22073 7.33912 4.51692 7.31303 4.65702C7.29898 4.78144 7.26212 4.8487 7.25239 4.869C7.22279 4.92271 7.22734 4.90655 7.24268 4.89034C7.22744 4.90523 7.2673 4.86614 7.30895 4.83901C7.52113 4.69246 7.83631 4.56866 8.06606 4.58511C8.17462 4.59477 8.27288 4.60111 8.36593 4.60853C8.65555 4.63041 8.90752 4.65646 9.0833 4.70799C9.26917 4.7641 9.28799 4.80478 9.29558 4.81613C9.32837 4.88486 9.3582 4.95447 9.38446 5.02384C9.54272 5.40511 9.51661 5.7932 9.45489 5.82613C9.40366 5.8929 9.35366 5.95693 9.30396 6.01814C8.985 6.41594 8.6644 6.68607 8.3299 6.78159C8.2866 6.79442 8.24242 6.80434 8.19957 6.81092C8.02861 6.83842 7.90028 6.80473 7.85282 6.76997C7.83848 6.76053 7.81969 6.74558 7.79908 6.72496C7.70215 6.6333 7.5883 6.41701 7.55579 6.24226C7.55117 6.21953 7.54789 6.19222 7.54688 6.16303C7.54553 6.12746 7.54785 6.08756 7.55257 6.05697C7.55465 6.04246 7.55814 6.02858 7.55734 6.03236C7.55613 6.0357 7.5565 6.03969 7.54152 6.07474C7.53124 6.09434 7.5286 6.11478 7.46626 6.19994C7.41419 6.24076 7.43808 6.32344 7.08316 6.45491C6.90424 6.52239 6.56076 6.44401 6.43688 6.32388C6.28615 6.19581 6.27219 6.14091 6.23452 6.07576C6.2761 6.15964 6.30646 6.21764 6.33436 6.27605C6.51074 6.63195 6.48818 6.86917 6.41565 6.96877C6.38539 7.03022 6.35499 7.09095 6.32446 7.15108C5.99287 7.8174 5.53827 8.37501 5.11795 8.5362C5.06592 8.55815 5.01371 8.57995 4.96184 8.60136C4.0807 8.97084 3.14564 9.20562 2.52719 9.00385C2.50182 8.99595 2.47711 8.98742 2.45292 8.97822C2.22843 8.89243 2.04855 8.75296 1.90172 8.54705C1.88879 8.52882 1.87634 8.51039 1.86439 8.49177C1.7334 8.29157 1.66768 8.07009 1.67389 7.93402C1.67419 7.92344 1.67483 7.91265 1.67585 7.90163C1.68399 7.76973 1.76639 7.58617 1.85681 7.48938C1.86237 7.48319 1.86776 7.47742 1.87297 7.47204C1.94332 7.4043 1.94511 7.4056 1.92981 7.37675C1.92995 7.37532 1.93054 7.37399 1.93164 7.37286C1.93947 7.36327 1.98242 7.37006 2.03946 7.40307C2.10437 7.4397 2.18404 7.50458 2.26427 7.58387C2.27216 7.59224 2.27998 7.60051 2.28756 7.60843C2.50514 7.8377 2.63343 7.8543 2.60228 7.98151C2.59899 7.99022 2.59561 7.99887 2.59216 8.00745C2.48784 8.2667 2.37916 8.5242 2.26751 8.78416C2.2117 8.91438 2.15519 9.04478 2.0985 9.18024C2.07004 9.24851 2.04208 9.31631 2.01311 9.39291C1.98614 9.48671 1.95062 9.48948 1.92671 9.75803Z" fill="var(--stroke-0, #3B1B1B)"/>
</svg>
