<svg preserveAspectRatio="none" width="100%" height="100%" overflow="visible" style="display: block;" viewBox="0 0 6.46642 7.74394" fill="none" xmlns="http://www.w3.org/2000/svg">
<path id="Vector 78" d="M0.912474 0.297488C0.865887 0.18097 0.774921 0.0877316 0.659589 0.0382835C0.544257 -0.0111647 0.414005 -0.0127721 0.297488 0.0338151C0.18097 0.0804022 0.0877316 0.171368 0.0382834 0.2867C-0.0111647 0.402032 -0.0127721 0.532284 0.0338151 0.648802C0.0338151 0.648802 0.0338151 0.648802 0.0338151 0.648802C0.121874 0.869042 0.212343 1.08801 0.305184 1.30569C0.990202 2.90206 1.78736 4.44779 2.77427 5.90083C2.77483 5.90164 2.77538 5.90245 2.77594 5.90325C3.16376 6.46783 3.63969 6.99266 4.23432 7.38963C4.23558 7.39048 4.23684 7.39132 4.2381 7.39217C4.52507 7.58736 4.97532 7.87396 5.50288 7.67864C5.50559 7.6776 5.5083 7.67654 5.51101 7.67548C6.17853 7.37523 6.33869 6.8424 6.44645 6.45347C6.44691 6.45154 6.44737 6.44961 6.44783 6.44767C6.45611 6.41308 6.46684 6.31165 6.4664 6.27608C6.46622 5.05653 6.22406 3.69679 5.72169 2.58457C5.71776 2.57488 5.70483 2.54643 5.7002 2.53705C5.70015 2.53694 5.7001 2.53684 5.70005 2.53674C5.64582 2.42687 5.58708 2.31991 5.52554 2.21723C5.38374 1.98027 5.22897 1.77006 5.09085 1.58286C4.97784 1.42967 4.80885 1.3282 4.62038 1.30129C4.43194 1.27436 4.23946 1.32419 4.08597 1.43931C3.93248 1.55444 3.83074 1.72527 3.80384 1.9137C3.7769 2.10217 3.827 2.29281 3.94242 2.4442C3.94242 2.4442 3.94242 2.4442 3.94242 2.4442C4.08436 2.62995 4.20903 2.79433 4.30926 2.95647C4.353 3.02696 4.39259 3.09715 4.42858 3.16883C4.42861 3.16889 4.42864 3.16896 4.42868 3.16902L4.4072 3.1215C4.87482 4.16171 5.04656 5.16361 5.06616 6.29816L5.08472 6.12657C5.0845 6.12756 5.08427 6.12854 5.08404 6.12953C5.04552 6.34365 4.92295 6.46707 4.99141 6.4295C4.9915 6.42953 4.99159 6.42956 4.99167 6.4296C5.03707 6.43474 4.9293 6.59209 4.78748 6.5145C4.78646 6.51392 4.78544 6.51333 4.78443 6.51275C4.30823 6.2381 3.8819 5.84255 3.55591 5.36744C3.55539 5.36668 3.55487 5.36592 3.55435 5.36516C2.61861 3.98849 1.83822 2.4803 1.17561 0.934438C1.08558 0.723368 0.997856 0.511034 0.912474 0.297488Z" fill="var(--stroke-0, #3B1B1B)"/>
</svg>
