<svg preserveAspectRatio="none" width="100%" height="100%" overflow="visible" style="display: block;" viewBox="0 0 9.98458 9.6161" fill="none" xmlns="http://www.w3.org/2000/svg">
<path id="Vector 50" d="M2.77187 0.791961C2.37589 0.527974 1.97991 0.263987 1.58392 0C1.05595 0.791966 0.527974 1.58393 0 2.3759C0.395983 2.63989 0.791966 2.90387 1.18795 3.16786C1.32927 3.262 1.46797 3.38163 1.59887 3.52373C1.94422 3.89691 2.22774 4.42368 2.42267 5.01536C2.44031 5.06863 2.45674 5.12198 2.47243 5.17672C2.61622 5.65911 2.44928 6.30707 2.1814 6.78485C2.14813 6.84474 2.11153 6.89952 2.09263 6.92278C2.05605 6.97095 2.03398 6.9991 2.00917 7.02963C2.00044 7.04044 1.98917 7.05281 2.00477 7.03466C2.02601 7.01364 1.9917 7.03961 2.11294 6.92872C2.15504 6.89354 2.20746 6.84545 2.34005 6.76716C2.40831 6.72852 2.49763 6.68004 2.64871 6.63237C2.72457 6.60904 2.81697 6.58623 2.93368 6.57339C3.02705 6.55691 3.4435 6.54656 3.77809 6.72493C4.13318 6.89533 4.39272 7.23063 4.494 7.47903C4.60209 7.7335 4.61439 7.9135 4.61996 8.04175C4.62286 8.29501 4.58788 8.39322 4.5711 8.46815C4.55878 8.51449 4.54817 8.54664 4.53927 8.57235C4.46996 8.75273 4.48919 8.69 4.48729 8.69997C4.49165 8.69218 4.49843 8.68022 4.50916 8.66171C4.53026 8.62535 4.55518 8.58392 4.58218 8.53982C4.69025 8.36367 4.81594 8.1695 4.94219 7.97877C5.19381 7.59916 5.45892 7.21632 5.72768 6.84488C5.9967 6.47358 6.27106 6.1106 6.54747 5.77574C6.68358 5.61111 6.82322 5.45044 6.95073 5.31764C7.05912 5.1948 7.25671 5.04922 7.12966 5.1378C7.1217 5.14313 7.10781 5.15056 7.08832 5.157C7.03183 5.17754 6.82593 5.32629 6.56185 5.13806C6.50545 5.09286 6.47377 5.05594 6.45857 5.03302C6.40533 4.90272 6.58023 5.3012 6.63663 5.68535C6.64289 5.71961 6.64887 5.75359 6.65459 5.78766C6.70278 6.07137 6.74358 6.37004 6.77958 6.70536C6.80953 6.98297 6.83694 7.27507 6.86127 7.57045C6.89933 8.03343 6.93739 8.49641 6.97545 8.9594C7.90454 8.9594 8.83362 8.9594 9.76271 8.9594C9.80077 8.49641 9.83883 8.03343 9.87689 7.57045C9.90103 7.27464 9.92939 6.97768 9.9521 6.6652C9.97933 6.29215 9.99667 5.88168 9.9744 5.46001C9.97184 5.41012 9.96897 5.36038 9.96576 5.31056C9.90241 4.7202 9.93489 4.10495 9.35306 3.12853C9.25536 2.98024 9.12998 2.82513 8.96637 2.67524C8.13026 1.92283 7.03449 1.9122 6.21937 2.16033C5.99843 2.22517 5.79031 2.31535 5.59929 2.42393C5.06552 2.75307 4.91644 2.96143 4.69304 3.18425C4.48979 3.40199 4.3139 3.61148 4.14761 3.81699C3.81325 4.23181 3.51363 4.63859 3.221 5.05124C2.92932 5.46352 2.64834 5.87862 2.37515 6.30156C2.23689 6.51611 2.10182 6.72963 1.96272 6.96317C1.92696 7.02344 1.89285 7.08164 1.85188 7.15458C1.82957 7.19453 1.81559 7.21971 1.78694 7.27412C1.7544 7.34302 1.74907 7.32615 1.65756 7.56591C1.6466 7.59752 1.63433 7.63498 1.62076 7.68603C1.60204 7.76826 1.56605 7.87268 1.56908 8.13033C1.57472 8.26078 1.58735 8.44259 1.69606 8.69846C1.79795 8.94827 2.05837 9.28456 2.41463 9.45554C2.75024 9.63451 3.16873 9.62425 3.26295 9.60763C3.38051 9.5947 3.47383 9.57169 3.55069 9.54805C3.70376 9.49976 3.79536 9.45024 3.86619 9.41011C4.00394 9.32885 4.06268 9.27602 4.11232 9.23431C4.26466 9.09504 4.23647 9.11299 4.28172 9.06564C4.35131 8.98604 4.35839 8.97495 4.39276 8.93222C4.45617 8.85157 4.48379 8.81388 4.5347 8.7452C4.66857 8.5634 4.76861 8.39538 4.85735 8.22952C5.46937 7.04501 5.61266 5.68768 5.20909 4.35367C5.1845 4.27451 5.15946 4.19648 5.13332 4.11753C4.84172 3.24252 4.40431 2.3584 3.69858 1.58855C3.42999 1.29707 3.12127 1.02486 2.77187 0.791961Z" fill="var(--stroke-0, black)"/>
</svg>
