<svg preserveAspectRatio="none" width="100%" height="100%" overflow="visible" style="display: block;" viewBox="0 0 1.37982 0.980469" fill="none" xmlns="http://www.w3.org/2000/svg">
<path id="Vector 25" d="M0.490234 0C0.326823 0 0.163411 0 0 0C0 0.326823 0 0.653646 0 0.980469C0.163411 0.980469 0.326823 0.980469 0.490234 0.980469C0.49689 0.980469 0.503546 0.980469 0.510202 0.980469C0.630006 0.980469 0.749811 0.980469 0.869615 0.980469C0.876271 0.980469 0.882926 0.980469 0.889582 0.980469C1.05299 0.980469 1.21641 0.980469 1.37982 0.980469C1.37982 0.653646 1.37982 0.326823 1.37982 0C1.21641 0 1.05299 0 0.889582 0C0.882926 0 0.876271 0 0.869615 0C0.749811 0 0.630006 0 0.510202 0C0.503546 0 0.49689 0 0.490234 0Z" fill="var(--stroke-0, black)"/>
</svg>
