<svg preserveAspectRatio="none" width="100%" height="100%" overflow="visible" style="display: block;" viewBox="0 0 1.13562 1.13562" fill="none" xmlns="http://www.w3.org/2000/svg">
<path id="Vector 48" d="M0.252735 0.0842452C0.224654 0.0561634 0.196572 0.0280817 0.16849 0C0.112327 0.0561634 0.0561634 0.112327 0 0.16849C0.0280817 0.196572 0.0561634 0.224654 0.0842451 0.252735C0.0975557 0.266046 0.110866 0.279357 0.124177 0.292667C0.363767 0.532258 0.603358 0.771848 0.842948 1.01144C0.856259 1.02475 0.869569 1.03806 0.88288 1.05137C0.910962 1.07945 0.939043 1.10753 0.967125 1.13562C1.02329 1.07945 1.07945 1.02329 1.13562 0.967125C1.10753 0.939044 1.07945 0.910962 1.05137 0.88288C1.03806 0.86957 1.02475 0.856259 1.01144 0.842948C0.771848 0.603358 0.532258 0.363767 0.292667 0.124177C0.279357 0.110866 0.266046 0.0975557 0.252735 0.0842452Z" fill="var(--stroke-0, black)"/>
</svg>
