<svg preserveAspectRatio="none" width="100%" height="100%" overflow="visible" style="display: block;" viewBox="0 0 41.5418 19.2991" fill="none" xmlns="http://www.w3.org/2000/svg">
<path id="Vector 35" d="M15.721 3.44301C16.1036 3.06046 16.4861 2.67791 16.8687 2.29536C16.1036 1.53024 15.3385 0.765119 14.5734 0C14.1908 0.382552 13.8083 0.765104 13.4257 1.14766C12.5683 2.00934 11.994 3.06913 11.6942 4.19251C11.6858 4.2238 11.6777 4.25525 11.6696 4.28685C11.4354 5.24503 11.7874 6.03778 12.1346 6.53362C12.3279 6.80713 12.5434 7.03449 12.8052 7.2411C12.8613 7.28513 12.9205 7.32848 12.9822 7.37037C15.0492 8.51263 16.3425 7.59577 17.324 7.31204C17.3796 7.2904 17.435 7.26891 17.4891 7.24805C18.9602 6.63561 19.6595 5.45715 19.9814 4.29678C20.0081 4.18996 20.033 4.07842 20.0543 3.93913C20.0747 3.80385 20.0903 3.67345 20.096 3.5151C20.0993 3.3993 20.0982 3.27225 20.076 3.10925C20.0527 3.01722 20.0414 2.57474 19.5885 2.07328C19.3995 1.83721 18.8317 1.52249 18.4226 1.518C18.2164 1.50161 18.0177 1.52822 17.8944 1.55631C17.796 1.57808 17.711 1.60503 17.6361 1.63319C17.3455 1.74393 17.1666 1.88578 17.0995 1.93496C16.9197 2.07337 16.809 2.18917 16.73 2.27036C16.4035 2.61902 16.2143 2.88078 16.0162 3.14207C15.6247 3.66934 15.2779 4.17144 14.9295 4.67335C14.235 5.67769 13.5616 6.65931 12.8715 7.61883C11.5092 9.49667 10.0084 11.5001 8.54844 12.5986C8.24645 12.8162 7.93309 13.0238 7.61055 13.2219C5.84844 14.2993 3.76656 15.1222 1.76577 15.5518C1.87096 15.5362 2.02345 15.4914 2.38703 15.558C2.73211 15.5906 3.41708 16.03 3.60644 16.5145C3.81335 16.9775 3.77148 17.2217 3.76714 17.3665C3.75305 17.512 3.73134 17.5801 3.71683 17.6296C3.6566 17.7988 3.66787 17.737 3.68512 17.7213C3.69708 17.7043 3.71367 17.6835 3.72455 17.6707C3.75476 17.628 3.96621 17.4598 4.20345 17.3254C6.78473 15.9704 10.2545 14.9391 13.4356 13.8622C13.6823 13.7809 13.9283 13.7012 14.1734 13.6229C20.6239 11.5787 27.3573 10.0778 34.0635 9.55817L34.0346 9.55941C34.1021 9.55611 34.1687 9.55291 34.2356 9.54976C35.3566 9.49662 36.4728 9.19582 37.6057 8.90146C38.2186 8.74191 38.8342 8.5836 39.4512 8.46512C39.4688 8.46179 39.4862 8.45848 39.5035 8.45521C40.1117 8.34061 40.7198 8.24492 41.328 8.13978C41.3993 8.12746 41.4706 8.11514 41.5418 8.10282C41.5418 7.95819 41.5418 7.81355 41.5418 7.66892C41.4706 7.6566 41.3993 7.64428 41.328 7.63197C40.7198 7.52682 40.1117 7.43113 39.5035 7.31654C39.4862 7.31326 39.4688 7.30996 39.4512 7.30662C38.8342 7.18816 38.2171 7.02972 37.5965 6.87577C36.4513 6.591 35.2896 6.32408 34.1333 6.34436C34.0644 6.34555 33.9958 6.34678 33.9263 6.3481C33.9206 6.34838 33.9032 6.34895 33.8974 6.34934C26.7779 6.68899 19.8164 7.98199 13.0521 10.0813C12.7959 10.1617 12.5388 10.2437 12.2809 10.3273C8.98406 11.4477 5.83586 12.2835 2.33302 14.0887C1.94632 14.3179 1.53645 14.5498 1.05144 15.0204C0.899833 15.1716 0.766558 15.327 0.642159 15.4965C0.453591 15.7649 0.281316 16.0093 0.113552 16.5147C0.073064 16.6486 0.031257 16.8023 0.0092988 17.0353C-0.00246191 17.2669 -0.0403385 17.6031 0.204509 18.1462C0.430413 18.7116 1.19583 19.2057 1.62689 19.2542C2.07699 19.3381 2.31821 19.2846 2.51107 19.2517C5.06218 18.7086 7.38077 17.801 9.59832 16.4591C9.99954 16.2128 10.3938 15.9497 10.7789 15.668C13.1429 13.8023 14.434 11.74 15.8602 9.69602C16.5493 8.67209 17.2057 7.64219 17.8572 6.6309C18.1814 6.12899 18.5058 5.62724 18.8223 5.17249C18.9701 4.959 19.1519 4.71565 19.2339 4.62336C19.2473 4.60587 19.2626 4.59693 19.1916 4.65218C19.166 4.66817 19.0814 4.74658 18.8498 4.83702C18.7909 4.85916 18.7211 4.88146 18.6374 4.89997C18.5328 4.92375 18.3577 4.9479 18.1704 4.93308C17.7992 4.93025 17.2694 4.63707 17.1001 4.4234C16.6904 3.96004 16.7093 3.63551 16.6907 3.59139C16.6778 3.49402 16.6802 3.44599 16.681 3.42313C16.6832 3.39297 16.6847 3.40969 16.6795 3.4508C16.6814 3.44541 16.6784 3.46892 16.6732 3.4936C16.6392 3.66287 16.5581 3.89932 16.4826 4.03879C16.4036 4.18644 16.3452 4.24795 16.3018 4.27089C16.2547 4.29039 16.2076 4.30936 16.1614 4.32738C15.7474 4.48976 15.3578 4.6069 15.0746 4.64205C14.7765 4.68476 14.7131 4.60284 14.8228 4.66369C14.825 4.66515 14.8254 4.66541 14.8247 4.66487C14.8204 4.66231 14.8 4.64296 14.797 4.64105C14.7756 4.62175 14.8904 4.75241 14.8176 5.07974C14.8219 5.06241 14.8263 5.04519 14.8309 5.0281C14.9913 4.41881 15.3106 3.85335 15.721 3.44301Z" fill="var(--stroke-0, black)"/>
</svg>
