<svg preserveAspectRatio="none" width="100%" height="100%" overflow="visible" style="display: block;" viewBox="0 0 21.7258 10.6595" fill="none" xmlns="http://www.w3.org/2000/svg">
<path id="Vector 70" d="M0.111674 3.35202C-0.0443304 3.74807 -0.0366156 4.18987 0.133122 4.58023C0.302859 4.9706 0.620714 5.27754 1.01676 5.43355C1.41281 5.58955 1.85461 5.58184 2.24498 5.4121C2.63534 5.24236 2.94228 4.92451 3.09829 4.52846C3.09829 4.52846 3.09829 4.52846 3.09829 4.52846C3.00478 4.73305 3.04435 4.62712 3.08806 4.58441C3.13603 4.52558 3.20655 4.4484 3.28357 4.37098C3.43892 4.2146 3.62378 4.05063 3.8127 3.89892C4.18826 3.59068 4.69576 3.27865 4.88447 3.22251C4.88866 3.22113 4.89188 3.2203 4.89398 3.22C4.66405 3.26072 4.89065 3.33073 5.16364 3.53357C5.18001 3.54434 5.19664 3.55547 5.21345 3.56692C5.40477 3.71078 5.52323 3.90348 5.56568 4.02007C5.5694 4.02944 5.57271 4.03858 5.57567 4.04753C5.69643 4.33518 5.62254 4.91085 5.1663 5.68993C5.14141 5.73304 5.11549 5.77654 5.08886 5.82001C5.02207 5.92746 4.93118 6.05216 4.84188 6.15935C4.76203 6.25998 4.63256 6.38023 4.68129 6.33572C4.73104 6.31497 4.68812 6.26866 5.15851 6.1115C5.40585 6.02981 6.07455 5.97417 6.62024 6.355C7.14328 6.72772 7.2442 7.09223 7.30881 7.27092C7.40764 7.64031 7.36525 7.70365 7.36529 7.7712C7.34781 7.87697 7.34011 7.84392 7.35026 7.82075C7.35493 7.80709 7.3618 7.78928 7.37014 7.77032C8.04205 6.21489 9.61101 4.87557 11.3662 4.11538C11.4542 4.07732 11.5432 4.04089 11.6309 4.00692C11.6218 4.01056 11.5667 4.03845 11.4245 4.04762C11.2906 4.0593 11.0515 4.02069 10.8826 3.93125C10.5293 3.73163 10.5533 3.62977 10.5782 3.71898C10.6556 3.88905 10.7788 4.38371 10.8676 4.88203C11.0987 5.93262 11.0758 7.03306 11.9293 8.70361C12.0569 8.92544 12.5025 9.35256 12.7286 9.47234C12.7837 9.50154 12.8385 9.53026 12.8929 9.55851C14.4352 10.3505 16.3395 10.7369 18.273 10.6466C18.2994 10.6546 18.3828 10.6493 18.4099 10.6545C18.4373 10.6506 18.465 10.6465 18.4919 10.6422C18.9939 10.5599 19.3666 10.4048 19.7528 10.2496C20.3209 10.0144 20.8852 9.75548 21.4632 9.54316C21.538 9.5154 21.6071 9.45021 21.6563 9.37496C21.7053 9.29894 21.7304 9.21906 21.7251 9.13985C21.7197 9.06064 21.6842 8.98485 21.6253 8.91612C21.5665 8.84814 21.4892 8.79283 21.4114 8.77537C21.4114 8.77537 21.4114 8.77537 21.4114 8.77537C20.8051 8.64244 20.1873 8.48119 19.5765 8.35695C19.171 8.27236 18.7555 8.20824 18.4638 8.13849C18.4481 8.13473 18.4325 8.13084 18.4175 8.12682L18.5544 8.13467C17.2265 7.67867 16.0887 6.70284 14.7369 6.00894C14.6896 5.98434 14.6417 5.95935 14.5933 5.93397L15.3925 6.7027C15.1848 6.38332 14.9281 5.19936 14.6743 4.07462C14.5249 3.47979 14.4065 2.86898 13.9971 2.02724C13.7753 1.62152 13.4694 1.02672 12.6142 0.566389C11.725 0.0976397 10.7303 0.295406 10.2388 0.509031C10.1117 0.560565 9.98414 0.614616 9.85855 0.670058C7.4166 1.7728 5.16523 3.56781 3.95371 6.2721C3.90621 6.38049 3.86223 6.49206 3.82175 6.60997C3.74052 6.85526 3.66148 7.0985 3.6212 7.48727C3.61132 7.69646 3.56878 7.90323 3.70901 8.40914C3.79506 8.65519 3.93017 9.08607 4.51283 9.49906C5.11799 9.9208 5.8638 9.86591 6.17925 9.76453C6.79198 9.56429 6.87167 9.42885 7.03855 9.3172C7.76237 8.6928 7.98114 8.30421 8.33648 7.72833C8.37508 7.6608 8.41363 7.59185 8.4517 7.52205C9.0937 6.35995 9.77009 4.52065 8.99088 2.65693C8.96044 2.58386 8.92809 2.51206 8.89389 2.44149C8.44731 1.5269 7.71459 0.882909 6.91062 0.479321C6.87286 0.460775 6.83456 0.44237 6.79577 0.424183C6.13186 0.143339 5.2678 -0.196889 3.98386 0.140805C3.94798 0.151725 3.91274 0.162947 3.87802 0.174411C2.90235 0.531667 2.39036 0.945115 1.80271 1.39617C1.53036 1.61539 1.26843 1.84549 1.00602 2.10898C0.874381 2.24189 0.742761 2.38212 0.602546 2.55314C0.46067 2.74069 0.317526 2.87525 0.111674 3.35202Z" fill="var(--stroke-0, #4C3131)"/>
</svg>
