<svg preserveAspectRatio="none" width="100%" height="100%" overflow="visible" style="display: block;" viewBox="0 0 17.3527 12.0163" fill="none" xmlns="http://www.w3.org/2000/svg">
<path id="Vector 52" d="M9.60541 2.72543C9.16387 2.9462 8.82812 3.33333 8.67202 3.80165C8.51591 4.26998 8.55224 4.78113 8.77302 5.22267C8.99379 5.6642 9.38092 5.99995 9.84924 6.15606C10.3176 6.31216 10.8287 6.27583 11.2703 6.05506C11.2703 6.05506 11.2703 6.05506 11.2703 6.05506C11.6949 5.82325 12.3235 5.60428 13.0434 4.81789C13.053 4.80683 13.0626 4.79567 13.0721 4.78441C13.1105 4.73915 13.1477 4.69314 13.1839 4.64621C13.6091 3.9987 14.2318 3.2327 13.6124 1.66447C13.5893 1.61791 13.5644 1.5715 13.5378 1.52558C12.8921 0.333247 11.4308 -0.0304559 10.7226 0.00196099C9.9249 0.00318098 9.33499 0.16067 8.78354 0.325842C7.69315 0.670874 6.78546 1.12444 5.9031 1.61094C4.15296 2.59947 2.57488 3.70088 1.04888 5.06491C0.91372 5.18773 0.785632 5.32588 0.670898 5.47534C-0.154474 6.58527 -0.057552 7.74676 0.125517 8.53991C0.212142 8.89868 0.651991 9.50846 0.96498 9.70407C1.04489 9.75401 1.12582 9.80224 1.20774 9.84898C5.93827 12.0436 10.0983 11.9488 14.5261 12.0163C14.5388 12.016 14.5515 12.0158 14.5641 12.0156C14.8988 12.0094 15.2398 11.8782 15.6008 11.6863C16.107 11.3913 16.9281 10.9582 17.3112 10.3144C17.3482 10.2417 17.3578 10.1367 17.3504 10.0397C17.3423 9.94166 17.3179 9.85957 17.27 9.7944C17.2221 9.72924 17.151 9.68145 17.0599 9.6445C16.9694 9.60854 16.8664 9.58641 16.7859 9.60002C16.7859 9.60002 16.7859 9.60002 16.7859 9.60002C16.3336 9.60801 16.0445 9.16939 15.5381 8.91121C15.2278 8.73371 14.8975 8.60042 14.5641 8.59469C14.5515 8.59447 14.5388 8.59425 14.5261 8.59403C10.5837 8.46859 6.03507 7.97788 3.08947 6.5512C3.04906 6.52814 3.01142 6.50566 2.97668 6.48397L3.81614 7.64813C3.79685 7.5736 3.79865 7.50903 3.79808 7.52992C3.79853 7.54444 3.77271 7.67138 3.6811 7.78781C3.65613 7.82038 3.62848 7.8499 3.60256 7.87341C4.81896 6.78095 6.28682 5.75381 7.75029 4.93681C8.48149 4.53221 9.23765 4.17373 9.90936 3.96566C10.2354 3.86237 10.5588 3.80836 10.6862 3.81357C10.7471 3.81226 10.7407 3.83065 10.6248 3.78385C10.5124 3.74452 10.31 3.5759 10.2397 3.43806C10.2245 3.41199 10.2105 3.38582 10.1976 3.35982C9.99867 2.93109 10.077 2.68438 10.1084 2.57606C10.15 2.46181 10.1871 2.43173 10.2157 2.39641C10.22 2.39146 10.2243 2.38659 10.2286 2.38165C10.2296 2.38059 10.2304 2.37958 10.2313 2.37862C10.3066 2.32195 10.0358 2.52385 9.60541 2.72543Z" fill="var(--stroke-0, #4C3131)"/>
</svg>
