<svg preserveAspectRatio="none" width="100%" height="100%" overflow="visible" style="display: block;" viewBox="0 0 10.6163 24.115" fill="none" xmlns="http://www.w3.org/2000/svg">
<path id="Vector 132" d="M1.5507 0.543447C1.48374 0.343262 1.34001 0.177873 1.15111 0.0836648C0.962216 -0.0105436 0.743632 -0.0258548 0.543447 0.0410996C0.343262 0.108054 0.177873 0.251789 0.0836648 0.440686C-0.0105436 0.629582 -0.0258548 0.848166 0.0410996 1.04835C0.0410996 1.04835 0.0410996 1.04835 0.0410996 1.04835C0.165478 1.42294 0.293633 1.84349 0.417285 2.24484C1.99224 7.4422 3.72191 12.6232 5.88147 17.6493C5.88361 17.6543 5.88372 17.6545 5.88382 17.6547C6.42679 18.8804 6.87056 20.1467 7.49412 21.4066C7.49422 21.4068 7.49431 21.407 7.4944 21.4071C7.89525 22.2257 8.53426 23.0218 9.35017 23.5377C9.74175 23.7892 10.1671 23.9814 10.6106 24.1147C10.6115 24.115 10.6124 24.1151 10.6133 24.115C10.6142 24.1148 10.615 24.1144 10.6155 24.1138C10.616 24.1131 10.6163 24.1123 10.6163 24.1114C10.6163 24.1105 10.616 24.1096 10.6156 24.1088C10.6156 24.1088 10.6156 24.1088 10.6156 24.1088C10.4084 23.6947 10.2173 23.2983 10.0419 22.9173C9.6751 22.1271 9.38878 21.4078 9.01338 20.6499C9.0133 20.6497 9.01322 20.6496 9.01313 20.6494C8.44 19.4944 7.89018 18.2556 7.34197 17.0163C7.34187 17.0161 7.34177 17.0158 7.34166 17.0156C5.2188 12.0745 3.50939 6.96044 1.93891 1.77744C1.81397 1.37219 1.68769 0.956382 1.5507 0.543447Z" fill="var(--stroke-0, #3B1B1B)"/>
</svg>
