<svg preserveAspectRatio="none" width="100%" height="100%" overflow="visible" style="display: block;" viewBox="0 0 13.0434 7.63397" fill="none" xmlns="http://www.w3.org/2000/svg">
<path id="Vector 128" d="M0 7.0163C0 7.18011 0.0650764 7.33722 0.180913 7.45306C0.29675 7.5689 0.453858 7.63397 0.617676 7.63397C0.781494 7.63397 0.938602 7.5689 1.05444 7.45306C1.17028 7.33722 1.23535 7.18011 1.23535 7.0163C1.22591 7.15559 1.21653 7.11421 1.22866 7.10011C1.23937 7.07669 1.25891 7.04076 1.2826 7.00201C1.33026 6.92393 1.39142 6.83677 1.4576 6.7485C2.47788 5.46105 3.80527 4.25589 5.09823 3.0978L5.0045 3.16624C5.00813 3.16407 5.01177 3.16191 5.0154 3.15975C6.73858 2.13395 8.51759 1.18215 10.487 0.714088L10.4665 0.717318C10.4676 0.717118 10.4687 0.716919 10.4698 0.716719C11.0193 0.618266 11.584 0.547475 12.1572 0.493841C12.4001 0.471033 12.6443 0.451119 12.8892 0.432995C12.9301 0.429926 12.9693 0.409746 12.9982 0.378664C13.0271 0.347478 13.0434 0.307941 13.0434 0.266979C13.0434 0.226018 13.0271 0.18648 12.9982 0.155295C12.9693 0.124212 12.9301 0.104033 12.8892 0.100964C12.6443 0.0828461 12.399 0.0628973 12.1522 0.0455046C11.5708 0.00441468 10.9792 -0.0219789 10.3823 0.0249673C10.3811 0.0250623 10.3799 0.0251575 10.3787 0.0252529C10.3746 0.02598 10.3622 0.0275126 10.3582 0.0284827C8.26629 0.308426 6.19889 1.01529 4.38443 2.0977C4.38061 2.09997 4.37679 2.10224 4.37296 2.10451C4.35266 2.11659 4.29692 2.15729 4.27923 2.17295C2.95087 3.36821 1.643 4.53182 0.469272 6.00735C0.38747 6.11679 0.30808 6.22795 0.227887 6.35884C0.187336 6.4258 0.148462 6.49311 0.106323 6.58392C0.0691426 6.67975 0.0120404 6.75471 0 7.0163Z" fill="var(--stroke-0, #3B1B1B)"/>
</svg>
