<svg preserveAspectRatio="none" width="100%" height="100%" overflow="visible" style="display: block;" viewBox="0 0 2.88176 10.8867" fill="none" xmlns="http://www.w3.org/2000/svg">
<path id="Vector 106" d="M1.69068 0.729462C1.65882 0.506396 1.53964 0.305125 1.35938 0.169926C1.17912 0.0347278 0.952527 -0.0233238 0.729462 0.00854224C0.506396 0.0404084 0.305125 0.159582 0.169926 0.339846C0.0347277 0.52011 -0.0233239 0.746698 0.00854224 0.969764C0.00854224 0.969764 0.00854224 0.969764 0.00854224 0.969764C0.0325679 1.13795 0.0562219 1.30535 0.0797191 1.47348C0.323363 3.22056 0.542843 4.97413 0.723179 6.72382C0.723347 6.72546 0.723515 6.72709 0.723682 6.72873C0.724279 6.73456 0.726369 6.75198 0.727165 6.75778C0.874774 7.83351 1.04205 8.90596 1.21622 9.9734C1.21664 9.97598 1.21708 9.97856 1.21755 9.98113C1.21803 9.98457 1.21991 9.99482 1.22046 9.99825C1.28152 10.1967 1.39736 10.5564 1.95787 10.8388C2.45453 11.0006 2.66011 10.7108 2.80587 10.5839C2.8216 10.5668 2.83326 10.538 2.84016 10.5105C2.84695 10.4826 2.84841 10.4583 2.84236 10.4362C2.83631 10.4141 2.82271 10.394 2.80267 10.3734C2.78274 10.3532 2.75801 10.3343 2.7358 10.3277C2.7358 10.3277 2.7358 10.3277 2.7358 10.3277C2.55928 10.2859 2.38509 10.0594 2.59955 10.0072C2.8265 10.0087 2.9004 9.90333 2.8779 9.69812L2.88082 9.71525C2.88046 9.71268 2.88008 9.71011 2.87968 9.70755C2.71316 8.64612 2.55609 7.58712 2.41057 6.52648L2.41405 6.55553C2.41388 6.55386 2.41371 6.5522 2.41354 6.55053C2.23029 4.7728 2.00874 3.00358 1.76258 1.23829C1.73885 1.06845 1.71495 0.899354 1.69068 0.729462Z" fill="var(--stroke-0, #3B1B1B)"/>
</svg>
