<svg preserveAspectRatio="none" width="100%" height="100%" overflow="visible" style="display: block;" viewBox="0 0 6.50784 7.94335" fill="none" xmlns="http://www.w3.org/2000/svg">
<path id="Vector 94" d="M1.52433 0.370505C1.40192 0.186898 1.21159 0.0594363 0.995207 0.0161603C0.778824 -0.0271156 0.554112 0.0173388 0.370505 0.139744C0.186898 0.262149 0.0594363 0.452479 0.0161603 0.668862C-0.0271156 0.885246 0.0173388 1.10996 0.139744 1.29356C0.139744 1.29356 0.139744 1.29356 0.139744 1.29356C0.222832 1.4182 0.306289 1.54263 0.390097 1.66685C0.930309 2.46732 1.48398 3.25855 2.0547 4.03989C2.05731 4.04346 2.06527 4.05405 2.06797 4.05755C2.06826 4.05792 2.06854 4.0583 2.06883 4.05867C2.97664 5.20716 3.89737 6.22032 4.84238 7.233L4.81587 7.20355C4.81654 7.20432 4.8172 7.2051 4.81787 7.20587C5.02296 7.45144 5.23099 7.48055 5.52745 7.57398C5.66256 7.62875 5.81407 7.75455 5.96681 7.92473C5.97103 7.92934 5.97508 7.93375 5.97899 7.93713C5.98295 7.94052 5.98675 7.94263 5.99091 7.9432C5.99507 7.94376 5.9993 7.94273 6.00401 7.94052C6.00869 7.93831 6.01377 7.93513 6.01906 7.93182C6.01906 7.93182 6.01906 7.93182 6.01906 7.93182C6.21181 7.80791 6.37327 7.63371 6.45189 7.39662C6.62052 6.82341 6.37494 6.31912 6.15318 6.0582C6.15236 6.05725 6.15154 6.0563 6.15073 6.05535C6.14555 6.04933 6.12966 6.03167 6.12422 6.0259C5.18829 5.02528 4.18608 4.05651 3.38581 3.04149C3.38557 3.04117 3.38532 3.04084 3.38507 3.04052L3.39834 3.05818C2.84138 2.2957 2.29879 1.52037 1.76956 0.736151C1.68745 0.61446 1.6057 0.492565 1.52433 0.370505Z" fill="var(--stroke-0, #3B1B1B)"/>
</svg>
