<svg preserveAspectRatio="none" width="100%" height="100%" overflow="visible" style="display: block;" viewBox="0 0 10.1018 14.095" fill="none" xmlns="http://www.w3.org/2000/svg">
<path id="Vector 45" d="M9.30343 3.19341C9.56955 2.66118 9.83568 2.12896 10.1018 1.59673C9.03734 1.06449 7.97289 0.532243 6.90843 0C6.64231 0.532228 6.37619 1.06446 6.11007 1.59668C6.0119 1.79302 5.91167 1.98862 5.80931 2.18378C5.25997 3.23125 4.64846 4.26564 4.00459 5.29647C4.00457 5.2965 4.00455 5.29653 4.00453 5.29657L4.0258 5.26336C2.74314 7.21906 1.84558 9.40477 0.863207 11.521C0.863171 11.5211 0.863134 11.5212 0.863098 11.5213L0.893633 11.475C0.655147 11.9561 0.533617 12.548 0.306867 13.1852C0.224286 13.425 0.136075 13.6636 0.0353529 13.8912C0.0235687 13.9179 0.0117843 13.9446 0 13.9712C0.0412589 14.0125 0.0825178 14.0538 0.123777 14.095C0.150465 14.0832 0.177154 14.0715 0.203843 14.0597C0.431486 13.9588 0.669982 13.8711 0.91223 13.781C1.5392 13.5566 2.23897 13.2477 2.6879 12.7262C2.69308 12.7164 2.71376 12.69 2.71844 12.68C2.71849 12.6799 2.71855 12.6798 2.7186 12.6798C4.18717 10.8694 5.75477 9.13711 7.01111 7.22169C7.01543 7.21509 7.02819 7.19517 7.03237 7.18848C7.03239 7.18844 7.03241 7.18841 7.03243 7.18837C7.70764 6.10718 8.36439 4.99871 8.97109 3.84218C9.08394 3.62704 9.19483 3.41063 9.30343 3.19341Z" fill="var(--stroke-0, black)"/>
</svg>
