<svg preserveAspectRatio="none" width="100%" height="100%" overflow="visible" style="display: block;" viewBox="0 0 4.66205 8.14147" fill="none" xmlns="http://www.w3.org/2000/svg">
<path id="Vector 63" d="M4.64974 1.3978C4.69567 1.07628 4.61199 0.749675 4.41712 0.489847C4.22225 0.230018 3.93214 0.0582436 3.61062 0.0123125C3.2891 -0.0336185 2.9625 0.050056 2.70267 0.244929C2.44284 0.439801 2.27106 0.729909 2.22513 1.05143C2.22513 1.05143 2.22513 1.05143 2.22513 1.05143C2.20974 1.1592 2.19449 1.26595 2.17912 1.37165C2.07893 2.06521 1.96971 2.71189 1.79831 3.31375C1.7983 3.3138 1.79829 3.31384 1.79827 3.31388C1.60928 3.97672 1.53637 4.75336 1.19066 5.34024C1.19058 5.34038 1.1905 5.34051 1.19042 5.34065C0.99945 5.66137 0.793049 5.9222 0.51218 6.21005C0.443567 6.28086 0.370459 6.35404 0.293447 6.43104C0.105549 6.61895 -6.79493e-06 6.8738 0 7.13954C6.67572e-06 7.40527 0.105576 7.66012 0.293483 7.84802C0.481391 8.03592 0.736244 8.14147 1.00198 8.14147C1.26771 8.14146 1.52256 8.03589 1.71046 7.84798C1.71046 7.84798 1.71046 7.84798 1.71046 7.84798C1.78742 7.77101 1.86821 7.69026 1.95114 7.6047C2.2949 7.25606 2.64842 6.81543 2.91146 6.36712C2.91158 6.36693 2.91169 6.36674 2.9118 6.36655C3.37617 5.5747 3.90182 4.85447 4.15458 3.98208C4.1546 3.98203 4.15461 3.98197 4.15463 3.98191C4.3742 3.20919 4.49848 2.44318 4.60284 1.72411C4.6188 1.61435 4.63434 1.50557 4.64974 1.3978Z" fill="var(--stroke-0, #4C3131)"/>
</svg>
