<svg preserveAspectRatio="none" width="100%" height="100%" overflow="visible" style="display: block;" viewBox="0 0 12.2148 8.20099" fill="none" xmlns="http://www.w3.org/2000/svg">
<path id="Vector 93" d="M0.884781 3.01238C0.799921 2.9104 0.678024 2.8463 0.545905 2.83419C0.413786 2.82208 0.282267 2.86295 0.180282 2.94781C0.0782969 3.03267 0.0141991 3.15457 0.00208953 3.28669C-0.01002 3.41881 0.0308505 3.55033 0.11571 3.65231C0.11571 3.65231 0.11571 3.65231 0.11571 3.65231C0.376429 3.96483 0.652602 4.25132 0.936641 4.52622C1.76819 5.32519 2.66699 6.03225 3.62503 6.66338C3.63738 6.67149 3.6497 6.67965 3.66198 6.68786C4.08178 6.97191 4.61946 7.05979 5.07762 6.93101C5.101 6.92455 5.12434 6.91762 5.14743 6.91029C5.65339 6.73956 5.98575 6.39046 6.20581 5.97708C6.21906 5.95139 6.23178 5.92528 6.24393 5.89882C6.93521 3.85729 5.75022 2.40662 5.31092 1.03001C5.30792 1.02186 5.30541 1.01357 5.30335 1.00515C5.25376 0.847112 5.22386 0.693165 5.16555 0.533997C5.13545 0.454409 5.10111 0.375792 5.03498 0.288865C4.99852 0.244133 4.96535 0.200381 4.86449 0.131647C4.83516 0.112827 4.80361 0.0932352 4.74614 0.0678658C4.68114 0.0466838 4.62324 -0.00378376 4.36303 0.000225663C4.23404 0.0040738 3.97055 0.0680085 3.78589 0.278357C3.6044 0.487643 3.58183 0.674375 3.57126 0.784972C3.56294 0.988847 3.59318 1.04596 3.60841 1.10913C3.61024 1.11651 3.61229 1.12383 3.61458 1.13107C5.08056 4.59854 7.86449 6.34233 10.6029 8.12568C10.6274 8.13985 10.7028 8.17551 10.7294 8.18551C10.7313 8.18624 10.7332 8.18696 10.7352 8.18769C10.8869 8.24453 11.1323 8.11077 11.3499 7.94752C11.5561 7.79623 11.708 7.62284 11.8379 7.54333C11.8386 7.54295 11.8392 7.54257 11.8399 7.54218C12.1268 7.33598 12.1378 7.03965 12.2117 6.79783C12.2183 6.77145 12.2142 6.74352 12.2002 6.7202C12.1862 6.69688 12.1635 6.68008 12.1371 6.67348C12.1108 6.66689 12.0828 6.67104 12.0595 6.68503C12.0362 6.69902 12.0194 6.72171 12.0128 6.74809C12.0128 6.74809 12.0128 6.74809 12.0128 6.74809C11.9507 6.98878 11.8909 7.26958 11.736 7.36533C11.7357 7.36553 11.7354 7.36572 11.735 7.3659C11.6467 7.41153 11.5341 7.23034 11.4986 7.0403C11.4508 6.83269 11.4398 6.61384 11.34 6.57679C11.3387 6.57631 11.3375 6.57583 11.3362 6.57535L11.4627 6.63519C8.98473 5.08862 6.18513 3.05244 5.21158 0.623289C5.2101 0.618692 5.20842 0.614169 5.20655 0.609715C5.21814 0.660987 5.24588 0.707256 5.23817 0.899964C5.22805 1.00454 5.20696 1.1858 5.02927 1.39079C4.84835 1.59687 4.59059 1.65885 4.46736 1.66237C4.21839 1.66583 4.17186 1.6191 4.11743 1.60218C4.07056 1.58118 4.04875 1.5667 4.02986 1.55398C3.96786 1.50834 3.97066 1.49393 3.96827 1.47956C3.97006 1.45373 3.99752 1.44357 4.02403 1.43551C4.07888 1.42014 4.14335 1.42522 4.15887 1.43837C4.16336 1.44727 4.16745 1.45632 4.17109 1.46557C4.75959 2.91665 5.62621 4.41153 5.21597 5.43436C5.21127 5.4452 5.20625 5.45608 5.20093 5.46694C5.11605 5.64679 4.9368 5.80621 4.80291 5.84857C4.79298 5.85195 4.78293 5.85518 4.77288 5.85822C4.57477 5.91882 4.36594 5.94736 4.20895 5.84952C4.19717 5.84203 4.18545 5.83447 4.17378 5.82682C3.26949 5.23158 2.40834 4.55332 1.63181 3.80669C1.36725 3.55083 1.11223 3.28523 0.884781 3.01238Z" fill="var(--stroke-0, #3B1B1B)"/>
</svg>
