<svg preserveAspectRatio="none" width="100%" height="100%" overflow="visible" style="display: block;" viewBox="0 0 10.7716 6.75838" fill="none" xmlns="http://www.w3.org/2000/svg">
<path id="Vector 79" d="M2.65081 5.66751C2.54759 5.82235 2.5101 6.01185 2.5466 6.19433C2.58309 6.3768 2.69058 6.53731 2.84542 6.64053C3.00026 6.74376 3.18976 6.78124 3.37224 6.74475C3.55472 6.70825 3.71522 6.60076 3.81845 6.44592C3.81845 6.44592 3.81845 6.44592 3.81845 6.44592C4.03743 6.11854 4.21542 5.74771 4.32606 5.35691C4.37986 5.16812 4.41849 4.97519 4.44228 4.78228C4.44305 4.77606 4.4438 4.76983 4.44454 4.76359C4.57228 2.78508 3.30695 1.52466 2.21312 0.50635C2.20709 0.5011 2.20112 0.495821 2.1952 0.490515C2.05137 0.365934 1.90266 0.242314 1.69433 0.138094C1.48709 0.0494683 1.20236 -0.0979235 0.702265 0.093724C0.667156 0.109144 0.631659 0.126943 0.596875 0.146915C0.0987799 0.473662 0.059859 0.819663 0.0108621 1.08579C-0.0209526 1.36058 0.0171329 1.62059 0.124961 1.8735C0.133833 1.89402 0.143186 1.9144 0.153097 1.93475C0.675303 3.0362 1.91005 3.25366 2.63069 3.27174C3.4187 3.29922 4.11943 3.20229 4.76417 3.1606C4.76331 3.16067 4.76218 3.16075 4.76073 3.16079C4.74411 3.16451 4.67431 3.14833 4.65188 3.13247C4.6271 3.11754 4.64269 3.12913 4.66546 3.1769C4.66916 3.18426 4.67286 3.19162 4.67655 3.19895C4.90687 3.65507 5.1034 4.12334 5.30102 4.6263C5.55231 5.12193 5.52352 5.70048 6.44031 6.44139C6.57583 6.52943 6.90733 6.59835 7.06671 6.57166C7.07947 6.56952 7.0922 6.56736 7.1049 6.56516C8.27938 6.35668 9.35561 5.91104 10.3489 5.2622C10.3609 5.2542 10.3727 5.24624 10.3844 5.23833C10.3923 5.2332 10.4151 5.21693 10.4226 5.21138C10.4239 5.2104 10.4252 5.20941 10.4265 5.20841C10.503 5.14941 10.5821 5.04863 10.6597 4.8825C10.7337 4.72458 10.8166 4.4456 10.7428 4.19016C10.5541 3.68085 10.1977 3.75415 10.0052 3.71538C9.99811 3.71485 9.9883 3.71732 9.97984 3.72034C9.97126 3.72348 9.96472 3.72692 9.95974 3.73181C9.95476 3.73669 9.95118 3.74316 9.94787 3.75167C9.94468 3.76008 9.94202 3.76983 9.94241 3.7769C9.94241 3.7769 9.94241 3.7769 9.94241 3.7769C9.96345 3.96265 9.83572 4.30021 9.63405 4.11654C9.55096 4.02028 9.54715 3.8847 9.51535 3.84202C9.48626 3.79252 9.44033 3.78949 9.39079 3.8252C9.38994 3.82582 9.3891 3.82644 9.38824 3.82707L9.42643 3.80011C9.41768 3.80583 9.40876 3.81161 9.39968 3.81747C8.62337 4.31082 7.70597 4.67008 6.80467 4.82624C6.79485 4.82794 6.78501 4.82961 6.77517 4.83126L7.40157 4.96154C7.43028 4.99336 7.321 4.87767 7.23086 4.67615C7.13596 4.47757 7.03802 4.22811 6.93622 3.97486C6.73271 3.46345 6.50403 2.92445 6.23944 2.4073C6.23519 2.39895 6.23091 2.39059 6.2266 2.38222C6.04296 1.95513 5.40679 1.39175 4.72395 1.43999C4.69792 1.44057 4.6727 1.44173 4.6472 1.44348C3.29632 1.58863 1.74203 1.63643 1.69308 1.18479C1.69456 1.18782 1.69592 1.19079 1.69718 1.19371C1.71198 1.23094 1.71522 1.25056 1.71127 1.29221C1.69135 1.32948 1.74186 1.42951 1.44955 1.63249C1.43001 1.64372 1.41033 1.65356 1.3913 1.66192C1.11461 1.75929 1.08302 1.66635 1.09433 1.66229C1.10757 1.64592 1.16207 1.65204 1.20099 1.67976C1.20631 1.68385 1.2116 1.68801 1.21685 1.69223C2.21312 2.49033 3.16999 3.62548 3.05098 4.59834C3.05051 4.60234 3.05002 4.60633 3.04953 4.61032C3.03428 4.73393 3.00995 4.85477 2.9764 4.97256C2.90715 5.21613 2.79782 5.44718 2.65081 5.66751Z" fill="var(--stroke-0, #3B1B1B)"/>
</svg>
