<svg preserveAspectRatio="none" width="100%" height="100%" overflow="visible" style="display: block;" viewBox="0 0 10.8525 4.92923" fill="none" xmlns="http://www.w3.org/2000/svg">
<path id="Vector 23" d="M0.881795 2.28381C0.587863 2.57775 0.293932 2.87169 0 3.16564C0.587886 3.7535 1.17577 4.34136 1.76366 4.92923C2.05759 4.63528 2.35152 4.34134 2.64545 4.0474C2.51288 4.16845 2.56302 4.11391 2.58681 4.10477C2.61939 4.08538 2.6685 4.05862 2.72105 4.03173C3.83147 3.4952 5.22826 3.0099 6.54206 2.5545L6.5113 2.56458C6.5121 2.56433 6.51291 2.56408 6.51371 2.56383C7.24396 2.33626 7.85526 1.85757 8.56454 1.62186C8.56487 1.62175 8.5652 1.62164 8.56552 1.62153C9.03772 1.46082 9.55272 1.34527 10.0889 1.23446C10.2419 1.20284 10.3945 1.17171 10.5487 1.14074C10.65 1.12034 10.7512 1.09993 10.8525 1.07952C10.8525 0.87294 10.8525 0.666361 10.8525 0.459782C10.7512 0.439374 10.65 0.418965 10.5487 0.398557C10.3945 0.367604 10.2415 0.336412 10.0865 0.305576C9.54812 0.198308 8.98584 0.0908101 8.38915 0.0532953C8.38874 0.0532687 8.38834 0.0532421 8.38794 0.0532156C7.50426 -0.00912249 6.56402 -0.0652584 5.76774 0.183855C5.76686 0.184131 5.76598 0.184407 5.7651 0.184683C5.75892 0.18662 5.74047 0.192669 5.73434 0.194767C4.3536 0.67857 3.04578 1.10998 1.58326 1.81223C1.49952 1.85528 1.41334 1.90103 1.31317 1.96034C1.20618 2.02998 1.12227 2.05826 0.881795 2.28381Z" fill="var(--stroke-0, black)"/>
</svg>
