<svg preserveAspectRatio="none" width="100%" height="100%" overflow="visible" style="display: block;" viewBox="0 0 11.948 9.79433" fill="none" xmlns="http://www.w3.org/2000/svg">
<path id="Vector 27" d="M3.17792 1.39798C3.0506 0.931983 2.92327 0.465992 2.79595 0C1.86397 0.254646 0.931983 0.509293 0 0.763939C0.127323 1.22993 0.254646 1.69592 0.38197 2.16191C0.47508 2.50269 0.561194 2.84452 0.639578 3.18724C0.953827 4.55164 1.11967 5.86156 1.18124 7.31366C1.18631 7.40461 1.19182 7.50051 1.19877 7.6002C1.21272 7.74108 1.20883 7.84526 1.29515 8.14098C1.3115 8.19412 1.36397 8.34475 1.44725 8.48443C1.49408 8.56194 1.5329 8.62452 1.63029 8.73565C1.73956 8.85824 1.89546 8.99096 2.09687 9.08883C2.51133 9.30044 3.01142 9.25635 3.28281 9.14598C3.54793 9.04082 3.62353 8.97112 3.72942 8.8921C4.03679 8.62687 4.06503 8.53651 4.15322 8.42155C4.21676 8.32894 4.27269 8.23714 4.31497 8.16549C4.49184 7.86223 4.61582 7.6149 4.74483 7.36572C4.99775 6.87234 5.23625 6.40563 5.48736 5.95752C5.97398 5.08146 6.56759 4.20284 7.07013 3.82963C7.12516 3.7884 7.17922 3.75257 7.22762 3.72451C7.3087 3.67557 7.40829 3.69834 7.39668 3.76683C7.39687 3.82851 7.19466 3.95768 6.86031 3.84811C6.75784 3.82064 6.66831 3.76867 6.61754 3.721C6.43112 3.51107 6.57044 3.65977 6.6118 3.89746C6.67028 4.13875 6.71849 4.46372 6.75757 4.80927C6.83721 5.50715 6.88522 6.29263 6.99951 7.1417C7.00991 7.21834 7.06315 7.43688 7.08896 7.5098C7.12046 7.59869 7.15541 7.68771 7.19504 7.77809C7.53991 8.79029 8.94071 9.75503 9.92129 9.77827C9.96498 9.78332 10.0096 9.78778 10.0562 9.79155C10.3586 9.81153 10.7508 9.7281 11.2124 9.40237C11.4797 9.21185 11.7678 8.88839 11.8823 8.52715C12.0021 8.16584 11.9414 7.84664 11.8334 7.63913C11.6051 7.2222 11.2672 7.09179 11.0228 6.95518C11.0125 6.94997 11.0021 6.94477 10.9918 6.93957C10.9694 6.94568 10.9471 6.95179 10.9248 6.95789C10.9185 6.96764 10.9123 6.97738 10.906 6.98712C10.7585 7.21129 10.4896 7.45441 10.2116 7.4077C10.0777 7.38423 9.9545 7.24695 9.95915 7.03314C9.95971 6.82004 10.0844 6.6014 10.1765 6.472C10.3403 6.24952 10.4106 6.16801 10.402 6.15954C10.4008 6.15875 10.3982 6.15781 10.3943 6.15665C10.3379 6.14104 10.3945 6.13506 10.4739 6.1883C10.5545 6.23934 10.5957 6.31648 10.5828 6.29229C10.5811 6.28849 10.5784 6.28203 10.5751 6.27278L10.6645 6.64088C10.5695 5.95561 10.5112 5.19412 10.4007 4.35492C10.1981 3.49314 10.4323 2.64723 9.11748 1.10134C8.92641 0.919603 8.67749 0.753658 8.39978 0.642205C6.8709 0.137478 6.21836 0.914798 5.69575 1.17012C5.53829 1.26557 5.39447 1.36624 5.25894 1.47131C4.04733 2.47066 3.50186 3.52928 2.92433 4.54647C2.64702 5.0573 2.39449 5.56735 2.15331 6.04786C2.03439 6.28406 1.91145 6.52645 1.81267 6.69675C1.7906 6.73498 1.76641 6.77353 1.75912 6.78415C1.76384 6.78922 1.71447 6.8065 1.91712 6.62856C1.99283 6.57311 2.04743 6.51778 2.27804 6.42616C2.51376 6.32886 2.98198 6.28512 3.36646 6.48226C3.55307 6.57292 3.695 6.69477 3.79116 6.80271C3.87675 6.90039 3.90891 6.95307 3.94713 7.01616C4.01503 7.13113 4.04862 7.23312 4.05807 7.26307C4.10562 7.43095 4.08796 7.40924 4.09022 7.39631C4.08489 7.32168 4.07993 7.23763 4.07521 7.15278C4.01531 5.66651 3.81623 4.04383 3.46506 2.54104C3.37719 2.15684 3.28116 1.77584 3.17792 1.39798Z" fill="var(--stroke-0, black)"/>
</svg>
