<svg preserveAspectRatio="none" width="100%" height="100%" overflow="visible" style="display: block;" viewBox="0 0 26.4939 16.2048" fill="none" xmlns="http://www.w3.org/2000/svg">
<path id="Vector 126" d="M8.59127 11.1367C8.55694 11.3084 8.59221 11.4867 8.68933 11.6323C8.78645 11.778 8.93746 11.8791 9.10914 11.9135C9.28083 11.9478 9.45912 11.9126 9.6048 11.8154C9.75048 11.7183 9.85161 11.5673 9.88595 11.3956C9.88595 11.3956 9.88595 11.3956 9.88595 11.3956C10.0571 10.5391 10.2366 9.68123 10.4081 8.8163C10.6007 7.84066 10.7857 6.85657 10.914 5.84818C10.9144 5.84503 10.9148 5.84189 10.9152 5.83874C11.1187 3.57332 9.69252 1.89812 8.34794 0.636727C8.34604 0.635037 8.34413 0.633352 8.34222 0.631669C7.06784 -0.363826 5.76567 0.0489048 4.79127 0.318928C4.78256 0.321723 4.77385 0.32455 4.76517 0.32741C1.67212 1.6838 0.982809 4.60387 0.182015 7.01278C0.177376 7.02919 0.172823 7.04559 0.168357 7.06199C-0.308392 8.51435 0.297986 10.2614 1.10418 11.2874C1.11135 11.2974 1.11854 11.3074 1.12575 11.3174C3.4113 14.4034 7.08308 15.6669 10.504 16.1961C10.5468 16.2025 10.6718 16.2069 10.7149 16.2037C10.7258 16.2029 10.7366 16.2021 10.7475 16.2013C14.9976 15.8627 19.4328 15.3463 23.4413 13.3694C23.4501 13.3652 23.476 13.352 23.4846 13.3473C23.4877 13.3456 23.4909 13.3439 23.4941 13.3421C24.1063 13.0147 24.7306 12.5403 25.1937 11.9749C25.8154 11.2239 26.2052 10.3753 26.4872 9.47895C26.4931 9.45939 26.496 9.43839 26.4921 9.41824C26.4883 9.39811 26.4782 9.38059 26.463 9.36872C26.4478 9.35684 26.4284 9.35127 26.4079 9.35241C26.3874 9.35354 26.3677 9.36139 26.3502 9.37191C26.3502 9.37191 26.3502 9.37191 26.3502 9.37191C25.549 9.85528 24.8134 10.3599 24.1279 10.7812C23.611 11.1008 23.1249 11.356 22.5752 11.6531C22.5724 11.6546 22.5695 11.6561 22.5667 11.6577L22.6099 11.6356C18.958 13.4446 14.7851 13.9599 10.6043 14.2965C10.5937 14.2973 10.5831 14.2981 10.5724 14.2989L10.7833 14.3065C7.63709 13.8403 4.42534 12.6379 2.64591 10.2131C2.64019 10.2053 2.63448 10.1974 2.62879 10.1895C1.96703 9.2847 1.67872 8.47151 1.93487 7.53261C1.93764 7.52183 1.94049 7.511 1.9434 7.50012C2.56198 5.25022 3.58175 2.6404 5.31503 1.96407C5.31969 1.96245 5.32434 1.96084 5.329 1.95926C6.12223 1.67484 6.99902 1.60118 7.28668 1.86717C7.28725 1.86761 7.28781 1.86804 7.28838 1.86848C8.53614 2.88735 9.77022 4.27577 9.60521 5.67377C9.60484 5.67674 9.60447 5.67971 9.60409 5.68268C9.48303 6.63552 9.30334 7.59588 9.11295 8.55978C8.94349 9.4147 8.76385 10.2732 8.59127 11.1367Z" fill="var(--stroke-0, #3B1B1B)"/>
</svg>
