<svg preserveAspectRatio="none" width="100%" height="100%" overflow="visible" style="display: block;" viewBox="0 0 46.7095 36.5679" fill="none" xmlns="http://www.w3.org/2000/svg">
<path id="Vector 123" d="M0.0231556 24.9593C-0.0272543 25.1632 0.00537723 25.3787 0.113872 25.5585C0.222366 25.7382 0.397836 25.8676 0.60168 25.918C0.805524 25.9684 1.02104 25.9358 1.20083 25.8273C1.38061 25.7188 1.50994 25.5433 1.56035 25.3395C1.56035 25.3395 1.56035 25.3395 1.56035 25.3395C1.93115 23.9359 2.7774 22.5199 3.6594 21.189C9.31739 13.3117 16.9086 6.29537 25.7114 2.26614C25.7115 2.2661 25.7116 2.26607 25.7117 2.26603C29.1562 0.923543 33.2878 1.98477 37.2091 2.64878C37.2129 2.64947 37.2167 2.65016 37.2205 2.65086C39.8786 3.10335 42.0556 5.03325 43.875 7.22771C43.8842 7.23867 43.8933 7.24964 43.9025 7.26062C45.4915 9.17112 45.0651 12.2545 44.4619 14.9811C44.459 14.994 44.4561 15.007 44.4532 15.0199C42.5467 22.2678 35.7268 27.2256 29.5587 31.7013C29.5539 31.7048 29.5396 31.7153 29.5349 31.7189C29.5296 31.723 29.5242 31.7271 29.5189 31.7312C27.9653 32.9137 26.3931 34.0927 24.6717 34.9406C24.0191 35.2552 23.3357 35.5243 22.6681 35.6164C22.664 35.6169 22.66 35.6175 22.656 35.618L22.8922 35.6634C22.4674 35.5465 22.0334 34.5165 21.7558 33.719C21.7477 33.696 21.7294 33.676 21.7069 33.6632C21.6843 33.6503 21.6593 33.6455 21.6355 33.6503C21.6116 33.6551 21.5904 33.6691 21.5745 33.6896C21.5587 33.7102 21.5495 33.7356 21.5508 33.7599C21.5508 33.7599 21.5508 33.7599 21.5508 33.7599C21.5782 34.2057 21.5813 34.6559 21.6554 35.1257C21.7404 35.5756 21.8526 36.1618 22.4822 36.5216C22.5324 36.5422 22.6645 36.5736 22.7183 36.567C22.7235 36.5669 22.7287 36.5669 22.7339 36.5668C23.5883 36.5418 24.3742 36.3298 25.1339 36.0756C27.1216 35.3847 28.9255 34.3349 30.5606 33.0916C30.5662 33.0873 30.5718 33.0829 30.5775 33.0786L30.5537 33.0962C36.7566 28.533 43.8732 23.6421 46.111 15.3929C46.114 15.3794 46.117 15.3659 46.12 15.3524C46.6938 12.5228 47.4248 9.03346 45.1891 6.18684C45.1794 6.1753 45.1698 6.16377 45.1601 6.15225C43.2647 3.86961 40.769 1.56321 37.5195 1.00395C37.5157 1.00326 37.5119 1.00257 37.5082 1.00189C33.5698 0.376567 29.3664 -0.793585 25.0996 0.805631C25.0994 0.805678 25.0993 0.805726 25.0992 0.805774C15.8102 5.08689 8.26286 12.105 2.34403 20.3074C1.41549 21.7252 0.510563 23.1597 0.0231556 24.9593Z" fill="var(--stroke-0, #3B1B1B)"/>
</svg>
