<svg preserveAspectRatio="none" width="100%" height="100%" overflow="visible" style="display: block;" viewBox="0 0 25.8789 16.2591" fill="none" xmlns="http://www.w3.org/2000/svg">
<path id="Vector 86" d="M1.20625 3.30016C1.15082 3.1529 1.03916 3.0337 0.895841 2.96877C0.75252 2.90384 0.589276 2.8985 0.442021 2.95393C0.294765 3.00936 0.175559 3.12102 0.110629 3.26434C0.0456979 3.40766 0.0403603 3.5709 0.0957901 3.71816C0.0957901 3.71816 0.0957901 3.71816 0.0957901 3.71816C0.639824 5.18716 1.27181 6.63051 1.949 8.04053C2.53552 9.26001 3.16224 10.461 3.82186 11.6399C3.8678 11.722 3.91084 11.8064 3.95277 11.8922C3.98687 11.9605 4.02107 12.0286 4.06605 12.106C4.08767 12.1431 4.11465 12.1869 4.15085 12.2362C4.17209 12.2643 4.19288 12.2913 4.23075 12.3305C4.28318 12.3702 4.28038 12.4235 4.5396 12.518C4.64686 12.5782 5.06952 12.5249 5.20801 12.3235C5.34598 12.1548 5.34714 12.0696 5.3657 12.0059C5.38769 11.8906 5.38249 11.8431 5.38262 11.7995C5.37972 11.7145 5.37174 11.6625 5.36402 11.6123C5.34802 11.5145 5.32863 11.4364 5.30625 11.3598C5.26337 11.215 5.21639 11.0835 5.16559 10.9527C4.28011 8.6479 2.92582 6.54108 1.51677 4.603C1.40125 4.43875 1.28771 4.27523 1.18404 4.11622C1.15988 4.08079 1.13663 4.03416 1.15367 4.06863C1.15925 4.09652 1.1855 4.09328 1.1911 4.28244C1.18882 4.36322 1.16566 4.51129 1.04537 4.64823C0.923341 4.78965 0.751631 4.83305 0.690821 4.83972C0.530465 4.85796 0.467266 4.82603 0.426292 4.8145C0.338822 4.77934 0.361061 4.78292 0.363002 4.7869C0.40053 4.81277 0.491858 4.88847 0.560464 4.94885C0.712606 5.08208 0.867969 5.22692 1.02249 5.37265C1.33302 5.66607 1.64225 5.96697 1.95296 6.26777C2.58118 6.87116 3.18298 7.4743 3.90234 8.0643C3.91116 8.07136 3.91994 8.07834 3.92867 8.08526C4.59516 8.61383 5.42482 8.77155 6.13565 8.785C6.16933 8.78577 6.20324 8.78627 6.23639 8.78651C6.99399 8.73617 7.25496 8.31421 7.48998 8.02598C7.52027 7.98357 7.54899 7.94079 7.57643 7.89744C8.18832 6.88975 7.86854 5.85706 7.61057 5.11815C7.32555 4.34857 6.95883 3.67341 6.65576 3.01803C6.63326 2.96945 6.61112 2.92046 6.59014 2.87267C6.23127 2.08722 5.88157 1.34518 5.20502 0.627914C5.12793 0.55143 5.04446 0.473731 4.93394 0.39163C4.88951 0.359057 4.84288 0.327395 4.78333 0.294788C4.73992 0.27135 4.69003 0.247183 4.62336 0.224911C4.57353 0.210501 4.43615 0.15845 4.22061 0.192868C4.1198 0.209558 3.98159 0.256383 3.85893 0.355447C3.73928 0.450114 3.66039 0.576622 3.62209 0.671056C3.56255 0.818247 3.55855 0.923792 3.55773 1.00452C3.55817 1.11384 3.57778 1.20363 3.58723 1.24604C3.63831 1.45252 3.68594 1.55238 3.73394 1.66888C3.8302 1.89112 3.92853 2.08436 4.02925 2.27698C4.23135 2.66075 4.44014 3.02432 4.65478 3.38593C5.08767 4.10901 5.52527 4.80943 6.03509 5.51577C6.07264 5.56698 6.11128 5.61767 6.1498 5.66662C6.72416 6.38379 7.3723 6.93735 8.06051 7.44721C8.09346 7.47131 8.1264 7.49416 8.1605 7.51655C9.01022 8.06609 9.93415 7.9554 10.5977 7.85265C10.6176 7.84939 10.6374 7.84571 10.6571 7.84164C11.362 7.67426 11.6376 7.17753 11.8149 6.89199C11.8155 6.89098 11.8161 6.88997 11.8166 6.88897C12.5912 5.43179 12.1169 4.02527 11.6376 2.91584C11.6254 2.88938 11.6133 2.86339 11.6013 2.83786C11.5919 2.81826 11.5837 2.8013 11.5705 2.77621C11.5613 2.75894 11.551 2.74005 11.5344 2.71333C11.5288 2.70495 11.5114 2.67399 11.4674 2.6199C11.4441 2.59225 11.4149 2.55718 11.353 2.50563C11.3373 2.49275 11.3192 2.47885 11.2976 2.46395C11.2425 2.42761 11.1366 2.35651 10.9494 2.32811C10.7659 2.2928 10.4718 2.36303 10.3095 2.51168C10.1425 2.65613 10.0897 2.79551 10.0593 2.88297C10.0038 3.08876 10.0247 3.07253 10.0187 3.13194C10.0185 3.17409 10.0208 3.20182 10.023 3.22464C10.0289 3.27694 10.0296 3.27465 10.0325 3.29305C10.0373 3.32 10.043 3.34485 10.0455 3.35569C10.0513 3.38002 10.0582 3.4056 10.0621 3.41938C10.0812 3.48721 10.0959 3.5317 10.1121 3.58121C10.1434 3.67582 10.1747 3.76374 10.207 3.85153C10.2714 4.02631 10.3387 4.19679 10.4111 4.36774C10.5608 4.71211 10.7056 5.04364 10.9718 5.42732C11.0059 5.47499 11.0414 5.521 11.0788 5.56589C11.759 6.36496 12.69 6.55376 13.4237 6.63905C13.4557 6.64247 13.4875 6.64512 13.5193 6.64701C14.5661 6.69297 15.2421 6.0192 15.653 5.49758C15.6559 5.49374 15.6589 5.48989 15.6618 5.48603C16.2227 4.73584 16.0651 3.85581 16.0945 3.63749C16.0945 3.63739 16.0945 3.63754 16.0945 3.63796C16.0963 3.59248 16.1194 3.55368 16.0789 3.65227C16.0574 3.68765 16.0012 3.84965 15.7343 3.97793C15.431 4.10682 15.206 4.01274 15.127 3.97471C14.9953 3.90005 15.0392 3.9103 15.0593 3.9411C15.0825 3.96754 15.1243 4.02244 15.1594 4.07385C15.314 4.30001 15.4735 4.59678 15.6205 4.89229C15.9173 5.49222 16.1852 6.12777 16.434 6.76835C16.9087 8.01954 17.425 9.48645 17.519 10.5455C17.5236 10.7648 17.5038 10.9785 17.4588 11.186C17.2082 12.4209 15.9743 13.3888 14.5726 14.1519C14.4184 14.2389 14.2427 14.3106 14.0513 14.3672C13.5803 14.5065 13.025 14.5549 12.448 14.5574C12.3852 14.5594 12.2713 14.5355 12.1578 14.4811C12.0412 14.4278 11.9154 14.3341 11.8629 14.2731C11.858 14.2481 11.8945 14.3761 11.886 14.3289C11.8871 14.2905 11.9251 14.1562 11.9915 14.0148C12.0521 13.8822 12.1218 13.7628 12.2134 13.6315C12.8509 12.7643 13.8515 11.8917 14.7842 11.0597C14.8935 10.9635 15.0091 10.8623 15.1205 10.7654C17.4332 8.76245 19.836 6.83069 22.2007 4.83944C22.5179 4.57218 22.8349 4.30338 23.1499 4.03234C23.1773 4.00877 23.2044 3.98544 23.2311 3.96236C24.0784 3.16266 24.8896 2.74084 25.7809 1.34404C25.8911 1.12373 25.9092 0.868688 25.8313 0.635019C25.7534 0.40135 25.5859 0.208194 25.3656 0.0980435C25.1452 -0.0121073 24.8902 -0.0302301 24.6565 0.047662C24.4229 0.125554 24.2297 0.293081 24.1196 0.513388C24.1196 0.513388 24.1196 0.513388 24.1196 0.513388C23.8535 0.999608 22.7832 1.88096 22.0176 2.55611C21.9914 2.57872 21.9649 2.6016 21.9381 2.62473C21.629 2.8909 21.316 3.15811 21.0026 3.42511C18.6603 5.41983 16.3022 7.40362 13.9747 9.46344C13.8622 9.56353 13.7451 9.66828 13.634 9.76836C12.6711 10.659 11.715 11.4665 10.8234 12.661C10.6887 12.8528 10.5546 13.0773 10.4508 13.303C10.3452 13.5376 10.2332 13.7974 10.1939 14.1728C10.1374 14.5476 10.3081 15.1166 10.5945 15.4037C10.8572 15.6916 11.1266 15.8701 11.4336 16.0183C11.7282 16.1555 12.0601 16.2569 12.4501 16.2591C13.1118 16.2584 13.8085 16.222 14.5321 16.0158C14.8259 15.9308 15.1236 15.8153 15.4111 15.6561C16.8711 14.8516 18.6851 13.6896 19.1671 11.5564C19.2424 11.21 19.274 10.8559 19.2663 10.5083C19.0938 8.75457 18.5637 7.5305 18.054 6.13791C17.788 5.45998 17.5048 4.79173 17.1698 4.11947C16.9995 3.78286 16.8269 3.45204 16.581 3.09181C16.5228 3.0076 16.4446 2.9018 16.3627 2.80799C16.2584 2.69727 16.1753 2.57982 15.8955 2.42902C15.7263 2.34744 15.4208 2.23631 15.0312 2.40181C14.6863 2.56298 14.5704 2.81363 14.5169 2.91939C14.4029 3.18373 14.401 3.29923 14.3795 3.45563C14.3786 3.46441 14.3777 3.47304 14.377 3.48152C14.3558 3.90539 14.3882 4.04907 14.3742 4.21658C14.3651 4.37135 14.335 4.44134 14.3164 4.46584C14.3162 4.46615 14.3159 4.46646 14.3157 4.46677C14.0489 4.82673 13.7439 4.99246 13.6173 4.96725C13.612 4.96697 13.6066 4.96657 13.6011 4.96602C13.0285 4.91227 12.557 4.738 12.3635 4.49296C12.3513 4.47861 12.3397 4.46403 12.3285 4.44886C12.2006 4.27406 12.0488 3.98379 11.9208 3.70415C11.8559 3.56231 11.7935 3.41632 11.7363 3.27107C11.7078 3.19866 11.6803 3.12562 11.657 3.05883C11.6454 3.02581 11.6343 2.99184 11.6296 2.97593C11.6287 2.97307 11.6282 2.97105 11.6299 2.97818C11.6305 2.98089 11.6328 2.99038 11.636 3.00857C11.638 3.02154 11.6384 3.01767 11.6433 3.06142C11.6452 3.08095 11.6473 3.10584 11.6471 3.1456C11.6412 3.20242 11.6621 3.18516 11.6073 3.38817C11.5772 3.47463 11.5249 3.61327 11.3584 3.75726C11.1966 3.90546 10.9032 3.97552 10.7205 3.94031C10.534 3.912 10.4291 3.84136 10.3748 3.80559C10.3535 3.79091 10.3357 3.77725 10.3203 3.76464C10.2597 3.71419 10.2321 3.68067 10.2105 3.65508C10.1697 3.60473 10.1575 3.5817 10.1533 3.57572C10.1413 3.55641 10.1364 3.54697 10.1333 3.54127C10.1293 3.53344 10.1298 3.53406 10.1314 3.53751C10.141 3.55735 10.1506 3.5776 10.1601 3.59823C10.5772 4.48012 10.7585 5.51806 10.4132 6.08158C10.4129 6.08201 10.4127 6.08244 10.4124 6.08287C10.3066 6.28676 10.205 6.30933 10.3269 6.2655C10.3296 6.26496 10.3324 6.26448 10.3351 6.26406C9.75229 6.37001 9.28291 6.35442 9.033 6.1805C9.02161 6.17318 9.01058 6.16569 8.99946 6.1577C8.39637 5.72028 7.819 5.21764 7.38592 4.68477C7.35726 4.64914 7.32914 4.61301 7.30257 4.57759C6.84665 3.96069 6.39989 3.26781 5.98038 2.5863C5.77103 2.24408 5.5669 1.89918 5.37946 1.55562C5.2869 1.38542 5.19693 1.21257 5.12752 1.0587C5.09458 0.987951 5.0621 0.897106 5.06426 0.903126C5.06408 0.906036 5.07172 0.926341 5.07274 0.9956C5.07175 1.04528 5.07163 1.12531 5.02026 1.25286C4.98018 1.42448 4.64699 1.68484 4.47754 1.68465C4.28423 1.71441 4.18183 1.67012 4.14966 1.66195C4.10503 1.64694 4.07987 1.63378 4.06396 1.62521C4.04242 1.61316 4.03865 1.60916 4.04277 1.61203C4.06544 1.62747 4.10647 1.66174 4.14795 1.70176C4.57541 2.12898 5.02464 2.78773 5.32614 3.44033C5.35044 3.49337 5.37525 3.54709 5.3997 3.59987C6.03355 4.92926 6.87142 6.47641 6.40636 7.15683C6.39238 7.17892 6.37789 7.20048 6.36313 7.22113C6.26561 7.38662 6.07862 7.44215 6.23899 7.40746C6.21244 7.40759 6.18563 7.40753 6.15928 7.40727C5.59798 7.40409 5.10135 7.29461 4.74699 7.02706C4.73982 7.02169 4.73256 7.01621 4.72521 7.01063C4.09378 6.51959 3.44787 5.92616 2.80992 5.35243C2.49013 5.06325 2.17083 4.77193 1.84398 4.47892C1.68038 4.33265 1.51742 4.18733 1.33991 4.03776C1.25285 3.96582 1.16684 3.89078 1.02906 3.79665C0.992962 3.77497 0.956771 3.74169 0.828222 3.69205C0.770064 3.67437 0.693044 3.64001 0.522387 3.65972C0.457125 3.66694 0.278639 3.71252 0.152488 3.8588C0.0280039 4.00049 0.00257218 4.15545 0 4.24533C0.00562459 4.45751 0.0393863 4.47689 0.0589877 4.53823C0.115331 4.66134 0.148383 4.70394 0.191091 4.77077C0.309845 4.94874 0.428895 5.11782 0.54684 5.28559C1.95307 7.22224 3.12452 9.23813 3.95519 11.4215C3.99534 11.5259 4.03187 11.6303 4.06037 11.7269C4.07508 11.7766 4.08944 11.8252 4.09862 11.8567C4.10322 11.8708 4.10587 11.8849 4.10653 11.8653C4.10819 11.8529 4.10328 11.8403 4.11908 11.7567C4.13416 11.7098 4.1305 11.6404 4.25777 11.4842C4.38565 11.2959 4.78929 11.2454 4.88164 11.3008C5.10911 11.3852 5.08175 11.4158 5.11013 11.4326C5.12448 11.4486 5.12496 11.4522 5.1239 11.4528C5.12081 11.4532 5.10707 11.439 5.09418 11.4241C5.06654 11.3917 5.03413 11.3471 5.00244 11.2991C4.95142 11.2204 4.90244 11.1411 4.8573 11.0605C4.20907 9.90194 3.59349 8.72224 3.0183 7.52632C2.35342 6.1416 1.73846 4.73739 1.20625 3.30016Z" fill="var(--stroke-0, #3B1B1B)"/>
</svg>
