<svg preserveAspectRatio="none" width="100%" height="100%" overflow="visible" style="display: block;" viewBox="0 0 4.23686 7.24843" fill="none" xmlns="http://www.w3.org/2000/svg">
<path id="Vector 87" d="M1.73595 0.611478C1.66198 0.387219 1.50196 0.201529 1.29108 0.0952581C1.0802 -0.0110129 0.835738 -0.0291594 0.611478 0.0448103C0.387219 0.11878 0.201529 0.278807 0.095258 0.489687C-0.0110129 0.700567 -0.0291595 0.945026 0.0448103 1.16929C0.0448103 1.16929 0.0448103 1.16929 0.0448103 1.16929C0.133955 1.40828 0.16125 1.44899 0.21577 1.57347C0.884705 3.01125 1.58064 4.391 2.37298 5.77227C2.37355 5.77325 2.37412 5.77423 2.37469 5.77521L2.34961 5.72884C2.4647 5.9563 2.57001 6.14104 2.70239 6.44999C2.7029 6.45115 2.70341 6.45231 2.70393 6.45347C2.77952 6.62359 2.93537 6.68533 3.07882 6.77843C3.16905 6.83691 3.25208 6.92291 3.28105 7.03438C3.28584 7.0704 3.30892 7.11392 3.33485 7.15034C3.36138 7.18704 3.3886 7.21364 3.42091 7.22932C3.45322 7.245 3.49096 7.24992 3.53621 7.24805C3.58086 7.24589 3.62934 7.23709 3.6606 7.21856C3.6606 7.21856 3.6606 7.21856 3.6606 7.21856C3.79015 7.12451 3.92728 6.98351 4.02522 6.81358C4.1819 6.54379 4.24706 6.25012 4.23557 6.07056C4.23548 6.0693 4.23539 6.06803 4.23529 6.06676C4.21462 5.73653 4.12643 5.28755 3.94047 4.92867C3.93572 4.91924 3.92071 4.89143 3.9154 4.8823C3.91487 4.88138 3.91433 4.88045 3.9138 4.87953C3.16838 3.58172 2.46997 2.19836 1.83608 0.834744C1.79756 0.752589 1.72469 0.580558 1.73595 0.611478Z" fill="var(--stroke-0, #3B1B1B)"/>
</svg>
