<svg preserveAspectRatio="none" width="100%" height="100%" overflow="visible" style="display: block;" viewBox="0 0 11.4763 3.49139" fill="none" xmlns="http://www.w3.org/2000/svg">
<path id="Vector 8" d="M0.966287 1.23672C0.644191 1.34408 0.322096 1.45145 0 1.55881C0.214728 2.203 0.429456 2.84719 0.644183 3.49139C0.966279 3.38402 1.28837 3.27666 1.61047 3.16929C1.77071 3.11588 1.9306 3.06304 2.0902 3.01094C3.28427 2.62265 4.46977 2.264 5.63072 2.07893L5.56525 2.08714C5.56527 2.08714 5.56529 2.08713 5.56531 2.08713C6.30382 2.02061 7.14075 1.88483 7.99408 1.70815C7.99433 1.7081 7.99458 1.70805 7.99482 1.708C9.04813 1.50176 9.96602 1.03846 10.8554 0.618589C11.0116 0.543771 11.1672 0.469047 11.325 0.394224C11.3754 0.370218 11.4258 0.346211 11.4763 0.322204C11.4456 0.214803 11.415 0.107401 11.3844 0C11.3289 0.00618957 11.2734 0.0123791 11.2179 0.0185687C11.0449 0.0380655 10.8741 0.0555399 10.7031 0.0719063C9.72171 0.163114 8.75683 0.236101 7.86881 0.170187C7.86859 0.170175 7.86837 0.170162 7.86815 0.170149C7.08425 0.126777 6.27507 -0.0193796 5.3774 0.058708C5.37737 0.0587101 5.37735 0.0587123 5.37733 0.0587144C5.36416 0.0599343 5.32492 0.0648564 5.31186 0.0669264C3.95182 0.285509 2.68805 0.675818 1.45804 1.0744C1.29368 1.12805 1.12982 1.18221 0.966287 1.23672Z" fill="var(--stroke-0, black)"/>
</svg>
