<svg preserveAspectRatio="none" width="100%" height="100%" overflow="visible" style="display: block;" viewBox="0 0 2.18495 26.3703" fill="none" xmlns="http://www.w3.org/2000/svg">
<path id="Vector 134" d="M2.05682 1.30585C2.16474 1.09327 2.18379 0.846518 2.10979 0.619885C2.03578 0.393253 1.87478 0.205301 1.66219 0.0973781C1.44961 -0.010545 1.20286 -0.0295991 0.976226 0.0444073C0.749593 0.118414 0.561642 0.279418 0.453719 0.492002C0.453719 0.492002 0.453719 0.492002 0.453719 0.492002C0.31901 0.809686 0.357724 0.798521 0.331772 0.898835C0.319555 0.971666 0.312396 1.02351 0.30342 1.09294C0.28946 1.20178 0.276168 1.32837 0.26633 1.43095C0.244528 1.6591 0.228414 1.86746 0.21297 2.08446C-0.0722159 6.97707 -0.0832498 11.8091 0.254551 16.6921L0.253485 16.6759C0.253541 16.6769 0.253598 16.6779 0.253655 16.6789C0.365471 18.805 0.503685 20.9934 0.722546 23.1915C0.722627 23.1923 0.722708 23.193 0.722788 23.1938C0.783287 23.7727 0.886242 24.3485 1.03474 24.9277C1.17318 25.3687 1.19118 25.7494 1.62033 26.2902C1.68271 26.3443 1.76822 26.3719 1.8546 26.3702C1.94119 26.3683 2.02157 26.3373 2.08151 26.2807C2.14144 26.2241 2.17701 26.1456 2.18383 26.0593C2.19045 25.9732 2.16777 25.8862 2.11733 25.8208C2.11733 25.8208 2.11733 25.8208 2.11733 25.8208C2.10235 25.7822 2.04143 25.5609 2.02506 25.3807C2.00295 25.1906 1.99292 24.9906 1.98753 24.7887C1.97431 24.2425 1.99287 23.6845 1.99022 23.125C1.99022 23.1243 1.99022 23.1235 1.99022 23.1228C1.98939 20.973 2.16452 18.7984 2.04862 16.577C2.04856 16.5759 2.0485 16.5749 2.04844 16.5738C2.04825 16.5706 2.04761 16.5609 2.04737 16.5577C1.71682 11.807 1.72814 6.96626 2.00634 2.21134C2.02102 2.00473 2.0364 1.80715 2.05592 1.6031C2.06466 1.51171 2.07634 1.40187 2.08677 1.32086C2.09331 1.26988 2.09854 1.23376 2.10424 1.19987C2.10734 1.18149 2.10984 1.16951 2.11017 1.16815C2.10739 1.16773 2.12104 1.16816 2.05682 1.30585Z" fill="var(--stroke-0, #3B1B1B)"/>
</svg>
