<svg preserveAspectRatio="none" width="100%" height="100%" overflow="visible" style="display: block;" viewBox="0 0 8.75239 10.6756" fill="none" xmlns="http://www.w3.org/2000/svg">
<path id="Vector 14" d="M3.73219 1.49224C3.75194 1.03433 3.77169 0.576423 3.79145 0.118516C2.87563 0.0790106 1.95982 0.0395054 1.044 0C1.02425 0.457908 1.0045 0.915815 0.984744 1.37372C0.969906 1.71769 0.949546 2.06206 0.924126 2.40667C0.789891 4.25618 0.499961 6.09003 0.163127 7.98228C0.131856 8.16198 0.100346 8.34219 0.0690714 8.52529C0.0494133 8.64295 0.0366267 8.72131 0.020546 8.8571C0.0126355 8.92788 0.00685537 8.98485 0.00247419 9.07389C-1.00136e-05 9.12968 -0.0011704 9.18893 0.00162399 9.25944C0.00307167 9.29477 0.00555444 9.33303 0.0101457 9.37617C0.0174272 9.44216 0.0309083 9.54122 0.0687207 9.66616C0.0881196 9.72956 0.114349 9.80224 0.155707 9.88652C0.176438 9.92863 0.201069 9.9736 0.231188 10.0211C0.261804 10.0675 0.29054 10.1166 0.384239 10.2209C0.547703 10.406 0.844005 10.5967 1.15716 10.6513C1.46029 10.7144 1.77487 10.6393 1.88558 10.5963C2.30706 10.4337 2.42195 10.2549 2.4887 10.1967C2.60194 10.0745 2.66716 9.97521 2.70258 9.92387C2.79116 9.79083 2.83667 9.71082 2.89453 9.60993C3.09012 9.26255 3.24258 8.95889 3.40194 8.6504C3.71428 8.04164 4.01935 7.4508 4.33781 6.87801C4.65509 6.3077 4.98463 5.75221 5.32844 5.25839C5.50056 5.01166 5.67486 4.78387 5.84307 4.59808C6.00149 4.41547 6.19673 4.27261 6.17661 4.29983C6.02777 4.38328 5.7803 4.44602 5.57238 4.4298C5.36224 4.41662 5.22049 4.35481 5.14082 4.31378C4.91143 4.17359 4.9972 4.2302 5.01453 4.323C5.0476 4.41888 5.09072 4.55869 5.13622 4.70153C5.14675 4.74916 5.15874 4.79956 5.1737 4.85198C5.25019 5.11623 5.28548 5.4672 5.28106 5.82072C5.28066 5.85945 5.27982 5.89894 5.27857 5.93963C5.27125 6.2026 5.32351 6.55019 5.48899 6.95933C5.64164 7.33475 5.89502 7.74743 6.28597 8.1629C6.35056 8.23073 6.41034 8.29796 6.4684 8.36497C6.64203 8.38684 6.81566 8.4087 6.9893 8.43057C7.06216 8.38004 7.13674 8.32973 7.21613 8.28003C7.69647 7.98244 8.05193 7.68532 8.30376 7.35012C8.57534 6.98844 8.73261 6.56211 8.74958 6.04654C8.75197 5.96891 8.75288 5.89004 8.75213 5.81036C8.743 5.09751 8.61775 4.37488 8.31141 3.641C8.24975 3.49489 8.17579 3.35006 8.09034 3.20786C7.94791 2.97997 7.78485 2.75656 7.57814 2.51196C7.35398 2.26868 7.17 1.99232 6.57428 1.64733C6.23014 1.42051 5.33384 1.29102 4.78177 1.62892C2.79373 3.05159 2.5715 4.26854 1.81874 5.54132C1.49863 6.17138 1.20018 6.80103 0.907867 7.40877C0.762314 7.71033 0.612012 8.02127 0.482194 8.26076C0.447885 8.32383 0.417928 8.37447 0.407905 8.39035C0.405942 8.39568 0.403406 8.39063 0.4704 8.31683C0.511171 8.28756 0.580132 8.14873 0.974507 7.99384C1.07695 7.95404 1.37684 7.88141 1.67016 7.94232C1.97279 7.9949 2.2597 8.18018 2.4149 8.35626C2.50396 8.45545 2.5306 8.50128 2.55918 8.54448C2.58721 8.58873 2.60985 8.63013 2.62868 8.66837C2.66624 8.74494 2.68904 8.80875 2.70538 8.86212C2.76571 9.08404 2.74963 9.10761 2.75494 9.14287C2.75609 9.17465 2.7552 9.18908 2.75494 9.19373C2.7544 9.1996 2.75485 9.18628 2.7573 9.16298C2.76266 9.11273 2.76991 9.06046 2.78305 8.97985C2.81143 8.80694 2.84149 8.6314 2.87239 8.45388C3.2091 6.56252 3.52309 4.59438 3.66668 2.60897C3.69406 2.23776 3.71609 1.86547 3.73219 1.49224Z" fill="var(--stroke-0, black)"/>
</svg>
