<svg preserveAspectRatio="none" width="100%" height="100%" overflow="visible" style="display: block;" viewBox="0 0 5.83714 6.0638" fill="none" xmlns="http://www.w3.org/2000/svg">
<path id="Vector 103" d="M2.77723 1.32451C2.92273 1.179 3.00448 0.981655 3.00448 0.775879C3.00448 0.570103 2.92273 0.372755 2.77723 0.22725C2.63172 0.0817441 2.43437 0 2.2286 0C2.02282 0 1.82547 0.0817441 1.67997 0.22725C1.67997 0.22725 1.67997 0.22725 1.67997 0.22725C1.55951 0.347717 1.44064 0.471668 1.32413 0.600097C0.809127 1.18609 0.262327 1.84445 0.0646974 2.83574C0.0646307 2.83612 0.0645639 2.8365 0.0644974 2.83687C-0.10156 3.76648 0.0422175 4.76186 0.622202 5.52832C0.622317 5.52847 0.622433 5.52863 0.622549 5.52878C0.676591 5.59926 0.854364 5.7468 0.933599 5.78693C2.3668 6.34857 3.27328 5.92262 4.21331 5.67234C4.22025 5.67067 4.24051 5.6638 4.24737 5.66184C4.24814 5.66155 4.2489 5.66126 4.24967 5.66098C4.85945 5.44355 5.23138 4.84454 5.54097 4.34354C5.63662 4.1918 5.73311 4.04302 5.83551 3.90537C5.83652 3.904 5.83703 3.90194 5.83713 3.89996C5.83721 3.89796 5.83687 3.89621 5.83598 3.89476C5.83509 3.89332 5.83368 3.89223 5.83186 3.8914C5.83006 3.89059 5.82799 3.89011 5.82631 3.89039C5.82631 3.89039 5.82631 3.89039 5.82631 3.89039C5.6573 3.91955 5.48108 3.93727 5.30411 3.94938C4.69338 3.99663 4.13618 3.9548 3.71795 4.05944C3.71732 4.05961 3.71669 4.05979 3.71606 4.05997L3.75012 4.04946C2.98572 4.24514 2.00984 4.31561 1.75606 4.16302L2.06711 4.42117C2.06705 4.4211 2.067 4.42103 2.06694 4.42096C1.78815 4.06321 1.50809 3.58021 1.59251 3.10731C1.59254 3.10714 1.59257 3.10698 1.5926 3.10681C1.66704 2.66466 2.03476 2.12295 2.47342 1.64272C2.57071 1.53549 2.67237 1.42937 2.77723 1.32451Z" fill="var(--stroke-0, #3B1B1B)"/>
</svg>
