<svg preserveAspectRatio="none" width="100%" height="100%" overflow="visible" style="display: block;" viewBox="0 0 9.87651 9.096" fill="none" xmlns="http://www.w3.org/2000/svg">
<path id="Vector 21" d="M1.87732 4.79625C1.48767 4.79625 1.09802 4.79625 0.70837 4.79625C0.70837 5.57555 0.70837 6.35484 0.70837 7.13414C1.09802 7.13414 1.48767 7.13414 1.87732 7.13414C2.41475 7.13349 2.90861 7.01489 3.34975 6.84501C4.13734 6.53754 4.77407 6.0742 5.32372 5.5681C5.32499 5.56692 5.32627 5.56575 5.32754 5.56457C5.99407 4.95123 6.42802 4.15199 6.55835 3.35442C6.55878 3.35174 6.55922 3.34906 6.55965 3.34639C6.6747 2.57508 6.56553 1.64244 5.8455 0.847517C5.84205 0.843819 5.83858 0.840129 5.8351 0.836446C5.10689 0.041961 3.89791 -0.17916 3.00209 0.141591C2.99676 0.143366 2.99143 0.145157 2.9861 0.146963C1.00533 0.861355 0.287955 2.68832 0.0357109 4.16142C0.0348736 4.16711 0.0340519 4.1728 0.0332459 4.17848C-0.107222 5.24352 0.22188 6.09395 0.56229 6.70902C0.627069 6.82372 0.857904 7.09648 0.960055 7.17965C0.962653 7.18177 0.965253 7.18388 0.967855 7.18599C3.13779 8.92016 5.92357 9.39673 8.47737 8.92385C8.53719 8.91723 8.70539 8.86821 8.76261 8.84957C8.76322 8.84931 8.76383 8.84906 8.76444 8.84881C9.09751 8.71314 9.42845 8.34096 9.61358 7.90234C9.84185 7.38075 9.85187 6.81264 9.87593 6.37434C9.87612 6.37106 9.87632 6.36777 9.87651 6.36449C9.87139 6.36034 9.86628 6.3562 9.86116 6.35206C9.85799 6.35293 9.85481 6.35381 9.85164 6.35468C9.42355 6.47593 8.91163 6.4132 8.53997 6.28956C8.21903 6.18971 7.99252 6.07163 7.7557 6.1472C7.75527 6.14734 7.75483 6.14747 7.7544 6.14761L8.03964 6.07333C6.23208 6.25478 4.345 5.65719 3.05888 4.60682C3.0573 4.60554 3.05572 4.60426 3.05414 4.60298L3.45191 5.07362C3.27219 4.76798 3.20071 4.56526 3.18815 4.55873C3.18804 4.55861 3.18793 4.5585 3.18783 4.55839C3.23594 3.71655 3.6368 3.00139 3.9791 2.86252C3.97932 2.8623 3.97953 2.86208 3.97974 2.86187C4.01289 2.83112 3.94587 2.78718 3.91739 2.72011C3.91729 2.71987 3.91719 2.71962 3.91709 2.71938C3.89938 2.6524 3.99331 2.80117 3.9795 3.00943C3.97944 3.01056 3.97937 3.0117 3.97931 3.01283C3.96108 3.35122 3.92363 3.67828 3.73812 3.85007C3.73722 3.85091 3.73631 3.85175 3.7354 3.85259C3.34522 4.21474 2.91732 4.5065 2.50773 4.66402C2.27922 4.75267 2.05943 4.79674 1.87732 4.79625Z" fill="var(--stroke-0, black)"/>
</svg>
