<svg preserveAspectRatio="none" width="100%" height="100%" overflow="visible" style="display: block;" viewBox="0 0 30.1309 15.3168" fill="none" xmlns="http://www.w3.org/2000/svg">
<path id="Vector 82" d="M3.93328 9.82682C4.16185 9.82682 4.38105 9.73602 4.54268 9.5744C4.7043 9.41278 4.7951 9.19357 4.7951 8.965C4.7951 8.73644 4.7043 8.51723 4.54268 8.35561C4.38105 8.19399 4.16185 8.10319 3.93328 8.10319C3.47161 8.13647 3.40765 8.23507 3.25795 8.29849C3.131 8.3673 3.02839 8.4349 2.93114 8.50287C2.73865 8.63848 2.57293 8.77495 2.41312 8.91493C2.0956 9.19447 1.8091 9.48607 1.53719 9.78578C1.525 9.79924 1.51278 9.81277 1.50054 9.82638C1.1765 10.1702 1.04425 10.6899 1.05786 11.0554C1.06459 11.4317 1.14485 11.7239 1.22411 11.9861C1.34206 12.3628 1.47838 12.6823 1.58072 12.9658C1.58623 12.981 1.5916 12.996 1.59683 13.0107C2.01119 14.328 3.42006 15.1029 4.49969 15.2715C4.53333 15.2783 4.56943 15.2852 4.60244 15.2914C5.40975 15.4056 5.90243 15.1132 6.3352 14.8524C6.38053 14.8229 6.42501 14.7924 6.46867 14.7611C7.36305 14.1259 7.75388 13.1172 7.94057 12.2984C7.95558 12.234 7.96969 12.1699 7.98296 12.1066C8.23257 10.9016 7.71187 9.82068 7.13309 9.05814C7.0784 8.98606 7.02244 8.91579 6.96527 8.84716C6.40338 8.18671 5.76158 7.78946 5.14411 7.43239C5.05503 7.38187 4.96587 7.33271 4.87658 7.28462C3.8998 6.75844 2.8081 6.75598 1.88239 6.94991C1.74843 6.97788 1.61614 7.00984 1.48542 7.04573C1.07417 7.1565 0.728281 7.41771 0.502308 7.69079C0.372005 7.84623 0.270399 8.00739 0.186946 8.17186C0.0276289 8.45355 -0.0480185 8.9419 0.0325142 9.27284C0.0826624 9.52103 0.163849 9.70684 0.243113 9.86934C0.786292 10.9582 1.72566 11.7049 2.72234 12.1645C2.89213 12.2424 3.06492 12.3125 3.24014 12.3748C4.72423 12.893 6.1772 12.4594 7.31988 11.954C7.50391 11.872 7.68346 11.786 7.85775 11.6987C8.54973 11.3587 9.14379 10.8276 9.59251 10.2893C9.74086 10.1138 9.8784 9.93864 10.0092 9.76809C10.4247 9.22322 10.6683 8.58624 10.754 7.937C10.7865 7.64376 10.814 7.40115 10.7474 6.99049C10.7358 6.93851 10.7365 6.92062 10.6955 6.8044C10.6687 6.74691 10.672 6.70367 10.5318 6.52123C10.497 6.47948 10.4529 6.43319 10.3936 6.38587C10.331 6.33374 10.1878 6.24408 10.0317 6.20828C9.87537 6.16731 9.6832 6.1782 9.5566 6.21648C9.4392 6.24955 9.34696 6.29963 9.27736 6.34752C9.13503 6.4487 9.0854 6.52388 9.05476 6.56172C9.02114 6.60667 8.99864 6.64387 8.9806 6.67615C8.94833 6.73523 8.93768 6.76175 8.92356 6.7955C8.89939 6.8558 8.88983 6.88828 8.87967 6.92197C8.84545 7.04184 8.83421 7.11147 8.82147 7.1831C8.79784 7.32442 8.78463 7.44617 8.77417 7.57094C8.75439 7.81857 8.74835 8.05996 8.76429 8.32305C8.77925 8.52804 8.79665 8.73454 8.88199 9.0162C9.16115 9.82966 9.64186 10.2616 10.0222 10.661C10.1521 10.7912 10.2782 10.913 10.3959 11.03C10.539 11.1741 10.7211 11.3017 10.9111 11.3869C11.2635 11.5462 11.5947 11.5605 11.8204 11.5619C12.7621 11.5297 13.2506 11.0119 13.623 10.6307C13.7883 10.4497 13.9308 10.2657 14.0612 10.0804C14.8629 8.92033 14.8405 7.58859 14.6962 6.51112C14.664 6.27756 14.6245 6.04914 14.5858 5.83471C14.5875 5.84414 14.5908 5.8556 14.5949 5.90355C14.597 5.93647 14.6007 5.98259 14.591 6.06842C14.5874 6.09163 14.5749 6.23143 14.4869 6.39439C14.4417 6.47825 14.3706 6.57847 14.2628 6.66836C14.1522 6.766 13.9534 6.8586 13.7921 6.87696C13.4522 6.91629 13.2831 6.80051 13.2435 6.78693C13.178 6.75362 13.1373 6.72479 13.1064 6.7017C13.0399 6.64961 13.0396 6.64507 13.0207 6.62746C12.9914 6.59771 12.9891 6.59353 12.9849 6.58908C12.9774 6.58018 13.0063 6.62028 13.0272 6.65256C13.0746 6.72443 13.1298 6.81194 13.1854 6.89974C13.2975 7.07692 13.4139 7.26037 13.5374 7.4453C13.7847 7.81394 14.0499 8.18597 14.3914 8.55348C14.4988 8.66812 14.6141 8.78254 14.7453 8.89613C15.4881 9.55659 16.5103 9.59372 17.1798 9.49311C17.3498 9.4705 17.5113 9.44134 17.6614 9.41187C17.9651 9.35859 18.296 9.16529 18.4894 8.94137C18.6889 8.71759 18.7851 8.50083 18.8522 8.3146C18.9791 7.94146 19.0019 7.65019 19.0209 7.37632C19.0311 7.2035 19.0335 7.04058 19.0337 6.88593C19.0767 5.08425 17.877 3.5362 17.6699 2.67303C17.6546 2.60259 17.6498 2.54756 17.6508 2.50771C17.6501 2.48948 17.658 2.51786 17.6172 2.59972C17.5798 2.68109 17.4742 2.77309 17.4205 2.79411C17.3092 2.83327 17.4285 2.79145 17.5693 2.81539C17.868 2.85001 18.2782 2.9798 18.6665 3.13241C19.4581 3.44522 20.2613 3.86241 21.0435 4.3063C21.091 4.33332 21.1378 4.35991 21.1838 4.38603C21.4208 4.50947 21.6142 4.77966 22.0526 5.41341C22.1072 5.48435 22.1704 5.56259 22.2585 5.65069C22.323 5.71309 22.3635 5.75441 22.4829 5.83791C22.5892 5.89869 22.7283 6.02689 23.1248 6.03905C23.3119 6.04079 23.5458 5.96901 23.7046 5.85416C23.8559 5.74867 23.9465 5.62864 24.0014 5.54167C24.1066 5.36796 24.1313 5.26311 24.1576 5.1664C24.2303 4.83677 24.2152 4.67261 24.2166 4.48741C24.209 4.13451 24.1783 3.82976 24.1482 3.52524C24.0897 2.93498 24.0048 2.30313 24.009 1.87125C24.0069 1.94653 23.9872 2.00635 23.9734 2.0368C23.9142 2.13496 24.0144 2.02082 24.1609 1.94362C24.1723 1.93991 24.1786 1.94035 24.1801 1.94224C24.1825 1.95641 24.1366 1.96271 24.2139 1.97755L24.0361 1.92526C24.0824 1.94476 24.1289 1.9639 24.1758 1.98255C24.8855 2.26466 25.6172 2.52464 26.3818 2.74126C27.1628 2.95677 27.9687 3.15033 28.884 3.1706C28.9291 3.17523 29.0575 3.16046 29.1023 3.15294C29.1189 3.14872 29.1357 3.14428 29.1528 3.13958C29.9246 2.89642 29.9304 2.13408 30.1301 1.66118C30.1311 1.65844 30.1311 1.65453 30.1306 1.65101C30.13 1.64744 30.129 1.64454 30.1272 1.64227C30.1254 1.64 30.1228 1.63835 30.1194 1.63701C30.1161 1.63571 30.1123 1.63482 30.1094 1.63522C30.1094 1.63522 30.1094 1.63522 30.1094 1.63522C29.5934 1.70991 28.894 1.57746 28.7727 1.55415C28.7666 1.55501 28.7602 1.55588 28.7535 1.55677L28.9717 1.53911C28.344 1.46513 27.6487 1.22878 26.9649 0.968959C26.2897 0.710808 25.608 0.418715 24.909 0.140697C24.8628 0.122318 24.8164 0.104405 24.7699 0.0868515C24.7346 0.0735322 24.6292 0.041059 24.5921 0.034555C24.2322 -0.0394997 23.7151 -0.00173628 23.3172 0.218417C23.2161 0.271634 23.1247 0.332379 23.0431 0.39582C22.823 0.587752 22.5495 0.772969 22.2944 1.29166C22.2301 1.43569 22.1781 1.61805 22.1726 1.81795C22.1698 2.56662 22.2556 3.11087 22.2993 3.69659C22.3229 3.98131 22.3434 4.26595 22.343 4.50422C22.3452 4.61291 22.3271 4.7516 22.3326 4.70473C22.3393 4.68469 22.3406 4.64806 22.4075 4.53592C22.443 4.48 22.5081 4.38988 22.6303 4.30437C22.758 4.21128 22.9561 4.15035 23.107 4.15229C23.4278 4.16437 23.4981 4.25495 23.5464 4.27674C23.5955 4.31092 23.5965 4.31579 23.5997 4.31749C23.6003 4.31763 23.5847 4.29971 23.5645 4.27167C23.3379 3.96348 22.9632 3.14787 22.1635 2.68816C22.1147 2.65957 22.0649 2.6308 22.0142 2.60192C21.1755 2.12712 20.3238 1.68 19.3813 1.3068C18.9055 1.12523 18.4209 0.948656 17.7948 0.868515C17.4785 0.842355 17.1069 0.790991 16.5722 1.02762C16.3066 1.1487 16.0232 1.40511 15.8792 1.69466C15.7291 1.98979 15.699 2.23975 15.6918 2.46386C15.6867 2.68937 15.714 2.89917 15.7548 3.0877C16.3427 4.93399 17.1174 5.75308 17.0738 6.88313C17.0736 7.01761 17.0713 7.14448 17.0644 7.26056C17.055 7.44072 17.0268 7.60672 17.0046 7.66537C16.996 7.69405 16.9895 7.68461 17.0359 7.63116C17.078 7.57778 17.2024 7.50436 17.2812 7.49378C17.1524 7.51963 17.0327 7.54118 16.9207 7.55626C16.4439 7.62152 16.1763 7.55722 16.0209 7.41841C15.9559 7.36247 15.8856 7.29416 15.8147 7.21878C15.5857 6.97518 15.3525 6.67154 15.1263 6.35324C15.0121 6.19239 14.9005 6.02853 14.7831 5.85466C14.7238 5.76711 14.6653 5.67974 14.5946 5.57881C14.5584 5.52803 14.5248 5.47793 14.4522 5.38891C14.4311 5.36379 14.4138 5.34201 14.3644 5.29176C14.3356 5.26437 14.3303 5.25475 14.2499 5.19172C14.2132 5.16425 14.1672 5.13197 14.0968 5.0962C14.0537 5.08072 13.8751 4.96119 13.5292 5.0017C13.3649 5.02046 13.1632 5.11447 13.0505 5.21388C12.9407 5.30539 12.8679 5.40778 12.8212 5.49436C12.7304 5.66179 12.7155 5.81346 12.7116 5.84038C12.7007 5.93652 12.7043 5.99566 12.7076 6.0444C12.7136 6.11707 12.7205 6.15131 12.7281 6.19179C12.7701 6.39583 12.8066 6.58688 12.8346 6.77653C12.9719 7.65966 12.9115 8.49876 12.5402 9.01452C12.4473 9.14767 12.3503 9.27152 12.253 9.37788C12.0404 9.62842 11.7857 9.72959 11.8273 9.70492C11.6939 9.70579 11.6564 9.68697 11.6787 9.69555C11.6891 9.69969 11.7075 9.71273 11.7115 9.71693C11.5828 9.58712 11.4591 9.46528 11.3431 9.34811C10.9937 9.00321 10.7141 8.65173 10.6626 8.45555C10.6538 8.4321 10.6339 8.31934 10.6278 8.20573C10.6183 8.0543 10.6201 7.88003 10.6314 7.71316C10.637 7.63027 10.6455 7.54689 10.6551 7.4822C10.659 7.45349 10.6672 7.41807 10.6613 7.43924C10.6587 7.447 10.6565 7.45635 10.6425 7.49141C10.6338 7.51184 10.6273 7.52906 10.6017 7.57589C10.5873 7.60171 10.5683 7.6333 10.5383 7.67352C10.5107 7.70724 10.4662 7.77637 10.3293 7.87382C10.2624 7.91988 10.1728 7.96866 10.058 8.00099C9.93432 8.03843 9.74557 8.04916 9.59233 8.00898C9.43923 7.97384 9.29976 7.88626 9.23937 7.836C9.18209 7.79029 9.13998 7.74599 9.10716 7.70662C8.97585 7.53535 8.98357 7.50288 8.96143 7.45742C8.93108 7.37111 8.93516 7.36925 8.93006 7.34852C8.93897 7.36881 8.9468 7.56968 8.92809 7.71121C8.88834 8.06872 8.76562 8.41688 8.56881 8.68565C8.45297 8.84327 8.33849 8.99243 8.22178 9.13045C7.86463 9.55506 7.49374 9.8722 7.05413 10.0899C6.89792 10.1678 6.74273 10.2418 6.58803 10.3107C5.61557 10.7504 4.61106 10.9675 3.83891 10.6847C3.71306 10.6403 3.58943 10.5905 3.46885 10.5354C2.75574 10.2117 2.14532 9.69225 1.84318 9.07732C1.80515 9.00197 1.78566 8.94056 1.78412 8.92836C1.78904 8.90589 1.77054 9.01761 1.77997 8.98026C1.80865 8.92397 1.84155 8.87477 1.87068 8.84028C1.92505 8.77712 1.9501 8.76811 1.96411 8.76241C2.05777 8.73574 2.15201 8.71228 2.24624 8.6926C2.90902 8.55228 3.55602 8.59355 4.02975 8.8547C4.1087 8.89735 4.18664 8.94045 4.26345 8.98408C4.79715 9.28695 5.29362 9.62805 5.59369 9.98975C5.63393 10.0381 5.67308 10.0872 5.71091 10.1371C6.12983 10.6832 6.34217 11.2822 6.23575 11.7404C6.22495 11.792 6.21371 11.843 6.20204 11.8931C6.05292 12.5496 5.80468 13.0531 5.42983 13.3161C5.4076 13.3322 5.38501 13.3478 5.36231 13.3627C5.15483 13.5117 4.88832 13.5608 4.92195 13.5484C4.89603 13.5437 4.86838 13.5386 4.8431 13.5337C4.00832 13.3757 3.4642 13.0271 3.24867 12.4171C3.2418 12.3981 3.23487 12.3793 3.22791 12.3606C3.09891 12.0156 2.96879 11.7194 2.88282 11.4578C2.82307 11.2801 2.78855 11.1176 2.78709 11.0305C2.78912 10.9354 2.78965 10.9782 2.78272 10.9784C2.7934 10.9665 2.80406 10.9546 2.81469 10.9429C3.0512 10.6819 3.29909 10.4311 3.55059 10.2099C3.67587 10.0999 3.80323 9.99664 3.92129 9.91372C3.97958 9.87269 4.03682 9.83662 4.07584 9.81572C4.09371 9.79178 4.20515 9.801 3.93328 9.82682Z" fill="var(--stroke-0, #3B1B1B)"/>
</svg>
