<svg preserveAspectRatio="none" width="100%" height="100%" overflow="visible" style="display: block;" viewBox="0 0 5.30293 20.3973" fill="none" xmlns="http://www.w3.org/2000/svg">
<path id="Vector 122" d="M0.798639 0C0.573593 0.013648 0.363185 0.116136 0.213704 0.284919C0.0642227 0.453701 -0.0120876 0.674952 0.00156039 0.899999C0.0152084 1.12505 0.117697 1.33545 0.286479 1.48493C0.455262 1.63442 0.676513 1.71073 0.901559 1.69708C0.901559 1.69708 0.901559 1.69708 0.901559 1.69708C0.603519 1.71336 0.403343 1.57895 0.313554 1.50281C0.217209 1.41931 0.18649 1.36529 0.175768 1.352C0.145576 1.30815 0.133271 1.28291 0.125007 1.2665C0.110116 1.235 0.113862 1.24099 0.113963 1.24213C0.118052 1.2534 0.124811 1.27411 0.134264 1.30678C0.150351 1.36226 0.169614 1.43745 0.187045 1.50986C0.222407 1.65678 0.256836 1.81507 0.289992 1.97292C0.851291 4.78743 1.33053 7.68643 1.94279 10.5527C1.94775 10.576 1.95271 10.5993 1.95767 10.6225C1.95889 10.6282 1.96286 10.6453 1.96428 10.651C2.60555 13.2369 3.16072 15.8509 3.52326 18.4485C3.5319 18.5119 3.54273 18.5746 3.55575 18.6365L3.55204 18.6032C3.60201 18.8946 3.70027 19.1858 3.84904 19.4795C3.92953 19.6379 4.02475 19.7977 4.13508 19.9585C4.16259 19.9968 4.19124 20.0399 4.2208 20.0796C4.23565 20.1007 4.25063 20.1199 4.26626 20.1429C4.2702 20.1491 4.27398 20.1524 4.27826 20.162C4.28053 20.1675 4.28198 20.1653 4.28535 20.18C4.28663 20.1858 4.28696 20.1901 4.29215 20.211C4.29733 20.2239 4.29207 20.2333 4.32945 20.293C4.3497 20.3172 4.39824 20.3998 4.54674 20.3973C4.69075 20.3791 4.72473 20.2972 4.74128 20.2744C4.79728 20.1265 4.76331 20.1823 4.77026 20.1634C4.7639 20.1421 4.75636 20.1352 4.74911 20.1215C4.69016 20.0359 4.62637 19.9536 4.55888 19.8694C4.55485 19.8645 4.55072 19.8598 4.54611 19.8563C4.54148 19.8529 4.53659 19.8509 4.53154 19.8509C4.52649 19.8509 4.5216 19.8529 4.51697 19.8563C4.51235 19.8598 4.50823 19.8645 4.5042 19.8694C4.43661 19.9528 4.37328 20.0385 4.31313 20.1172C4.30562 20.1271 4.29789 20.1404 4.29067 20.1372C4.29749 20.1212 4.26308 20.1824 4.31872 20.0347C4.33522 20.012 4.36915 19.9301 4.51312 19.912C4.66156 19.9094 4.71006 19.992 4.73026 20.0161C4.76754 20.0757 4.76219 20.0848 4.76726 20.0973C4.77225 20.1174 4.77236 20.1202 4.77342 20.1241C4.77602 20.1314 4.77741 20.1276 4.77923 20.1271C4.78262 20.1234 4.78603 20.1197 4.78938 20.1149C4.80274 20.0951 4.816 20.0744 4.82896 20.0529C4.85497 20.0116 4.87984 19.9658 4.90387 19.9248C4.99967 19.7528 5.07854 19.579 5.14014 19.406C5.25387 19.0851 5.30884 18.7633 5.30242 18.4419C5.30131 18.4353 5.30008 18.4152 5.29872 18.4086C5.29497 18.3422 5.28856 18.2758 5.27949 18.2092C4.89921 15.4902 4.26454 12.8606 3.61373 10.2387L3.62034 10.2672C3.61546 10.2444 3.61058 10.2215 3.60571 10.1987C3.00128 7.36973 2.5316 4.52174 1.95395 1.62378C1.9187 1.45614 1.88199 1.28651 1.83988 1.11135C1.81881 1.02415 1.7951 0.929947 1.76751 0.834378C1.74963 0.773795 1.74019 0.740277 1.71039 0.657266C1.69396 0.614283 1.6902 0.599442 1.65189 0.518645C1.63328 0.481101 1.61106 0.438445 1.5714 0.380986C1.54064 0.379875 1.43964 0.0156029 0.798639 0Z" fill="var(--stroke-0, #3B1B1B)"/>
</svg>
