<svg preserveAspectRatio="none" width="100%" height="100%" overflow="visible" style="display: block;" viewBox="0 0 27.1498 44.5783" fill="none" xmlns="http://www.w3.org/2000/svg">
<path id="Vector 115" d="M19.6824 3.11733C19.6824 3.28413 19.7487 3.44409 19.8666 3.56203C19.9845 3.67998 20.1445 3.74624 20.3113 3.74624C20.4781 3.74624 20.6381 3.67998 20.756 3.56203C20.8739 3.44409 20.9402 3.28413 20.9402 3.11733C20.8864 2.55722 20.676 2.44953 20.5429 2.2715C20.3958 2.11386 20.2507 1.99177 20.1042 1.87738C19.8132 1.65243 19.5181 1.46653 19.2214 1.29393C18.6263 0.950236 18.0205 0.663074 17.4061 0.398237C17.406 0.398206 17.4059 0.398175 17.4059 0.398144C16.6659 0.0774019 15.854 -0.0313807 15.0859 0.00755638C13.1056 0.130026 11.3932 0.962278 9.827 1.83642C9.82341 1.83846 9.81982 1.8405 9.81624 1.84255C8.00801 2.82698 7.08723 4.85852 6.78291 6.63793C6.78242 6.64052 6.78193 6.6431 6.78144 6.64569C6.61624 7.49775 6.61083 8.62475 7.32013 9.50496C7.32553 9.51171 7.33097 9.51843 7.33645 9.52514C8.91269 11.331 11.2193 11.2252 13.0235 11.0364C13.0257 11.0361 13.028 11.0359 13.0302 11.0356C15.3682 10.6689 16.6489 8.81007 17.6033 7.20852C17.6059 7.20395 17.6085 7.19939 17.6111 7.19483C17.7851 6.89007 17.9232 6.57854 18.0211 6.25791C18.0699 6.09704 18.1083 5.93517 18.1336 5.76654C18.1461 5.68219 18.1553 5.59671 18.1598 5.50525C18.1619 5.45786 18.1631 5.41314 18.1613 5.3547C18.16 5.32395 18.1594 5.29677 18.1525 5.23903C18.1497 5.21883 18.1493 5.21045 18.1407 5.16667C18.1354 5.14188 18.1299 5.11323 18.1113 5.05638C18.1094 5.0517 18.0903 4.98684 18.0439 4.90265C17.9815 4.82888 17.9483 4.61301 17.4565 4.45643C17.2042 4.39039 16.9143 4.46767 16.7604 4.572C16.5979 4.6769 16.5255 4.78081 16.4775 4.85328C16.388 5.00049 16.3783 5.06667 16.3626 5.11833C16.3228 5.30297 16.3378 5.2906 16.3331 5.31885C16.3322 5.33869 16.3318 5.35445 16.3317 5.36914C16.3302 5.41126 16.3295 5.45454 16.3296 5.49896C16.545 14.9593 16.4757 24.3426 15.1049 33.6071C15.1039 33.6142 15.1028 33.6213 15.1017 33.6284C14.6121 37.5918 11.7063 40.5604 8.00567 42.3543C7.98875 42.3635 7.97163 42.3724 7.95431 42.3811C7.18291 42.7776 5.9751 42.651 4.81596 42.3584C4.79404 42.353 4.77222 42.3475 4.75051 42.3419C3.82917 42.106 2.9835 41.6357 2.49205 40.9853C2.48437 40.9752 2.47679 40.965 2.46931 40.9547C1.5331 39.6475 2.16433 37.1371 2.83322 35.0339C2.83882 35.0163 2.84453 34.9988 2.85036 34.9811C5.5359 29.0967 12.1788 25.0678 17.8552 21.0938L17.7676 21.1458C17.7887 21.1347 17.8097 21.1236 17.8308 21.1126C19.3577 20.3101 20.7962 19.3339 22.2128 18.3311C22.8659 17.8686 23.5148 17.4001 24.1655 16.9386C24.1717 16.9342 24.178 16.9298 24.1842 16.9253C25.1586 16.2345 26.1347 15.5467 27.1099 14.8573C27.1292 14.8437 27.1425 14.822 27.1476 14.7981C27.1526 14.7741 27.1489 14.7498 27.1368 14.7296C27.1247 14.7093 27.1049 14.6946 27.0814 14.6878C27.0579 14.681 27.0325 14.6826 27.0114 14.6932C27.0114 14.6932 27.0114 14.6932 27.0114 14.6932C25.9442 15.2293 24.8779 15.7668 23.8099 16.3015C23.8031 16.3049 23.7962 16.3083 23.7894 16.3117C23.0822 16.665 22.3599 16.9916 21.6345 17.3092C20.0608 17.998 18.4716 18.6457 16.954 19.4348C16.933 19.4457 16.9121 19.4566 16.8911 19.4675C16.8729 19.477 16.8205 19.508 16.8035 19.5194C11.0276 23.6304 4.39357 27.1261 0.985837 34.3644C0.977972 34.3882 0.970234 34.412 0.962623 34.4358C0.363754 36.6836 -0.823804 39.2826 0.883381 42.1113C0.89853 42.1321 0.913906 42.1528 0.929509 42.1733C1.79958 43.3041 3.041 43.9223 4.26165 44.2389C4.29056 44.2463 4.31957 44.2536 4.34867 44.2607C5.67112 44.5606 7.22132 44.8596 8.82284 44.0928C8.85768 44.0751 8.89236 44.0567 8.92686 44.0378C12.7314 42.233 16.457 38.4937 16.9493 33.9024C16.9503 33.8951 16.9514 33.8879 16.9525 33.8806C18.3321 24.4532 18.3861 14.9037 18.1577 5.49201C18.1575 5.4497 18.1566 5.40873 18.1551 5.36914C18.155 5.37407 18.1548 5.38147 18.1542 5.3943C18.1498 5.41648 18.1653 5.39263 18.1272 5.57081C18.1118 5.62101 18.1025 5.68612 18.0134 5.83266C17.9657 5.90479 17.8935 6.00846 17.7312 6.11321C17.5776 6.2174 17.2879 6.29463 17.0359 6.22865C16.5446 6.0722 16.512 5.85691 16.4501 5.78417C16.4042 5.70077 16.3861 5.63848 16.3842 5.63415C16.3666 5.58001 16.362 5.55508 16.3577 5.53498C16.351 5.5005 16.3513 5.49736 16.3498 5.48657C16.3471 5.46007 16.3491 5.46567 16.3499 5.46758C16.3522 5.47503 16.3548 5.49234 16.3572 5.5109C16.362 5.54819 16.366 5.59238 16.3691 5.63696C16.3753 5.72693 16.3777 5.82083 16.3735 5.91357C16.3656 6.09865 16.3303 6.2808 16.2499 6.42726C16.2476 6.43137 16.2454 6.43548 16.2431 6.43958C15.4216 7.91208 14.2352 9.35096 12.8421 9.51987C12.8402 9.52012 12.8382 9.52036 12.8362 9.52061C11.1934 9.72968 9.36369 9.59912 8.52841 8.55151C8.52597 8.54853 8.52355 8.54554 8.52115 8.54254C8.22103 8.18389 8.15255 7.58777 8.27963 6.9273C8.28006 6.92502 8.28049 6.92273 8.28092 6.92044C8.56456 5.31846 9.26751 3.87976 10.5704 3.15723C10.573 3.15571 10.5757 3.15418 10.5783 3.15266C12.0701 2.30307 13.6005 1.4651 15.1724 1.31044C15.7801 1.25477 16.3776 1.32382 16.9092 1.55374C16.9093 1.55377 16.9093 1.5538 16.9094 1.55383C17.4909 1.80422 18.0598 2.07529 18.5906 2.38213C18.8541 2.53502 19.1108 2.69887 19.3327 2.87081C19.4434 2.95666 19.546 3.04623 19.6204 3.12656C19.699 3.18535 19.7198 3.34647 19.6824 3.11733Z" fill="var(--stroke-0, #3B1B1B)"/>
</svg>
