<svg preserveAspectRatio="none" width="100%" height="100%" overflow="visible" style="display: block;" viewBox="0 0 14.911 8.53973" fill="none" xmlns="http://www.w3.org/2000/svg">
<path id="Vector 61" d="M2.23254 2.03907C2.23254 2.35453 2.35786 2.65707 2.58092 2.88014C2.80399 3.1032 3.10653 3.22852 3.422 3.22852C3.73746 3.22852 4.04 3.1032 4.26307 2.88014C4.48613 2.65707 4.61145 2.35453 4.61145 2.03907C4.61037 1.94283 4.60504 1.82461 4.55074 1.65285C4.4834 1.43331 4.28665 1.10292 3.91397 0.929859C3.52924 0.765116 3.32605 0.815602 3.1708 0.836005C3.00242 0.871292 2.96675 0.892475 2.89414 0.921797C2.6733 1.02623 2.63583 1.07278 2.56884 1.12125C2.46181 1.20781 2.41011 1.26086 2.35269 1.31822C2.24841 1.42458 2.16884 1.51621 2.09195 1.6069C1.94168 1.7852 1.80782 1.9583 1.67941 2.12972C1.23025 2.73277 0.834601 3.3331 0.449825 3.9459C0.428871 3.97936 0.408605 4.013 0.389036 4.04683C-0.190093 4.87193 -0.0532759 6.34219 0.348042 6.98229C0.360848 7.00833 0.373972 7.03423 0.387719 7.06047C0.663051 7.70344 1.59827 8.49884 2.47097 8.53137C2.49042 8.53344 2.50982 8.5353 2.52917 8.53697C3.65574 8.58118 4.34499 8.08792 5.12283 7.53511C5.12359 7.53452 5.12436 7.53394 5.12512 7.53335C6.09224 6.86035 6.66278 5.479 6.59592 4.38372C6.58469 3.29624 6.19484 2.24823 6.02388 1.61121L5.69874 2.69272C5.68385 2.70681 5.6766 2.71164 5.67711 2.71134C6.93279 2.16834 9.79041 1.94575 11.9929 1.77783C11.997 1.77798 12.0095 1.7772 12.0136 1.77725C12.0287 1.7759 12.0436 1.77455 12.0585 1.77319C12.5212 1.73059 12.9882 1.6242 13.4515 1.48294C13.8578 1.36035 14.2624 1.20091 14.6379 1.05717C14.7271 1.02333 14.8042 0.94896 14.8542 0.859305C14.904 0.769135 14.9225 0.67104 14.9038 0.577731C14.8852 0.484422 14.8304 0.400991 14.7497 0.336922C14.6691 0.273368 14.5693 0.234403 14.4739 0.237469C14.4739 0.237469 14.4739 0.237469 14.4739 0.237469C14.0705 0.253179 13.6914 0.231543 13.3071 0.194935C12.8702 0.154151 12.4291 0.103069 11.9881 0.0988872C11.9739 0.0987526 11.9597 0.0986103 11.9453 0.0984604L11.966 0.0978731C9.51203 0.139937 7.48368 -0.454792 4.39289 0.865016C4.32254 0.913788 4.23892 0.97878 4.16182 1.0514C3.91456 1.2845 3.75672 1.80264 3.83668 2.13291C4.4685 4.02194 4.86707 5.24112 3.90737 5.94682C3.90698 5.94712 3.90659 5.94742 3.90619 5.94772C3.61125 6.18446 2.95147 6.13312 2.74297 6.0971C2.73984 6.09679 2.73693 6.09647 2.73424 6.09614C2.66696 6.08597 2.67837 6.08241 2.67014 6.07846C2.6632 6.07376 2.61776 6.03191 2.56076 5.92218C2.5562 5.91347 2.5516 5.90451 2.54688 5.89512C2.34527 5.4422 2.33859 5.49865 2.44813 5.23819C2.45361 5.22871 2.45954 5.21885 2.46596 5.2086C2.82509 4.63605 3.19789 4.073 3.58434 3.55465C3.69322 3.40911 3.8055 3.26494 3.90939 3.14186C3.96094 3.0807 4.01366 3.02181 4.04747 2.98763C4.06276 2.97149 4.0796 2.95842 4.05065 2.98228C4.02508 2.99817 4.02619 3.01616 3.85094 3.0998C3.79105 3.12374 3.76253 3.14201 3.60931 3.17415C3.46717 3.19229 3.27485 3.24231 2.9024 3.08298C2.5412 2.91549 2.35113 2.59418 2.28835 2.38825C2.23739 2.22684 2.2336 2.12065 2.23254 2.03907Z" fill="var(--stroke-0, #4C3131)"/>
</svg>
