<svg preserveAspectRatio="none" width="100%" height="100%" overflow="visible" style="display: block;" viewBox="0 0 1.3951 1.39512" fill="none" xmlns="http://www.w3.org/2000/svg">
<path id="Vector 112" d="M0.143371 0.024599C0.127621 0.00884874 0.106259 2.08616e-07 0.0839852 0C0.0617111 -2.16067e-07 0.0403493 0.00884791 0.024599 0.0245979C0.00884874 0.0403479 2.08616e-07 0.0617095 0 0.0839836C-2.16067e-07 0.106258 0.00884791 0.127619 0.0245979 0.14337C0.0245979 0.14337 0.0245979 0.14337 0.0245979 0.14337C0.0450501 0.163822 0.0655023 0.184275 0.0859545 0.204727C0.454094 0.572874 0.822233 0.94102 1.19037 1.30917C1.21082 1.32962 1.23128 1.35007 1.25173 1.37052C1.26748 1.38627 1.28884 1.39512 1.31111 1.39512C1.33339 1.39512 1.35475 1.38628 1.3705 1.37053C1.38625 1.35478 1.3951 1.33341 1.3951 1.31114C1.3951 1.28887 1.38625 1.2675 1.3705 1.25175C1.3705 1.25175 1.3705 1.25175 1.3705 1.25175C1.35005 1.2313 1.3296 1.21085 1.30915 1.1904C0.941006 0.82225 0.572867 0.454103 0.204727 0.0859568C0.184275 0.0655042 0.163823 0.0450516 0.143371 0.024599Z" fill="var(--stroke-0, #3B1B1B)"/>
</svg>
