<svg preserveAspectRatio="none" width="100%" height="100%" overflow="visible" style="display: block;" viewBox="0 0 2.61678 12.5716" fill="none" xmlns="http://www.w3.org/2000/svg">
<path id="Vector 97" d="M0.914631 0.850568C0.914631 1.07629 1.0043 1.29276 1.1639 1.45237C1.32351 1.61198 1.53999 1.70164 1.76571 1.70164C1.99142 1.70164 2.2079 1.61198 2.36751 1.45237C2.52711 1.29276 2.61678 1.07629 2.61678 0.850568C2.61678 0.850553 2.61678 0.850587 2.61678 0.850406C2.61678 0.850344 2.61678 0.850295 2.61678 0.85003C2.61678 0.849858 2.61678 0.849775 2.61678 0.848966C2.61677 0.848159 2.61679 0.849061 2.61675 0.843809C2.6167 0.841053 2.61685 0.843219 2.61643 0.826037C2.61609 0.81917 2.61664 0.818085 2.61405 0.782447C2.61312 0.771963 2.61238 0.759837 2.60806 0.729044C2.60559 0.712852 2.60292 0.692989 2.59339 0.652405C2.57616 0.606058 2.59167 0.56518 2.46231 0.361619C2.39509 0.273686 2.22711 0.0342755 1.8089 0.000582576C1.38322 -0.0138071 1.15881 0.242255 1.08676 0.337371C0.93819 0.556489 0.958621 0.598651 0.939247 0.647351C0.920644 0.728221 0.922 0.742664 0.919263 0.761888C0.912028 0.850873 0.915743 0.821945 0.914783 0.834458C0.914578 0.847579 0.914666 0.844694 0.91464 0.84664C0.914623 0.852257 0.914634 0.849242 0.914631 0.850036C0.914631 0.85024 0.914631 0.850136 0.914631 0.850138C0.914631 0.850098 0.914631 0.850053 0.914631 0.850032C0.914631 0.849987 0.914631 0.850019 0.914631 0.850134C0.914631 0.850363 0.91463 0.850921 0.914627 0.85181C0.914619 0.854521 0.91462 0.853976 0.914615 0.855259C0.914607 0.857189 0.914595 0.859651 0.914578 0.862643C0.914532 0.870269 0.914512 0.872741 0.914465 0.878572C0.91437 0.890119 0.914253 0.901336 0.914127 0.912089C0.913822 0.937608 0.913556 0.955796 0.913121 0.982027C0.91238 1.02626 0.911425 1.07283 0.910252 1.12208C0.908034 1.21502 0.905269 1.30849 0.901986 1.40495C0.840182 3.09199 0.683488 4.79759 0.483034 6.49328C0.4828 6.49525 0.482566 6.49722 0.482331 6.49919L0.483643 6.48873C0.33515 7.6407 0.152665 8.78173 0.00895903 9.97305C0.00841266 9.97768 0.00787994 9.98231 0.0073607 9.98695C0.00605869 9.997 0.00350419 10.0272 0.00280711 10.0374C-0.0272648 10.6682 0.193708 11.1872 0.215622 11.7287C0.221647 11.901 0.204532 12.0719 0.141112 12.2262C0.119475 12.2721 0.117269 12.3315 0.129381 12.3867C0.141817 12.4421 0.167566 12.4888 0.206562 12.521C0.245559 12.5532 0.296218 12.5697 0.352997 12.5715C0.40945 12.573 0.467384 12.5597 0.508455 12.5298C0.508455 12.5298 0.508455 12.5298 0.508455 12.5298C0.693408 12.3834 0.85434 12.2015 0.992039 12.0081C1.41409 11.4086 1.65045 10.703 1.68905 10.1388L1.6845 10.1893C1.68507 10.1848 1.68563 10.1804 1.68617 10.176C1.829 9.04637 2.02036 7.87986 2.17122 6.71099C2.17149 6.7089 2.17228 6.70262 2.17253 6.70053C2.17277 6.69852 2.17301 6.69651 2.17325 6.69451C2.37783 4.9615 2.53828 3.22721 2.60315 1.4629C2.6066 1.36131 2.60954 1.26238 2.61192 1.16263C2.61318 1.10974 2.61421 1.05932 2.61503 1.01052C2.61551 0.981525 2.61581 0.961286 2.61616 0.932037C2.6163 0.919668 2.61644 0.906632 2.61656 0.892591C2.61661 0.885436 2.61664 0.882503 2.6167 0.87251C2.61672 0.868545 2.61674 0.865112 2.61675 0.862213C2.61676 0.860203 2.61675 0.861316 2.61677 0.856584C2.61677 0.854935 2.61678 0.853618 2.61678 0.852637C2.61678 0.852146 2.61678 0.851739 2.61678 0.851422C2.61678 0.851265 2.61678 0.851125 2.61678 0.851032C2.61678 0.851008 2.61678 0.850887 2.61678 0.851086C2.61678 0.851879 2.61679 0.848862 2.61677 0.85448C2.61674 0.856425 2.61683 0.85354 2.61663 0.866662C2.61567 0.879174 2.61938 0.850247 2.61215 0.939232C2.60941 0.958455 2.61077 0.972899 2.59216 1.05377C2.57279 1.10247 2.59322 1.14463 2.44465 1.36375C2.3726 1.45886 2.14819 1.71493 1.72251 1.70054C1.3043 1.66684 1.13632 1.42743 1.0691 1.3395C0.939745 1.13594 0.95525 1.09506 0.93802 1.04871C0.928492 1.00813 0.925819 0.988267 0.92335 0.972076C0.919033 0.941283 0.918287 0.929157 0.917361 0.918673C0.914767 0.883034 0.91532 0.881949 0.914984 0.875083C0.914558 0.8579 0.91471 0.860067 0.914658 0.85731C0.914623 0.852058 0.914637 0.852961 0.914632 0.852154C0.914631 0.851344 0.914631 0.851262 0.914631 0.85109C0.914631 0.850826 0.914631 0.850777 0.914631 0.850715C0.914631 0.850537 0.914631 0.850576 0.914631 0.850568Z" fill="var(--stroke-0, #3B1B1B)"/>
</svg>
