<svg preserveAspectRatio="none" width="100%" height="100%" overflow="visible" style="display: block;" viewBox="0 0 22.0271 13.7975" fill="none" xmlns="http://www.w3.org/2000/svg">
<path id="Vector 139" d="M0.347872 13.3003C0.454535 13.5136 0.641588 13.6759 0.867882 13.7513C1.09417 13.8268 1.34117 13.8092 1.55453 13.7026C1.7679 13.5959 1.93015 13.4089 2.0056 13.1826C2.08105 12.9563 2.06351 12.7093 1.95685 12.4959C1.95685 12.4959 1.95685 12.4959 1.95685 12.4959C1.87332 12.3315 1.80988 12.1916 1.79679 12.1389C1.78506 12.0628 1.81686 12.2535 1.72266 12.3695C1.71156 12.3851 1.70148 12.3965 1.69362 12.4046C2.22488 11.8662 3.03092 11.3608 3.81473 10.9125C7.34226 8.96529 11.2433 7.47537 15.0415 5.77571C15.5112 5.56706 15.9876 5.35239 16.4556 5.1365C16.5935 5.07291 16.7065 5.02096 16.8126 4.97361C16.8377 4.96234 16.8803 4.94405 16.8735 4.94703C16.8583 4.94911 16.93 4.93821 16.7284 4.98904C16.6903 4.9952 16.6466 5.00811 16.5202 5.00561C16.4551 5.00165 16.3652 4.99942 16.2115 4.93957C16.0667 4.88602 15.8088 4.71269 15.7016 4.41526C15.5937 4.12039 15.6616 3.87812 15.7101 3.75748C15.7631 3.62997 15.8112 3.57104 15.846 3.52613C15.9163 3.44149 15.9508 3.41702 15.9775 3.39397C16.0753 3.31913 16.0346 3.35215 16.0564 3.33644C16.092 3.31392 16.0939 3.31397 16.0955 3.31285C16.0941 3.31367 16.0765 3.32287 16.0687 3.32686C16.0222 3.35084 15.9591 3.38241 15.903 3.41027C15.6735 3.52419 15.413 3.65112 15.1874 3.76092C14.7056 3.99525 14.2256 4.22719 13.7423 4.46032C12.7727 4.928 11.8142 5.38851 10.8454 5.85319C8.91474 6.77893 6.98146 7.70335 5.0494 8.62112C4.77434 8.75173 4.50404 8.87987 4.24397 9.00286C4.04968 9.09476 3.87891 9.17625 3.73004 9.24808C3.51715 9.35131 3.41699 9.3992 3.19109 9.51479C3.0699 9.59282 3.13761 9.4916 2.73006 9.81511C2.68074 9.88092 2.57235 9.9245 2.4767 10.2839C2.43228 10.4597 2.46279 10.7859 2.6333 11.0067C2.79884 11.2292 2.98788 11.3051 3.09976 11.3417C3.52858 11.4343 3.50285 11.3592 3.51688 11.3744C3.54466 11.3704 3.56584 11.3664 3.58433 11.3625C3.62096 11.3548 3.64723 11.3479 3.67186 11.3411C3.71654 11.3288 3.77396 11.3099 3.79536 11.3027C3.84067 11.2875 3.8886 11.2706 3.94152 11.2513C4.13584 11.1803 4.33019 11.1038 4.48936 11.0409C5.19762 10.7598 5.88843 10.4736 6.58383 10.1853C7.97623 9.60678 9.34715 9.02946 10.7303 8.44601C13.4738 7.29279 16.295 6.07507 18.9539 4.98649C19.0642 4.94651 19.1497 4.91609 19.2282 4.89045C19.239 4.8868 19.2694 4.87774 19.2578 4.88116C19.255 4.88188 19.25 4.88321 19.2409 4.88533C19.2336 4.88667 19.2422 4.88614 19.1902 4.89509C19.1659 4.89867 19.1342 4.90407 19.069 4.90577C18.9999 4.90043 18.9107 4.92713 18.6487 4.81424C18.5226 4.75506 18.3236 4.61795 18.2069 4.36938C18.087 4.12197 18.1086 3.85072 18.1566 3.70208C18.18 3.62401 18.2078 3.56551 18.2332 3.51893C18.2503 3.48822 18.2608 3.47178 18.2737 3.45221C18.2984 3.41519 18.3203 3.38746 18.3396 3.36467C18.4166 3.27666 18.4553 3.25117 18.4841 3.22803C18.5391 3.18735 18.5543 3.18077 18.5647 3.17433C18.5914 3.16016 18.5245 3.19409 18.4938 3.20787C18.3266 3.28523 18.1201 3.37401 17.9378 3.45182C14.761 4.77199 11.4941 6.06739 8.25844 7.08477C7.76381 7.23328 7.22682 7.34185 6.69095 7.41937C6.63653 7.42717 6.58273 7.43451 6.52888 7.44147C6.50187 7.44496 6.47628 7.44817 6.44847 7.45154C6.4359 7.45306 6.42221 7.4547 6.40831 7.45633C6.40134 7.45714 6.3954 7.45783 6.38749 7.45875C6.38367 7.45919 6.38136 7.45946 6.37546 7.46015C6.3537 7.46367 6.42228 7.45139 6.29031 7.4733L6.80545 9.28027C7.30726 9.09274 7.80197 8.89387 8.29139 8.68846C10.9061 7.60059 13.3927 6.2527 15.8783 5.33211C15.8865 5.32918 15.9107 5.31986 15.9187 5.31658C16.1355 5.22782 16.3531 5.13646 16.5706 5.04162C17.5679 4.60804 18.5333 4.04335 19.3902 3.34035C20.4992 2.43458 21.4233 1.29338 22.0251 0.0224647C22.0267 0.019277 22.0275 0.0156831 22.027 0.0121365C22.0265 0.00859175 22.0249 0.00541408 22.0223 0.00320416C22.0197 0.000994242 22.0162 -0.000119299 22.0127 1.01281e-05C22.0091 0.000137718 22.0057 0.00152697 22.0028 0.00353541C22.0028 0.00353541 22.0028 0.00353541 22.0028 0.00353541C20.8519 0.805975 19.6947 1.44613 18.5296 2.01721C17.6278 2.45919 16.7202 2.858 15.7943 3.26111C15.5921 3.34927 15.388 3.43522 15.1811 3.52039L15.2215 3.50486C12.4873 4.52964 10.0795 5.88963 7.55663 6.94857C7.08762 7.14788 6.61703 7.33782 6.14485 7.51477C5.0935 7.90817 5.55925 9.5419 6.65999 9.32174C6.53237 9.34293 6.61032 9.3296 6.59545 9.3323C6.59895 9.33189 6.60161 9.33158 6.60528 9.33115C6.61333 9.33021 6.62036 9.32939 6.62845 9.32843C6.64475 9.32651 6.66118 9.32454 6.67613 9.32271C6.70924 9.31867 6.73943 9.31485 6.77109 9.31074C6.83418 9.30254 6.8964 9.29399 6.95911 9.28496C7.57463 9.19491 8.18219 9.07408 8.80281 8.88808C12.2003 7.81612 15.419 6.53425 18.6746 5.17809C18.8666 5.09574 19.0725 5.0075 19.2863 4.90833C19.3369 4.88406 19.3915 4.86087 19.4953 4.80304C19.5231 4.78663 19.5513 4.77184 19.6148 4.72476C19.6479 4.69842 19.6897 4.67019 19.7686 4.57989C19.7884 4.55653 19.8107 4.52826 19.8357 4.49073C19.8488 4.47088 19.8594 4.45424 19.8767 4.42323C19.9024 4.37618 19.9303 4.31724 19.9539 4.23877C20.0022 4.08931 20.0237 3.81735 19.9035 3.56934C19.7865 3.32016 19.587 3.18255 19.46 3.12297C19.1964 3.0093 19.1045 3.03564 19.0316 3.03038C18.9626 3.03215 18.9261 3.03806 18.8958 3.04259C18.8283 3.05419 18.8322 3.05501 18.821 3.05717C18.8031 3.0613 18.7882 3.06511 18.7744 3.0688C18.7225 3.08262 18.6678 3.10042 18.6484 3.10675C18.5212 3.14866 18.4348 3.18017 18.3123 3.22463C15.4705 4.39082 12.7731 5.57179 10.0087 6.74428C8.62927 7.33184 7.26196 7.91319 5.87825 8.49269C5.18859 8.78097 4.49884 9.06867 3.81512 9.34179C3.66359 9.40208 3.47378 9.4769 3.31494 9.53522C3.2726 9.55073 3.23775 9.56304 3.21339 9.57126C3.20126 9.57548 3.17532 9.58354 3.18111 9.58175C3.18338 9.58118 3.19059 9.57899 3.21154 9.57457C3.2222 9.57237 3.23638 9.56958 3.25803 9.56646C3.27458 9.58133 3.22576 9.50984 3.64767 9.59951C3.75759 9.63558 3.94525 9.71059 4.10998 9.93197C4.27967 10.1516 4.30994 10.4764 4.26585 10.6507C4.17087 11.0068 4.06546 11.0461 4.02146 11.1065C3.91477 11.2057 3.93959 11.176 3.92972 11.1859C3.92523 11.1892 3.92137 11.192 3.91801 11.1943C3.9113 11.199 3.90658 11.2022 3.90321 11.2044C3.89652 11.2088 3.89511 11.2095 3.89677 11.2085C3.90019 11.2064 3.91625 11.1971 3.93865 11.1849C3.96167 11.1723 3.99248 11.1559 4.02993 11.1365C4.22017 11.0388 4.32177 10.9895 4.52441 10.891C4.66759 10.8217 4.83412 10.7419 5.02487 10.6514C5.28574 10.5276 5.55658 10.3989 5.8321 10.2678C7.76693 9.34682 9.70051 8.42141 11.6327 7.49427C12.6023 7.0289 13.5615 6.56776 14.533 6.09888C15.0173 5.86508 15.4982 5.63252 15.9834 5.39636C16.2112 5.28539 16.4719 5.15829 16.7127 5.03863C16.7728 5.00871 16.8376 4.97641 16.9029 4.94271C16.9163 4.93573 16.9344 4.92662 16.9697 4.90735C16.9872 4.89752 17.0006 4.89099 17.0429 4.86408C17.0669 4.84692 17.0256 4.88052 17.1275 4.8026C17.1548 4.77899 17.1898 4.75404 17.2604 4.66902C17.2954 4.62393 17.3436 4.56482 17.3967 4.43717C17.4452 4.31639 17.5131 4.074 17.4051 3.77902C17.2979 3.48149 17.0399 3.30809 16.895 3.25449C16.7412 3.19458 16.6511 3.19232 16.5858 3.18835C16.459 3.18584 16.4145 3.19882 16.3756 3.20515C16.172 3.25534 16.2035 3.26045 16.1931 3.26066C16.1542 3.27634 16.1042 3.29854 16.0727 3.31255C15.948 3.36833 15.8354 3.42023 15.6934 3.48572C15.2356 3.69723 14.7669 3.90873 14.3032 4.11506C10.5363 5.80663 6.665 7.28249 2.92389 9.34801C2.07319 9.84396 1.21119 10.3471 0.402632 11.152C0.352759 11.2034 0.304668 11.2599 0.258889 11.324C-0.0644884 11.7456 -0.0283146 12.3513 0.0659097 12.6286C0.15649 12.936 0.265347 13.1304 0.347872 13.3003Z" fill="var(--stroke-0, #3B1B1B)"/>
</svg>
