<svg preserveAspectRatio="none" width="100%" height="100%" overflow="visible" style="display: block;" viewBox="0 0 11.9279 31.6719" fill="none" xmlns="http://www.w3.org/2000/svg">
<path id="Vector 7" d="M4.01506 12.9015C3.7221 13.1071 3.42914 13.3127 3.13617 13.5183C3.54737 14.1042 3.95858 14.6901 4.36978 15.2761C4.66274 15.0705 4.95571 14.8649 5.24867 14.6593C5.88928 14.2107 6.53332 13.7311 7.14957 13.2174C8.43019 12.1519 9.61335 10.9306 10.5913 9.53709C10.6051 9.51738 10.6189 9.49762 10.6327 9.47782C12.2833 7.26398 12.1992 4.08797 11.2576 1.81941C11.2566 1.81643 11.2555 1.81347 11.2545 1.81054C11.089 1.38017 10.8721 0.933475 10.4323 0.542871C10.011 0.150642 9.25079 -0.104853 8.60432 0.0419631C8.58587 0.0456908 8.56746 0.0496277 8.5491 0.0537711C5.22517 0.995024 4.46546 3.88628 3.71365 5.85943C3.01702 7.97762 2.61624 10.0835 2.0916 11.9537C2.08608 11.9731 2.07193 12.032 2.0675 12.0517C2.05322 12.1155 2.03905 12.1793 2.025 12.2432C1.02644 16.8151 0.478435 21.4147 0.0467043 25.9704C0.0459188 25.9786 0.0438385 26.0034 0.0432359 26.0116C0.0420591 26.0278 0.0409037 26.0439 0.0397693 26.0602C-0.002689 26.6847 -0.00586915 27.2592 0.00593555 27.8309C0.0236681 28.617 0.0756903 29.3855 0.162787 30.1527C0.22052 30.6591 0.262694 31.1655 0.310492 31.6719C1.32791 31.6719 2.34532 31.6719 3.36274 31.6719C3.41054 31.1655 3.45271 30.6591 3.51044 30.1527C3.59801 29.3862 3.64766 28.6226 3.68391 27.877C3.71069 27.3381 3.72978 26.8044 3.76312 26.3203C3.76399 26.3078 3.76487 26.2955 3.76576 26.2832L3.76229 26.3245C4.18835 21.8161 4.67927 17.3443 5.56932 12.9991C5.58181 12.9385 5.59435 12.878 5.60694 12.8176L5.58284 12.9157C6.14765 10.7536 6.44078 8.72641 6.95622 6.84207C7.43158 4.99059 8.29529 3.20766 9.24817 3.01648C9.24414 3.01724 9.24004 3.01798 9.23588 3.01867C9.08326 3.05473 8.85602 2.92082 8.8454 2.82099C8.82008 2.72008 8.90962 2.70042 8.93079 2.73721C8.93206 2.74008 8.93332 2.74295 8.93458 2.74584C9.82441 4.63935 9.99887 6.66901 8.86969 8.25162C8.85773 8.26884 8.84574 8.28602 8.83372 8.30315C7.98387 9.51426 6.93831 10.5997 5.77551 11.5671C5.21493 12.0342 4.62705 12.4729 4.01506 12.9015Z" fill="var(--stroke-0, black)"/>
</svg>
