<svg preserveAspectRatio="none" width="100%" height="100%" overflow="visible" style="display: block;" viewBox="0 0 1.10189 2.329" fill="none" xmlns="http://www.w3.org/2000/svg">
<path id="Vector 130" d="M0.475751 0.166932C0.455275 0.105505 0.411234 0.0547288 0.35332 0.0257728C0.295405 -0.00318329 0.228359 -0.00794679 0.166932 0.0125302C0.105505 0.0330071 0.0547288 0.0770472 0.0257727 0.134962C-0.00318329 0.192877 -0.00794679 0.259922 0.0125302 0.321349C0.0125302 0.321349 0.0125302 0.321349 0.0125302 0.321349C0.022757 0.352028 0.0329839 0.382707 0.0432108 0.413385C0.227295 0.965601 0.411378 1.51782 0.595462 2.07003C0.605689 2.10071 0.615916 2.13139 0.626143 2.16207C0.64662 2.2235 0.69066 2.27427 0.748574 2.30323C0.806489 2.33219 0.873535 2.33695 0.934962 2.31647C0.996389 2.29599 1.04717 2.25196 1.07612 2.19404C1.10508 2.13613 1.10984 2.06908 1.08936 2.00765C1.08936 2.00765 1.08936 2.00765 1.08936 2.00765C1.07914 1.97697 1.06891 1.9463 1.05868 1.91562C0.8746 1.3634 0.690516 0.811184 0.506432 0.258968C0.496205 0.22829 0.485978 0.197611 0.475751 0.166932Z" fill="var(--stroke-0, #3B1B1B)"/>
</svg>
