<svg preserveAspectRatio="none" width="100%" height="100%" overflow="visible" style="display: block;" viewBox="0 0 44.9592 26.3034" fill="none" xmlns="http://www.w3.org/2000/svg">
<path id="Vector 109" d="M0.0733775 25.246C-0.0116353 25.422 -0.0232683 25.6245 0.0410375 25.809C0.105343 25.9936 0.240321 26.145 0.416276 26.23C0.592231 26.315 0.79475 26.3267 0.979282 26.2624C1.16381 26.198 1.31524 26.0631 1.40026 25.8871C1.40026 25.8871 1.40026 25.8871 1.40026 25.8871C1.78564 25.0895 2.20002 24.3082 2.6418 23.5427C8.79936 13.07 19.4879 5.55469 30.9811 1.83637L30.8537 1.8628C30.8687 1.86105 30.8838 1.8593 30.8989 1.85755C33.7937 1.53701 36.7407 1.26421 39.6783 1.02827C39.686 1.02768 39.6937 1.02708 39.7013 1.02649C40.6214 0.960483 41.514 0.818261 42.3779 0.889487C43.2263 0.95528 44.0764 1.28535 44.8892 1.67912C44.9 1.68432 44.9129 1.68497 44.9248 1.68142C44.9367 1.67783 44.9466 1.67035 44.9527 1.6601C44.9588 1.64986 44.9607 1.63754 44.9581 1.62535C44.9556 1.6132 44.9489 1.60217 44.9392 1.5952C44.9392 1.5952 44.9392 1.5952 44.9392 1.5952C44.2017 1.07108 43.4303 0.540761 42.4954 0.274538C41.5413 0.00444788 40.5768 -0.00126442 39.6566 0.000122696C39.6489 0.000198901 39.6411 0.000276059 39.6334 0.000354141C36.6715 0.034566 33.7088 0.064288 30.7295 0.393682C30.7139 0.395488 30.6983 0.397299 30.6828 0.399113C30.6565 0.402177 30.5807 0.417913 30.5554 0.425544C18.6815 4.28088 7.7954 11.9121 1.36546 22.8061C0.906116 23.6021 0.474813 24.4152 0.0733775 25.246Z" fill="var(--stroke-0, #3B1B1B)"/>
</svg>
