<svg preserveAspectRatio="none" width="100%" height="100%" overflow="visible" style="display: block;" viewBox="0 0 3.33903 39.0302" fill="none" xmlns="http://www.w3.org/2000/svg">
<path id="Vector 110" d="M2.77122 0.534827C2.73649 0.361702 2.63441 0.209464 2.48744 0.111604C2.34046 0.0137444 2.16063 -0.0217221 1.98751 0.0130074C1.81438 0.0477369 1.66215 0.149817 1.56429 0.296792C1.46643 0.443767 1.43096 0.623597 1.46569 0.796722C1.46569 0.796722 1.46569 0.796722 1.46569 0.796722C1.57181 1.35327 1.6323 1.99972 1.68617 2.61433C2.14558 8.9204 2.05672 15.3064 1.76345 21.6516C1.76341 21.6525 1.76337 21.6533 1.76333 21.6542L1.76934 21.5919C1.20454 25.6683 0.485627 29.657 0.0977585 33.8408C0.0976289 33.843 0.0975003 33.8452 0.0973727 33.8473L0.100325 33.8122C-0.0320783 34.7566 -0.0416283 35.8646 0.121117 36.8462C0.220918 37.4985 0.368228 38.1298 0.547966 38.7556C0.57212 38.8387 0.621496 38.9146 0.693041 38.9657C0.764524 39.0168 0.851319 39.0389 0.936156 39.027C1.02099 39.0151 1.09833 38.9699 1.15298 38.9011C1.20769 38.8323 1.23424 38.7457 1.23459 38.6592C1.23459 38.6592 1.23459 38.6592 1.23459 38.6592C1.23715 38.0199 1.23828 37.3918 1.25142 36.7699C1.2661 35.803 1.34556 34.9535 1.47975 33.9634C1.48052 33.9564 1.4823 33.9353 1.48271 33.9283C1.48282 33.9263 1.48293 33.9244 1.48305 33.9224C1.85209 29.9404 2.5241 25.8362 3.08726 21.7819C3.08905 21.7694 3.09265 21.7321 3.09327 21.7196C3.09331 21.7187 3.09335 21.7179 3.09339 21.717C3.38786 15.3194 3.48074 8.93369 3.01292 2.50148C2.95551 1.86002 2.90116 1.22348 2.77122 0.534827Z" fill="var(--stroke-0, #3B1B1B)"/>
</svg>
