<svg preserveAspectRatio="none" width="100%" height="100%" overflow="visible" style="display: block;" viewBox="0 0 25.1465 28.083" fill="none" xmlns="http://www.w3.org/2000/svg">
<path id="Vector 111" d="M0 0.823426C0 0.965618 0.0564853 1.10199 0.15703 1.20253C0.257574 1.30307 0.393942 1.35956 0.536133 1.35956C0.678324 1.35956 0.814692 1.30307 0.915236 1.20253C1.01578 1.10199 1.07227 0.965618 1.07227 0.823426C1.0721 0.778984 1.07292 0.743863 1.07387 0.735891C1.06351 0.730692 1.11377 0.745734 0.971711 0.928818C0.894617 1.02034 0.731433 1.07606 0.656465 1.07196C0.575881 1.07267 0.547706 1.05915 0.531835 1.05479C0.503732 1.04397 0.521754 1.04998 0.539159 1.06188C0.541182 1.06317 0.543333 1.06456 0.545605 1.06605C1.30897 1.55781 1.78863 2.42169 2.088 3.37666C3.12891 7.30687 2.83421 11.6886 3.00647 15.9174C3.01163 16.1283 3.01694 16.3415 3.02243 16.5571C3.0964 19.5682 3.34885 22.5614 3.5219 25.5187C3.54213 25.8826 3.55986 26.2456 3.57303 26.6066C3.58134 26.8007 3.58479 26.9037 3.61142 27.1263C3.61756 27.1738 3.62454 27.2196 3.63293 27.2652C3.6452 27.3311 3.66174 27.4052 3.68861 27.4844C3.70822 27.5357 3.69933 27.53 3.76146 27.6511C3.81625 27.7456 3.90205 27.8876 4.12066 28.0005C4.20951 28.0504 4.41404 28.1004 4.56247 28.0771C4.71769 28.0586 4.83505 28.0001 4.9157 27.9466C5.00185 27.8882 5.03834 27.8475 5.06038 27.8258C5.08562 27.7998 5.1066 27.7752 5.1251 27.7519C5.36449 27.4031 5.35502 27.3133 5.42933 27.1338C5.4851 26.9757 5.53382 26.8179 5.57591 26.6761C5.7492 26.0856 5.89093 25.5081 6.03222 24.9292C6.31234 23.7712 6.57305 22.6273 6.84457 21.4828C7.39997 19.2247 7.90614 16.8337 8.77752 14.876C8.8149 14.8016 8.86425 14.7379 8.93242 14.6784C9.18976 14.4412 9.77527 14.3444 10.2822 14.4618C10.4033 14.4882 10.517 14.5188 10.6314 14.5556C13.8577 15.691 14.0072 20.4181 16.6979 23.7427C16.8289 23.896 17.0492 24.0519 17.2936 24.1098C17.5379 24.1705 17.7555 24.142 17.9151 24.1002C18.8497 23.7523 19.0703 23.3142 19.4661 22.9075C19.8194 22.4937 20.1284 22.0707 20.4212 21.639C20.5328 21.4739 20.6292 21.3016 20.7112 21.1336C21.8309 18.3982 21.5878 15.8646 21.9048 13.4022L21.7648 13.7812C21.7379 13.8183 21.7039 13.8679 21.6082 13.9368C21.5221 14.0016 21.3481 14.0687 21.1968 14.0634C20.7983 14.0225 20.8045 13.9094 20.7784 13.9094C20.7654 13.8958 20.7828 13.9149 20.7992 13.94C20.8357 13.9941 20.8846 14.0809 20.9306 14.172C21.0241 14.357 21.1161 14.5697 21.2048 14.7861C21.3824 15.2205 21.5502 15.677 21.7262 16.1376C21.7494 16.1985 21.7724 16.2585 21.7963 16.3201C21.8462 16.4489 21.8998 16.5788 21.9584 16.7095C22.4422 17.9615 23.7274 19.0786 25.0362 19.2983C25.0547 19.3022 25.0743 19.303 25.0925 19.2977C25.1107 19.2924 25.1259 19.2815 25.1355 19.2664C25.145 19.2513 25.1484 19.2329 25.1455 19.2142C25.1425 19.1954 25.1334 19.1781 25.122 19.1631C25.122 19.1631 25.122 19.1631 25.122 19.1631C24.2767 18.0912 23.8837 17.1841 23.5091 16.0768C23.4652 15.9563 23.4197 15.8337 23.3717 15.7098C23.3487 15.6505 23.326 15.5919 23.3027 15.5315C23.1254 15.0742 22.9442 14.6101 22.7396 14.1377C22.6361 13.9005 22.5288 13.6625 22.3965 13.4109C22.3291 13.2843 22.2581 13.1556 22.155 13.006C22.1039 12.9332 22.0428 12.849 21.9452 12.7502C21.8336 12.6663 21.7379 12.4652 21.2126 12.4199C21.0133 12.4137 20.7911 12.498 20.6672 12.5897C20.5308 12.6877 20.468 12.7701 20.4109 12.8504C20.3597 12.9252 20.2803 13.1393 20.2709 13.2294C19.9871 15.7584 20.0927 18.446 19.255 20.4257C19.201 20.5376 19.1412 20.6442 19.0793 20.737C18.8154 21.1313 18.5349 21.5194 18.2426 21.8668C18.0966 22.0399 17.9462 22.2036 17.8005 22.3372C17.6659 22.469 17.4788 22.5751 17.5086 22.5567C17.5224 22.5535 17.5829 22.5385 17.679 22.562C17.7751 22.5837 17.8647 22.6521 17.894 22.689C15.5645 20.1692 15.7397 15.0226 11.101 13.0859C10.9361 13.0336 10.7733 12.991 10.6025 12.9552C9.74208 12.7893 8.76564 12.8363 7.92903 13.5302C7.72035 13.712 7.53921 13.9425 7.41329 14.1977C6.37954 16.5553 5.94808 18.8271 5.37568 21.1363C5.1049 22.2876 4.84589 23.4343 4.57225 24.5766C4.43505 25.1452 4.29535 25.7167 4.13945 26.2524C4.10215 26.3796 4.05936 26.5181 4.01768 26.6371C3.98738 26.7415 3.89122 26.9211 3.95288 26.8236C3.98187 26.7946 3.95136 26.8035 4.08792 26.7016C4.15041 26.6602 4.2502 26.6087 4.38845 26.5922C4.52058 26.5712 4.70583 26.6166 4.78367 26.6606C4.97677 26.7609 5.03866 26.8766 5.07118 26.9306C5.10525 26.997 5.09657 26.9858 5.10315 27.0016C5.11279 27.0363 5.09749 26.9765 5.0929 26.9331C5.07717 26.8054 5.07159 26.7117 5.06469 26.5499C5.04992 26.1763 5.03056 25.8043 5.00872 25.4335C4.82243 22.4277 4.51036 19.4718 4.38808 16.511C4.37905 16.2962 4.37027 16.0836 4.36171 15.8733C4.10933 11.6266 4.31676 7.36254 3.12843 3.03924C2.78087 1.97697 2.18523 0.850102 1.13411 0.169717C1.12799 0.165701 1.12187 0.161737 1.11573 0.157823C1.05667 0.121354 0.997494 0.0830407 0.883058 0.0416732C0.824708 0.0226963 0.752045 -0.00169402 0.626269 0.000118732C0.506564 -0.00335449 0.297785 0.0695833 0.190164 0.194695C-0.0129401 0.446546 0.0253701 0.557248 0.00585711 0.640508C-0.00103623 0.72243 0.000267625 0.777716 0 0.823426Z" fill="var(--stroke-0, #3B1B1B)"/>
</svg>
