<svg preserveAspectRatio="none" width="100%" height="100%" overflow="visible" style="display: block;" viewBox="0 0 5.8381 6.64889" fill="none" xmlns="http://www.w3.org/2000/svg">
<path id="Vector 80" d="M0.223427 2.09983C0.0740077 2.25859 -0.00622553 2.4702 0.000377536 2.68811C0.0069806 2.90603 0.0998791 3.11239 0.258636 3.26181C0.417394 3.41123 0.629005 3.49146 0.846919 3.48486C1.06483 3.47826 1.2712 3.38536 1.42062 3.2266C1.42062 3.2266 1.42062 3.2266 1.42062 3.2266C1.26064 3.39592 1.07496 3.45263 0.963499 3.47073C0.857133 3.48616 0.82881 3.48134 0.78197 3.47958C0.69598 3.47256 0.669719 3.46308 0.645508 3.45752C0.596455 3.44407 0.58796 3.43917 0.577096 3.43516C0.560709 3.42831 0.566312 3.43029 0.572641 3.43368C0.587763 3.4414 0.61582 3.45717 0.645267 3.47484C0.70437 3.51025 0.771961 3.55394 0.839434 3.59927C1.49396 4.04596 2.15211 4.59368 2.76236 5.15575C2.76651 5.15959 2.77067 5.16342 2.77482 5.16725C3.31517 5.64573 3.73912 6.1425 4.57419 6.55159C5.26231 6.8561 5.86318 6.41464 5.8373 5.6626C5.83717 5.65919 5.83704 5.65578 5.83691 5.65237C5.66309 3.74399 5.06796 2.35564 4.70021 0.847357C4.70004 0.846741 4.69988 0.846126 4.69972 0.84551L4.70718 0.875683C4.66601 0.728795 4.59754 0.606271 4.45757 0.748303C4.38335 0.846355 4.11801 0.979802 4.05622 0.845307C3.98771 0.735163 4.03493 0.559629 4.09887 0.378774C4.10107 0.372602 4.10317 0.366645 4.1047 0.362137C4.10623 0.35755 4.10699 0.354306 4.10656 0.351126C4.10613 0.347946 4.10453 0.345022 4.10184 0.341005C4.09917 0.337067 4.09556 0.331883 4.0918 0.326516C4.0918 0.326516 4.0918 0.326516 4.0918 0.326516C3.97413 0.171169 3.8424 0.0318458 3.61104 0.00636518C3.3851 -0.0473368 2.99915 0.248439 2.90542 0.529168C2.73088 0.982406 2.75701 1.16507 2.78069 1.31992C2.78211 1.32598 2.78654 1.34409 2.78815 1.3501C2.78832 1.35076 2.78849 1.35142 2.78867 1.35208C3.18705 2.91952 3.86697 4.4929 4.0165 5.75398C4.01666 5.75596 4.01683 5.75793 4.01699 5.75989L5.28009 4.8709C4.91856 4.72562 4.3219 4.35889 3.88903 3.95836C3.88545 3.95507 3.88188 3.95177 3.87831 3.94846C3.21187 3.33649 2.53304 2.76607 1.7563 2.23463C1.6723 2.17829 1.58646 2.12232 1.48996 2.0644C1.44018 2.03471 1.39048 2.00572 1.32409 1.97142C1.29139 1.95478 1.25449 1.93607 1.19633 1.91219C1.16309 1.89917 1.13591 1.88725 1.06312 1.8674C1.0287 1.85921 0.991339 1.8472 0.89315 1.8393C0.840337 1.8372 0.808442 1.83228 0.695645 1.84865C0.57752 1.86786 0.386798 1.92691 0.223427 2.09983Z" fill="var(--stroke-0, #3B1B1B)"/>
</svg>
