<svg preserveAspectRatio="none" width="100%" height="100%" overflow="visible" style="display: block;" viewBox="0 0 7.72962 22.2242" fill="none" xmlns="http://www.w3.org/2000/svg">
<path id="Vector 71" d="M3.36488 4.54332C3.48129 4.77614 3.68541 4.95318 3.93235 5.03549C4.17929 5.11781 4.44881 5.09865 4.68163 4.98225C4.91444 4.86584 5.09148 4.66171 5.1738 4.41478C5.25611 4.16784 5.23696 3.89832 5.12055 3.6655C5.12055 3.6655 5.12055 3.6655 5.12055 3.6655C4.86398 3.16791 4.60413 2.78309 4.31695 2.37925C3.94534 1.86631 3.54707 1.37363 3.05225 0.903869C2.96987 0.826291 2.88288 0.748256 2.7928 0.672546C2.59675 0.511636 2.47918 0.414117 2.2048 0.253033C2.0825 0.185816 1.96177 0.119541 1.74102 0.0556517C1.6295 0.0269195 1.55252 0.00708538 1.37484 0.000387013C1.20857 -0.0037452 1.0186 0.0248915 0.83952 0.101723C0.651231 0.180691 0.482607 0.313638 0.366481 0.454183C0.246508 0.601543 0.199348 0.699118 0.148232 0.816197C0.050385 1.06411 0.0386041 1.18517 0.0172313 1.34719C-0.0126023 1.63006 0.00201875 1.86851 0.0183566 2.06889C0.101106 2.91135 0.285265 3.6159 0.469193 4.32604C0.846724 5.73354 1.29281 7.09597 1.74219 8.45103C2.62635 11.1464 3.65058 13.852 4.30766 16.4609C4.31342 16.486 4.33523 16.5591 4.34414 16.5833C4.39783 16.7289 4.45149 16.8747 4.50498 17.0203C5.06988 18.5667 5.86167 20.0347 6.50229 21.5354C6.53226 21.6069 6.56117 21.6765 6.58963 21.7467C6.59285 21.7546 6.59617 21.7624 6.59958 21.7702C6.6002 21.7739 6.60444 21.7845 6.60518 21.7882C6.61172 21.8034 6.61756 21.816 6.62708 21.837C6.63368 21.8512 6.63276 21.8508 6.65666 21.9008C6.67114 21.9255 6.6468 21.8947 6.71378 21.995C6.73688 22.0235 6.76163 22.0647 6.85572 22.1303C6.93362 22.1882 7.20686 22.3098 7.48152 22.1289C7.70463 21.9579 7.69681 21.8342 7.7176 21.7785C7.72969 21.7203 7.72924 21.6816 7.72962 21.6732C7.72958 21.6061 7.72382 21.5883 7.72266 21.5788C7.70717 21.5049 7.69865 21.498 7.68703 21.4686C7.66488 21.4194 7.64076 21.3763 7.61476 21.3337C7.56282 21.2492 7.50331 21.1684 7.44086 21.0884C7.31606 20.9291 7.17949 20.7739 7.06756 20.6125C7.05107 20.589 7.0211 20.5699 6.99002 20.5581C6.9586 20.5464 6.92861 20.5429 6.90091 20.5498C6.8732 20.5568 6.84839 20.574 6.82618 20.5991C6.8043 20.6241 6.78682 20.655 6.78334 20.6836C6.78334 20.6836 6.78334 20.6836 6.78334 20.6836C6.7605 20.8786 6.71315 21.0798 6.67624 21.2769C6.65779 21.3755 6.64205 21.4734 6.63244 21.567C6.62755 21.6135 6.62459 21.6605 6.62208 21.701C6.62011 21.7165 6.62166 21.7544 6.61284 21.7259C6.61222 21.7202 6.60748 21.7117 6.60726 21.648C6.60764 21.6402 6.60709 21.6031 6.619 21.5456C6.63962 21.4907 6.63154 21.3676 6.85432 21.1968C7.12862 21.0161 7.40153 21.1377 7.479 21.1952C7.57266 21.2606 7.59691 21.3012 7.61947 21.329C7.68385 21.4254 7.65956 21.3942 7.67253 21.416C7.6909 21.454 7.68661 21.4442 7.68909 21.4474C7.69084 21.4471 7.68983 21.4394 7.68838 21.4305L7.69397 21.4484C7.69249 21.4396 7.69089 21.4307 7.68915 21.4219C7.67371 21.3434 7.65829 21.2659 7.64215 21.1866C7.29952 19.5302 6.95213 17.891 6.38238 16.3309C6.3285 16.1841 6.27446 16.0374 6.2204 15.891L6.25688 16.0134C5.52425 13.1221 4.51044 10.5146 3.62092 7.82221C3.17232 6.4845 2.72931 5.14086 2.37144 3.81797C2.19732 3.16376 2.03053 2.47757 1.97575 1.89887C1.96361 1.7694 1.96154 1.62518 1.96954 1.5617C1.97151 1.53111 1.98254 1.515 1.95974 1.57435C1.94506 1.61605 1.8432 1.8099 1.60941 1.908C1.38928 1.99877 1.23951 1.95278 1.21785 1.94796C1.1818 1.93671 1.20734 1.94326 1.23735 1.96121C1.32014 2.0093 1.40321 2.06952 1.52992 2.17527C1.58811 2.22415 1.64787 2.2776 1.70664 2.33295C2.06315 2.66984 2.4091 3.08965 2.72384 3.52596C2.96377 3.85985 3.20787 4.23548 3.36488 4.54332Z" fill="var(--stroke-0, white)"/>
</svg>
