<svg preserveAspectRatio="none" width="100%" height="100%" overflow="visible" style="display: block;" viewBox="0 0 13.1512 13.9886" fill="none" xmlns="http://www.w3.org/2000/svg">
<path id="Vector 58" d="M12.7228 2.49731C12.9971 2.22297 13.1512 1.85087 13.1512 1.46289C13.1512 1.07491 12.9971 0.702816 12.7228 0.428471C12.4484 0.154126 12.0763 0 11.6883 0C11.3003 0 10.9283 0.154126 10.6539 0.428471C10.4546 0.627774 10.256 0.826803 10.0575 1.02605C7.24709 3.85239 4.4646 6.7004 1.76199 9.66763C1.75737 9.67273 1.75275 9.67782 1.74814 9.68291C1.74554 9.68578 1.73779 9.69444 1.73523 9.69734C1.18305 10.3215 0.625178 11.0273 0.148329 11.7289C0.143675 11.7356 0.1392 11.7424 0.1349 11.7494C0.0109445 11.9544 -0.0339785 12.335 0.0270374 12.803C0.0643248 13.0713 0.151215 13.3805 0.322183 13.6116C0.49159 13.8469 0.723054 13.951 0.90235 13.9886C0.916803 13.8002 1.03934 13.6315 1.20249 13.5856C1.36479 13.5353 1.5358 13.5681 1.69181 13.5836C1.96027 13.6151 2.21242 13.6113 2.37611 13.4303C2.38159 13.4242 2.38689 13.418 2.39202 13.4117C2.89042 12.7911 3.39078 12.2417 3.92808 11.6342L3.91516 11.6487C3.91967 11.6437 3.92418 11.6387 3.92869 11.6337C6.57254 8.7307 9.34108 5.89565 12.1304 3.09086C12.3275 2.89298 12.5248 2.69529 12.7228 2.49731Z" fill="var(--stroke-0, #4C3131)"/>
</svg>
