<svg preserveAspectRatio="none" width="100%" height="100%" overflow="visible" style="display: block;" viewBox="0 0 8.23335 5.47952" fill="none" xmlns="http://www.w3.org/2000/svg">
<path id="Vector 75" d="M2.07225 4.2552C1.92793 4.36343 1.83252 4.52457 1.80701 4.70315C1.7815 4.88173 1.82797 5.06313 1.93621 5.20744C2.04445 5.35176 2.20558 5.44717 2.38416 5.47268C2.56274 5.49819 2.74414 5.45171 2.88846 5.34348C2.88846 5.34348 2.88846 5.34348 2.88846 5.34348C3.10107 5.18349 3.32317 5.00867 3.53971 4.78887C3.67833 4.64763 3.81444 4.48636 3.93259 4.29938C3.942 4.28448 3.95134 4.26945 3.96059 4.25431C4.42224 3.36576 4.10945 2.71802 4.02025 2.28855C4.01457 2.26895 4.00897 2.24939 4.00377 2.2309C3.74396 1.20972 2.77281 0.516728 2.10953 0.203395C2.08394 0.189556 2.0602 0.176254 2.0442 0.166584C1.70723 -0.0356283 1.25959 -0.038775 0.95886 0.0771075C0.877161 0.106254 0.80142 0.141664 0.730691 0.181751C0.422217 0.364544 0.230723 0.593354 0.0952109 0.913787C0.056883 1.0096 0.0264018 1.11558 0.0107108 1.23358C-0.0341991 1.57914 0.0604488 1.94694 0.326284 2.23479C0.42913 2.34531 0.559518 2.44049 0.705269 2.50467C1.44347 2.83003 2.13709 2.54502 2.53488 2.36044C2.9602 2.15782 3.29381 1.95326 3.58653 1.83709C3.62196 1.8228 3.6565 1.80987 3.6897 1.79852C3.70353 1.82321 3.48086 1.76967 3.53431 1.78714C3.565 1.81437 3.66079 1.95086 3.7395 2.11526C3.82199 2.28175 3.90157 2.47803 3.9953 2.69912C4.04339 2.81111 4.09314 2.92822 4.16732 3.07028C4.2066 3.14373 4.24813 3.22018 4.32392 3.32389C4.41082 3.41779 4.47249 3.58682 4.88952 3.73806C4.97129 3.76238 5.19079 3.77436 5.27481 3.7596C5.30468 3.75434 5.33437 3.7488 5.36386 3.74302C6.18768 3.58059 6.87144 3.20068 7.44669 2.96152C7.52698 2.92844 7.60363 2.89926 7.67205 2.8768L6.96083 2.69413C6.94642 2.68025 6.9328 2.66589 6.92011 2.65128C6.74326 2.42575 6.7941 2.30425 6.81733 2.27394C6.84884 2.2383 6.89355 2.25214 6.93748 2.2761C7.02608 2.32744 7.11952 2.42662 7.17631 2.51619C7.20053 2.55435 7.25087 2.59773 7.29794 2.6322C7.34608 2.66694 7.38705 2.68994 7.43015 2.70071C7.47325 2.71149 7.52022 2.71048 7.57904 2.70248C7.6368 2.69421 7.70163 2.67963 7.74096 2.65735C7.74096 2.65735 7.74096 2.65735 7.74096 2.65735C7.83355 2.60291 7.96398 2.55795 8.07693 2.46287C8.13275 2.41354 8.18637 2.35333 8.21645 2.24343C8.23773 2.14007 8.27733 1.93962 8.05109 1.65705C8.03488 1.63843 8.01758 1.62022 7.9993 1.60268C7.83608 1.46022 7.495 1.35585 7.28808 1.42C7.16352 1.44847 7.04949 1.48068 6.94085 1.51355C6.19565 1.75043 5.60108 1.98658 5.04002 2.09285C5.02022 2.09674 5.00049 2.10045 4.98085 2.10398L5.36614 2.12552C5.67177 2.24148 5.65323 2.3167 5.67216 2.32114C5.67877 2.33127 5.66322 2.30929 5.64698 2.27931C5.61298 2.21804 5.56839 2.12377 5.52285 2.02446C5.43051 1.82355 5.32965 1.59387 5.198 1.35127C5.06095 1.10848 4.91453 0.843159 4.59693 0.562963C4.31176 0.264937 3.57729 0.0891305 3.15445 0.287097C3.09406 0.308882 3.0354 0.331838 2.97872 0.355341C2.52031 0.548068 2.16287 0.775796 1.85539 0.920571C1.53639 1.07735 1.37186 1.07571 1.34729 1.0523C1.40263 1.07661 1.45138 1.11281 1.48691 1.15111C1.57807 1.25225 1.59718 1.35157 1.58688 1.44528C1.58297 1.47558 1.57656 1.49573 1.57132 1.50953C1.54929 1.55367 1.56439 1.54431 1.51546 1.57889C1.51194 1.58123 1.50641 1.58425 1.49734 1.58751C1.47097 1.60247 1.34376 1.60643 1.26261 1.55257C1.30258 1.57446 1.33847 1.59294 1.37099 1.60963C2.03806 1.92674 2.37699 2.21957 2.52646 2.67298C2.53372 2.6961 2.54111 2.7192 2.54825 2.74125C2.72083 3.20134 2.82613 3.566 2.79505 3.55219C2.79102 3.55909 2.78684 3.56598 2.78249 3.57285C2.72823 3.65889 2.65641 3.74688 2.569 3.83583C2.43309 3.97443 2.26111 4.11365 2.07225 4.2552Z" fill="var(--stroke-0, #3B1B1B)"/>
</svg>
