<svg preserveAspectRatio="none" width="100%" height="100%" overflow="visible" style="display: block;" viewBox="0 0 13.2445 12.1273" fill="none" xmlns="http://www.w3.org/2000/svg">
<path id="Vector 84" d="M1.61317 0.445259C1.50321 0.245471 1.31839 0.0975463 1.09936 0.0340281C0.880335 -0.0294902 0.645048 -0.00339937 0.445259 0.106561C0.245471 0.216521 0.0975463 0.401343 0.0340281 0.620369C-0.0294902 0.839395 -0.00339937 1.07468 0.106561 1.27447C0.106561 1.27447 0.106561 1.27447 0.106561 1.27447C0.303403 1.6321 0.492501 1.99352 0.673663 2.35833C1.511 4.02047 2.12243 5.77178 2.8386 7.59351C2.84247 7.60317 2.84635 7.61283 2.85023 7.62248C3.35839 8.86459 3.82147 10.0754 4.49637 11.3477C4.50585 11.3648 4.51529 11.3816 4.52469 11.3981C4.57292 11.4819 4.62525 11.5687 4.71168 11.6775C4.82228 11.7771 4.84357 11.9532 5.38515 12.1079C5.67354 12.1848 6.09591 12.0178 6.23289 11.8637C6.39268 11.7111 6.44217 11.6011 6.48646 11.5144C6.56649 11.3402 6.58745 11.2364 6.61145 11.1334C6.61982 11.0945 6.62599 11.0622 6.63227 11.0263C6.75399 10.3325 6.82416 9.64113 6.88081 8.97213C6.90957 8.63816 6.93482 8.30793 6.96865 8.00211C6.98567 7.84981 7.00513 7.70428 7.02929 7.58085C7.04775 7.46503 7.10006 7.34473 7.06983 7.40931C7.06459 7.41799 7.0567 7.43022 7.04537 7.44511C6.91125 7.58232 6.96967 7.51448 7.10207 7.54311C7.11032 7.54412 7.11873 7.54532 7.12736 7.54672C8.26112 7.68958 8.91343 8.7285 10.3034 9.96767C10.3151 9.97671 10.327 9.98559 10.3391 9.99427C10.6798 10.2522 11.1559 10.2841 11.4334 10.2155C11.7255 10.1511 11.9188 10.0389 12.0853 9.92996C12.0919 9.92569 12.0984 9.9214 12.1049 9.91708C12.6048 9.56138 12.7965 9.14249 12.9829 8.71062C12.9843 8.7073 12.9857 8.70397 12.987 8.70063C13.0531 8.539 13.1056 8.36547 13.1371 8.20324C13.2255 7.72268 13.2202 7.29303 13.2445 6.85086C13.2451 6.83744 13.2394 6.82236 13.231 6.80971C13.2224 6.79702 13.2118 6.7878 13.1992 6.7833C13.1866 6.7788 13.1725 6.77917 13.1578 6.78356C13.1433 6.788 13.1294 6.79608 13.1213 6.80682C13.1213 6.80682 13.1213 6.80682 13.1213 6.80682C12.8585 7.1544 12.5861 7.52203 12.3124 7.79949C12.2201 7.8913 12.13 7.96335 12.0334 8.03308C12.0314 8.03454 12.0294 8.03599 12.0274 8.03744C11.7676 8.22597 11.4245 8.38213 11.2607 8.41541C11.259 8.41573 11.2572 8.41601 11.2556 8.41625C11.1774 8.44072 11.1111 8.44219 11.1276 8.42587C11.132 8.4069 11.3082 8.40166 11.4223 8.49146C11.4262 8.49424 11.4299 8.49704 11.4336 8.49985C10.5787 7.81607 9.42519 6.00205 7.41796 5.72587C7.38585 5.72077 7.35369 5.71629 7.32111 5.71241C6.83941 5.66808 6.18471 5.70329 5.64379 6.34735C5.60957 6.39145 5.57937 6.43607 5.55347 6.47843C5.21317 7.1445 5.26803 7.43829 5.20683 7.81219C5.17033 8.16656 5.14765 8.49906 5.12134 8.82722C5.07022 9.48101 5.00845 10.1126 4.90357 10.728C4.90109 10.7426 4.8989 10.7543 4.89661 10.7653C4.89231 10.7916 4.88026 10.8134 4.90343 10.7607C4.91933 10.7332 4.93458 10.681 5.04593 10.5735C5.13598 10.4646 5.48914 10.323 5.71258 10.3858C6.12286 10.5103 6.05049 10.58 6.07812 10.5797C6.08196 10.5852 6.06392 10.5604 6.04644 10.5295C6.03943 10.5173 6.03226 10.5047 6.02494 10.4917C5.45276 9.43186 4.93576 8.18417 4.44569 6.98061C4.44199 6.97143 4.4383 6.96224 4.43461 6.95304C3.75136 5.21811 3.09906 3.35017 2.21391 1.59342C2.02204 1.20703 1.8216 0.823936 1.61317 0.445259Z" fill="var(--stroke-0, #3B1B1B)"/>
</svg>
