<svg preserveAspectRatio="none" width="100%" height="100%" overflow="visible" style="display: block;" viewBox="0 0 16.6406 6.18459" fill="none" xmlns="http://www.w3.org/2000/svg">
<path id="Vector 96" d="M0 3.37703C0 3.60611 0.091004 3.82581 0.252992 3.9878C0.41498 4.14979 0.634684 4.2408 0.86377 4.2408C1.09286 4.2408 1.31256 4.14979 1.47455 3.9878C1.63654 3.82581 1.72754 3.60611 1.72754 3.37703C1.70661 3.62559 1.6896 3.54585 1.71132 3.52848C1.72943 3.49484 1.76433 3.44033 1.80423 3.38501C1.88546 3.27201 1.98866 3.14769 2.09875 3.02435C2.3606 2.73172 2.66028 2.44101 2.96996 2.15957C2.99496 2.13687 3.02032 2.11405 3.04602 2.09109C3.60918 1.58933 4.23431 1.67048 5.18031 2.11214C5.23077 2.13449 5.28692 2.15934 5.34818 2.185C5.14441 2.0887 5.17394 1.99749 5.19668 2.10761C5.20309 2.13333 5.20927 2.16607 5.21392 2.20227C5.29142 2.61962 4.92249 3.19935 4.28992 3.93194C4.22523 4.01257 4.15663 4.09906 4.08091 4.20804C4.01487 4.30572 3.96031 4.39278 3.90089 4.54623C3.84208 4.71333 3.77805 4.93268 3.85779 5.25957C3.92933 5.5675 4.18628 5.82545 4.32803 5.91127C4.50166 6.0244 4.61529 6.05938 4.72719 6.09411C5.13849 6.20124 5.36504 6.18329 5.6229 6.1837C6.1043 6.17064 6.53465 6.11514 6.96204 6.05439C7.8141 5.92914 8.62946 5.7675 9.4464 5.59905C11.0714 5.26255 12.681 4.88242 14.2651 4.56064C14.2711 4.55944 14.2889 4.55549 14.2948 4.5541C14.3289 4.54608 14.3614 4.53838 14.3955 4.5302C14.8224 4.42869 15.2636 4.31028 15.6753 4.18399C15.7523 4.1607 15.8276 4.13768 15.8994 4.11612C15.9073 4.11377 15.9149 4.11148 15.9224 4.10926C16.0413 4.07032 16.1167 3.9961 16.0342 3.86457C15.9987 3.80235 15.8764 3.67038 15.8996 3.53686C15.923 3.40732 16.0658 3.37923 16.2071 3.40724C16.2414 3.4163 16.2745 3.42495 16.2994 3.43121C16.3248 3.43737 16.3425 3.44009 16.3593 3.43644C16.3762 3.43279 16.3912 3.42299 16.4117 3.40687C16.4318 3.39085 16.4583 3.36926 16.4858 3.34681C16.5968 3.23656 16.6889 3.07063 16.6127 2.83889C16.5374 2.60181 16.2693 2.42525 16.0935 2.3589C15.7266 2.22138 15.5271 2.23599 15.3754 2.27502C15.3663 2.27773 15.3573 2.28042 15.3484 2.28309C15.2675 2.30748 15.1896 2.3317 15.114 2.3552C14.7177 2.47983 14.3442 2.58877 13.9491 2.68501C13.9178 2.69265 13.888 2.69987 13.8566 2.70741L13.8862 2.70087C12.2532 3.04086 10.6554 3.42698 9.06176 3.76443C8.2642 3.9329 7.47046 4.09284 6.69075 4.21043C6.30472 4.26777 5.91282 4.31571 5.57833 4.32517C5.41665 4.3324 5.23523 4.31273 5.2456 4.31105C5.255 4.31534 5.27964 4.3165 5.36308 4.37023C5.42739 4.40658 5.60291 4.57389 5.65235 4.78654C5.72335 5.25179 5.58319 5.25585 5.6073 5.26191C5.63741 5.2179 5.68406 5.15702 5.73557 5.09272C6.24592 4.44752 7.22199 3.44988 7.0483 1.96271C7.0354 1.86468 7.01736 1.76389 6.99085 1.65815C6.90302 1.3214 6.69952 0.756568 6.04746 0.479032C6.00776 0.463297 5.95705 0.442147 5.90645 0.421125C4.93357 -0.0915998 2.96816 -0.313071 1.89204 0.805175C1.86402 0.830429 1.83628 0.855522 1.80882 0.880449C1.46781 1.19079 1.13443 1.51188 0.810006 1.87391C0.672311 2.02865 0.537442 2.18826 0.401134 2.37718C0.333237 2.47218 0.26432 2.57405 0.193622 2.70326C0.129803 2.84761 0.0261969 2.94272 0 3.37703Z" fill="var(--stroke-0, #3B1B1B)"/>
</svg>
