<svg preserveAspectRatio="none" width="100%" height="100%" overflow="visible" style="display: block;" viewBox="0 0 5.03326 8.9424" fill="none" xmlns="http://www.w3.org/2000/svg">
<path id="Vector 129" d="M0.230253 0.463706C0.0828245 0.611134 0 0.81109 0 1.01959C0 1.22808 0.0828245 1.42804 0.230253 1.57547C0.377681 1.72289 0.577637 1.80572 0.786133 1.80572C0.994628 1.80572 1.19458 1.72289 1.34201 1.57547C1.34201 1.57547 1.34201 1.57547 1.34201 1.57547C1.3928 1.52405 1.43228 1.48765 1.43431 1.48686C1.43482 1.4753 1.39073 1.5669 1.11117 1.57072C0.881477 1.56035 0.744626 1.42928 0.717404 1.39736C0.682287 1.35692 0.689786 1.35897 0.696724 1.37449C0.69745 1.37591 0.698277 1.37755 0.699194 1.37941C0.913917 1.90071 1.10576 2.8743 1.3544 3.68453C1.35587 3.68944 1.35734 3.69435 1.35881 3.69926C1.87405 5.43618 2.80328 6.89034 3.71507 8.29935C3.79839 8.42591 3.87787 8.54405 3.96281 8.67031C4.04622 8.79349 4.17114 8.886 4.31679 8.92368C4.46237 8.96139 4.61576 8.94174 4.74459 8.86829C4.87341 8.79483 4.96843 8.67282 5.01012 8.52833C5.05187 8.38379 5.03586 8.22918 4.97233 8.09467C4.97233 8.09467 4.97233 8.09467 4.97233 8.09467C4.90773 7.95864 4.84785 7.83126 4.78352 7.69626C4.08196 6.1885 3.30338 4.72493 2.87248 3.24602C2.87114 3.24154 2.8698 3.23706 2.86847 3.23258C2.61397 2.43354 2.5294 1.72948 2.10973 0.684857C2.10543 0.676117 2.10103 0.667356 2.09654 0.658565C2.04912 0.568307 1.99429 0.46678 1.87991 0.338775C1.77375 0.219247 1.53148 0.0146595 1.1811 1.31726e-05C0.751741 -0.00175697 0.574271 0.174946 0.460698 0.252319C0.347453 0.34292 0.283431 0.41145 0.230253 0.463706Z" fill="var(--stroke-0, #3B1B1B)"/>
</svg>
