<svg preserveAspectRatio="none" width="100%" height="100%" overflow="visible" style="display: block;" viewBox="0 0 20.956 11.1191" fill="none" xmlns="http://www.w3.org/2000/svg">
<path id="Vector 125" d="M0.822554 4.7037C0.648738 4.66387 0.466217 4.69471 0.315145 4.78945C0.164073 4.88419 0.0568235 5.03507 0.0169911 5.20888C-0.0228414 5.3827 0.0080058 5.56522 0.102747 5.71629C0.197487 5.86737 0.348361 5.97461 0.522177 6.01445C0.983301 6.1202 1.44801 6.30271 1.90302 6.52694C3.9453 7.55141 5.70324 9.222 7.73169 10.6712C7.80749 10.7243 7.88445 10.7774 7.96009 10.8285C8.18021 10.9599 8.39587 11.1426 8.90669 11.1166C9.16249 11.0964 9.42949 10.9373 9.56503 10.7794C9.71387 10.6127 9.77812 10.469 9.83218 10.3345C10.0143 9.82096 10.013 9.43325 10.0306 9.04167C10.0468 8.2719 9.99166 7.54171 9.93831 6.82071C9.84095 5.40628 9.63275 3.87081 9.76362 2.72819C9.78054 2.63005 9.80789 2.5396 9.84559 2.45433C9.9938 2.10556 10.3816 1.81637 10.8261 1.69375L10.5868 1.72903C10.6601 1.7299 10.7471 1.73876 10.838 1.75517C12.8354 2.29269 14.8988 4.31614 16.6961 6.06752C16.7292 6.10065 16.7621 6.13352 16.7948 6.16612C17.3186 6.67671 18.1291 7.41754 19.2244 7.38496C19.9501 7.35041 20.4837 7.01046 20.9339 6.62803C20.9416 6.62124 20.9485 6.6132 20.9525 6.60376C20.9564 6.59433 20.9571 6.58433 20.9542 6.57525C20.9513 6.56616 20.9448 6.55848 20.9361 6.55317C20.9273 6.54785 20.917 6.54539 20.9068 6.54443C20.9068 6.54443 20.9068 6.54443 20.9068 6.54443C20.3217 6.49296 19.7672 6.40655 19.4069 6.20815C18.9308 5.94819 18.6056 5.46593 18.0448 4.91371C18.013 4.88189 17.9805 4.84941 17.9474 4.81628C15.9824 2.9889 14.2641 0.945109 11.1374 0.0468328C10.963 0.0166004 10.7725 -0.00241458 10.5764 0.000247717C10.5261 0.00107825 10.3852 0.0208046 10.3371 0.0355267C9.48651 0.294822 8.67878 0.9043 8.31317 1.82855C8.2272 2.04595 8.17046 2.27246 8.14153 2.49846C8.0271 4.20812 8.34326 5.52897 8.48838 6.9617C8.57 7.66063 8.64606 8.36772 8.64985 9.02387C8.65246 9.34164 8.62321 9.69511 8.56464 9.8511C8.55315 9.88627 8.53898 9.89877 8.56454 9.86941C8.5839 9.84202 8.68616 9.77814 8.76148 9.77531C8.90693 9.77855 8.80565 9.78719 8.71178 9.71293C8.64331 9.667 8.57298 9.61871 8.50316 9.5698C6.59231 8.21549 4.8006 6.48616 2.49757 5.32079C1.97568 5.06411 1.4212 4.84157 0.822554 4.7037Z" fill="var(--stroke-0, #3B1B1B)"/>
</svg>
