<svg preserveAspectRatio="none" width="100%" height="100%" overflow="visible" style="display: block;" viewBox="0 0 11.3564 9.29226" fill="none" xmlns="http://www.w3.org/2000/svg">
<path id="Vector 13" d="M5.67111 3.22367C5.67111 3.63578 5.67111 4.04789 5.67111 4.45999C6.49532 4.45999 7.31954 4.45999 8.14376 4.45999C8.14376 4.04789 8.14376 3.63578 8.14376 3.22367C8.10483 2.76876 8.30026 1.93904 7.4751 0.981236C7.47326 0.97932 7.47142 0.977406 7.46957 0.975496C7.46726 0.973105 7.46494 0.970717 7.46261 0.968335C6.47721 0.0942988 5.61835 0.152012 4.76409 0.280081C4.75185 0.282573 4.73961 0.285136 4.72737 0.287771C2.20414 0.806158 0.536728 3.02091 0.0344896 5.29949C0.0334779 5.30447 0.0324875 5.30946 0.0315186 5.31445C-0.134105 6.22415 0.392567 6.84708 0.690761 7.12606C1.02589 7.43441 1.33721 7.61033 1.6752 7.76158C1.67992 7.76363 1.68463 7.76567 1.68935 7.7677C3.57122 8.46002 4.90722 7.54227 5.91009 6.93363C5.91467 6.9306 5.91925 6.92756 5.92381 6.92452C7.85573 5.69258 8.73736 3.31409 8.70839 1.30116C8.70091 1.15482 8.71708 1.02902 8.56846 0.707228C8.45955 0.426401 7.99595 0.0710877 7.71249 0.0351715C7.30885 -0.04247 7.16845 0.0288215 7.0444 0.0553423C6.93591 0.0874929 6.86194 0.122396 6.81219 0.146984C6.70322 0.202445 6.64981 0.240598 6.60267 0.273049C6.50779 0.340617 6.45238 0.389158 6.40011 0.435106C6.29902 0.525418 6.22556 0.600272 6.15544 0.673989C6.0174 0.820322 5.90159 0.957949 5.79284 1.10336C5.57836 1.39076 5.40015 1.70482 5.29634 2.05319C5.28255 2.09877 5.26985 2.14599 5.25921 2.19085C5.01074 3.38669 5.0045 4.34811 5.25679 5.5605C5.27208 5.62514 5.33874 5.80559 5.36764 5.8654C5.38003 5.89096 5.39252 5.9164 5.40509 5.94172C5.99743 7.1539 6.95696 8.29543 8.16815 9.03358C8.23908 9.07744 8.45585 9.17426 8.53584 9.19786C8.55661 9.20399 8.57787 9.21 8.59963 9.21585C8.96231 9.32435 9.51627 9.32456 9.91577 9.16942C10.3215 9.02115 10.5824 8.80316 10.7713 8.59764C11.2911 7.99561 11.3833 7.39737 11.3505 6.73609C11.3396 6.61842 11.3342 6.5047 11.3304 6.39203C11.1475 6.26284 10.9647 6.13366 10.7819 6.00448C10.6744 6.03847 10.5654 6.07142 10.4508 6.10041C9.84934 6.23356 9.34517 6.41971 9.09707 6.42419C9.0178 6.42481 8.98607 6.38476 9.06804 6.33373C9.14452 6.27834 9.34788 6.27444 9.38582 6.29237C9.38834 6.29305 9.39043 6.29365 9.39207 6.29413L9.75976 6.45841C9.04823 6.02072 8.48053 5.39539 8.06954 4.59738C8.06096 4.58078 8.05243 4.56406 8.04393 4.54721L8.15478 4.8521C8.01369 4.30088 8.00051 3.41108 8.11668 2.83731C8.1208 2.81684 8.12443 2.79606 8.1272 2.77687C8.13809 2.67716 8.13387 2.55883 8.14762 2.44508C8.15382 2.38908 8.16568 2.33403 8.17257 2.30017C8.17494 2.28411 8.17838 2.27204 8.16072 2.28265C8.15029 2.28882 8.13818 2.29934 8.09039 2.33276C8.06556 2.34915 8.03648 2.37115 7.95433 2.41301C7.91659 2.43152 7.8574 2.46002 7.76184 2.48841C7.6519 2.51092 7.52531 2.57949 7.13656 2.50505C6.86355 2.47117 6.41052 2.124 6.30609 1.85289C6.16292 1.54273 6.17998 1.42567 6.1727 1.29269C6.19567 2.79139 5.65638 4.14181 4.54872 4.85775C4.54526 4.86005 4.54181 4.86235 4.53835 4.86464C3.77743 5.39971 2.89215 5.62519 2.67809 5.46728C2.6773 5.46694 2.67651 5.4666 2.67572 5.46625C2.55363 5.4148 2.42398 5.33185 2.38785 5.29886C2.36932 5.28512 2.38059 5.28476 2.41891 5.35967C2.45693 5.42754 2.50573 5.62021 2.46873 5.78609C2.46834 5.78805 2.46795 5.79001 2.46755 5.79197C2.79238 4.32838 3.86731 2.94666 5.24601 2.69743C5.24928 2.69673 5.25258 2.69604 5.25589 2.69536C5.37131 2.67108 5.51111 2.67108 5.61461 2.69186C5.71806 2.70593 5.77824 2.76963 5.69337 2.69571C5.69301 2.69534 5.69265 2.69497 5.6923 2.6946C5.69201 2.69431 5.69173 2.69401 5.69144 2.69371C5.62003 2.61865 5.63285 2.56897 5.65025 2.68133C5.66729 2.78506 5.67205 2.98184 5.67111 3.22367Z" fill="var(--stroke-0, black)"/>
</svg>
