<svg preserveAspectRatio="none" width="100%" height="100%" overflow="visible" style="display: block;" viewBox="0 0 3.58004 6.77948" fill="none" xmlns="http://www.w3.org/2000/svg">
<path id="Vector 47" d="M3.19094 1.94553C3.32064 1.55642 3.45034 1.16731 3.58004 0.778199C2.80182 0.518799 2.0236 0.2594 1.24538 0C1.11568 0.389109 0.98598 0.778219 0.85628 1.16733C0.828423 1.25091 0.799055 1.33897 0.769409 1.43126C0.643677 1.81551 0.526475 2.27638 0.471752 2.72327C0.471689 2.72377 0.471626 2.72427 0.471562 2.72476C0.386358 3.44946 0.482532 4.02725 0.517946 4.55939C0.517997 4.56009 0.518048 4.56079 0.5181 4.56148C0.536627 4.83786 0.595259 4.96607 0.608822 5.14266C0.623713 5.31829 0.539147 5.5657 0.373663 5.79758C0.32658 5.86416 0.276147 5.92843 0.21923 5.99201C0.146153 6.06986 0.0730766 6.14772 0 6.22557C0.107308 6.41021 0.214616 6.59485 0.321924 6.77948C0.425745 6.75453 0.529566 6.72957 0.633386 6.70462C0.730975 6.67834 0.827278 6.65149 0.92783 6.61847C1.27368 6.50494 1.66412 6.33339 1.99805 5.97557C2.33645 5.62088 2.51663 5.12502 2.59871 4.78883C2.59893 4.78795 2.59915 4.78707 2.59938 4.78618C2.76541 4.12647 2.85336 3.50123 2.91279 3.03563C2.91283 3.03531 2.91287 3.035 2.91291 3.03469C2.94887 2.75215 3.011 2.49762 3.11246 2.18382C3.13669 2.10834 3.16306 2.02914 3.19094 1.94553Z" fill="var(--stroke-0, black)"/>
</svg>
