<svg preserveAspectRatio="none" width="100%" height="100%" overflow="visible" style="display: block;" viewBox="0 0 9.25076 9.32544" fill="none" xmlns="http://www.w3.org/2000/svg">
<path id="Vector 108" d="M1.67357 0.658786C1.62354 0.439677 1.48852 0.249415 1.29821 0.129857C1.1079 0.0102982 0.877895 -0.0287639 0.658786 0.0212636C0.439677 0.0712911 0.249415 0.20631 0.129857 0.396619C0.0102982 0.586927 -0.028764 0.816935 0.0212636 1.03604C0.0212636 1.03604 0.0212636 1.03604 0.0212636 1.03604C0.104239 1.39948 0.189155 1.76282 0.275798 2.12534C0.652163 3.72863 1.10445 5.32401 1.43544 6.87188C1.44271 6.9066 1.44897 6.94145 1.45447 6.97639C1.47367 7.09345 1.48874 7.21549 1.51588 7.35385C1.55542 7.50355 1.54275 7.61376 1.7471 7.94088C1.78987 8.00058 1.84348 8.07376 1.95473 8.16535C2.06102 8.25303 2.26646 8.37468 2.53114 8.38435C3.43256 8.42283 4.02134 7.79143 4.30983 7.40186C4.62435 6.97584 4.8248 6.57633 5.02258 6.19954C5.39024 5.46816 5.81427 4.70763 6.11356 4.55571C6.12963 4.5464 6.14577 4.53827 6.16287 4.53085C6.3338 4.43958 6.7766 4.48141 7.28937 4.65717C7.315 4.66564 7.33988 4.67469 7.36351 4.6841C7.5073 4.72665 7.59913 4.86621 7.4927 4.71733L7.46867 3.90576C7.45661 3.93263 7.44394 3.95991 7.43067 3.98758C6.72385 5.36762 5.28114 6.76875 3.83492 7.95146C3.83146 7.9545 3.8251 7.95957 3.81874 7.96463C3.74648 8.02209 3.68118 8.09067 3.61978 8.16718C3.38917 8.45548 3.20568 8.86098 2.96558 9.18079C2.95593 9.19381 2.95096 9.21343 2.94993 9.23229C2.94901 9.25134 2.95211 9.26806 2.96038 9.28185C2.96866 9.29564 2.98196 9.30625 2.99919 9.3144C3.01632 9.32237 3.03597 9.32722 3.052 9.32483C3.052 9.32483 3.052 9.32483 3.052 9.32483C3.44609 9.26422 3.89679 9.28881 4.28282 9.1686C4.38471 9.137 4.48162 9.09552 4.56996 9.04088C4.57774 9.03607 4.58552 9.03125 4.59331 9.02641C6.25574 7.93425 8.0093 6.88424 9.12837 4.80171C9.14974 4.75715 9.17034 4.71227 9.19015 4.66708C9.27944 4.46294 9.26894 4.05318 9.16613 3.85551C8.79758 3.22409 8.37692 3.08994 8.02472 2.93895C7.96445 2.91657 7.90447 2.89644 7.84446 2.8782C7.21691 2.70238 6.37845 2.45179 5.41421 2.86305C5.33308 2.89973 5.25436 2.94095 5.17783 2.98686C4.05606 3.7653 3.82332 4.655 3.41446 5.373C3.22979 5.73557 3.04764 6.08155 2.86677 6.32678C2.77835 6.44814 2.6891 6.53782 2.63945 6.57194C2.58461 6.60698 2.6086 6.59174 2.60268 6.5958C2.83034 6.60417 3.00124 6.70863 3.07917 6.77322C3.16183 6.84161 3.19179 6.8863 3.21342 6.91587C3.29743 7.0597 3.22564 6.95525 3.20596 6.89554C3.17621 6.82336 3.14461 6.73179 3.1198 6.63488C3.11061 6.59821 3.10202 6.56142 3.09427 6.52442C2.73958 4.87125 2.29521 3.31408 1.9242 1.73139C1.83886 1.37431 1.75527 1.01664 1.67357 0.658786Z" fill="var(--stroke-0, #3B1B1B)"/>
</svg>
