<svg preserveAspectRatio="none" width="100%" height="100%" overflow="visible" style="display: block;" viewBox="0 0 21.8781 18.4938" fill="none" xmlns="http://www.w3.org/2000/svg">
<path id="Vector 116" d="M8.62852 4.39476C8.67749 4.59063 8.80226 4.75902 8.97537 4.86289C9.14849 4.96676 9.35579 4.99761 9.55165 4.94864C9.74751 4.89968 9.9159 4.77491 10.0198 4.60179C10.1236 4.42868 10.1545 4.22138 10.1055 4.02552C10.1055 4.02552 10.1055 4.02552 10.1055 4.02552C9.8784 3.10954 9.44045 2.20155 8.75495 1.47927C8.16746 0.853434 7.40599 0.392769 6.60934 0.134692C6.58612 0.127076 6.56282 0.11959 6.53942 0.112233C4.98463 -0.311253 3.82621 0.552927 2.95644 1.21923C2.06968 1.94261 1.33856 2.76625 0.667105 3.62266C0.651145 3.64314 0.635217 3.66363 0.619323 3.68414C-0.329694 4.80303 -0.0922097 6.61455 0.686171 7.59298C0.713895 7.6318 0.74213 7.67004 0.771079 7.70802C5.65724 13.2825 12.7255 9.97966 18.0378 10.2513C18.0918 10.2513 18.1437 10.2526 18.1962 10.2551C18.9191 10.2857 19.4981 10.5728 19.8312 11.0703C19.8463 11.0928 19.8604 11.116 19.8735 11.1399C20.0363 11.4243 20.0389 11.888 19.8528 12.3208L20.0264 12.0501C19.9972 12.0819 19.9678 12.1137 19.9381 12.1452C17.6379 14.5736 14.2847 15.9809 10.8812 16.6697C10.7726 16.6915 10.6638 16.7125 10.5546 16.7329C10.5544 16.7329 10.5543 16.7329 10.5541 16.733L10.6117 16.7246C9.93901 16.7613 9.39058 17.4654 8.88853 17.0466C8.87045 17.0241 8.83961 17.0074 8.8079 16.9984C8.77589 16.9894 8.74562 16.9888 8.71865 16.9985C8.69168 17.0082 8.66875 17.028 8.6498 17.0553C8.63114 17.0825 8.61801 17.115 8.61839 17.1438C8.61839 17.1438 8.61839 17.1438 8.61839 17.1438C8.61248 17.6185 9.13716 18.0687 9.56039 18.2435C10.0001 18.4413 10.4269 18.5234 10.8098 18.4844C10.8214 18.483 10.8559 18.4782 10.8674 18.476C10.8676 18.476 10.8677 18.476 10.8679 18.4759C10.9851 18.4556 11.1021 18.4344 11.2188 18.4126C14.8716 17.7117 18.5841 16.2942 21.3119 13.4356C21.3469 13.3984 21.3816 13.3609 21.4161 13.3233C21.462 13.2731 21.5633 13.1153 21.5897 13.0525C21.939 12.2254 22.033 11.1697 21.5186 10.2322C21.4772 10.1575 21.4325 10.0849 21.3843 10.0142C20.6858 8.95513 19.3898 8.42013 18.2798 8.3961C18.1976 8.39254 18.1177 8.39098 18.0359 8.39117C12.2602 8.33689 5.5859 10.8599 2.20022 6.61485C2.18237 6.59164 2.1651 6.56845 2.14827 6.5451C1.68583 5.89987 1.58472 5.24524 1.97769 4.70547C1.9918 4.68606 2.00596 4.66669 2.02015 4.64734C3.13328 3.12138 4.8522 1.23139 6.08343 1.56484C6.10065 1.57023 6.11778 1.57572 6.1348 1.58131C6.71955 1.77206 7.23926 2.09072 7.64878 2.52534C8.12469 3.02671 8.45106 3.68054 8.62852 4.39476Z" fill="var(--stroke-0, #3B1B1B)"/>
</svg>
