<svg preserveAspectRatio="none" width="100%" height="100%" overflow="visible" style="display: block;" viewBox="0 0 5.13702 4.43328" fill="none" xmlns="http://www.w3.org/2000/svg">
<path id="Vector 17" d="M3.32539 1.47795C3.20223 0.985302 3.07907 0.492651 2.9559 0C1.9706 0.246323 0.985302 0.492646 0 0.738969C0.123161 1.23162 0.246323 1.72427 0.369484 2.21692C0.383177 2.27169 0.397031 2.32711 0.41112 2.38316C0.450508 2.53952 0.490753 2.69881 0.538798 2.87334C0.563257 2.96152 0.588688 3.05149 0.624458 3.16266C0.642931 3.21927 0.662573 3.27891 0.696827 3.36604C0.714582 3.41024 0.734855 3.46105 0.775743 3.54312C0.796964 3.58483 0.823852 3.63714 0.874358 3.71532C0.951244 3.8075 0.939742 3.89272 1.34433 4.18624C1.44977 4.25665 1.70155 4.39017 2.00088 4.42257C2.26591 4.45768 2.57598 4.4031 2.7873 4.30796C2.99049 4.22089 3.14333 4.10125 3.23876 4.01028C3.40825 3.84669 3.47825 3.72152 3.52087 3.64945C3.60909 3.48881 3.62423 3.42776 3.64454 3.372C3.67864 3.26687 3.6856 3.22206 3.69257 3.18295C3.70442 3.10807 3.70265 3.07225 3.69934 3.03963C3.69161 2.97784 3.67205 2.94392 3.64982 2.92131C3.60095 2.87751 3.56034 2.89256 3.43828 3.01967C3.43322 3.02466 3.42819 3.02958 3.42321 3.03441C3.21907 3.2127 3.1714 3.16524 3.2589 3.16082C3.33988 3.14823 3.49906 3.14119 3.68179 3.1407C3.73343 3.14041 3.78759 3.1404 3.84405 3.14041C4.27504 3.14041 4.70603 3.14041 5.13702 3.14041C5.13702 2.27843 5.13702 1.41645 5.13702 0.554468C4.70603 0.554468 4.27504 0.554468 3.84405 0.554468C3.78759 0.55447 3.7288 0.554461 3.66753 0.554797C3.44777 0.557135 3.20277 0.557334 2.88505 0.602049C2.57793 0.6567 2.11903 0.718383 1.62102 1.17991C1.60806 1.19251 1.59516 1.2053 1.58233 1.21829C1.25725 1.55595 1.09575 1.84501 0.959694 2.07729C0.893935 2.19326 0.839603 2.30109 0.799825 2.38082C0.780371 2.41899 0.7632 2.45445 0.757505 2.45032C0.755815 2.4457 0.753232 2.43712 0.775454 2.3661C0.789843 2.32706 0.798491 2.2829 0.877456 2.13864C0.915933 2.07389 0.980061 1.9573 1.14359 1.79928C1.23562 1.71155 1.38446 1.59474 1.5838 1.5093C1.79102 1.41595 2.09643 1.36214 2.35686 1.3967C2.65102 1.42862 2.89606 1.55912 2.99728 1.6267C3.3849 1.90854 3.3628 1.97859 3.42828 2.05371C3.46851 2.1161 3.48562 2.15051 3.49811 2.17486C3.52154 2.22212 3.52617 2.23596 3.52963 2.24415C3.53504 2.25822 3.5293 2.24341 3.52356 2.2253C3.511 2.18657 3.49324 2.12577 3.4758 2.0625C3.44039 1.93409 3.40337 1.7887 3.36607 1.64037C3.35263 1.58691 3.33908 1.53272 3.32539 1.47795Z" fill="var(--stroke-0, black)"/>
</svg>
