<svg preserveAspectRatio="none" width="100%" height="100%" overflow="visible" style="display: block;" viewBox="0 0 11.3431 7.71197" fill="none" xmlns="http://www.w3.org/2000/svg">
<path id="Vector 100" d="M0.579998 6.00654C0.360792 6.08582 0.182057 6.24893 0.0831109 6.45999C-0.0158349 6.67104 -0.0268856 6.91276 0.0523898 7.13197C0.131665 7.35117 0.294773 7.52991 0.505831 7.62886C0.716889 7.7278 0.958609 7.73885 1.17781 7.65958C1.17781 7.65958 1.17781 7.65958 1.17781 7.65958C1.67311 7.47496 2.04518 7.22426 2.39548 6.94973C3.28561 6.23332 3.96241 5.32156 4.39632 4.27408C4.41879 4.21928 4.44064 4.16394 4.46184 4.10806C5.01392 2.68998 4.29864 1.25491 3.47231 0.421717C3.41306 0.361225 3.35241 0.302133 3.28231 0.23938C3.22007 0.186004 3.15567 0.131171 3.01186 0.0694305C2.88536 0.0137653 2.64133 -0.0356523 2.4063 0.0347862C1.92052 0.204631 1.85578 0.479123 1.79742 0.586901C1.70682 0.837491 1.72592 0.928473 1.72537 1.03245C1.73709 1.22391 1.77954 1.35117 1.83205 1.47419C1.93863 1.71549 2.10312 1.89979 2.2802 2.03133C2.38996 2.11289 2.5037 2.17373 2.61316 2.21883C4.4497 3.12189 7.06872 2.32832 8.05245 1.911C8.02006 1.90928 7.93901 1.9278 7.75113 1.84946C7.76685 1.87718 7.61736 1.7217 7.62789 1.68154C7.62643 1.64922 7.63216 1.76863 7.59694 1.90903C7.53094 2.20025 7.38234 2.58214 7.23453 2.96928C6.94317 3.75537 6.57448 4.622 6.57907 5.72302C6.58057 5.80002 6.58726 5.8785 6.60088 5.96003C6.72481 6.80025 7.53231 7.27339 8.08708 7.3222C8.13616 7.32892 8.27775 7.32604 8.32693 7.32009C8.35358 7.31679 8.38015 7.31321 8.40664 7.30934C9.13966 7.20011 9.82464 6.97586 10.4743 6.65592C10.6188 6.58428 10.7617 6.50715 10.9033 6.4232C10.9116 6.4183 10.9197 6.41317 10.9276 6.40781C10.9408 6.401 10.9769 6.37521 10.9895 6.36739C11.1055 6.27604 11.1682 6.15255 11.1683 6.02084C11.1622 5.95661 11.1666 5.88628 11.0598 5.84632C11.0294 5.83532 10.9873 5.83141 10.9003 5.81085C10.8185 5.79618 10.657 5.71335 10.6057 5.60875C10.5175 5.40527 10.6206 5.40054 10.6607 5.39836C10.7277 5.43286 10.7921 5.46595 10.8419 5.4903C10.8925 5.51463 10.9299 5.52812 10.9681 5.52734C11.0064 5.52656 11.0432 5.51156 11.0928 5.48518C11.1415 5.45882 11.2045 5.42313 11.27 5.38592C11.27 5.38592 11.27 5.38592 11.27 5.38592C11.3082 5.32744 11.4068 5.26056 11.2815 5.0124C11.2116 4.88587 11.021 4.79219 10.9107 4.77769C10.795 4.75693 10.7244 4.76065 10.6676 4.75913C10.4529 4.76061 10.3636 4.75784 10.2642 4.75919C10.0785 4.76157 9.96272 4.78162 9.8918 4.82274L9.95365 4.78232C9.94767 4.78531 9.9418 4.78851 9.93603 4.79194C9.83713 4.85058 9.73418 4.90659 9.62891 4.9594C9.15431 5.19693 8.63393 5.37261 8.12571 5.45353C8.10733 5.45644 8.08899 5.45936 8.07068 5.46227L8.31053 5.46015C8.28392 5.46098 8.26689 5.45519 8.29415 5.48333C8.32054 5.50654 8.37811 5.60546 8.38223 5.66172C8.38415 5.67331 8.3847 5.68219 8.3848 5.68805C8.37102 5.10842 8.62413 4.37928 8.92001 3.61306C9.06612 3.2219 9.23362 2.82584 9.35636 2.30516C9.41058 2.04025 9.47735 1.73297 9.38855 1.29261C9.31848 0.837351 8.86323 0.34177 8.49037 0.205205C8.23034 0.0944465 8.0622 0.108423 7.95008 0.111179C7.42415 0.173813 7.30444 0.271068 7.07114 0.343371C6.86489 0.418396 6.67487 0.487609 6.48644 0.549068C6.11122 0.672047 5.74587 0.763571 5.38474 0.81171C4.66149 0.910157 3.95942 0.82753 3.29931 0.553895C3.31047 0.55851 3.3299 0.567849 3.35419 0.585875C3.39348 0.61528 3.44304 0.664897 3.48013 0.748483C3.4983 0.793054 3.51688 0.836613 3.52388 0.941854C3.52149 1.00286 3.54236 1.05086 3.46751 1.26042C3.417 1.34892 3.36483 1.60293 2.90024 1.7665C2.67554 1.83388 2.44302 1.78615 2.32596 1.73447C2.19253 1.67714 2.13594 1.62788 2.08261 1.58234C2.11331 1.60976 2.14965 1.64477 2.18479 1.68073C2.74411 2.25498 3.03769 2.95989 2.8171 3.48696C2.80193 3.52742 2.78618 3.56754 2.76988 3.6073C2.45974 4.3647 1.9342 5.06807 1.30156 5.57378C1.0614 5.76562 0.793129 5.92987 0.579998 6.00654Z" fill="var(--stroke-0, #3B1B1B)"/>
</svg>
